<svg xmlns="http://www.w3.org/2000/svg" xmlns:xlink="http://www.w3.org/1999/xlink" width="150" zoomAndPan="magnify" viewBox="0 0 112.5 112.499997" height="150" preserveAspectRatio="xMidYMid meet" version="1.0"><defs><clipPath id="a1160e0751"><path d="M 0 0 L 112.003906 0 L 112.003906 112.003906 L 0 112.003906 Z M 0 0 " clip-rule="nonzero"/></clipPath><clipPath id="c9d153914f"><path d="M 0 0 L 112.003906 0 L 112.003906 112 L 0 112 Z M 0 0 " clip-rule="nonzero"/></clipPath><clipPath id="36375605fa"><path d="M 7.46875 7.46875 L 104.535156 7.46875 L 104.535156 104.535156 L 7.46875 104.535156 Z M 7.46875 7.46875 " clip-rule="nonzero"/></clipPath><clipPath id="fb3d8763b3"><path d="M 54 7.46875 L 59 7.46875 L 59 104.535156 L 54 104.535156 Z M 54 7.46875 " clip-rule="nonzero"/></clipPath><clipPath id="c2122e2bfe"><path d="M 7.46875 54 L 104.535156 54 L 104.535156 59 L 7.46875 59 Z M 7.46875 54 " clip-rule="nonzero"/></clipPath><clipPath id="d6f596849f"><path d="M 7.46875 7.46875 L 104.535156 7.46875 L 104.535156 104.535156 L 7.46875 104.535156 Z M 7.46875 7.46875 " clip-rule="nonzero"/></clipPath></defs><g clip-path="url(#a1160e0751)"><path fill="#ffffff" d="M 0 0 L 112.003906 0 L 112.003906 112.003906 L 0 112.003906 Z M 0 0 " fill-opacity="1" fill-rule="nonzero"/></g><g clip-path="url(#c9d153914f)"><path fill="#ffffff" d="M 28.015625 -0.0117188 C 12.550781 -0.0117188 0.015625 12.523438 0.015625 27.988281 L 0.015625 83.988281 C 0.015625 99.453125 12.550781 111.988281 28.015625 111.988281 L 84.015625 111.988281 C 99.480469 111.988281 112.015625 99.453125 112.015625 83.988281 L 112.015625 27.988281 C 112.015625 12.523438 99.480469 -0.0117188 84.015625 -0.0117188 Z M 28.015625 -0.0117188 " fill-opacity="1" fill-rule="nonzero"/></g><path fill="#231f20" d="M 56.785156 39.683594 C 50.3125 39.621094 43.9375 38.808594 37.65625 37.242188 C 31.375 35.679688 25.359375 33.410156 19.609375 30.433594 C 19.363281 30.3125 19.148438 30.148438 18.96875 29.945312 C 18.785156 29.738281 18.648438 29.507812 18.5625 29.246094 C 18.472656 28.988281 18.4375 28.71875 18.453125 28.445312 C 18.46875 28.171875 18.539062 27.910156 18.660156 27.664062 C 18.789062 27.425781 18.957031 27.21875 19.164062 27.042969 C 19.371094 26.871094 19.605469 26.738281 19.863281 26.65625 C 20.121094 26.570312 20.382812 26.539062 20.65625 26.554688 C 20.925781 26.574219 21.183594 26.640625 21.429688 26.757812 C 24.152344 28.195312 26.957031 29.464844 29.835938 30.5625 C 32.714844 31.660156 35.652344 32.578125 38.644531 33.320312 C 41.632812 34.0625 44.660156 34.621094 47.71875 34.992188 C 50.777344 35.367188 53.847656 35.554688 56.929688 35.554688 C 60.011719 35.554688 63.082031 35.367188 66.140625 34.992188 C 69.203125 34.621094 72.226562 34.0625 75.21875 33.320312 C 78.210938 32.578125 81.144531 31.660156 84.023438 30.5625 C 86.90625 29.464844 89.707031 28.195312 92.433594 26.757812 C 92.675781 26.640625 92.933594 26.574219 93.207031 26.554688 C 93.476562 26.539062 93.742188 26.570312 94 26.65625 C 94.257812 26.738281 94.488281 26.871094 94.695312 27.042969 C 94.90625 27.21875 95.074219 27.425781 95.199219 27.664062 C 95.320312 27.910156 95.390625 28.171875 95.40625 28.445312 C 95.425781 28.71875 95.390625 28.988281 95.300781 29.246094 C 95.210938 29.507812 95.074219 29.738281 94.894531 29.945312 C 94.710938 30.148438 94.496094 30.3125 94.25 30.433594 C 88.457031 33.429688 82.394531 35.707031 76.066406 37.273438 C 69.734375 38.835938 63.308594 39.640625 56.785156 39.683594 Z M 56.785156 39.683594 " fill-opacity="1" fill-rule="nonzero"/><g clip-path="url(#36375605fa)"><path fill="#231f20" d="M 56.207031 104.785156 C 54.617188 104.785156 53.03125 104.707031 51.445312 104.550781 C 49.863281 104.394531 48.292969 104.160156 46.730469 103.851562 C 45.171875 103.539062 43.628906 103.152344 42.105469 102.691406 C 40.585938 102.230469 39.089844 101.695312 37.617188 101.085938 C 36.148438 100.476562 34.710938 99.796875 33.308594 99.046875 C 31.90625 98.296875 30.542969 97.480469 29.21875 96.597656 C 27.898438 95.710938 26.621094 94.765625 25.390625 93.757812 C 24.160156 92.746094 22.984375 91.679688 21.859375 90.554688 C 20.734375 89.429688 19.667969 88.253906 18.65625 87.023438 C 17.648438 85.792969 16.703125 84.515625 15.820312 83.195312 C 14.933594 81.871094 14.117188 80.507812 13.367188 79.105469 C 12.617188 77.703125 11.9375 76.265625 11.328125 74.796875 C 10.722656 73.328125 10.183594 71.832031 9.722656 70.308594 C 9.261719 68.785156 8.875 67.246094 8.566406 65.683594 C 8.253906 64.125 8.023438 62.550781 7.867188 60.96875 C 7.710938 59.386719 7.632812 57.796875 7.632812 56.207031 C 7.632812 54.617188 7.710938 53.03125 7.867188 51.445312 C 8.023438 49.863281 8.253906 48.292969 8.566406 46.730469 C 8.875 45.171875 9.261719 43.628906 9.722656 42.105469 C 10.183594 40.585938 10.722656 39.089844 11.328125 37.617188 C 11.9375 36.148438 12.617188 34.710938 13.367188 33.308594 C 14.117188 31.90625 14.933594 30.542969 15.820312 29.21875 C 16.703125 27.898438 17.648438 26.621094 18.65625 25.390625 C 19.667969 24.160156 20.734375 22.984375 21.859375 21.859375 C 22.984375 20.734375 24.160156 19.667969 25.390625 18.65625 C 26.621094 17.648438 27.898438 16.703125 29.21875 15.820312 C 30.542969 14.933594 31.90625 14.117188 33.308594 13.367188 C 34.710938 12.617188 36.148438 11.9375 37.617188 11.328125 C 39.089844 10.722656 40.585938 10.183594 42.105469 9.722656 C 43.628906 9.261719 45.171875 8.875 46.730469 8.566406 C 48.292969 8.253906 49.863281 8.023438 51.445312 7.867188 C 53.03125 7.710938 54.617188 7.632812 56.207031 7.632812 C 57.796875 7.632812 59.386719 7.710938 60.96875 7.867188 C 62.550781 8.023438 64.125 8.253906 65.683594 8.566406 C 67.246094 8.875 68.785156 9.261719 70.308594 9.722656 C 71.832031 10.183594 73.328125 10.722656 74.796875 11.328125 C 76.265625 11.9375 77.703125 12.617188 79.105469 13.367188 C 80.507812 14.117188 81.871094 14.933594 83.195312 15.820312 C 84.515625 16.703125 85.792969 17.648438 87.023438 18.65625 C 88.253906 19.667969 89.429688 20.734375 90.554688 21.859375 C 91.679688 22.984375 92.746094 24.160156 93.757812 25.390625 C 94.765625 26.621094 95.714844 27.898438 96.597656 29.21875 C 97.480469 30.542969 98.296875 31.90625 99.046875 33.308594 C 99.796875 34.710938 100.476562 36.148438 101.085938 37.617188 C 101.695312 39.089844 102.230469 40.585938 102.691406 42.105469 C 103.152344 43.628906 103.539062 45.171875 103.851562 46.730469 C 104.160156 48.292969 104.394531 49.863281 104.550781 51.445312 C 104.707031 53.03125 104.785156 54.617188 104.785156 56.207031 C 104.792969 61.304688 104.007812 66.273438 102.429688 71.117188 C 102.34375 71.394531 102.210938 71.640625 102.027344 71.863281 C 101.84375 72.082031 101.625 72.261719 101.371094 72.394531 C 101.117188 72.527344 100.847656 72.609375 100.5625 72.632812 C 100.277344 72.660156 99.996094 72.632812 99.722656 72.546875 C 99.449219 72.460938 99.199219 72.328125 98.980469 72.144531 C 98.757812 71.960938 98.582031 71.742188 98.449219 71.488281 C 98.316406 71.234375 98.234375 70.964844 98.210938 70.679688 C 98.183594 70.390625 98.210938 70.113281 98.296875 69.839844 C 98.773438 68.359375 99.171875 66.859375 99.492188 65.339844 C 99.8125 63.820312 100.050781 62.285156 100.207031 60.742188 C 100.367188 59.195312 100.445312 57.644531 100.441406 56.09375 C 100.4375 54.539062 100.351562 52.988281 100.183594 51.445312 C 100.015625 49.902344 99.769531 48.367188 99.445312 46.851562 C 99.117188 45.332031 98.710938 43.832031 98.226562 42.359375 C 97.742188 40.882812 97.183594 39.433594 96.546875 38.015625 C 95.910156 36.601562 95.203125 35.21875 94.421875 33.875 C 93.640625 32.53125 92.792969 31.234375 91.875 29.980469 C 90.960938 28.726562 89.980469 27.523438 88.9375 26.371094 C 87.894531 25.21875 86.792969 24.125 85.636719 23.089844 C 84.476562 22.054688 83.269531 21.082031 82.007812 20.171875 C 80.75 19.261719 79.445312 18.421875 78.097656 17.648438 C 76.75 16.875 75.367188 16.175781 73.945312 15.550781 C 72.523438 14.921875 71.074219 14.371094 69.59375 13.894531 C 68.117188 13.417969 66.617188 13.023438 65.09375 12.703125 C 63.574219 12.386719 62.042969 12.148438 60.496094 11.992188 C 58.949219 11.835938 57.402344 11.757812 55.847656 11.761719 C 54.292969 11.769531 52.746094 11.855469 51.199219 12.023438 C 49.65625 12.191406 48.125 12.4375 46.605469 12.765625 C 45.085938 13.09375 43.589844 13.5 42.113281 13.988281 C 40.636719 14.472656 39.191406 15.03125 37.773438 15.667969 C 36.359375 16.304688 34.976562 17.015625 33.636719 17.796875 C 32.292969 18.578125 30.996094 19.429688 29.742188 20.347656 C 28.488281 21.265625 27.285156 22.246094 26.132812 23.289062 C 24.984375 24.332031 23.890625 25.433594 22.855469 26.589844 C 21.820312 27.75 20.847656 28.960938 19.941406 30.21875 C 19.03125 31.480469 18.191406 32.785156 17.417969 34.132812 C 16.648438 35.480469 15.949219 36.867188 15.324219 38.289062 C 14.695312 39.710938 14.144531 41.160156 13.671875 42.640625 C 13.199219 44.117188 12.800781 45.617188 12.484375 47.140625 C 12.167969 48.660156 11.929688 50.195312 11.773438 51.738281 C 11.617188 53.285156 11.542969 54.835938 11.550781 56.386719 C 11.554688 57.941406 11.644531 59.492188 11.8125 61.035156 C 11.980469 62.578125 12.230469 64.109375 12.558594 65.628906 C 12.890625 67.148438 13.296875 68.644531 13.785156 70.121094 C 14.269531 71.59375 14.832031 73.042969 15.46875 74.457031 C 16.109375 75.875 16.816406 77.253906 17.601562 78.597656 C 18.382812 79.9375 19.234375 81.234375 20.152344 82.488281 C 21.070312 83.742188 22.050781 84.941406 23.097656 86.09375 C 24.140625 87.242188 25.242188 88.335938 26.402344 89.367188 C 27.5625 90.402344 28.773438 91.375 30.03125 92.28125 C 31.292969 93.191406 32.597656 94.027344 33.949219 94.800781 C 35.296875 95.570312 36.683594 96.269531 38.105469 96.894531 C 39.527344 97.519531 40.976562 98.066406 42.457031 98.542969 C 43.9375 99.015625 45.4375 99.410156 46.957031 99.726562 C 48.480469 100.039062 50.011719 100.277344 51.558594 100.429688 C 53.105469 100.585938 54.652344 100.660156 56.207031 100.652344 C 58.339844 100.644531 60.457031 100.492188 62.570312 100.199219 C 62.839844 100.164062 63.105469 100.179688 63.371094 100.246094 C 63.632812 100.3125 63.875 100.429688 64.097656 100.589844 C 64.316406 100.753906 64.496094 100.949219 64.640625 101.179688 C 64.78125 101.414062 64.878906 101.664062 64.921875 101.933594 C 64.953125 102.207031 64.933594 102.472656 64.859375 102.738281 C 64.785156 103.003906 64.667969 103.246094 64.503906 103.464844 C 64.339844 103.683594 64.136719 103.863281 63.902344 104.003906 C 63.667969 104.148438 63.417969 104.242188 63.148438 104.289062 C 60.847656 104.617188 58.53125 104.785156 56.207031 104.785156 Z M 56.207031 104.785156 " fill-opacity="1" fill-rule="nonzero"/></g><g clip-path="url(#fb3d8763b3)"><path fill="#231f20" d="M 56.207031 104.785156 C 55.933594 104.785156 55.671875 104.730469 55.417969 104.625 C 55.164062 104.519531 54.941406 104.371094 54.746094 104.179688 C 54.554688 103.984375 54.40625 103.761719 54.300781 103.507812 C 54.195312 103.253906 54.140625 102.992188 54.140625 102.71875 L 54.140625 9.699219 C 54.140625 9.421875 54.195312 9.160156 54.300781 8.90625 C 54.40625 8.652344 54.554688 8.429688 54.746094 8.238281 C 54.941406 8.042969 55.164062 7.894531 55.417969 7.789062 C 55.671875 7.683594 55.933594 7.632812 56.207031 7.632812 C 56.480469 7.632812 56.746094 7.683594 56.996094 7.789062 C 57.25 7.894531 57.472656 8.042969 57.667969 8.238281 C 57.863281 8.429688 58.011719 8.652344 58.117188 8.90625 C 58.21875 9.160156 58.273438 9.421875 58.273438 9.699219 L 58.273438 102.71875 C 58.273438 102.992188 58.21875 103.253906 58.117188 103.507812 C 58.011719 103.761719 57.863281 103.984375 57.667969 104.179688 C 57.472656 104.371094 57.25 104.519531 56.996094 104.625 C 56.746094 104.730469 56.480469 104.785156 56.207031 104.785156 Z M 56.207031 104.785156 " fill-opacity="1" fill-rule="nonzero"/></g><g clip-path="url(#c2122e2bfe)"><path fill="#231f20" d="M 102.71875 58.273438 L 9.699219 58.273438 C 9.421875 58.273438 9.160156 58.21875 8.90625 58.117188 C 8.652344 58.011719 8.429688 57.863281 8.238281 57.667969 C 8.042969 57.472656 7.894531 57.25 7.789062 56.996094 C 7.683594 56.746094 7.632812 56.480469 7.632812 56.207031 C 7.632812 55.933594 7.683594 55.671875 7.789062 55.417969 C 7.894531 55.164062 8.042969 54.941406 8.238281 54.746094 C 8.429688 54.554688 8.652344 54.40625 8.90625 54.300781 C 9.160156 54.195312 9.421875 54.140625 9.699219 54.140625 L 102.71875 54.140625 C 102.992188 54.140625 103.253906 54.195312 103.507812 54.300781 C 103.761719 54.40625 103.984375 54.554688 104.179688 54.746094 C 104.371094 54.941406 104.519531 55.164062 104.625 55.417969 C 104.730469 55.671875 104.785156 55.933594 104.785156 56.207031 C 104.785156 56.480469 104.730469 56.746094 104.625 56.996094 C 104.519531 57.25 104.371094 57.472656 104.179688 57.667969 C 103.984375 57.863281 103.761719 58.011719 103.507812 58.117188 C 103.253906 58.21875 102.992188 58.273438 102.71875 58.273438 Z M 102.71875 58.273438 " fill-opacity="1" fill-rule="nonzero"/></g><g clip-path="url(#d6f596849f)"><path fill="#231f20" d="M 56.207031 104.785156 C 54.617188 104.785156 53.03125 104.707031 51.445312 104.550781 C 49.863281 104.394531 48.292969 104.160156 46.730469 103.851562 C 45.171875 103.539062 43.628906 103.152344 42.105469 102.691406 C 40.585938 102.230469 39.089844 101.695312 37.617188 101.085938 C 36.148438 100.476562 34.710938 99.796875 33.308594 99.046875 C 31.90625 98.296875 30.542969 97.480469 29.21875 96.597656 C 27.898438 95.710938 26.621094 94.765625 25.390625 93.757812 C 24.160156 92.746094 22.984375 91.679688 21.859375 90.554688 C 20.734375 89.429688 19.667969 88.253906 18.65625 87.023438 C 17.648438 85.792969 16.703125 84.515625 15.820312 83.195312 C 14.933594 81.871094 14.117188 80.507812 13.367188 79.105469 C 12.617188 77.703125 11.9375 76.265625 11.328125 74.796875 C 10.722656 73.328125 10.183594 71.832031 9.722656 70.308594 C 9.261719 68.785156 8.875 67.246094 8.566406 65.683594 C 8.253906 64.125 8.023438 62.550781 7.867188 60.96875 C 7.710938 59.386719 7.632812 57.796875 7.632812 56.207031 C 7.632812 54.617188 7.710938 53.03125 7.867188 51.445312 C 8.023438 49.863281 8.253906 48.292969 8.566406 46.730469 C 8.875 45.171875 9.261719 43.628906 9.722656 42.105469 C 10.183594 40.585938 10.722656 39.089844 11.328125 37.617188 C 11.9375 36.148438 12.617188 34.710938 13.367188 33.308594 C 14.117188 31.90625 14.933594 30.542969 15.820312 29.21875 C 16.703125 27.898438 17.648438 26.621094 18.65625 25.390625 C 19.667969 24.160156 20.734375 22.984375 21.859375 21.859375 C 22.984375 20.734375 24.160156 19.667969 25.390625 18.65625 C 26.621094 17.648438 27.898438 16.703125 29.21875 15.820312 C 30.542969 14.933594 31.90625 14.117188 33.308594 13.367188 C 34.710938 12.617188 36.148438 11.9375 37.617188 11.328125 C 39.089844 10.722656 40.585938 10.183594 42.105469 9.722656 C 43.628906 9.261719 45.171875 8.875 46.730469 8.566406 C 48.292969 8.253906 49.863281 8.023438 51.445312 7.867188 C 53.03125 7.710938 54.617188 7.632812 56.207031 7.632812 C 57.796875 7.632812 59.386719 7.710938 60.96875 7.867188 C 62.550781 8.023438 64.125 8.253906 65.683594 8.566406 C 67.246094 8.875 68.785156 9.261719 70.308594 9.722656 C 71.832031 10.183594 73.328125 10.722656 74.796875 11.328125 C 76.265625 11.9375 77.703125 12.617188 79.105469 13.367188 C 80.507812 14.117188 81.871094 14.933594 83.195312 15.820312 C 84.515625 16.703125 85.792969 17.648438 87.023438 18.65625 C 88.253906 19.667969 89.429688 20.734375 90.554688 21.859375 C 91.679688 22.984375 92.746094 24.160156 93.757812 25.390625 C 94.765625 26.621094 95.714844 27.898438 96.597656 29.21875 C 97.480469 30.542969 98.296875 31.90625 99.046875 33.308594 C 99.796875 34.710938 100.476562 36.148438 101.085938 37.617188 C 101.695312 39.089844 102.230469 40.585938 102.691406 42.105469 C 103.152344 43.628906 103.539062 45.171875 103.851562 46.730469 C 104.160156 48.292969 104.394531 49.863281 104.550781 51.445312 C 104.707031 53.03125 104.785156 54.617188 104.785156 56.207031 C 104.78125 57.796875 104.699219 59.382812 104.542969 60.964844 C 104.382812 62.546875 104.148438 64.121094 103.835938 65.679688 C 103.523438 67.238281 103.136719 68.777344 102.671875 70.300781 C 102.210938 71.820312 101.671875 73.316406 101.0625 74.785156 C 100.453125 76.253906 99.773438 77.6875 99.023438 79.089844 C 98.273438 80.492188 97.457031 81.851562 96.570312 83.175781 C 95.6875 84.496094 94.742188 85.773438 93.730469 87 C 92.722656 88.230469 91.65625 89.40625 90.53125 90.53125 C 89.40625 91.65625 88.230469 92.722656 87 93.730469 C 85.773438 94.742188 84.496094 95.6875 83.175781 96.570312 C 81.851562 97.457031 80.492188 98.273438 79.089844 99.023438 C 77.6875 99.773438 76.253906 100.453125 74.785156 101.0625 C 73.316406 101.671875 71.820312 102.210938 70.300781 102.671875 C 68.777344 103.136719 67.238281 103.523438 65.679688 103.835938 C 64.121094 104.148438 62.546875 104.382812 60.964844 104.542969 C 59.382812 104.699219 57.796875 104.78125 56.207031 104.785156 Z M 56.207031 11.761719 C 54.753906 11.761719 53.300781 11.832031 51.851562 11.976562 C 50.402344 12.121094 48.964844 12.332031 47.535156 12.617188 C 46.109375 12.902344 44.699219 13.253906 43.304688 13.675781 C 41.914062 14.097656 40.542969 14.589844 39.199219 15.144531 C 37.855469 15.703125 36.539062 16.324219 35.257812 17.011719 C 33.972656 17.695312 32.726562 18.445312 31.515625 19.253906 C 30.304688 20.0625 29.136719 20.925781 28.011719 21.851562 C 26.886719 22.773438 25.808594 23.75 24.78125 24.78125 C 23.75 25.808594 22.773438 26.886719 21.851562 28.011719 C 20.925781 29.136719 20.0625 30.304688 19.253906 31.515625 C 18.445312 32.726562 17.695312 33.972656 17.011719 35.257812 C 16.324219 36.539062 15.703125 37.855469 15.144531 39.199219 C 14.589844 40.542969 14.097656 41.914062 13.675781 43.304688 C 13.253906 44.699219 12.902344 46.109375 12.617188 47.535156 C 12.332031 48.964844 12.121094 50.402344 11.976562 51.851562 C 11.832031 53.300781 11.761719 54.753906 11.761719 56.207031 C 11.761719 57.664062 11.832031 59.117188 11.976562 60.5625 C 12.121094 62.011719 12.332031 63.449219 12.617188 64.878906 C 12.902344 66.304688 13.253906 67.714844 13.675781 69.109375 C 14.097656 70.503906 14.589844 71.871094 15.144531 73.214844 C 15.703125 74.5625 16.324219 75.875 17.011719 77.160156 C 17.695312 78.441406 18.445312 79.691406 19.253906 80.898438 C 20.0625 82.109375 20.925781 83.277344 21.851562 84.402344 C 22.773438 85.527344 23.75 86.605469 24.78125 87.636719 C 25.808594 88.664062 26.886719 89.640625 28.011719 90.5625 C 29.136719 91.488281 30.304688 92.355469 31.515625 93.164062 C 32.726562 93.972656 33.972656 94.71875 35.257812 95.40625 C 36.539062 96.089844 37.855469 96.710938 39.199219 97.269531 C 40.542969 97.828125 41.914062 98.316406 43.304688 98.738281 C 44.699219 99.160156 46.109375 99.515625 47.535156 99.796875 C 48.964844 100.082031 50.402344 100.296875 51.851562 100.4375 C 53.300781 100.582031 54.753906 100.652344 56.207031 100.652344 C 57.664062 100.652344 59.117188 100.582031 60.5625 100.4375 C 62.011719 100.296875 63.449219 100.082031 64.878906 99.796875 C 66.304688 99.515625 67.714844 99.160156 69.109375 98.738281 C 70.503906 98.316406 71.871094 97.828125 73.214844 97.269531 C 74.5625 96.710938 75.875 96.089844 77.160156 95.40625 C 78.441406 94.71875 79.691406 93.972656 80.898438 93.164062 C 82.109375 92.355469 83.277344 91.488281 84.402344 90.5625 C 85.527344 89.640625 86.605469 88.664062 87.636719 87.636719 C 88.664062 86.605469 89.640625 85.527344 90.5625 84.402344 C 91.488281 83.277344 92.355469 82.109375 93.164062 80.898438 C 93.972656 79.691406 94.71875 78.441406 95.40625 77.160156 C 96.089844 75.875 96.710938 74.5625 97.269531 73.214844 C 97.828125 71.871094 98.316406 70.503906 98.738281 69.109375 C 99.160156 67.714844 99.515625 66.304688 99.796875 64.878906 C 100.082031 63.449219 100.296875 62.011719 100.4375 60.5625 C 100.582031 59.117188 100.652344 57.664062 100.652344 56.207031 C 100.648438 54.753906 100.574219 53.300781 100.429688 51.855469 C 100.285156 50.40625 100.070312 48.96875 99.785156 47.542969 C 99.5 46.117188 99.144531 44.707031 98.71875 43.316406 C 98.296875 41.921875 97.804688 40.554688 97.246094 39.210938 C 96.6875 37.867188 96.066406 36.554688 95.378906 35.273438 C 94.695312 33.988281 93.945312 32.742188 93.136719 31.535156 C 92.328125 30.324219 91.460938 29.160156 90.539062 28.035156 C 89.617188 26.910156 88.640625 25.832031 87.609375 24.804688 C 86.582031 23.777344 85.503906 22.800781 84.382812 21.875 C 83.257812 20.953125 82.089844 20.085938 80.878906 19.277344 C 79.671875 18.46875 78.425781 17.722656 77.140625 17.035156 C 75.859375 16.347656 74.546875 15.726562 73.203125 15.167969 C 71.859375 14.609375 70.492188 14.117188 69.101562 13.695312 C 67.707031 13.269531 66.300781 12.917969 64.871094 12.628906 C 63.445312 12.34375 62.007812 12.128906 60.5625 11.984375 C 59.113281 11.839844 57.664062 11.765625 56.207031 11.761719 Z M 56.207031 11.761719 " fill-opacity="1" fill-rule="nonzero"/></g><path fill="#231f20" d="M 20.394531 86.402344 C 20 86.40625 19.632812 86.304688 19.296875 86.097656 C 18.960938 85.886719 18.707031 85.605469 18.535156 85.246094 C 18.421875 85 18.355469 84.738281 18.339844 84.464844 C 18.328125 84.195312 18.363281 83.929688 18.453125 83.671875 C 18.542969 83.410156 18.675781 83.179688 18.855469 82.972656 C 19.03125 82.765625 19.242188 82.601562 19.488281 82.476562 C 22.351562 80.96875 25.300781 79.636719 28.328125 78.484375 C 31.355469 77.332031 34.441406 76.367188 37.585938 75.589844 C 40.730469 74.8125 43.910156 74.226562 47.125 73.835938 C 50.339844 73.441406 53.566406 73.246094 56.804688 73.246094 C 60.046875 73.246094 63.273438 73.441406 66.488281 73.835938 C 69.703125 74.226562 72.882812 74.8125 76.027344 75.589844 C 79.171875 76.367188 82.257812 77.332031 85.285156 78.484375 C 88.3125 79.636719 91.261719 80.96875 94.125 82.476562 C 94.371094 82.597656 94.585938 82.761719 94.769531 82.96875 C 94.949219 83.171875 95.085938 83.40625 95.175781 83.664062 C 95.261719 83.925781 95.300781 84.191406 95.28125 84.464844 C 95.265625 84.738281 95.195312 85 95.078125 85.246094 C 94.957031 85.492188 94.792969 85.707031 94.585938 85.886719 C 94.382812 86.070312 94.148438 86.203125 93.890625 86.292969 C 93.628906 86.382812 93.363281 86.417969 93.089844 86.402344 C 92.816406 86.386719 92.554688 86.316406 92.308594 86.195312 C 89.582031 84.757812 86.78125 83.488281 83.902344 82.390625 C 81.023438 81.292969 78.085938 80.371094 75.09375 79.632812 C 72.101562 78.890625 69.078125 78.332031 66.019531 77.960938 C 62.960938 77.585938 59.886719 77.398438 56.804688 77.398438 C 53.726562 77.398438 50.652344 77.585938 47.59375 77.960938 C 44.535156 78.332031 41.511719 78.890625 38.519531 79.632812 C 35.527344 80.371094 32.589844 81.292969 29.710938 82.390625 C 26.832031 83.488281 24.03125 84.757812 21.304688 86.195312 C 21.015625 86.324219 20.710938 86.390625 20.394531 86.402344 Z M 20.394531 86.402344 " fill-opacity="1" fill-rule="nonzero"/><path fill="#231f20" d="M 69.550781 102.429688 C 69.226562 102.441406 68.925781 102.371094 68.640625 102.222656 C 68.394531 102.101562 68.179688 101.941406 68 101.734375 C 67.816406 101.527344 67.683594 101.292969 67.597656 101.03125 C 67.511719 100.769531 67.480469 100.503906 67.503906 100.230469 C 67.527344 99.957031 67.605469 99.699219 67.730469 99.453125 C 81.652344 72.027344 81.652344 42.949219 67.730469 12.960938 C 67.609375 12.722656 67.535156 12.46875 67.511719 12.203125 C 67.492188 11.933594 67.519531 11.671875 67.601562 11.417969 C 67.683594 11.164062 67.808594 10.933594 67.984375 10.726562 C 68.15625 10.523438 68.359375 10.359375 68.597656 10.234375 C 68.847656 10.113281 69.109375 10.046875 69.386719 10.035156 C 69.664062 10.019531 69.929688 10.058594 70.191406 10.152344 C 70.449219 10.246094 70.683594 10.382812 70.886719 10.570312 C 71.089844 10.757812 71.25 10.976562 71.367188 11.226562 C 85.863281 42.410156 85.863281 72.730469 71.367188 101.3125 C 71.191406 101.652344 70.941406 101.921875 70.613281 102.125 C 70.285156 102.324219 69.933594 102.425781 69.550781 102.429688 Z M 69.550781 102.429688 " fill-opacity="1" fill-rule="nonzero"/><path fill="#231f20" d="M 42.867188 102.429688 C 42.476562 102.433594 42.113281 102.335938 41.777344 102.132812 C 41.445312 101.933594 41.1875 101.660156 41.007812 101.3125 C 26.46875 72.730469 26.46875 42.410156 40.964844 11.226562 C 41.082031 10.964844 41.246094 10.738281 41.453125 10.542969 C 41.664062 10.347656 41.90625 10.207031 42.175781 10.113281 C 42.445312 10.015625 42.722656 9.980469 43.007812 10.003906 C 43.292969 10.023438 43.5625 10.101562 43.816406 10.234375 C 44.066406 10.347656 44.28125 10.503906 44.46875 10.703125 C 44.652344 10.902344 44.792969 11.132812 44.886719 11.386719 C 44.980469 11.644531 45.019531 11.910156 45.007812 12.183594 C 44.992188 12.457031 44.925781 12.714844 44.808594 12.960938 C 30.847656 42.949219 30.847656 72.027344 44.808594 99.453125 C 44.933594 99.699219 45.011719 99.957031 45.035156 100.230469 C 45.058594 100.503906 45.027344 100.769531 44.941406 101.03125 C 44.855469 101.292969 44.722656 101.527344 44.539062 101.734375 C 44.359375 101.941406 44.144531 102.101562 43.898438 102.222656 C 43.574219 102.394531 43.230469 102.464844 42.867188 102.429688 Z M 42.867188 102.429688 " fill-opacity="1" fill-rule="nonzero"/></svg>