<svg xmlns="http://www.w3.org/2000/svg" xmlns:xlink="http://www.w3.org/1999/xlink" width="531" zoomAndPan="magnify" viewBox="0 0 398.25 305.25" height="407" preserveAspectRatio="xMidYMid meet" version="1.0"><defs><g/><clipPath id="71ee3e1b11"><path d="M 0.113281 0 L 397.386719 0 L 397.386719 304.5 L 0.113281 304.5 Z M 0.113281 0 " clip-rule="nonzero"/></clipPath></defs><g clip-path="url(#71ee3e1b11)"><path fill="#ffffff" d="M 0.113281 0 L 397.386719 0 L 397.386719 304.5 L 0.113281 304.5 Z M 0.113281 0 " fill-opacity="1" fill-rule="nonzero"/></g><g fill="#000000" fill-opacity="1"><g transform="translate(82.837, 195.740013)"><g><path d="M 22.59375 -64.65625 L 30.9375 -64.65625 C 30.164062 -67.351562 29.273438 -69.957031 28.265625 -72.46875 C 27.265625 -74.976562 26.109375 -77.546875 24.796875 -80.171875 C 23.554688 -80.097656 22.28125 -80.0625 20.96875 -80.0625 C 19.65625 -80.0625 17.492188 -80.019531 14.484375 -79.9375 C 14.171875 -81.332031 13.859375 -82.453125 13.546875 -83.296875 C 13.242188 -84.148438 12.664062 -85.3125 11.8125 -86.78125 C 18.925781 -86.78125 25.453125 -86.894531 31.390625 -87.125 C 37.335938 -87.351562 43.113281 -87.71875 48.71875 -88.21875 C 54.320312 -88.726562 60.097656 -89.367188 66.046875 -90.140625 C 73.535156 -91.140625 79.691406 -92.179688 84.515625 -93.265625 C 89.347656 -94.347656 93.304688 -95.546875 96.390625 -96.859375 L 101.5 -90.015625 C 100.71875 -89.941406 100.132812 -89.847656 99.75 -89.734375 C 99.363281 -89.617188 98.398438 -89.367188 96.859375 -88.984375 C 91.765625 -87.742188 85.71875 -86.546875 78.71875 -85.390625 C 71.726562 -84.234375 64.566406 -83.226562 57.234375 -82.375 C 58.617188 -79.207031 59.753906 -76.3125 60.640625 -73.6875 C 61.535156 -71.0625 62.445312 -68.050781 63.375 -64.65625 L 76.8125 -64.65625 C 79.132812 -68.507812 81.023438 -71.960938 82.484375 -75.015625 C 83.953125 -78.066406 85.304688 -81.484375 86.546875 -85.265625 L 94.078125 -82.609375 C 92.148438 -78.429688 90.46875 -75.007812 89.03125 -72.34375 C 87.601562 -69.6875 86.15625 -67.125 84.6875 -64.65625 L 94.546875 -64.65625 C 100.566406 -64.65625 104.96875 -64.804688 107.75 -65.109375 C 107.59375 -63.722656 107.472656 -62.332031 107.390625 -60.9375 C 107.316406 -59.550781 107.28125 -58.007812 107.28125 -56.3125 L 107.28125 -48.78125 C 107.28125 -47.46875 107.316406 -46.210938 107.390625 -45.015625 C 107.472656 -43.816406 107.628906 -42.675781 107.859375 -41.59375 L 99.984375 -41.59375 L 99.984375 -57.8125 L 16.109375 -57.8125 L 16.109375 -41.015625 L 8.21875 -41.015625 C 8.613281 -43.566406 8.8125 -46.304688 8.8125 -49.234375 L 8.8125 -56.546875 C 8.8125 -58.085938 8.769531 -59.53125 8.6875 -60.875 C 8.613281 -62.226562 8.5 -63.679688 8.34375 -65.234375 C 10.113281 -64.992188 12.0625 -64.835938 14.1875 -64.765625 C 16.3125 -64.691406 19.113281 -64.65625 22.59375 -64.65625 Z M 38.34375 -64.65625 L 56.1875 -64.65625 C 55.414062 -67.582031 54.507812 -70.492188 53.46875 -73.390625 C 52.425781 -76.285156 51.285156 -79.050781 50.046875 -81.6875 C 48.117188 -81.53125 46.304688 -81.390625 44.609375 -81.265625 C 42.910156 -81.148438 41.070312 -81.035156 39.09375 -80.921875 C 37.125 -80.804688 34.710938 -80.671875 31.859375 -80.515625 C 33.171875 -78.046875 34.328125 -75.515625 35.328125 -72.921875 C 36.335938 -70.335938 37.34375 -67.582031 38.34375 -64.65625 Z M 87.234375 -45.53125 L 92.109375 -40.09375 C 91.335938 -39.3125 90.679688 -38.648438 90.140625 -38.109375 C 89.597656 -37.578125 88.941406 -36.847656 88.171875 -35.921875 C 85.460938 -32.597656 82.890625 -29.660156 80.453125 -27.109375 C 78.023438 -24.554688 75.554688 -22.21875 73.046875 -20.09375 C 70.535156 -17.976562 67.738281 -15.835938 64.65625 -13.671875 C 68.976562 -11.203125 73.394531 -9.078125 77.90625 -7.296875 C 82.425781 -5.523438 87.332031 -4 92.625 -2.71875 C 97.914062 -1.445312 103.84375 -0.3125 110.40625 0.6875 C 108.863281 2.78125 107.476562 5.289062 106.25 8.21875 C 99.21875 6.988281 92.957031 5.597656 87.46875 4.046875 C 81.988281 2.503906 76.890625 0.65625 72.171875 -1.5 C 67.460938 -3.664062 62.710938 -6.296875 57.921875 -9.390625 C 53.140625 -6.523438 48.332031 -4.03125 43.5 -1.90625 C 38.675781 0.21875 33.617188 2.070312 28.328125 3.65625 C 23.035156 5.238281 17.1875 6.6875 10.78125 8 C 10.15625 6.445312 9.570312 5.1875 9.03125 4.21875 C 8.488281 3.257812 7.679688 2.082031 6.609375 0.6875 C 15.566406 -0.625 23.65625 -2.4375 30.875 -4.75 C 38.09375 -7.0625 45.023438 -10.113281 51.671875 -13.90625 C 48.660156 -16.375 46.09375 -18.648438 43.96875 -20.734375 C 41.84375 -22.816406 39.796875 -25.226562 37.828125 -27.96875 C 35.859375 -30.71875 33.5625 -34.253906 30.9375 -38.578125 C 29.082031 -38.503906 27.535156 -38.410156 26.296875 -38.296875 C 25.066406 -38.179688 23.753906 -38.046875 22.359375 -37.890625 L 22.359375 -45.65625 C 25.296875 -45.1875 29.160156 -44.953125 33.953125 -44.953125 L 77.046875 -44.953125 C 79.515625 -44.953125 81.519531 -44.988281 83.0625 -45.0625 C 84.613281 -45.144531 86.003906 -45.300781 87.234375 -45.53125 Z M 81.09375 -38.578125 L 38.8125 -38.578125 C 40.820312 -35.410156 42.734375 -32.648438 44.546875 -30.296875 C 46.359375 -27.941406 48.347656 -25.796875 50.515625 -23.859375 C 52.679688 -21.929688 55.226562 -19.882812 58.15625 -17.71875 C 61.40625 -19.882812 64.285156 -21.972656 66.796875 -23.984375 C 69.304688 -25.992188 71.695312 -28.15625 73.96875 -30.46875 C 76.25 -32.789062 78.625 -35.492188 81.09375 -38.578125 Z M 81.09375 -38.578125 "/></g></g></g><g fill="#000000" fill-opacity="1"><g transform="translate(198.687296, 195.740013)"><g><path d="M 25.375 -69.28125 L 25.375 -5.09375 C 25.375 -2.46875 25.410156 -0.0546875 25.484375 2.140625 C 25.566406 4.347656 25.722656 6.453125 25.953125 8.453125 L 17.609375 8.453125 C 17.835938 6.210938 18.007812 4.066406 18.125 2.015625 C 18.25 -0.0234375 18.3125 -2.515625 18.3125 -5.453125 L 18.3125 -44.140625 C 18.3125 -46.066406 18.3125 -47.6875 18.3125 -49 C 18.3125 -50.320312 18.347656 -51.65625 18.421875 -53 C 18.492188 -54.351562 18.570312 -56.070312 18.65625 -58.15625 C 17.570312 -55.914062 16.546875 -53.960938 15.578125 -52.296875 C 14.617188 -50.640625 13.554688 -48.960938 12.390625 -47.265625 C 11.234375 -45.566406 9.691406 -43.484375 7.765625 -41.015625 C 6.992188 -42.554688 6.351562 -43.675781 5.84375 -44.375 C 5.34375 -45.070312 4.4375 -46.078125 3.125 -47.390625 C 7.445312 -52.328125 11.171875 -57.441406 14.296875 -62.734375 C 17.429688 -68.023438 20.195312 -73.992188 22.59375 -80.640625 C 23.90625 -84.265625 24.890625 -87.234375 25.546875 -89.546875 C 26.203125 -91.867188 26.6875 -94.34375 27 -96.96875 L 34.875 -94.546875 C 34.488281 -93.535156 34.140625 -92.585938 33.828125 -91.703125 C 33.523438 -90.816406 33.140625 -89.597656 32.671875 -88.046875 C 31.742188 -84.960938 30.703125 -81.972656 29.546875 -79.078125 C 28.390625 -76.179688 27 -72.914062 25.375 -69.28125 Z M 99.875 -91.1875 L 99.875 -83.421875 C 98.476562 -83.578125 96.832031 -83.710938 94.9375 -83.828125 C 93.050781 -83.941406 90.832031 -84 88.28125 -84 L 52.375 -84 C 50.207031 -84 48.347656 -83.957031 46.796875 -83.875 C 45.253906 -83.800781 43.789062 -83.648438 42.40625 -83.421875 L 42.40625 -91.1875 C 43.945312 -90.945312 45.53125 -90.769531 47.15625 -90.65625 C 48.78125 -90.539062 50.632812 -90.484375 52.71875 -90.484375 L 88.046875 -90.484375 C 90.910156 -90.484375 93.25 -90.539062 95.0625 -90.65625 C 96.875 -90.769531 98.476562 -90.945312 99.875 -91.1875 Z M 99.875 -58.859375 L 99.875 -51.4375 C 98.476562 -51.675781 97.007812 -51.832031 95.46875 -51.90625 C 93.925781 -51.976562 92.070312 -52.015625 89.90625 -52.015625 L 51.4375 -52.015625 C 49.28125 -52.015625 47.5625 -51.976562 46.28125 -51.90625 C 45.007812 -51.832031 43.640625 -51.675781 42.171875 -51.4375 L 42.171875 -58.859375 C 43.484375 -58.628906 44.796875 -58.472656 46.109375 -58.390625 C 47.421875 -58.316406 49.195312 -58.28125 51.4375 -58.28125 L 89.796875 -58.28125 C 92.035156 -58.28125 93.960938 -58.316406 95.578125 -58.390625 C 97.203125 -58.472656 98.632812 -58.628906 99.875 -58.859375 Z M 99.875 -42.984375 L 99.875 -35.5625 C 98.40625 -35.800781 96.9375 -35.957031 95.46875 -36.03125 C 94 -36.101562 92.144531 -36.140625 89.90625 -36.140625 L 51.4375 -36.140625 C 49.28125 -36.140625 47.546875 -36.101562 46.234375 -36.03125 C 44.921875 -35.957031 43.566406 -35.84375 42.171875 -35.6875 L 42.171875 -42.984375 C 43.484375 -42.753906 44.816406 -42.597656 46.171875 -42.515625 C 47.523438 -42.441406 49.28125 -42.40625 51.4375 -42.40625 L 89.90625 -42.40625 C 92.21875 -42.40625 94.109375 -42.441406 95.578125 -42.515625 C 97.046875 -42.597656 98.476562 -42.753906 99.875 -42.984375 Z M 48.65625 2.3125 L 48.65625 8.453125 L 41.015625 8.453125 C 41.171875 7.066406 41.304688 5.484375 41.421875 3.703125 C 41.535156 1.929688 41.59375 -0.0351562 41.59375 -2.203125 L 41.59375 -15.984375 C 41.59375 -18.148438 41.550781 -20.160156 41.46875 -22.015625 C 41.394531 -23.867188 41.28125 -25.53125 41.125 -27 C 42.363281 -26.84375 43.789062 -26.722656 45.40625 -26.640625 C 47.03125 -26.566406 48.8125 -26.53125 50.75 -26.53125 L 88.984375 -26.53125 C 91.523438 -26.53125 93.664062 -26.566406 95.40625 -26.640625 C 97.144531 -26.722656 98.632812 -26.84375 99.875 -27 C 99.71875 -25.375 99.597656 -23.710938 99.515625 -22.015625 C 99.441406 -20.316406 99.40625 -18.304688 99.40625 -15.984375 L 99.40625 -2.203125 C 99.40625 -0.0351562 99.441406 1.835938 99.515625 3.421875 C 99.597656 5.003906 99.753906 6.679688 99.984375 8.453125 L 92.21875 8.453125 L 92.21875 2.3125 Z M 48.65625 -4.0625 L 92.21875 -4.0625 L 92.21875 -20.15625 L 48.65625 -20.15625 Z M 33.71875 -67.203125 L 33.71875 -75.1875 C 35.1875 -74.957031 36.691406 -74.785156 38.234375 -74.671875 C 39.773438 -74.554688 41.515625 -74.5 43.453125 -74.5 L 98.828125 -74.5 C 101.140625 -74.5 103.164062 -74.554688 104.90625 -74.671875 C 106.644531 -74.785156 108.328125 -74.957031 109.953125 -75.1875 L 109.953125 -67.203125 C 106.628906 -67.660156 102.882812 -67.890625 98.71875 -67.890625 L 43.453125 -67.890625 C 39.972656 -67.890625 36.726562 -67.660156 33.71875 -67.203125 Z M 33.71875 -67.203125 "/></g></g></g></svg>