<svg xmlns="http://www.w3.org/2000/svg" xmlns:xlink="http://www.w3.org/1999/xlink" width="82" zoomAndPan="magnify" viewBox="0 0 61.5 61.499996" height="82" preserveAspectRatio="xMidYMid meet" version="1.0"><defs><clipPath id="fc3d034749"><path d="M 0 0 L 61.003906 0 L 61.003906 61.003906 L 0 61.003906 Z M 0 0 " clip-rule="nonzero"/></clipPath><clipPath id="4187550f1f"><path d="M 48.953125 40.625 L 53.203125 40.625 L 53.203125 53.949219 L 48.953125 53.949219 Z M 48.953125 40.625 " clip-rule="nonzero"/></clipPath><clipPath id="10884037cb"><path d="M 0 0 L 61.003906 0 L 61.003906 61.003906 L 0 61.003906 Z M 0 0 " clip-rule="nonzero"/></clipPath><clipPath id="4e295c6d83"><path d="M 0 23.851562 L 61.003906 23.851562 L 61.003906 43.269531 L 0 43.269531 Z M 0 23.851562 " clip-rule="nonzero"/></clipPath><clipPath id="b3b0811d75"><path d="M -6.714844 23.851562 L 100.480469 23.851562 C 101.796875 23.851562 103.058594 24.375 103.988281 25.304688 C 104.921875 26.230469 105.445312 27.492188 105.445312 28.808594 L 105.445312 38.316406 C 105.445312 39.628906 104.921875 40.890625 103.988281 41.816406 C 103.058594 42.746094 101.796875 43.269531 100.480469 43.269531 L -6.714844 43.269531 C -8.03125 43.269531 -9.292969 42.746094 -10.222656 41.816406 C -11.152344 40.890625 -11.675781 39.628906 -11.675781 38.316406 L -11.675781 28.808594 C -11.675781 27.492188 -11.152344 26.230469 -10.222656 25.304688 C -9.292969 24.375 -8.03125 23.851562 -6.714844 23.851562 Z M -6.714844 23.851562 " clip-rule="nonzero"/></clipPath><clipPath id="5e2690f8ff"><path d="M 0 30 L 3.765625 30 L 3.765625 36.007812 L 0 36.007812 Z M 0 30 " clip-rule="nonzero"/></clipPath><clipPath id="fc9cb5c32b"><path d="M 56 52 L 61.003906 52 L 61.003906 59 L 56 59 Z M 56 52 " clip-rule="nonzero"/></clipPath></defs><g clip-path="url(#fc3d034749)"><path fill="#ffffff" d="M 0 0 L 61.003906 0 L 61.003906 61.003906 L 0 61.003906 Z M 0 0 " fill-opacity="1" fill-rule="nonzero"/></g><g clip-path="url(#4187550f1f)"><path fill="#aaa9a9" d="M 48.953125 40.625 L 53.203125 40.625 L 53.203125 53.941406 L 48.953125 53.941406 Z M 48.953125 40.625 " fill-opacity="1" fill-rule="nonzero"/></g><g clip-path="url(#10884037cb)"><rect x="-6.15" width="73.8" fill="#ffffff" y="-6.15" height="73.799995" fill-opacity="1"/></g><g clip-path="url(#4e295c6d83)"><g clip-path="url(#b3b0811d75)"><path fill="#1b8aff" d="M -11.675781 23.851562 L 105.429688 23.851562 L 105.429688 43.269531 L -11.675781 43.269531 Z M -11.675781 23.851562 " fill-opacity="1" fill-rule="nonzero"/></g></g><g clip-path="url(#5e2690f8ff)"><path fill="#ffffff" d="M -4.621094 31.863281 L -3.867188 32.617188 C -1.992188 30.746094 1.050781 30.746094 2.921875 32.617188 L 3.679688 31.863281 C 1.390625 29.578125 -2.328125 29.578125 -4.621094 31.863281 Z M -1.605469 34.878906 L -0.472656 36.007812 L 0.660156 34.878906 C 0.0390625 34.25 -0.976562 34.25 -1.605469 34.878906 Z M -3.113281 33.371094 L -2.359375 34.125 C -1.316406 33.085938 0.375 33.085938 1.414062 34.125 L 2.167969 33.371094 C 0.710938 31.917969 -1.652344 31.917969 -3.113281 33.371094 Z M -3.113281 33.371094 " fill-opacity="1" fill-rule="nonzero"/></g><path fill="#000000" d="M 2.867188 12.671875 C 2.914062 12.714844 2.941406 12.773438 2.941406 12.839844 C 2.941406 12.902344 2.914062 12.957031 2.867188 13.003906 C 2.816406 13.046875 2.761719 13.066406 2.699219 13.066406 L 1.011719 13.066406 C 0.941406 13.066406 0.882812 13.046875 0.835938 13.003906 C 0.792969 12.957031 0.773438 12.902344 0.773438 12.839844 C 0.773438 12.773438 0.792969 12.714844 0.835938 12.671875 C 0.882812 12.625 0.941406 12.601562 1.011719 12.601562 L 2.699219 12.601562 C 2.761719 12.601562 2.816406 12.625 2.867188 12.671875 Z M 2.867188 12.671875 " fill-opacity="1" fill-rule="nonzero"/><path fill="#000000" d="M 4.710938 12.457031 L 4.710938 14.648438 C 4.710938 14.726562 4.683594 14.792969 4.628906 14.855469 C 4.570312 14.914062 4.503906 14.9375 4.421875 14.9375 C 4.339844 14.9375 4.269531 14.914062 4.214844 14.855469 C 4.15625 14.792969 4.132812 14.726562 4.132812 14.648438 L 4.132812 10.054688 C 4.132812 9.941406 4.171875 9.84375 4.257812 9.765625 C 4.339844 9.683594 4.433594 9.640625 4.546875 9.640625 L 6.917969 9.640625 C 6.980469 9.640625 7.035156 9.667969 7.085938 9.714844 C 7.132812 9.765625 7.15625 9.820312 7.15625 9.878906 C 7.15625 9.941406 7.132812 10.003906 7.085938 10.054688 C 7.035156 10.105469 6.980469 10.128906 6.917969 10.128906 L 4.773438 10.128906 C 4.734375 10.128906 4.710938 10.148438 4.710938 10.179688 L 4.710938 11.867188 C 4.710938 11.90625 4.734375 11.929688 4.773438 11.929688 L 6.785156 11.929688 C 6.851562 11.929688 6.910156 11.953125 6.949219 12 C 6.992188 12.042969 7.011719 12.09375 7.011719 12.15625 C 7.011719 12.21875 6.992188 12.273438 6.949219 12.320312 C 6.910156 12.371094 6.851562 12.394531 6.785156 12.394531 L 4.773438 12.394531 C 4.734375 12.394531 4.710938 12.414062 4.710938 12.457031 Z M 4.710938 12.457031 " fill-opacity="1" fill-rule="nonzero"/><path fill="#000000" d="M 9.0625 9.777344 L 9.0625 10.003906 C 9.0625 10.085938 9.035156 10.15625 8.980469 10.210938 C 8.921875 10.269531 8.855469 10.292969 8.78125 10.292969 C 8.703125 10.292969 8.640625 10.269531 8.585938 10.210938 C 8.527344 10.15625 8.503906 10.085938 8.503906 10.003906 L 8.503906 9.777344 C 8.503906 9.703125 8.527344 9.636719 8.585938 9.582031 C 8.640625 9.527344 8.703125 9.496094 8.78125 9.496094 C 8.855469 9.496094 8.921875 9.527344 8.980469 9.582031 C 9.035156 9.636719 9.0625 9.703125 9.0625 9.777344 Z M 9.0625 11.441406 L 9.0625 14.660156 C 9.0625 14.738281 9.035156 14.800781 8.980469 14.855469 C 8.921875 14.914062 8.855469 14.9375 8.78125 14.9375 C 8.703125 14.9375 8.640625 14.914062 8.585938 14.855469 C 8.527344 14.800781 8.503906 14.738281 8.503906 14.660156 L 8.503906 11.441406 C 8.503906 11.367188 8.527344 11.304688 8.585938 11.246094 C 8.640625 11.191406 8.703125 11.164062 8.78125 11.164062 C 8.855469 11.164062 8.921875 11.191406 8.980469 11.246094 C 9.035156 11.304688 9.0625 11.367188 9.0625 11.441406 Z M 9.0625 11.441406 " fill-opacity="1" fill-rule="nonzero"/><path fill="#ffffff" d="M 13.480469 32.769531 L 13.480469 28.859375 L 14.34375 28.859375 L 15.015625 30.691406 C 15.058594 30.808594 15.09375 30.933594 15.128906 31.0625 C 15.171875 31.1875 15.214844 31.316406 15.253906 31.445312 L 15.277344 31.445312 C 15.316406 31.316406 15.351562 31.1875 15.390625 31.0625 C 15.429688 30.933594 15.472656 30.808594 15.515625 30.691406 L 16.167969 28.859375 L 17.039062 28.859375 L 17.039062 32.769531 L 16.320312 32.769531 L 16.320312 31.132812 C 16.320312 31.011719 16.324219 30.875 16.332031 30.722656 C 16.34375 30.570312 16.359375 30.417969 16.375 30.265625 C 16.394531 30.117188 16.40625 29.976562 16.414062 29.851562 L 16.394531 29.851562 L 16.074219 30.773438 L 15.472656 32.417969 L 15.027344 32.417969 L 14.414062 30.773438 L 14.105469 29.851562 L 14.082031 29.851562 C 14.097656 29.976562 14.109375 30.117188 14.125 30.265625 C 14.136719 30.417969 14.148438 30.570312 14.15625 30.722656 C 14.167969 30.875 14.175781 31.011719 14.175781 31.132812 L 14.175781 32.769531 Z M 13.480469 32.769531 " fill-opacity="1" fill-rule="nonzero"/><path fill="#ffffff" d="M 18.667969 32.839844 C 18.484375 32.839844 18.328125 32.800781 18.199219 32.726562 C 18.066406 32.652344 17.964844 32.550781 17.890625 32.417969 C 17.820312 32.28125 17.785156 32.128906 17.785156 31.960938 C 17.785156 31.648438 17.921875 31.402344 18.191406 31.226562 C 18.460938 31.058594 18.894531 30.9375 19.496094 30.875 C 19.488281 30.730469 19.445312 30.613281 19.371094 30.515625 C 19.300781 30.410156 19.175781 30.359375 18.988281 30.359375 C 18.847656 30.359375 18.710938 30.386719 18.574219 30.441406 C 18.441406 30.492188 18.304688 30.554688 18.167969 30.636719 L 17.890625 30.121094 C 18.066406 30.015625 18.261719 29.929688 18.46875 29.851562 C 18.675781 29.777344 18.898438 29.738281 19.132812 29.738281 C 19.511719 29.738281 19.796875 29.847656 19.984375 30.070312 C 20.175781 30.292969 20.273438 30.613281 20.273438 31.042969 L 20.273438 32.769531 L 19.628906 32.769531 L 19.578125 32.449219 L 19.558594 32.449219 C 19.425781 32.558594 19.28125 32.652344 19.132812 32.726562 C 18.988281 32.800781 18.832031 32.839844 18.667969 32.839844 Z M 18.914062 32.230469 C 19.03125 32.230469 19.132812 32.207031 19.214844 32.160156 C 19.304688 32.113281 19.398438 32.039062 19.496094 31.941406 L 19.496094 31.351562 C 19.128906 31.394531 18.875 31.464844 18.738281 31.558594 C 18.597656 31.65625 18.53125 31.769531 18.53125 31.898438 C 18.53125 32.019531 18.566406 32.105469 18.636719 32.160156 C 18.710938 32.207031 18.804688 32.230469 18.914062 32.230469 Z M 18.914062 32.230469 " fill-opacity="1" fill-rule="nonzero"/><path fill="#ffffff" d="M 21.058594 32.769531 L 21.058594 29.808594 L 21.835938 29.808594 L 21.835938 32.769531 Z M 21.453125 29.335938 C 21.320312 29.335938 21.210938 29.292969 21.121094 29.210938 C 21.03125 29.128906 20.988281 29.03125 20.988281 28.910156 C 20.988281 28.785156 21.03125 28.6875 21.121094 28.609375 C 21.210938 28.527344 21.320312 28.488281 21.453125 28.488281 C 21.589844 28.488281 21.703125 28.527344 21.785156 28.609375 C 21.871094 28.6875 21.917969 28.785156 21.917969 28.910156 C 21.917969 29.03125 21.871094 29.128906 21.785156 29.210938 C 21.703125 29.292969 21.589844 29.335938 21.453125 29.335938 Z M 21.453125 29.335938 " fill-opacity="1" fill-rule="nonzero"/><path fill="#ffffff" d="M 22.667969 32.769531 L 22.667969 29.808594 L 23.3125 29.808594 L 23.363281 30.203125 L 23.382812 30.203125 C 23.511719 30.074219 23.65625 29.964844 23.808594 29.871094 C 23.964844 29.785156 24.144531 29.738281 24.347656 29.738281 C 24.664062 29.738281 24.898438 29.839844 25.042969 30.046875 C 25.1875 30.253906 25.257812 30.550781 25.257812 30.925781 L 25.257812 32.769531 L 24.480469 32.769531 L 24.480469 31.019531 C 24.480469 30.792969 24.445312 30.636719 24.378906 30.542969 C 24.316406 30.449219 24.210938 30.398438 24.066406 30.398438 C 23.941406 30.398438 23.835938 30.429688 23.746094 30.484375 C 23.65625 30.539062 23.554688 30.621094 23.445312 30.730469 L 23.445312 32.769531 Z M 22.667969 32.769531 " fill-opacity="1" fill-rule="nonzero"/><path fill="#ffffff" d="M 26.132812 32.769531 L 26.132812 28.859375 L 26.933594 28.859375 L 28.074219 30.9375 L 28.457031 31.785156 L 28.488281 31.785156 C 28.464844 31.578125 28.441406 31.355469 28.414062 31.113281 C 28.394531 30.875 28.382812 30.644531 28.382812 30.421875 L 28.382812 28.859375 L 29.128906 28.859375 L 29.128906 32.769531 L 28.332031 32.769531 L 27.203125 30.679688 L 26.796875 29.832031 L 26.777344 29.832031 C 26.789062 30.046875 26.808594 30.273438 26.828125 30.515625 C 26.855469 30.75 26.871094 30.976562 26.871094 31.195312 L 26.871094 32.769531 Z M 26.132812 32.769531 " fill-opacity="1" fill-rule="nonzero"/><path fill="#ffffff" d="M 31.320312 32.839844 C 31.042969 32.839844 30.792969 32.777344 30.566406 32.65625 C 30.34375 32.53125 30.167969 32.355469 30.035156 32.128906 C 29.90625 31.894531 29.839844 31.617188 29.839844 31.289062 C 29.839844 30.972656 29.90625 30.699219 30.035156 30.460938 C 30.175781 30.230469 30.347656 30.046875 30.554688 29.925781 C 30.769531 29.800781 30.992188 29.738281 31.230469 29.738281 C 31.5 29.738281 31.722656 29.800781 31.902344 29.925781 C 32.089844 30.042969 32.226562 30.207031 32.316406 30.421875 C 32.414062 30.636719 32.460938 30.882812 32.460938 31.15625 C 32.460938 31.308594 32.453125 31.425781 32.429688 31.507812 L 30.605469 31.507812 C 30.632812 31.75 30.722656 31.929688 30.867188 32.054688 C 31.015625 32.179688 31.203125 32.242188 31.425781 32.242188 C 31.550781 32.242188 31.664062 32.226562 31.769531 32.191406 C 31.875 32.15625 31.984375 32.105469 32.089844 32.035156 L 32.359375 32.511719 C 32.214844 32.613281 32.050781 32.695312 31.871094 32.757812 C 31.691406 32.8125 31.507812 32.839844 31.320312 32.839844 Z M 30.597656 30.988281 L 31.800781 30.988281 C 31.800781 30.789062 31.75 30.632812 31.652344 30.515625 C 31.5625 30.398438 31.425781 30.339844 31.238281 30.339844 C 31.078125 30.339844 30.9375 30.394531 30.8125 30.503906 C 30.695312 30.613281 30.621094 30.777344 30.597656 30.988281 Z M 30.597656 30.988281 " fill-opacity="1" fill-rule="nonzero"/><path fill="#ffffff" d="M 34.191406 32.839844 C 33.839844 32.839844 33.585938 32.742188 33.433594 32.542969 C 33.289062 32.335938 33.214844 32.066406 33.214844 31.734375 L 33.214844 30.421875 L 32.800781 30.421875 L 32.800781 29.839844 L 33.257812 29.808594 L 33.339844 29.015625 L 33.992188 29.015625 L 33.992188 29.808594 L 34.730469 29.808594 L 34.730469 30.421875 L 33.992188 30.421875 L 33.992188 31.734375 C 33.992188 32.066406 34.128906 32.230469 34.398438 32.230469 C 34.445312 32.230469 34.496094 32.226562 34.554688 32.210938 C 34.609375 32.199219 34.652344 32.183594 34.6875 32.167969 L 34.8125 32.726562 C 34.734375 32.757812 34.648438 32.777344 34.542969 32.800781 C 34.4375 32.824219 34.320312 32.839844 34.191406 32.839844 Z M 34.191406 32.839844 " fill-opacity="1" fill-rule="nonzero"/><path fill="#ffffff" d="M 35.824219 32.769531 L 35.054688 29.808594 L 35.832031 29.808594 L 36.15625 31.269531 C 36.179688 31.414062 36.207031 31.558594 36.226562 31.703125 C 36.253906 31.847656 36.277344 31.992188 36.300781 32.136719 L 36.320312 32.136719 C 36.355469 31.992188 36.386719 31.847656 36.414062 31.703125 C 36.441406 31.558594 36.472656 31.414062 36.507812 31.269531 L 36.871094 29.808594 L 37.5625 29.808594 L 37.925781 31.269531 C 37.960938 31.414062 37.992188 31.558594 38.019531 31.703125 C 38.054688 31.847656 38.085938 31.992188 38.113281 32.136719 L 38.144531 32.136719 C 38.171875 31.992188 38.195312 31.847656 38.21875 31.703125 C 38.238281 31.558594 38.261719 31.414062 38.289062 31.269531 L 38.609375 29.808594 L 39.335938 29.808594 L 38.601562 32.769531 L 37.6875 32.769531 L 37.378906 31.476562 C 37.339844 31.339844 37.308594 31.203125 37.285156 31.0625 C 37.257812 30.925781 37.226562 30.777344 37.203125 30.617188 L 37.179688 30.617188 C 37.152344 30.777344 37.125 30.925781 37.097656 31.0625 C 37.070312 31.203125 37.039062 31.339844 37.015625 31.476562 L 36.714844 32.769531 Z M 35.824219 32.769531 " fill-opacity="1" fill-rule="nonzero"/><path fill="#ffffff" d="M 41.136719 32.839844 C 40.890625 32.839844 40.652344 32.78125 40.433594 32.664062 C 40.21875 32.542969 40.042969 32.363281 39.90625 32.128906 C 39.773438 31.894531 39.707031 31.617188 39.707031 31.289062 C 39.707031 30.957031 39.773438 30.679688 39.90625 30.453125 C 40.042969 30.21875 40.21875 30.042969 40.433594 29.925781 C 40.652344 29.800781 40.890625 29.738281 41.136719 29.738281 C 41.386719 29.738281 41.617188 29.800781 41.832031 29.925781 C 42.050781 30.042969 42.230469 30.21875 42.359375 30.453125 C 42.492188 30.679688 42.558594 30.957031 42.558594 31.289062 C 42.558594 31.617188 42.492188 31.894531 42.359375 32.128906 C 42.230469 32.363281 42.050781 32.542969 41.832031 32.664062 C 41.617188 32.78125 41.386719 32.839844 41.136719 32.839844 Z M 41.136719 32.210938 C 41.335938 32.210938 41.492188 32.128906 41.605469 31.960938 C 41.714844 31.796875 41.769531 31.574219 41.769531 31.289062 C 41.769531 31.015625 41.714844 30.792969 41.605469 30.628906 C 41.492188 30.457031 41.335938 30.367188 41.136719 30.367188 C 40.9375 30.367188 40.78125 30.457031 40.671875 30.628906 C 40.558594 30.792969 40.503906 31.015625 40.503906 31.289062 C 40.503906 31.574219 40.558594 31.796875 40.671875 31.960938 C 40.78125 32.128906 40.9375 32.210938 41.136719 32.210938 Z M 41.136719 32.210938 " fill-opacity="1" fill-rule="nonzero"/><path fill="#ffffff" d="M 43.207031 32.769531 L 43.207031 29.808594 L 43.851562 29.808594 L 43.902344 30.328125 L 43.921875 30.328125 C 44.03125 30.136719 44.160156 29.992188 44.304688 29.894531 C 44.457031 29.789062 44.609375 29.738281 44.761719 29.738281 C 44.84375 29.738281 44.910156 29.746094 44.960938 29.757812 C 45.015625 29.765625 45.066406 29.78125 45.113281 29.800781 L 44.980469 30.472656 C 44.921875 30.453125 44.871094 30.4375 44.824219 30.429688 C 44.785156 30.425781 44.730469 30.421875 44.667969 30.421875 C 44.550781 30.421875 44.425781 30.46875 44.296875 30.554688 C 44.171875 30.636719 44.066406 30.789062 43.984375 31 L 43.984375 32.769531 Z M 43.207031 32.769531 " fill-opacity="1" fill-rule="nonzero"/><path fill="#ffffff" d="M 45.515625 32.769531 L 45.515625 28.546875 L 46.273438 28.546875 L 46.273438 31.09375 L 46.292969 31.09375 L 47.328125 29.808594 L 48.167969 29.808594 L 47.144531 31.019531 L 48.273438 32.769531 L 47.421875 32.769531 L 46.707031 31.539062 L 46.273438 32.023438 L 46.273438 32.769531 Z M 45.515625 32.769531 " fill-opacity="1" fill-rule="nonzero"/><path fill="#ffffff" d="M 15.890625 36.273438 L 14.71875 36.273438 C 14.699219 36.273438 14.679688 36.289062 14.667969 36.3125 C 14.5625 36.507812 14.429688 36.703125 14.273438 36.902344 C 14.265625 36.910156 14.261719 36.917969 14.261719 36.925781 C 14.269531 36.933594 14.277344 36.933594 14.285156 36.933594 C 14.585938 37.027344 14.910156 37.140625 15.257812 37.277344 C 15.277344 37.285156 15.300781 37.28125 15.320312 37.265625 C 15.589844 37.027344 15.785156 36.707031 15.910156 36.3125 C 15.917969 36.308594 15.917969 36.300781 15.910156 36.292969 C 15.902344 36.28125 15.894531 36.273438 15.890625 36.273438 Z M 13.746094 37.078125 C 13.972656 36.832031 14.164062 36.574219 14.324219 36.304688 C 14.332031 36.304688 14.332031 36.300781 14.324219 36.292969 C 14.316406 36.28125 14.308594 36.273438 14.304688 36.273438 L 13.507812 36.273438 C 13.46875 36.273438 13.445312 36.261719 13.421875 36.242188 C 13.394531 36.214844 13.382812 36.183594 13.382812 36.148438 C 13.382812 36.109375 13.394531 36.078125 13.421875 36.054688 C 13.445312 36.03125 13.46875 36.015625 13.507812 36.015625 L 14.449219 36.015625 C 14.46875 36.015625 14.484375 36.003906 14.5 35.984375 C 14.578125 35.824219 14.636719 35.695312 14.679688 35.589844 C 14.691406 35.550781 14.71875 35.515625 14.761719 35.488281 C 14.792969 35.464844 14.835938 35.460938 14.886719 35.464844 C 14.925781 35.472656 14.957031 35.492188 14.976562 35.519531 C 15 35.554688 15 35.589844 14.988281 35.632812 C 14.953125 35.722656 14.90625 35.839844 14.84375 35.984375 C 14.835938 35.992188 14.832031 36 14.832031 36.003906 C 14.839844 36.011719 14.847656 36.015625 14.855469 36.015625 L 16.730469 36.015625 C 16.761719 36.015625 16.792969 36.03125 16.8125 36.054688 C 16.839844 36.078125 16.855469 36.109375 16.855469 36.148438 C 16.855469 36.183594 16.839844 36.214844 16.8125 36.242188 C 16.792969 36.261719 16.761719 36.273438 16.730469 36.273438 L 16.273438 36.273438 C 16.246094 36.273438 16.226562 36.289062 16.222656 36.3125 C 16.097656 36.757812 15.894531 37.117188 15.609375 37.390625 C 15.609375 37.390625 15.609375 37.398438 15.609375 37.410156 C 15.609375 37.417969 15.613281 37.425781 15.621094 37.429688 C 15.957031 37.59375 16.308594 37.773438 16.679688 37.980469 C 16.710938 38 16.734375 38.03125 16.742188 38.074219 C 16.746094 38.105469 16.734375 38.140625 16.710938 38.175781 C 16.6875 38.210938 16.65625 38.230469 16.617188 38.238281 C 16.578125 38.242188 16.542969 38.238281 16.5 38.21875 C 16.078125 37.96875 15.707031 37.773438 15.382812 37.628906 C 15.363281 37.613281 15.339844 37.613281 15.320312 37.628906 C 14.925781 37.914062 14.371094 38.109375 13.660156 38.226562 C 13.621094 38.234375 13.585938 38.226562 13.558594 38.207031 C 13.523438 38.1875 13.5 38.15625 13.484375 38.125 C 13.476562 38.089844 13.484375 38.054688 13.507812 38.019531 C 13.527344 37.992188 13.554688 37.972656 13.589844 37.96875 C 14.191406 37.867188 14.664062 37.707031 15.007812 37.492188 C 15.015625 37.488281 15.019531 37.484375 15.019531 37.484375 C 15.019531 37.46875 15.015625 37.460938 15.007812 37.460938 C 14.710938 37.347656 14.402344 37.242188 14.085938 37.152344 C 14.066406 37.152344 14.046875 37.160156 14.035156 37.171875 L 13.972656 37.234375 C 13.953125 37.261719 13.914062 37.277344 13.871094 37.277344 C 13.828125 37.285156 13.792969 37.277344 13.765625 37.253906 C 13.730469 37.234375 13.714844 37.210938 13.714844 37.171875 C 13.707031 37.132812 13.714844 37.101562 13.746094 37.078125 Z M 16.617188 35.847656 C 16.566406 35.847656 16.527344 35.835938 16.5 35.808594 C 16.472656 35.78125 16.460938 35.746094 16.460938 35.703125 L 16.460938 35.402344 C 16.460938 35.378906 16.449219 35.363281 16.429688 35.363281 L 13.808594 35.363281 C 13.785156 35.363281 13.777344 35.378906 13.777344 35.402344 L 13.777344 35.703125 C 13.777344 35.746094 13.761719 35.78125 13.734375 35.808594 C 13.707031 35.835938 13.667969 35.847656 13.621094 35.847656 C 13.585938 35.847656 13.550781 35.835938 13.515625 35.808594 C 13.488281 35.78125 13.476562 35.746094 13.476562 35.703125 L 13.476562 35.34375 C 13.476562 35.28125 13.5 35.226562 13.546875 35.175781 C 13.589844 35.136719 13.640625 35.113281 13.703125 35.113281 L 14.925781 35.113281 C 14.949219 35.113281 14.957031 35.105469 14.957031 35.082031 L 14.957031 34.867188 C 14.957031 34.824219 14.972656 34.789062 15.007812 34.753906 C 15.035156 34.726562 15.070312 34.710938 15.113281 34.710938 C 15.160156 34.710938 15.199219 34.726562 15.226562 34.753906 C 15.261719 34.789062 15.277344 34.824219 15.277344 34.867188 L 15.277344 35.082031 C 15.277344 35.105469 15.289062 35.113281 15.308594 35.113281 L 16.53125 35.113281 C 16.59375 35.113281 16.648438 35.136719 16.6875 35.175781 C 16.734375 35.226562 16.761719 35.28125 16.761719 35.34375 L 16.761719 35.703125 C 16.761719 35.746094 16.742188 35.78125 16.710938 35.808594 C 16.679688 35.835938 16.648438 35.847656 16.617188 35.847656 Z M 16.617188 35.847656 " fill-opacity="1" fill-rule="nonzero"/><path fill="#ffffff" d="M 19.0625 34.980469 C 18.597656 35.402344 18.078125 35.773438 17.496094 36.097656 C 17.460938 36.117188 17.425781 36.121094 17.394531 36.109375 C 17.359375 36.09375 17.332031 36.070312 17.3125 36.035156 C 17.289062 36.007812 17.285156 35.96875 17.300781 35.921875 C 17.3125 35.886719 17.335938 35.859375 17.375 35.839844 C 17.882812 35.550781 18.34375 35.234375 18.75 34.886719 C 18.847656 34.800781 18.957031 34.753906 19.082031 34.753906 C 19.207031 34.753906 19.320312 34.792969 19.425781 34.875 C 19.84375 35.234375 20.308594 35.558594 20.8125 35.839844 C 20.839844 35.859375 20.859375 35.886719 20.875 35.921875 C 20.890625 35.960938 20.886719 36 20.867188 36.035156 C 20.84375 36.070312 20.816406 36.09375 20.78125 36.109375 C 20.746094 36.121094 20.714844 36.117188 20.679688 36.097656 C 20.097656 35.773438 19.574219 35.402344 19.113281 34.980469 C 19.09375 34.96875 19.074219 34.96875 19.0625 34.980469 Z M 17.527344 37.917969 L 18.898438 37.917969 C 18.917969 37.917969 18.929688 37.90625 18.929688 37.886719 L 18.929688 37.140625 C 18.929688 37.121094 18.917969 37.109375 18.898438 37.109375 L 17.890625 37.109375 C 17.851562 37.109375 17.8125 37.101562 17.789062 37.078125 C 17.765625 37.054688 17.757812 37.019531 17.757812 36.976562 C 17.757812 36.941406 17.769531 36.914062 17.796875 36.894531 C 17.820312 36.867188 17.851562 36.851562 17.890625 36.851562 L 18.898438 36.851562 C 18.917969 36.851562 18.929688 36.84375 18.929688 36.820312 L 18.929688 36.222656 C 18.929688 36.199219 18.917969 36.191406 18.898438 36.191406 L 18.035156 36.191406 C 18 36.191406 17.96875 36.179688 17.941406 36.160156 C 17.921875 36.132812 17.914062 36.101562 17.914062 36.066406 C 17.914062 36.023438 17.921875 35.992188 17.941406 35.972656 C 17.96875 35.953125 18 35.941406 18.035156 35.941406 L 20.140625 35.941406 C 20.175781 35.941406 20.207031 35.953125 20.234375 35.972656 C 20.257812 36 20.273438 36.03125 20.273438 36.066406 C 20.273438 36.101562 20.257812 36.132812 20.234375 36.160156 C 20.207031 36.179688 20.175781 36.191406 20.140625 36.191406 L 19.28125 36.191406 C 19.257812 36.191406 19.25 36.199219 19.25 36.222656 L 19.25 36.820312 C 19.25 36.84375 19.257812 36.851562 19.28125 36.851562 L 20.285156 36.851562 C 20.328125 36.851562 20.359375 36.867188 20.378906 36.894531 C 20.40625 36.914062 20.421875 36.941406 20.421875 36.976562 C 20.421875 37.019531 20.40625 37.054688 20.378906 37.078125 C 20.359375 37.101562 20.328125 37.109375 20.285156 37.109375 L 19.28125 37.109375 C 19.257812 37.109375 19.25 37.121094 19.25 37.140625 L 19.25 37.886719 C 19.25 37.90625 19.257812 37.917969 19.28125 37.917969 L 20.648438 37.917969 C 20.683594 37.917969 20.710938 37.933594 20.730469 37.960938 C 20.757812 37.984375 20.773438 38.015625 20.773438 38.050781 C 20.773438 38.085938 20.757812 38.117188 20.730469 38.144531 C 20.710938 38.171875 20.683594 38.1875 20.648438 38.1875 L 17.527344 38.1875 C 17.492188 38.1875 17.460938 38.171875 17.433594 38.144531 C 17.414062 38.117188 17.40625 38.085938 17.40625 38.050781 C 17.40625 38.015625 17.414062 37.984375 17.433594 37.960938 C 17.460938 37.933594 17.492188 37.917969 17.527344 37.917969 Z M 17.527344 37.917969 " fill-opacity="1" fill-rule="nonzero"/><path fill="#ffffff" d="M 22.402344 37.90625 L 23.480469 37.90625 C 23.5 37.90625 23.507812 37.898438 23.507812 37.875 L 23.507812 36.882812 C 23.507812 36.863281 23.5 36.851562 23.480469 36.851562 L 22.691406 36.851562 C 22.65625 36.851562 22.625 36.839844 22.597656 36.8125 C 22.570312 36.785156 22.554688 36.753906 22.554688 36.71875 C 22.554688 36.683594 22.570312 36.652344 22.597656 36.625 C 22.625 36.597656 22.65625 36.582031 22.691406 36.582031 L 23.480469 36.582031 C 23.5 36.582031 23.507812 36.574219 23.507812 36.550781 L 23.507812 35.746094 C 23.507812 35.726562 23.5 35.714844 23.480469 35.714844 L 22.910156 35.714844 C 22.878906 35.714844 22.867188 35.722656 22.867188 35.734375 C 22.808594 35.929688 22.746094 36.117188 22.679688 36.304688 C 22.652344 36.367188 22.609375 36.414062 22.546875 36.4375 C 22.488281 36.460938 22.433594 36.457031 22.378906 36.429688 L 22.339844 36.417969 C 22.332031 36.414062 22.320312 36.40625 22.308594 36.40625 C 22.269531 36.421875 22.238281 36.417969 22.214844 36.398438 C 22.1875 36.375 22.167969 36.351562 22.164062 36.324219 C 22.132812 36.132812 22.09375 35.917969 22.046875 35.671875 C 22.039062 35.640625 22.046875 35.609375 22.070312 35.578125 C 22.089844 35.554688 22.113281 35.535156 22.140625 35.527344 C 22.164062 35.523438 22.1875 35.527344 22.222656 35.550781 C 22.25 35.5625 22.269531 35.585938 22.277344 35.621094 C 22.324219 35.835938 22.359375 36.019531 22.378906 36.167969 C 22.386719 36.175781 22.394531 36.179688 22.402344 36.179688 C 22.402344 36.179688 22.402344 36.175781 22.402344 36.167969 C 22.539062 35.8125 22.648438 35.421875 22.730469 35 C 22.738281 34.960938 22.757812 34.929688 22.792969 34.90625 C 22.828125 34.882812 22.867188 34.871094 22.910156 34.875 C 22.949219 34.882812 22.980469 34.90625 23 34.9375 C 23.023438 34.96875 23.027344 35 23.023438 35.042969 C 23.015625 35.113281 22.992188 35.234375 22.949219 35.402344 C 22.949219 35.410156 22.953125 35.417969 22.960938 35.425781 C 22.960938 35.441406 22.964844 35.445312 22.980469 35.445312 L 23.480469 35.445312 C 23.5 35.445312 23.507812 35.433594 23.507812 35.402344 L 23.507812 34.929688 C 23.507812 34.882812 23.523438 34.84375 23.550781 34.816406 C 23.578125 34.789062 23.613281 34.773438 23.65625 34.773438 C 23.703125 34.773438 23.742188 34.789062 23.769531 34.816406 C 23.800781 34.851562 23.820312 34.886719 23.820312 34.929688 L 23.820312 35.402344 C 23.820312 35.433594 23.832031 35.445312 23.851562 35.445312 L 24.691406 35.445312 C 24.726562 35.445312 24.757812 35.460938 24.785156 35.488281 C 24.808594 35.507812 24.824219 35.539062 24.824219 35.578125 C 24.824219 35.617188 24.808594 35.648438 24.785156 35.671875 C 24.757812 35.703125 24.726562 35.714844 24.691406 35.714844 L 23.851562 35.714844 C 23.832031 35.714844 23.820312 35.726562 23.820312 35.746094 L 23.820312 36.550781 C 23.820312 36.574219 23.832031 36.582031 23.851562 36.582031 L 24.585938 36.582031 C 24.621094 36.582031 24.652344 36.597656 24.679688 36.625 C 24.707031 36.652344 24.722656 36.683594 24.722656 36.71875 C 24.722656 36.746094 24.707031 36.777344 24.679688 36.8125 C 24.652344 36.839844 24.621094 36.851562 24.585938 36.851562 L 23.851562 36.851562 C 23.832031 36.851562 23.820312 36.863281 23.820312 36.882812 L 23.820312 37.875 C 23.820312 37.898438 23.832031 37.90625 23.851562 37.90625 L 24.742188 37.90625 C 24.777344 37.90625 24.808594 37.921875 24.835938 37.949219 C 24.863281 37.972656 24.878906 38.003906 24.878906 38.042969 C 24.878906 38.082031 24.863281 38.113281 24.835938 38.136719 C 24.808594 38.160156 24.777344 38.175781 24.742188 38.175781 L 22.402344 38.175781 C 22.363281 38.175781 22.332031 38.160156 22.308594 38.136719 C 22.277344 38.113281 22.265625 38.082031 22.265625 38.042969 C 22.265625 38.003906 22.277344 37.972656 22.308594 37.949219 C 22.332031 37.921875 22.363281 37.90625 22.402344 37.90625 Z M 21.996094 34.929688 L 21.996094 38.15625 C 21.996094 38.203125 21.980469 38.242188 21.953125 38.269531 C 21.925781 38.296875 21.886719 38.3125 21.839844 38.3125 C 21.800781 38.3125 21.761719 38.296875 21.726562 38.269531 C 21.699219 38.242188 21.683594 38.203125 21.683594 38.15625 L 21.683594 34.929688 C 21.683594 34.882812 21.699219 34.84375 21.726562 34.816406 C 21.761719 34.789062 21.800781 34.773438 21.839844 34.773438 C 21.886719 34.773438 21.925781 34.789062 21.953125 34.816406 C 21.980469 34.84375 21.996094 34.882812 21.996094 34.929688 Z M 21.570312 35.746094 C 21.535156 36.105469 21.480469 36.476562 21.40625 36.851562 C 21.40625 36.886719 21.386719 36.914062 21.355469 36.933594 C 21.324219 36.957031 21.292969 36.964844 21.261719 36.957031 C 21.230469 36.957031 21.207031 36.941406 21.1875 36.902344 C 21.167969 36.882812 21.160156 36.851562 21.167969 36.8125 C 21.234375 36.476562 21.292969 36.109375 21.332031 35.714844 C 21.332031 35.679688 21.347656 35.652344 21.375 35.632812 C 21.402344 35.609375 21.429688 35.605469 21.46875 35.609375 C 21.5 35.617188 21.523438 35.632812 21.539062 35.652344 C 21.5625 35.6875 21.570312 35.71875 21.570312 35.746094 Z M 21.570312 35.746094 " fill-opacity="1" fill-rule="nonzero"/><path fill="#ffffff" d="M 26.890625 35.394531 C 26.507812 35.441406 26.203125 35.59375 25.976562 35.847656 C 25.75 36.097656 25.636719 36.40625 25.636719 36.769531 C 25.636719 37.019531 25.6875 37.230469 25.789062 37.410156 C 25.898438 37.585938 26.007812 37.667969 26.113281 37.667969 C 26.160156 37.667969 26.207031 37.652344 26.257812 37.617188 C 26.3125 37.585938 26.371094 37.515625 26.433594 37.410156 C 26.496094 37.308594 26.550781 37.179688 26.609375 37.019531 C 26.664062 36.859375 26.71875 36.644531 26.773438 36.367188 C 26.835938 36.09375 26.890625 35.773438 26.929688 35.414062 C 26.929688 35.394531 26.914062 35.386719 26.890625 35.394531 Z M 26.113281 37.960938 C 25.925781 37.960938 25.75 37.84375 25.582031 37.617188 C 25.421875 37.386719 25.34375 37.101562 25.34375 36.769531 C 25.34375 36.273438 25.511719 35.871094 25.851562 35.558594 C 26.199219 35.25 26.644531 35.09375 27.191406 35.09375 C 27.625 35.09375 27.988281 35.234375 28.277344 35.507812 C 28.566406 35.777344 28.714844 36.121094 28.714844 36.542969 C 28.714844 36.957031 28.613281 37.292969 28.414062 37.554688 C 28.21875 37.820312 27.949219 37.980469 27.605469 38.042969 C 27.566406 38.046875 27.535156 38.035156 27.5 38.011719 C 27.464844 37.988281 27.445312 37.960938 27.4375 37.917969 C 27.429688 37.882812 27.4375 37.851562 27.460938 37.824219 C 27.480469 37.789062 27.511719 37.769531 27.550781 37.761719 C 27.828125 37.707031 28.042969 37.574219 28.195312 37.359375 C 28.34375 37.148438 28.421875 36.871094 28.421875 36.542969 C 28.421875 36.21875 28.3125 35.945312 28.089844 35.726562 C 27.875 35.503906 27.597656 35.386719 27.261719 35.371094 C 27.242188 35.371094 27.230469 35.382812 27.230469 35.402344 C 27.167969 35.910156 27.097656 36.335938 27.011719 36.6875 C 26.929688 37.035156 26.835938 37.292969 26.734375 37.472656 C 26.636719 37.652344 26.539062 37.78125 26.445312 37.855469 C 26.34375 37.925781 26.234375 37.960938 26.113281 37.960938 Z M 26.113281 37.960938 " fill-opacity="1" fill-rule="nonzero"/><path fill="#ffffff" d="M 30.664062 35.992188 L 31.441406 35.992188 C 31.445312 35.992188 31.453125 35.992188 31.460938 35.992188 C 31.464844 35.980469 31.472656 35.96875 31.472656 35.960938 C 31.449219 35.75 31.441406 35.523438 31.441406 35.28125 C 31.433594 35.257812 31.417969 35.25 31.398438 35.25 C 31.148438 35.277344 30.902344 35.296875 30.652344 35.300781 C 30.632812 35.300781 30.621094 35.3125 30.621094 35.332031 L 30.621094 35.960938 C 30.621094 35.984375 30.632812 35.992188 30.664062 35.992188 Z M 32.445312 37.691406 C 32.507812 37.691406 32.5625 37.503906 32.609375 37.132812 C 32.617188 37.105469 32.632812 37.078125 32.664062 37.058594 C 32.6875 37.039062 32.726562 37.035156 32.765625 37.039062 C 32.800781 37.054688 32.828125 37.078125 32.847656 37.109375 C 32.871094 37.148438 32.878906 37.183594 32.878906 37.222656 C 32.800781 37.75 32.675781 38.011719 32.496094 38.011719 C 32.425781 38.011719 32.355469 37.992188 32.289062 37.960938 C 32.273438 37.960938 32.269531 37.960938 32.269531 37.960938 C 32.261719 37.964844 32.257812 37.96875 32.257812 37.96875 C 32.257812 38.023438 32.242188 38.066406 32.207031 38.105469 C 32.171875 38.136719 32.128906 38.15625 32.082031 38.15625 L 30.339844 38.15625 C 30.304688 38.15625 30.273438 38.140625 30.246094 38.113281 C 30.226562 38.085938 30.214844 38.054688 30.214844 38.019531 C 30.214844 37.992188 30.226562 37.964844 30.246094 37.929688 C 30.273438 37.902344 30.304688 37.886719 30.339844 37.886719 L 32.132812 37.886719 C 32.148438 37.886719 32.15625 37.886719 32.15625 37.886719 C 32.15625 37.882812 32.148438 37.875 32.144531 37.867188 C 32.003906 37.757812 31.878906 37.570312 31.761719 37.308594 C 31.648438 37.054688 31.566406 36.714844 31.511719 36.292969 C 31.503906 36.273438 31.492188 36.261719 31.472656 36.261719 L 30.664062 36.261719 C 30.632812 36.261719 30.621094 36.273438 30.621094 36.292969 L 30.621094 37.253906 C 30.621094 37.269531 30.625 37.277344 30.632812 37.277344 C 30.644531 37.285156 30.65625 37.285156 30.664062 37.277344 C 30.910156 37.214844 31.152344 37.148438 31.386719 37.078125 C 31.421875 37.066406 31.453125 37.070312 31.480469 37.089844 C 31.515625 37.109375 31.535156 37.140625 31.542969 37.171875 C 31.542969 37.214844 31.53125 37.25 31.511719 37.277344 C 31.496094 37.3125 31.472656 37.332031 31.429688 37.339844 C 31.007812 37.476562 30.589844 37.582031 30.175781 37.648438 C 30.132812 37.65625 30.101562 37.648438 30.082031 37.628906 C 30.046875 37.605469 30.03125 37.582031 30.03125 37.546875 C 30.023438 37.503906 30.03125 37.46875 30.050781 37.441406 C 30.078125 37.40625 30.109375 37.390625 30.144531 37.390625 L 30.289062 37.359375 C 30.308594 37.355469 30.320312 37.339844 30.320312 37.316406 L 30.320312 35.269531 C 30.320312 35.207031 30.339844 35.152344 30.382812 35.105469 C 30.425781 35.070312 30.476562 35.050781 30.539062 35.042969 C 31.207031 35.027344 31.804688 34.957031 32.332031 34.824219 C 32.371094 34.8125 32.40625 34.816406 32.433594 34.835938 C 32.46875 34.855469 32.492188 34.882812 32.507812 34.917969 C 32.519531 34.953125 32.519531 34.988281 32.496094 35.019531 C 32.476562 35.050781 32.445312 35.070312 32.402344 35.082031 C 32.222656 35.132812 32.011719 35.175781 31.761719 35.207031 C 31.742188 35.214844 31.730469 35.226562 31.730469 35.238281 C 31.734375 35.515625 31.753906 35.753906 31.78125 35.960938 C 31.78125 35.984375 31.792969 35.992188 31.8125 35.992188 L 32.539062 35.992188 C 32.570312 35.992188 32.601562 36.007812 32.632812 36.035156 C 32.65625 36.0625 32.671875 36.09375 32.671875 36.128906 C 32.671875 36.164062 32.65625 36.195312 32.632812 36.222656 C 32.601562 36.25 32.570312 36.261719 32.539062 36.261719 L 31.84375 36.261719 C 31.835938 36.261719 31.832031 36.261719 31.832031 36.261719 C 31.824219 36.277344 31.824219 36.289062 31.824219 36.292969 C 31.890625 36.722656 31.984375 37.058594 32.101562 37.308594 C 32.226562 37.5625 32.339844 37.691406 32.445312 37.691406 Z M 29.542969 36.375 C 29.464844 36.515625 29.386719 36.640625 29.304688 36.75 C 29.285156 36.785156 29.253906 36.796875 29.222656 36.789062 C 29.179688 36.785156 29.148438 36.765625 29.128906 36.738281 C 29.078125 36.644531 29.085938 36.558594 29.148438 36.480469 C 29.472656 36.023438 29.707031 35.496094 29.855469 34.886719 C 29.859375 34.851562 29.878906 34.824219 29.917969 34.804688 C 29.949219 34.777344 29.988281 34.769531 30.03125 34.773438 C 30.070312 34.78125 30.101562 34.800781 30.125 34.835938 C 30.148438 34.863281 30.160156 34.898438 30.15625 34.9375 C 30.085938 35.265625 29.988281 35.566406 29.863281 35.847656 C 29.855469 35.871094 29.855469 35.890625 29.855469 35.910156 L 29.855469 38.164062 C 29.855469 38.207031 29.839844 38.242188 29.8125 38.269531 C 29.785156 38.296875 29.75 38.3125 29.707031 38.3125 C 29.667969 38.3125 29.628906 38.296875 29.59375 38.269531 C 29.566406 38.242188 29.554688 38.207031 29.554688 38.164062 L 29.554688 36.375 C 29.554688 36.371094 29.554688 36.367188 29.554688 36.367188 C 29.546875 36.367188 29.542969 36.371094 29.542969 36.375 Z M 29.542969 36.375 " fill-opacity="1" fill-rule="nonzero"/><path fill="#ffffff" d="M 36.550781 37.648438 C 36.523438 37.675781 36.488281 37.691406 36.445312 37.691406 C 36.40625 37.691406 36.367188 37.675781 36.332031 37.648438 C 36.304688 37.621094 36.289062 37.585938 36.289062 37.546875 C 36.269531 36.757812 36.117188 36.054688 35.835938 35.433594 C 35.8125 35.402344 35.808594 35.367188 35.824219 35.332031 C 35.84375 35.296875 35.871094 35.273438 35.90625 35.257812 C 35.949219 35.246094 35.984375 35.246094 36.023438 35.257812 C 36.0625 35.273438 36.089844 35.300781 36.105469 35.34375 C 36.40625 35.976562 36.574219 36.710938 36.601562 37.546875 C 36.601562 37.585938 36.582031 37.621094 36.550781 37.648438 Z M 34.28125 38.105469 C 34.074219 38.105469 33.882812 37.957031 33.710938 37.660156 C 33.535156 37.363281 33.449219 37.003906 33.449219 36.582031 C 33.449219 36.15625 33.496094 35.753906 33.585938 35.371094 C 33.597656 35.332031 33.621094 35.300781 33.660156 35.28125 C 33.691406 35.253906 33.730469 35.242188 33.773438 35.25 C 33.8125 35.257812 33.84375 35.277344 33.867188 35.3125 C 33.886719 35.339844 33.890625 35.371094 33.886719 35.414062 C 33.796875 35.800781 33.75 36.191406 33.75 36.582031 C 33.75 36.929688 33.808594 37.21875 33.929688 37.453125 C 34.050781 37.6875 34.175781 37.804688 34.300781 37.804688 C 34.382812 37.804688 34.480469 37.730469 34.601562 37.585938 C 34.726562 37.4375 34.84375 37.222656 34.953125 36.957031 C 34.96875 36.921875 34.992188 36.898438 35.027344 36.882812 C 35.066406 36.863281 35.109375 36.859375 35.152344 36.871094 C 35.183594 36.886719 35.207031 36.914062 35.222656 36.957031 C 35.246094 36.992188 35.246094 37.027344 35.234375 37.058594 C 35.101562 37.386719 34.945312 37.636719 34.765625 37.824219 C 34.59375 38.011719 34.429688 38.105469 34.28125 38.105469 Z M 34.28125 38.105469 " fill-opacity="1" fill-rule="nonzero"/><path fill="#ffffff" d="M 38.746094 37.039062 C 38.375 37.210938 37.957031 37.355469 37.492188 37.472656 C 37.457031 37.480469 37.421875 37.476562 37.378906 37.460938 C 37.34375 37.441406 37.324219 37.410156 37.316406 37.371094 C 37.300781 37.328125 37.308594 37.292969 37.328125 37.253906 C 37.347656 37.222656 37.378906 37.203125 37.421875 37.195312 C 38.625 36.882812 39.488281 36.390625 40.023438 35.714844 C 40.027344 35.703125 40.027344 35.691406 40.011719 35.683594 L 37.648438 35.683594 C 37.613281 35.683594 37.582031 35.671875 37.554688 35.640625 C 37.527344 35.617188 37.515625 35.585938 37.515625 35.550781 C 37.515625 35.507812 37.527344 35.472656 37.554688 35.445312 C 37.582031 35.417969 37.613281 35.402344 37.648438 35.402344 L 38.738281 35.402344 C 38.757812 35.402344 38.769531 35.394531 38.769531 35.371094 L 38.769531 34.96875 C 38.769531 34.929688 38.785156 34.894531 38.820312 34.867188 C 38.855469 34.832031 38.894531 34.816406 38.933594 34.816406 C 38.976562 34.816406 39.007812 34.832031 39.039062 34.867188 C 39.070312 34.894531 39.089844 34.929688 39.089844 34.96875 L 39.089844 35.371094 C 39.089844 35.394531 39.101562 35.402344 39.121094 35.402344 L 40.179688 35.402344 C 40.242188 35.402344 40.292969 35.429688 40.332031 35.476562 C 40.378906 35.519531 40.40625 35.570312 40.40625 35.632812 L 40.40625 35.652344 C 40.40625 35.671875 40.398438 35.695312 40.386719 35.714844 C 40.15625 36.0625 39.855469 36.363281 39.484375 36.625 C 39.464844 36.640625 39.464844 36.652344 39.484375 36.667969 L 40.480469 37.347656 C 40.503906 37.371094 40.523438 37.402344 40.53125 37.441406 C 40.535156 37.476562 40.527344 37.511719 40.5 37.546875 C 40.472656 37.582031 40.4375 37.601562 40.394531 37.605469 C 40.359375 37.613281 40.324219 37.605469 40.292969 37.578125 C 40.003906 37.371094 39.640625 37.125 39.214844 36.84375 C 39.1875 36.820312 39.164062 36.820312 39.152344 36.832031 C 39.144531 36.832031 39.136719 36.835938 39.132812 36.84375 C 39.132812 36.84375 39.125 36.847656 39.121094 36.851562 C 39.101562 36.867188 39.089844 36.882812 39.089844 36.902344 L 39.089844 38.042969 C 39.089844 38.082031 39.070312 38.117188 39.039062 38.144531 C 39.007812 38.179688 38.976562 38.195312 38.933594 38.195312 C 38.894531 38.195312 38.855469 38.179688 38.820312 38.144531 C 38.785156 38.117188 38.769531 38.082031 38.769531 38.042969 L 38.769531 37.058594 C 38.769531 37.039062 38.761719 37.035156 38.746094 37.039062 Z M 38.746094 37.039062 " fill-opacity="1" fill-rule="nonzero"/><path fill="#ffffff" d="M 42.25 37.8125 C 42.636719 37.746094 42.941406 37.636719 43.164062 37.492188 C 43.390625 37.347656 43.558594 37.148438 43.671875 36.894531 C 43.78125 36.632812 43.851562 36.285156 43.878906 35.847656 C 43.878906 35.808594 43.890625 35.773438 43.921875 35.746094 C 43.945312 35.71875 43.984375 35.710938 44.023438 35.714844 C 44.066406 35.714844 44.097656 35.734375 44.128906 35.765625 C 44.152344 35.792969 44.167969 35.824219 44.167969 35.859375 C 44.132812 36.570312 43.976562 37.09375 43.691406 37.429688 C 43.40625 37.761719 42.945312 37.980469 42.304688 38.082031 C 42.265625 38.089844 42.234375 38.082031 42.199219 38.0625 C 42.171875 38.042969 42.152344 38.011719 42.136719 37.96875 C 42.128906 37.9375 42.136719 37.90625 42.160156 37.875 C 42.183594 37.84375 42.214844 37.820312 42.25 37.8125 Z M 42.066406 36.894531 C 42.027344 36.902344 41.996094 36.894531 41.960938 36.871094 C 41.925781 36.851562 41.902344 36.820312 41.890625 36.78125 C 41.8125 36.46875 41.746094 36.210938 41.691406 36.003906 C 41.675781 35.96875 41.683594 35.9375 41.703125 35.902344 C 41.722656 35.867188 41.75 35.847656 41.785156 35.839844 C 41.828125 35.824219 41.859375 35.832031 41.890625 35.859375 C 41.921875 35.878906 41.945312 35.910156 41.960938 35.941406 C 42.042969 36.21875 42.117188 36.480469 42.179688 36.726562 C 42.183594 36.765625 42.179688 36.796875 42.160156 36.832031 C 42.136719 36.867188 42.105469 36.886719 42.066406 36.894531 Z M 42.84375 35.839844 C 42.917969 36.128906 42.988281 36.398438 43.050781 36.644531 C 43.0625 36.6875 43.058594 36.726562 43.039062 36.757812 C 43.019531 36.796875 42.988281 36.816406 42.945312 36.820312 C 42.90625 36.828125 42.867188 36.820312 42.832031 36.800781 C 42.804688 36.78125 42.78125 36.75 42.769531 36.707031 C 42.707031 36.445312 42.636719 36.175781 42.550781 35.890625 C 42.542969 35.855469 42.550781 35.824219 42.574219 35.785156 C 42.59375 35.753906 42.621094 35.734375 42.65625 35.726562 C 42.699219 35.71875 42.734375 35.726562 42.769531 35.746094 C 42.804688 35.765625 42.828125 35.796875 42.84375 35.839844 Z M 42.84375 35.839844 " fill-opacity="1" fill-rule="nonzero"/><path fill="#ffffff" d="M 46.222656 36.429688 L 46.222656 38 C 46.222656 38.042969 46.203125 38.074219 46.171875 38.105469 C 46.140625 38.136719 46.101562 38.15625 46.054688 38.15625 C 46.015625 38.15625 45.976562 38.136719 45.941406 38.105469 C 45.914062 38.074219 45.902344 38.042969 45.902344 38 L 45.902344 35.09375 C 45.902344 35.046875 45.914062 35.007812 45.941406 34.980469 C 45.976562 34.945312 46.015625 34.929688 46.054688 34.929688 C 46.101562 34.929688 46.140625 34.945312 46.171875 34.980469 C 46.203125 35.007812 46.222656 35.046875 46.222656 35.09375 L 46.222656 36.054688 C 46.222656 36.078125 46.234375 36.09375 46.253906 36.097656 C 46.929688 36.257812 47.609375 36.464844 48.296875 36.71875 C 48.335938 36.734375 48.363281 36.757812 48.378906 36.800781 C 48.398438 36.835938 48.402344 36.871094 48.386719 36.914062 C 48.371094 36.949219 48.347656 36.976562 48.304688 36.996094 C 48.269531 37.011719 48.234375 37.015625 48.191406 37.007812 C 47.535156 36.757812 46.886719 36.558594 46.253906 36.40625 C 46.234375 36.402344 46.222656 36.40625 46.222656 36.429688 Z M 46.222656 36.429688 " fill-opacity="1" fill-rule="nonzero"/><path fill="#ffffff" d="M 49.695312 35.464844 L 49.695312 36.335938 C 49.695312 36.375 49.679688 36.414062 49.652344 36.449219 C 49.625 36.476562 49.589844 36.488281 49.550781 36.488281 C 49.507812 36.488281 49.46875 36.476562 49.4375 36.449219 C 49.40625 36.414062 49.394531 36.375 49.394531 36.335938 L 49.394531 35.363281 C 49.394531 35.308594 49.414062 35.257812 49.457031 35.21875 C 49.503906 35.171875 49.558594 35.144531 49.621094 35.144531 L 52.109375 35.144531 C 52.171875 35.144531 52.222656 35.171875 52.265625 35.21875 C 52.308594 35.257812 52.328125 35.308594 52.328125 35.363281 L 52.328125 35.839844 C 52.328125 36.515625 52.144531 37.042969 51.789062 37.421875 C 51.429688 37.792969 50.890625 38.011719 50.171875 38.074219 C 50.136719 38.078125 50.101562 38.066406 50.066406 38.042969 C 50.03125 38.011719 50.011719 37.980469 50.003906 37.949219 C 50.003906 37.90625 50.015625 37.875 50.035156 37.84375 C 50.058594 37.8125 50.089844 37.792969 50.128906 37.792969 C 50.773438 37.730469 51.246094 37.542969 51.550781 37.222656 C 51.859375 36.902344 52.015625 36.4375 52.015625 35.839844 L 52.015625 35.464844 C 52.015625 35.445312 52.007812 35.433594 51.984375 35.433594 L 49.726562 35.433594 C 49.707031 35.433594 49.695312 35.445312 49.695312 35.464844 Z M 49.695312 35.464844 " fill-opacity="1" fill-rule="nonzero"/><path fill="#ffffff" d="M 56.390625 36.4375 C 56.417969 36.46875 56.433594 36.5 56.433594 36.542969 C 56.433594 36.582031 56.417969 36.621094 56.390625 36.65625 C 56.363281 36.683594 56.324219 36.695312 56.277344 36.695312 L 53.363281 36.695312 C 53.316406 36.695312 53.277344 36.683594 53.25 36.65625 C 53.222656 36.621094 53.210938 36.582031 53.210938 36.542969 C 53.210938 36.5 53.222656 36.46875 53.25 36.4375 C 53.277344 36.414062 53.316406 36.398438 53.363281 36.398438 L 56.277344 36.398438 C 56.324219 36.398438 56.363281 36.414062 56.390625 36.4375 Z M 56.390625 36.4375 " fill-opacity="1" fill-rule="nonzero"/><path fill="#ffffff" d="M 58.246094 35.578125 C 58.105469 35.980469 57.882812 36.339844 57.574219 36.65625 C 57.542969 36.683594 57.503906 36.695312 57.460938 36.695312 C 57.417969 36.695312 57.382812 36.683594 57.355469 36.65625 C 57.328125 36.628906 57.3125 36.597656 57.3125 36.5625 C 57.3125 36.519531 57.328125 36.488281 57.355469 36.460938 C 57.75 36.054688 57.992188 35.570312 58.082031 35.011719 C 58.085938 34.964844 58.105469 34.929688 58.132812 34.90625 C 58.167969 34.882812 58.207031 34.867188 58.246094 34.867188 C 58.289062 34.875 58.320312 34.894531 58.351562 34.929688 C 58.375 34.957031 58.386719 34.992188 58.382812 35.03125 C 58.367188 35.128906 58.351562 35.195312 58.339844 35.238281 C 58.332031 35.265625 58.34375 35.28125 58.371094 35.28125 L 59.914062 35.28125 C 59.976562 35.28125 60.03125 35.304688 60.070312 35.351562 C 60.117188 35.394531 60.136719 35.441406 60.132812 35.496094 C 60.113281 36.304688 59.898438 36.910156 59.5 37.316406 C 59.105469 37.726562 58.492188 37.972656 57.65625 38.0625 C 57.621094 38.0625 57.585938 38.046875 57.550781 38.019531 C 57.523438 38 57.503906 37.972656 57.5 37.9375 C 57.492188 37.90625 57.5 37.871094 57.519531 37.835938 C 57.546875 37.800781 57.578125 37.78125 57.613281 37.78125 C 58.367188 37.699219 58.914062 37.492188 59.253906 37.152344 C 59.597656 36.808594 59.785156 36.289062 59.8125 35.589844 C 59.8125 35.5625 59.800781 35.550781 59.78125 35.550781 L 58.289062 35.550781 C 58.269531 35.550781 58.253906 35.558594 58.246094 35.578125 Z M 58.246094 35.578125 " fill-opacity="1" fill-rule="nonzero"/><path fill="#000000" d="M -1.953125 53.902344 L -1.664062 53.570312 C -1.449219 53.710938 -1.261719 53.835938 -1.101562 53.953125 C -0.945312 54.074219 -0.796875 54.1875 -0.65625 54.304688 C -0.511719 54.425781 -0.371094 54.554688 -0.230469 54.699219 L -0.53125 55.058594 C -0.96875 54.601562 -1.441406 54.210938 -1.953125 53.902344 Z M -1.910156 57.761719 L -2.046875 57.261719 C -1.894531 57.257812 -1.71875 57.234375 -1.515625 57.191406 C -1.316406 57.148438 -1.113281 57.097656 -0.90625 57.035156 C -0.691406 56.96875 -0.496094 56.890625 -0.316406 56.808594 C 0.824219 56.300781 1.636719 55.417969 2.121094 54.160156 C 2.1875 54.25 2.246094 54.320312 2.285156 54.367188 C 2.332031 54.410156 2.402344 54.457031 2.484375 54.511719 C 2.246094 55.027344 1.984375 55.472656 1.695312 55.835938 C 1.40625 56.195312 1.0625 56.507812 0.667969 56.777344 C 0.460938 56.921875 0.25 57.046875 0.0390625 57.148438 C -0.175781 57.253906 -0.414062 57.347656 -0.667969 57.429688 C -0.925781 57.511719 -1.222656 57.59375 -1.558594 57.667969 C -1.636719 57.683594 -1.695312 57.695312 -1.734375 57.707031 C -1.777344 57.722656 -1.835938 57.738281 -1.910156 57.761719 Z M -1.910156 57.761719 " fill-opacity="1" fill-rule="nonzero"/><path fill="#000000" d="M 5.597656 52.867188 L 6.066406 53 C 6.042969 53.039062 6.023438 53.070312 6.003906 53.09375 C 5.988281 53.117188 5.972656 53.148438 5.953125 53.1875 C 5.929688 53.230469 5.898438 53.300781 5.859375 53.394531 C 5.828125 53.453125 5.796875 53.507812 5.765625 53.558594 C 5.734375 53.617188 5.703125 53.671875 5.671875 53.726562 C 5.691406 53.71875 5.710938 53.714844 5.734375 53.714844 C 5.753906 53.714844 5.789062 53.714844 5.847656 53.714844 C 5.910156 53.714844 6.003906 53.714844 6.128906 53.714844 C 6.25 53.710938 6.421875 53.707031 6.644531 53.707031 C 6.875 53.707031 7.164062 53.703125 7.515625 53.695312 C 7.660156 53.691406 7.773438 53.667969 7.859375 53.632812 L 8.128906 53.902344 C 8.105469 53.9375 8.089844 53.96875 8.074219 53.996094 C 8.058594 54.015625 8.046875 54.046875 8.035156 54.085938 C 8.019531 54.128906 7.992188 54.199219 7.953125 54.292969 C 7.542969 55.398438 7.023438 56.25 6.398438 56.851562 C 6.148438 57.09375 5.871094 57.3125 5.566406 57.511719 C 5.261719 57.707031 4.914062 57.894531 4.519531 58.082031 C 4.472656 57.988281 4.425781 57.921875 4.386719 57.875 C 4.351562 57.824219 4.296875 57.769531 4.230469 57.707031 C 4.480469 57.613281 4.691406 57.515625 4.875 57.417969 C 5.058594 57.324219 5.257812 57.203125 5.464844 57.054688 C 5.691406 56.898438 5.882812 56.75 6.035156 56.613281 C 6.191406 56.476562 6.34375 56.3125 6.488281 56.125 C 6.273438 55.925781 6.058594 55.75 5.835938 55.597656 C 5.613281 55.441406 5.386719 55.292969 5.152344 55.152344 L 5.433594 54.851562 C 5.597656 54.953125 5.75 55.042969 5.890625 55.132812 C 6.027344 55.222656 6.164062 55.320312 6.304688 55.421875 C 6.441406 55.527344 6.589844 55.644531 6.75 55.773438 C 6.921875 55.511719 7.074219 55.242188 7.214844 54.957031 C 7.351562 54.667969 7.476562 54.363281 7.578125 54.046875 L 5.484375 54.078125 C 5.28125 54.410156 5.070312 54.699219 4.84375 54.945312 C 4.621094 55.191406 4.367188 55.425781 4.074219 55.660156 C 4.003906 55.585938 3.949219 55.53125 3.910156 55.496094 C 3.867188 55.460938 3.804688 55.421875 3.722656 55.382812 C 4.359375 54.925781 4.867188 54.363281 5.246094 53.683594 C 5.34375 53.515625 5.417969 53.359375 5.472656 53.230469 C 5.527344 53.101562 5.570312 52.976562 5.597656 52.867188 Z M 5.597656 52.867188 " fill-opacity="1" fill-rule="nonzero"/><path fill="#000000" d="M 9.542969 55.742188 L 9.542969 55.257812 C 9.632812 55.273438 9.726562 55.28125 9.824219 55.289062 C 9.925781 55.289062 10.078125 55.289062 10.277344 55.289062 L 13.742188 55.289062 C 13.890625 55.289062 14.003906 55.289062 14.082031 55.289062 C 14.164062 55.289062 14.234375 55.285156 14.289062 55.277344 C 14.34375 55.273438 14.40625 55.265625 14.464844 55.257812 L 14.464844 55.742188 C 14.367188 55.738281 14.273438 55.730469 14.175781 55.722656 C 14.085938 55.71875 13.941406 55.710938 13.742188 55.710938 L 10.277344 55.710938 C 10.140625 55.710938 10.023438 55.71875 9.9375 55.722656 C 9.847656 55.722656 9.773438 55.726562 9.71875 55.734375 C 9.664062 55.734375 9.605469 55.738281 9.542969 55.742188 Z M 9.542969 55.742188 " fill-opacity="1" fill-rule="nonzero"/><path fill="#000000" d="M 18.140625 58.089844 L 17.664062 58.089844 C 17.671875 58.019531 17.679688 57.945312 17.6875 57.863281 C 17.691406 57.78125 17.695312 57.6875 17.695312 57.585938 L 17.695312 56.085938 C 17.695312 56.078125 17.695312 56.070312 17.695312 56.054688 C 17.695312 56.039062 17.695312 56.027344 17.695312 56.011719 C 17.695312 55.976562 17.695312 55.957031 17.695312 55.949219 C 17.695312 55.945312 17.695312 55.929688 17.695312 55.910156 C 17.695312 55.882812 17.699219 55.863281 17.707031 55.847656 C 17.574219 55.9375 17.40625 56.03125 17.199219 56.136719 C 16.996094 56.234375 16.765625 56.332031 16.503906 56.4375 C 16.246094 56.535156 15.976562 56.628906 15.683594 56.714844 C 15.648438 56.621094 15.617188 56.546875 15.59375 56.496094 C 15.5625 56.453125 15.523438 56.390625 15.46875 56.320312 C 15.707031 56.253906 15.921875 56.191406 16.109375 56.136719 C 16.296875 56.082031 16.476562 56.019531 16.648438 55.949219 C 16.820312 55.882812 17 55.800781 17.1875 55.703125 C 17.574219 55.515625 17.933594 55.304688 18.265625 55.058594 C 18.597656 54.820312 18.910156 54.542969 19.199219 54.234375 C 19.121094 54.242188 19.054688 54.25 19 54.253906 C 18.945312 54.253906 18.898438 54.253906 18.855469 54.253906 L 16.578125 54.265625 C 16.445312 54.265625 16.332031 54.269531 16.246094 54.273438 C 16.160156 54.273438 16.078125 54.277344 15.996094 54.285156 L 15.996094 53.839844 C 16.140625 53.867188 16.332031 53.882812 16.578125 53.882812 L 17.6875 53.882812 L 17.6875 53.351562 C 17.6875 53.25 17.679688 53.171875 17.675781 53.117188 C 17.675781 53.0625 17.671875 53.007812 17.664062 52.949219 L 18.140625 52.949219 C 18.125 53.011719 18.117188 53.070312 18.109375 53.125 C 18.109375 53.175781 18.109375 53.246094 18.109375 53.332031 L 18.109375 53.882812 L 19.363281 53.882812 C 19.425781 53.882812 19.472656 53.882812 19.507812 53.882812 C 19.542969 53.875 19.582031 53.859375 19.625 53.839844 L 19.839844 54.109375 C 19.800781 54.144531 19.769531 54.171875 19.75 54.191406 C 19.734375 54.207031 19.710938 54.230469 19.6875 54.265625 C 19.554688 54.425781 19.421875 54.5625 19.292969 54.6875 C 19.167969 54.8125 19.023438 54.941406 18.867188 55.070312 C 18.714844 55.195312 18.523438 55.335938 18.296875 55.496094 C 18.609375 55.613281 18.878906 55.722656 19.105469 55.824219 C 19.339844 55.929688 19.5625 56.039062 19.777344 56.144531 C 19.992188 56.257812 20.226562 56.382812 20.484375 56.527344 L 20.234375 56.921875 C 20.074219 56.8125 19.902344 56.703125 19.71875 56.601562 C 19.535156 56.496094 19.328125 56.390625 19.09375 56.269531 C 18.859375 56.152344 18.582031 56.027344 18.265625 55.886719 C 18.230469 55.867188 18.175781 55.835938 18.101562 55.792969 C 18.105469 55.835938 18.109375 55.882812 18.109375 55.929688 C 18.117188 55.96875 18.121094 56.027344 18.121094 56.09375 L 18.121094 57.574219 C 18.121094 57.707031 18.121094 57.800781 18.121094 57.863281 C 18.125 57.929688 18.132812 58.007812 18.140625 58.089844 Z M 18.140625 58.089844 " fill-opacity="1" fill-rule="nonzero"/><path fill="#000000" d="M 22.054688 54.636719 L 22.429688 54.511719 C 22.503906 54.652344 22.574219 54.78125 22.636719 54.90625 C 22.699219 55.027344 22.753906 55.164062 22.8125 55.308594 C 22.875 55.453125 22.941406 55.628906 23.019531 55.835938 L 22.613281 55.96875 C 22.535156 55.710938 22.453125 55.472656 22.367188 55.265625 C 22.28125 55.054688 22.179688 54.84375 22.054688 54.636719 Z M 23.277344 54.386719 L 23.640625 54.273438 C 23.75 54.460938 23.835938 54.625 23.898438 54.761719 C 23.96875 54.890625 24.023438 55.019531 24.066406 55.144531 C 24.113281 55.261719 24.164062 55.398438 24.222656 55.558594 L 23.828125 55.691406 C 23.714844 55.277344 23.53125 54.84375 23.277344 54.386719 Z M 25.339844 54.386719 L 25.785156 54.480469 C 25.769531 54.507812 25.761719 54.539062 25.753906 54.5625 C 25.746094 54.585938 25.738281 54.625 25.722656 54.675781 C 25.707031 54.734375 25.683594 54.828125 25.652344 54.957031 C 25.625 55.101562 25.582031 55.253906 25.527344 55.410156 C 25.46875 55.570312 25.40625 55.726562 25.339844 55.878906 C 25.269531 56.03125 25.199219 56.167969 25.132812 56.292969 C 24.917969 56.660156 24.648438 56.980469 24.324219 57.261719 C 24.007812 57.539062 23.613281 57.785156 23.152344 58.007812 C 23.113281 57.929688 23.074219 57.875 23.039062 57.832031 C 23.003906 57.789062 22.953125 57.738281 22.882812 57.675781 C 23.34375 57.46875 23.722656 57.246094 24.015625 57.003906 C 24.308594 56.765625 24.5625 56.472656 24.769531 56.125 C 24.886719 55.9375 24.988281 55.742188 25.070312 55.527344 C 25.160156 55.304688 25.230469 55.082031 25.277344 54.851562 C 25.300781 54.75 25.3125 54.667969 25.320312 54.605469 C 25.332031 54.539062 25.339844 54.480469 25.339844 54.441406 L 25.339844 54.417969 C 25.339844 54.414062 25.339844 54.410156 25.339844 54.410156 C 25.339844 54.402344 25.339844 54.394531 25.339844 54.386719 Z M 25.339844 54.386719 " fill-opacity="1" fill-rule="nonzero"/><path fill="#000000" d="M 29.171875 57.96875 L 28.652344 57.96875 C 28.664062 57.882812 28.675781 57.796875 28.683594 57.707031 C 28.6875 57.621094 28.695312 57.496094 28.695312 57.335938 L 28.695312 53.644531 C 28.695312 53.484375 28.6875 53.363281 28.683594 53.28125 C 28.675781 53.199219 28.664062 53.121094 28.652344 53.042969 L 29.171875 53.042969 C 29.15625 53.121094 29.144531 53.199219 29.140625 53.28125 C 29.140625 53.363281 29.140625 53.492188 29.140625 53.664062 L 29.140625 54.769531 C 29.441406 54.882812 29.730469 54.996094 30 55.113281 C 30.273438 55.230469 30.554688 55.359375 30.839844 55.503906 C 31.128906 55.648438 31.445312 55.824219 31.792969 56.023438 L 31.535156 56.46875 C 31.257812 56.269531 30.921875 56.0625 30.527344 55.855469 C 30.136719 55.648438 29.726562 55.460938 29.304688 55.289062 C 29.234375 55.253906 29.175781 55.21875 29.128906 55.183594 L 29.109375 55.195312 C 29.121094 55.257812 29.128906 55.3125 29.128906 55.359375 C 29.136719 55.410156 29.140625 55.472656 29.140625 55.546875 L 29.140625 57.335938 C 29.140625 57.5 29.140625 57.628906 29.140625 57.71875 C 29.144531 57.800781 29.15625 57.882812 29.171875 57.96875 Z M 29.171875 57.96875 " fill-opacity="1" fill-rule="nonzero"/><path fill="#000000" d="M 34.628906 54.078125 L 34.628906 53.519531 C 34.628906 53.25 34.613281 53.046875 34.585938 52.910156 L 35.054688 52.910156 C 35.035156 53.046875 35.023438 53.25 35.023438 53.519531 L 35.023438 54.078125 L 36.589844 54.078125 L 36.589844 53.53125 C 36.589844 53.371094 36.582031 53.246094 36.578125 53.15625 C 36.570312 53.0625 36.558594 52.980469 36.546875 52.917969 L 37.011719 52.917969 C 36.984375 53.085938 36.972656 53.289062 36.972656 53.53125 L 36.972656 54.078125 L 37.613281 54.078125 C 37.867188 54.078125 38.082031 54.066406 38.246094 54.035156 L 38.246094 54.460938 C 38.167969 54.457031 38.082031 54.449219 37.976562 54.441406 C 37.878906 54.433594 37.757812 54.429688 37.613281 54.429688 L 36.972656 54.429688 L 36.972656 55.9375 L 37.75 55.9375 C 37.886719 55.9375 38.019531 55.9375 38.152344 55.929688 C 38.28125 55.917969 38.386719 55.90625 38.464844 55.898438 L 38.464844 56.34375 C 38.382812 56.328125 38.273438 56.320312 38.144531 56.3125 C 38.019531 56.308594 37.886719 56.300781 37.75 56.300781 L 33.882812 56.300781 C 33.757812 56.300781 33.632812 56.308594 33.507812 56.3125 C 33.390625 56.320312 33.285156 56.328125 33.1875 56.34375 L 33.1875 55.898438 C 33.285156 55.914062 33.386719 55.925781 33.5 55.929688 C 33.617188 55.9375 33.742188 55.9375 33.882812 55.9375 L 34.628906 55.9375 L 34.628906 54.429688 L 34.058594 54.429688 C 33.917969 54.429688 33.800781 54.433594 33.707031 54.441406 C 33.617188 54.441406 33.53125 54.449219 33.457031 54.460938 L 33.457031 54.035156 C 33.628906 54.066406 33.832031 54.078125 34.058594 54.078125 Z M 35.023438 55.9375 L 36.589844 55.9375 L 36.589844 54.429688 L 35.023438 54.429688 Z M 34.929688 56.582031 L 35.273438 56.796875 C 35.152344 56.9375 35.046875 57.0625 34.949219 57.171875 C 34.851562 57.273438 34.753906 57.371094 34.648438 57.460938 C 34.550781 57.542969 34.4375 57.628906 34.308594 57.71875 C 34.183594 57.804688 34.0625 57.886719 33.945312 57.957031 C 33.824219 58.023438 33.679688 58.101562 33.5 58.183594 C 33.449219 58.105469 33.40625 58.050781 33.363281 58.007812 C 33.328125 57.96875 33.28125 57.914062 33.21875 57.851562 C 33.371094 57.789062 33.5 57.738281 33.613281 57.6875 C 33.722656 57.632812 33.820312 57.582031 33.902344 57.53125 C 33.992188 57.476562 34.085938 57.417969 34.183594 57.347656 C 34.292969 57.261719 34.386719 57.1875 34.464844 57.117188 C 34.546875 57.042969 34.621094 56.964844 34.691406 56.878906 C 34.765625 56.796875 34.847656 56.699219 34.929688 56.582031 Z M 36.339844 56.808594 L 36.671875 56.570312 C 36.757812 56.695312 36.84375 56.804688 36.917969 56.890625 C 37.003906 56.972656 37.085938 57.054688 37.167969 57.128906 C 37.257812 57.207031 37.359375 57.285156 37.480469 57.367188 C 37.574219 57.429688 37.664062 57.488281 37.75 57.542969 C 37.835938 57.59375 37.9375 57.644531 38.050781 57.699219 C 38.160156 57.746094 38.289062 57.804688 38.441406 57.875 C 38.332031 57.960938 38.238281 58.082031 38.164062 58.226562 C 37.980469 58.128906 37.835938 58.050781 37.71875 57.988281 C 37.597656 57.925781 37.496094 57.863281 37.40625 57.800781 C 37.324219 57.746094 37.230469 57.675781 37.125 57.59375 C 37.023438 57.507812 36.929688 57.421875 36.847656 57.347656 C 36.765625 57.269531 36.679688 57.191406 36.597656 57.109375 C 36.519531 57.019531 36.433594 56.917969 36.339844 56.808594 Z M 36.339844 56.808594 " fill-opacity="1" fill-rule="nonzero"/><path fill="#000000" d="M 40.347656 57.511719 L 40.347656 55.226562 C 40.234375 55.359375 40.125 55.472656 40.015625 55.578125 C 39.910156 55.679688 39.800781 55.785156 39.683594 55.886719 C 39.5625 55.992188 39.421875 56.101562 39.257812 56.21875 C 39.222656 56.15625 39.1875 56.109375 39.152344 56.074219 C 39.117188 56.03125 39.066406 55.980469 39 55.917969 C 39.21875 55.78125 39.421875 55.628906 39.609375 55.464844 C 39.800781 55.296875 39.988281 55.113281 40.167969 54.90625 C 40.308594 54.753906 40.429688 54.601562 40.53125 54.449219 C 40.640625 54.300781 40.746094 54.128906 40.84375 53.941406 L 39.816406 53.941406 C 39.675781 53.941406 39.558594 53.949219 39.453125 53.953125 C 39.351562 53.953125 39.25 53.960938 39.152344 53.972656 L 39.152344 53.550781 C 39.25 53.558594 39.347656 53.566406 39.445312 53.570312 C 39.546875 53.578125 39.671875 53.582031 39.816406 53.582031 L 41.007812 53.582031 C 41.078125 53.414062 41.125 53.28125 41.15625 53.175781 C 41.1875 53.070312 41.214844 52.949219 41.238281 52.816406 L 41.671875 52.878906 C 41.652344 52.90625 41.632812 52.9375 41.621094 52.972656 C 41.613281 53 41.589844 53.074219 41.546875 53.199219 C 41.519531 53.277344 41.496094 53.339844 41.476562 53.394531 C 41.453125 53.445312 41.429688 53.507812 41.402344 53.582031 L 43.777344 53.582031 C 43.914062 53.582031 44.03125 53.578125 44.128906 53.570312 C 44.234375 53.566406 44.332031 53.558594 44.429688 53.550781 L 44.429688 53.972656 C 44.25 53.953125 44.03125 53.941406 43.777344 53.941406 L 41.238281 53.941406 C 41.1875 54.035156 41.144531 54.113281 41.101562 54.179688 C 41.0625 54.25 41.019531 54.320312 40.976562 54.386719 C 40.9375 54.449219 40.886719 54.527344 40.824219 54.617188 L 43 54.617188 C 43.148438 54.617188 43.269531 54.613281 43.363281 54.605469 C 43.457031 54.601562 43.550781 54.59375 43.640625 54.585938 C 43.632812 54.667969 43.625 54.769531 43.621094 54.882812 C 43.621094 54.996094 43.621094 55.128906 43.621094 55.277344 L 43.621094 57.667969 C 43.621094 57.84375 43.5625 57.96875 43.457031 58.039062 C 43.414062 58.066406 43.355469 58.085938 43.277344 58.101562 C 43.210938 58.113281 43.105469 58.121094 42.96875 58.121094 C 42.878906 58.121094 42.773438 58.117188 42.65625 58.113281 C 42.546875 58.113281 42.429688 58.105469 42.304688 58.089844 C 42.289062 58.011719 42.277344 57.949219 42.261719 57.894531 C 42.253906 57.84375 42.238281 57.785156 42.210938 57.71875 C 42.484375 57.753906 42.734375 57.769531 42.957031 57.769531 C 43.082031 57.769531 43.15625 57.761719 43.1875 57.738281 C 43.21875 57.71875 43.238281 57.671875 43.238281 57.59375 L 43.238281 56.871094 L 40.730469 56.871094 L 40.730469 57.511719 C 40.730469 57.65625 40.730469 57.78125 40.730469 57.882812 C 40.734375 57.988281 40.746094 58.085938 40.761719 58.183594 L 40.316406 58.183594 C 40.335938 57.976562 40.347656 57.753906 40.347656 57.511719 Z M 43.238281 55.898438 L 40.730469 55.898438 L 40.730469 56.550781 L 43.238281 56.550781 Z M 43.238281 55.578125 L 43.238281 54.945312 L 40.730469 54.945312 L 40.730469 55.578125 Z M 43.238281 55.578125 " fill-opacity="1" fill-rule="nonzero"/><path fill="#000000" d="M 45.410156 56.300781 L 45.121094 55.855469 C 45.238281 55.78125 45.402344 55.625 45.617188 55.390625 C 45.828125 55.152344 46.066406 54.863281 46.320312 54.53125 C 46.40625 54.417969 46.460938 54.335938 46.5 54.292969 C 46.539062 54.253906 46.574219 54.21875 46.613281 54.179688 C 46.785156 54.03125 46.945312 53.953125 47.089844 53.953125 C 47.253906 53.953125 47.425781 54.042969 47.605469 54.222656 C 47.632812 54.25 47.679688 54.300781 47.742188 54.367188 C 47.804688 54.429688 47.902344 54.539062 48.042969 54.699219 C 48.179688 54.859375 48.328125 55.023438 48.488281 55.195312 C 48.652344 55.367188 48.824219 55.535156 48.996094 55.703125 C 49.167969 55.867188 49.332031 56.023438 49.492188 56.167969 C 49.652344 56.308594 49.796875 56.425781 49.929688 56.527344 C 50.046875 56.621094 50.140625 56.6875 50.207031 56.734375 C 50.277344 56.777344 50.34375 56.8125 50.40625 56.839844 L 50.207031 57.355469 C 50.179688 57.332031 50.15625 57.308594 50.136719 57.292969 C 50.121094 57.28125 50.097656 57.261719 50.0625 57.234375 C 49.972656 57.15625 49.863281 57.066406 49.730469 56.964844 C 49.609375 56.855469 49.476562 56.742188 49.339844 56.621094 C 49.207031 56.503906 49.074219 56.390625 48.945312 56.269531 C 48.820312 56.144531 48.707031 56.039062 48.613281 55.9375 C 48.492188 55.824219 48.382812 55.710938 48.28125 55.597656 C 48.175781 55.488281 48.0625 55.359375 47.9375 55.214844 C 47.816406 55.070312 47.652344 54.890625 47.453125 54.667969 C 47.375 54.570312 47.308594 54.507812 47.253906 54.46875 C 47.199219 54.429688 47.144531 54.410156 47.097656 54.410156 C 47.058594 54.410156 47.015625 54.417969 46.976562 54.441406 C 46.9375 54.457031 46.894531 54.492188 46.839844 54.554688 C 46.792969 54.617188 46.722656 54.707031 46.632812 54.832031 C 46.453125 55.066406 46.28125 55.285156 46.113281 55.484375 C 45.953125 55.6875 45.777344 55.894531 45.585938 56.105469 C 45.527344 56.160156 45.492188 56.199219 45.472656 56.21875 C 45.457031 56.238281 45.4375 56.269531 45.410156 56.300781 Z M 45.410156 56.300781 " fill-opacity="1" fill-rule="nonzero"/><path fill="#000000" d="M 52.402344 53.601562 L 53.097656 53.601562 C 53.171875 53.453125 53.234375 53.3125 53.28125 53.1875 C 53.328125 53.0625 53.375 52.925781 53.417969 52.765625 L 53.84375 52.847656 C 53.78125 53.007812 53.71875 53.144531 53.667969 53.261719 C 53.617188 53.378906 53.566406 53.492188 53.511719 53.601562 L 54.941406 53.601562 C 55.105469 53.601562 55.242188 53.601562 55.34375 53.601562 C 55.453125 53.597656 55.5625 53.585938 55.667969 53.570312 C 55.652344 53.667969 55.640625 53.765625 55.636719 53.871094 C 55.636719 53.972656 55.636719 54.117188 55.636719 54.304688 L 55.636719 57.46875 C 55.636719 57.65625 55.636719 57.796875 55.636719 57.894531 C 55.640625 57.988281 55.652344 58.082031 55.667969 58.164062 L 55.253906 58.164062 L 55.253906 57.8125 L 52.113281 57.8125 L 52.113281 58.164062 L 51.695312 58.164062 C 51.710938 58.074219 51.71875 57.976562 51.71875 57.875 C 51.722656 57.769531 51.726562 57.636719 51.726562 57.46875 L 51.726562 54.304688 C 51.726562 54.132812 51.722656 53.996094 51.71875 53.890625 C 51.71875 53.78125 51.710938 53.675781 51.695312 53.570312 C 51.800781 53.585938 51.902344 53.597656 52.007812 53.601562 C 52.113281 53.601562 52.242188 53.601562 52.402344 53.601562 Z M 52.113281 53.953125 L 52.113281 54.863281 L 55.261719 54.863281 L 55.261719 53.953125 Z M 52.113281 55.203125 L 52.113281 56.144531 L 55.261719 56.144531 L 55.261719 55.203125 Z M 52.113281 56.488281 L 52.113281 57.460938 L 55.261719 57.460938 L 55.261719 56.488281 Z M 52.113281 56.488281 " fill-opacity="1" fill-rule="nonzero"/><g clip-path="url(#fc9cb5c32b)"><path fill="#000000" d="M 58.347656 53.910156 L 58.347656 53.5 C 58.203125 53.519531 58.070312 53.535156 57.964844 53.550781 C 57.851562 53.558594 57.742188 53.566406 57.632812 53.582031 C 57.519531 53.589844 57.386719 53.597656 57.238281 53.613281 C 57.222656 53.558594 57.207031 53.507812 57.1875 53.46875 C 57.171875 53.425781 57.140625 53.367188 57.09375 53.292969 C 57.324219 53.292969 57.570312 53.28125 57.816406 53.261719 C 58.070312 53.234375 58.316406 53.203125 58.542969 53.167969 C 58.773438 53.125 58.972656 53.082031 59.15625 53.03125 C 59.332031 52.984375 59.476562 52.9375 59.578125 52.886719 L 59.839844 53.1875 C 59.796875 53.195312 59.761719 53.203125 59.734375 53.207031 C 59.714844 53.214844 59.648438 53.234375 59.539062 53.261719 C 59.425781 53.296875 59.300781 53.328125 59.15625 53.351562 C 59.015625 53.382812 58.859375 53.414062 58.6875 53.445312 L 58.6875 53.910156 L 59.402344 53.910156 C 59.535156 53.910156 59.636719 53.910156 59.714844 53.910156 C 59.796875 53.90625 59.871094 53.898438 59.933594 53.882812 L 59.933594 54.242188 C 59.875 54.238281 59.820312 54.234375 59.757812 54.234375 C 59.695312 54.226562 59.59375 54.222656 59.457031 54.222656 L 58.6875 54.222656 L 58.6875 54.585938 L 59.3125 54.585938 C 59.417969 54.585938 59.519531 54.585938 59.601562 54.585938 C 59.683594 54.578125 59.757812 54.574219 59.828125 54.574219 C 59.820312 54.632812 59.8125 54.691406 59.808594 54.761719 C 59.808594 54.828125 59.808594 54.941406 59.808594 55.089844 L 59.808594 55.785156 C 59.808594 55.929688 59.808594 56.042969 59.808594 56.125 C 59.8125 56.207031 59.820312 56.28125 59.828125 56.34375 C 59.757812 56.335938 59.683594 56.332031 59.601562 56.332031 C 59.519531 56.332031 59.410156 56.332031 59.28125 56.332031 L 58.6875 56.332031 L 58.6875 56.726562 L 59.289062 56.726562 C 59.441406 56.726562 59.550781 56.726562 59.621094 56.726562 C 59.695312 56.71875 59.765625 56.710938 59.828125 56.703125 L 59.828125 57.054688 C 59.765625 57.050781 59.703125 57.046875 59.640625 57.046875 C 59.578125 57.042969 59.480469 57.035156 59.339844 57.035156 L 58.6875 57.035156 L 58.6875 57.46875 C 58.8125 57.449219 58.925781 57.433594 59.03125 57.417969 C 59.132812 57.40625 59.242188 57.386719 59.363281 57.367188 C 59.480469 57.347656 59.625 57.324219 59.796875 57.292969 L 59.796875 57.613281 C 59.519531 57.664062 59.257812 57.707031 59.011719 57.738281 C 58.765625 57.777344 58.515625 57.804688 58.253906 57.832031 C 57.988281 57.867188 57.6875 57.898438 57.351562 57.9375 C 57.273438 57.941406 57.21875 57.949219 57.175781 57.957031 C 57.140625 57.960938 57.09375 57.972656 57.039062 57.988281 L 56.957031 57.574219 C 57.003906 57.574219 57.050781 57.578125 57.09375 57.585938 C 57.140625 57.585938 57.179688 57.585938 57.207031 57.585938 C 57.300781 57.585938 57.441406 57.578125 57.621094 57.5625 C 57.800781 57.550781 58.039062 57.53125 58.347656 57.5 L 58.347656 57.035156 L 57.683594 57.035156 C 57.59375 57.035156 57.5 57.042969 57.402344 57.046875 C 57.304688 57.054688 57.21875 57.0625 57.132812 57.066406 L 57.132812 56.695312 C 57.210938 56.710938 57.289062 56.71875 57.371094 56.726562 C 57.457031 56.726562 57.558594 56.726562 57.683594 56.726562 L 58.347656 56.726562 L 58.347656 56.332031 L 57.777344 56.332031 C 57.652344 56.332031 57.542969 56.332031 57.457031 56.332031 C 57.371094 56.332031 57.292969 56.335938 57.21875 56.34375 C 57.230469 56.28125 57.238281 56.214844 57.238281 56.136719 C 57.238281 56.054688 57.238281 55.9375 57.238281 55.785156 L 57.238281 55.089844 C 57.238281 54.996094 57.238281 54.921875 57.238281 54.863281 C 57.238281 54.808594 57.238281 54.761719 57.238281 54.71875 C 57.238281 54.675781 57.230469 54.632812 57.21875 54.574219 C 57.300781 54.574219 57.382812 54.578125 57.464844 54.585938 C 57.554688 54.585938 57.664062 54.585938 57.785156 54.585938 L 58.347656 54.585938 L 58.347656 54.222656 L 57.527344 54.222656 C 57.410156 54.222656 57.308594 54.226562 57.226562 54.234375 C 57.148438 54.234375 57.074219 54.238281 57 54.242188 L 57 53.882812 C 57.074219 53.898438 57.15625 53.90625 57.238281 53.910156 C 57.320312 53.910156 57.417969 53.910156 57.539062 53.910156 Z M 58.347656 54.875 L 57.578125 54.875 L 57.578125 55.308594 L 58.347656 55.308594 Z M 58.6875 54.875 L 58.6875 55.308594 L 59.476562 55.308594 L 59.476562 54.875 Z M 58.347656 55.578125 L 57.578125 55.578125 L 57.578125 56.042969 L 58.347656 56.042969 Z M 58.6875 55.578125 L 58.6875 56.042969 L 59.476562 56.042969 L 59.476562 55.578125 Z M 61.09375 54.191406 L 61.671875 54.191406 C 61.789062 54.191406 61.886719 54.191406 61.964844 54.191406 C 62.046875 54.1875 62.125 54.179688 62.203125 54.171875 C 62.203125 54.234375 62.195312 54.304688 62.191406 54.386719 C 62.183594 54.46875 62.175781 54.605469 62.171875 54.792969 C 62.164062 55.390625 62.144531 55.894531 62.121094 56.292969 C 62.097656 56.691406 62.066406 57.011719 62.027344 57.253906 C 61.988281 57.496094 61.945312 57.683594 61.890625 57.8125 C 61.855469 57.921875 61.792969 57.996094 61.703125 58.039062 C 61.613281 58.085938 61.488281 58.113281 61.320312 58.113281 C 61.242188 58.113281 61.148438 58.105469 61.042969 58.089844 C 60.9375 58.082031 60.820312 58.074219 60.6875 58.058594 C 60.6875 57.988281 60.679688 57.921875 60.667969 57.851562 C 60.660156 57.789062 60.648438 57.730469 60.625 57.667969 C 60.777344 57.695312 60.902344 57.714844 61 57.730469 C 61.097656 57.746094 61.1875 57.75 61.269531 57.75 C 61.378906 57.75 61.457031 57.738281 61.496094 57.707031 C 61.542969 57.675781 61.582031 57.613281 61.601562 57.523438 C 61.644531 57.355469 61.675781 57.125 61.703125 56.828125 C 61.738281 56.527344 61.761719 56.183594 61.777344 55.792969 C 61.796875 55.402344 61.808594 54.984375 61.808594 54.542969 L 61.074219 54.542969 C 61.058594 54.972656 61.03125 55.335938 60.988281 55.640625 C 60.953125 55.9375 60.902344 56.207031 60.835938 56.445312 C 60.773438 56.679688 60.699219 56.894531 60.617188 57.085938 C 60.539062 57.273438 60.441406 57.457031 60.328125 57.636719 C 60.207031 57.804688 60.066406 57.992188 59.902344 58.195312 C 59.859375 58.152344 59.808594 58.105469 59.746094 58.058594 C 59.6875 58.019531 59.625 57.980469 59.558594 57.945312 C 59.675781 57.828125 59.773438 57.722656 59.847656 57.625 C 59.933594 57.53125 60.003906 57.429688 60.066406 57.324219 C 60.128906 57.222656 60.191406 57.105469 60.253906 56.972656 C 60.34375 56.78125 60.417969 56.570312 60.480469 56.34375 C 60.542969 56.117188 60.589844 55.855469 60.625 55.558594 C 60.667969 55.261719 60.695312 54.921875 60.710938 54.542969 L 60.554688 54.542969 C 60.429688 54.542969 60.328125 54.546875 60.242188 54.554688 C 60.160156 54.554688 60.078125 54.5625 59.996094 54.574219 L 59.996094 54.160156 C 60.078125 54.175781 60.152344 54.1875 60.222656 54.191406 C 60.296875 54.191406 60.402344 54.191406 60.535156 54.191406 L 60.730469 54.191406 C 60.730469 54.085938 60.730469 53.992188 60.730469 53.902344 C 60.730469 53.8125 60.730469 53.714844 60.730469 53.601562 C 60.730469 53.457031 60.730469 53.347656 60.730469 53.269531 C 60.730469 53.1875 60.726562 53.125 60.71875 53.074219 C 60.710938 53.019531 60.703125 52.96875 60.699219 52.917969 L 61.132812 52.917969 C 61.121094 52.976562 61.109375 53.039062 61.105469 53.105469 C 61.105469 53.175781 61.105469 53.261719 61.105469 53.363281 C 61.097656 53.578125 61.09375 53.742188 61.09375 53.859375 C 61.09375 53.980469 61.09375 54.085938 61.09375 54.191406 Z M 61.09375 54.191406 " fill-opacity="1" fill-rule="nonzero"/></g></svg>