<svg xmlns="http://www.w3.org/2000/svg" xmlns:xlink="http://www.w3.org/1999/xlink" width="87" zoomAndPan="magnify" viewBox="0 0 65.25 65.25" height="87" preserveAspectRatio="xMidYMid meet" version="1.0"><defs><clipPath id="5b93f7dbc1"><path d="M 0 0 L 64.507812 0 L 64.507812 64.507812 L 0 64.507812 Z M 0 0 " clip-rule="nonzero"/></clipPath><clipPath id="cffdb1bff2"><path d="M 27.515625 23.027344 L 45.234375 23.027344 L 45.234375 58.082031 L 27.515625 58.082031 Z M 27.515625 23.027344 " clip-rule="nonzero"/></clipPath><clipPath id="cda229efab"><path d="M 0 0 L 63.765625 0 L 63.765625 63.765625 L 0 63.765625 Z M 0 0 " clip-rule="nonzero"/></clipPath><clipPath id="4d33e270ea"><path d="M 0 13 L 63.765625 13 L 63.765625 14 L 0 14 Z M 0 13 " clip-rule="nonzero"/></clipPath><clipPath id="eef746c3a2"><path d="M 0 32 L 63.765625 32 L 63.765625 38 L 0 38 Z M 0 32 " clip-rule="nonzero"/></clipPath><clipPath id="80eff5d64f"><path d="M 0 47 L 63.765625 47 L 63.765625 48 L 0 48 Z M 0 47 " clip-rule="nonzero"/></clipPath><clipPath id="bf86b0924b"><path d="M 0 59 L 63.765625 59 L 63.765625 63.765625 L 0 63.765625 Z M 0 59 " clip-rule="nonzero"/></clipPath></defs><g clip-path="url(#5b93f7dbc1)"><path fill="#ffffff" d="M 0 0 L 64.507812 0 L 64.507812 64.507812 L 0 64.507812 Z M 0 0 " fill-opacity="1" fill-rule="nonzero"/></g><g clip-path="url(#cffdb1bff2)"><path fill="#3a41ff" d="M 27.515625 23.027344 L 45.234375 23.027344 L 45.234375 58.050781 L 27.515625 58.050781 Z M 27.515625 23.027344 " fill-opacity="1" fill-rule="nonzero"/></g><g clip-path="url(#cda229efab)"><rect x="-6.525" width="78.3" fill="#ffffff" y="-6.525" height="78.3" fill-opacity="1"/></g><path fill="#000000" d="M 1.324219 -6.476562 L 11.535156 -6.476562 L 11.535156 -4.039062 L 10.664062 -4.039062 L 10.664062 -5.675781 L 2.15625 -5.675781 L 2.15625 -4.039062 L 1.324219 -4.039062 Z M 2.765625 -4.324219 L 9.433594 -4.324219 L 9.433594 -3.488281 L 2.765625 -3.488281 Z M 10.234375 -9.960938 L 10.867188 -9.246094 C 8.46875 -8.742188 4.746094 -8.433594 1.644531 -8.3125 C 1.621094 -8.542969 1.515625 -8.875 1.429688 -9.078125 C 4.519531 -9.222656 8.195312 -9.53125 10.234375 -9.960938 Z M 2.433594 -8.0625 L 3.207031 -8.289062 C 3.554688 -7.800781 3.910156 -7.132812 4.054688 -6.703125 L 3.242188 -6.4375 C 3.101562 -6.871094 2.753906 -7.550781 2.433594 -8.0625 Z M 5.605469 -8.3125 L 6.417969 -8.492188 C 6.691406 -7.945312 6.976562 -7.214844 7.046875 -6.75 L 6.203125 -6.546875 C 6.128906 -7.011719 5.878906 -7.753906 5.605469 -8.3125 Z M 9.683594 -8.515625 L 10.589844 -8.253906 C 10.164062 -7.488281 9.601562 -6.605469 9.171875 -6.046875 L 8.457031 -6.296875 C 8.875 -6.894531 9.398438 -7.847656 9.683594 -8.515625 Z M 9.113281 -4.324219 L 9.316406 -4.324219 L 9.480469 -4.363281 L 10.078125 -3.992188 C 8.613281 -0.957031 5.234375 0.425781 1.597656 1.035156 C 1.5 0.808594 1.25 0.414062 1.074219 0.222656 C 4.652344 -0.265625 7.871094 -1.53125 9.113281 -4.171875 Z M 3.933594 -3.777344 C 5.296875 -1.578125 8.171875 -0.242188 11.761719 0.1875 C 11.582031 0.390625 11.332031 0.773438 11.222656 1.023438 C 7.585938 0.5 4.710938 -0.957031 3.148438 -3.441406 Z M 17.210938 -9.351562 L 22.734375 -9.351562 L 22.734375 -8.625 L 17.210938 -8.625 Z M 17.070312 -6.046875 L 22.949219 -6.046875 L 22.949219 -5.304688 L 17.070312 -5.304688 Z M 17.070312 -4.386719 L 22.925781 -4.386719 L 22.925781 -3.644531 L 17.070312 -3.644531 Z M 17.414062 -0.242188 L 22.59375 -0.242188 L 22.59375 0.5 L 17.414062 0.5 Z M 16.089844 -7.707031 L 23.855469 -7.707031 L 23.855469 -6.953125 L 16.089844 -6.953125 Z M 16.949219 -2.726562 L 23.058594 -2.726562 L 23.058594 1.023438 L 22.164062 1.023438 L 22.164062 -1.996094 L 17.808594 -1.996094 L 17.808594 1.058594 L 16.949219 1.058594 Z M 15.683594 -9.890625 L 16.53125 -9.628906 C 15.722656 -7.609375 14.445312 -5.601562 13.121094 -4.277344 C 13.039062 -4.480469 12.785156 -4.945312 12.621094 -5.160156 C 13.824219 -6.296875 14.992188 -8.074219 15.683594 -9.890625 Z M 14.445312 -6.808594 L 15.292969 -7.65625 L 15.304688 -7.644531 L 15.304688 1.035156 L 14.445312 1.035156 Z M 14.445312 -6.808594 " fill-opacity="1" fill-rule="nonzero"/><g clip-path="url(#4d33e270ea)"><path stroke-linecap="butt" transform="matrix(0.372786, 0, 0, 0.37317, -8.482935, -28.256333)" fill="none" stroke-linejoin="miter" d="M 24.002444 111.498598 L 336.996065 111.498598 " stroke="#d4d4d4" stroke-width="1" stroke-opacity="1" stroke-miterlimit="4"/></g><path fill="#000000" d="M 3.3125 19.550781 C 3.285156 19.460938 3.25 19.378906 3.203125 19.3125 C 3.15625 19.242188 3.097656 19.179688 3.027344 19.132812 C 2.960938 19.082031 2.886719 19.046875 2.800781 19.019531 C 2.714844 18.992188 2.621094 18.980469 2.515625 18.980469 C 2.320312 18.980469 2.152344 19.027344 2.003906 19.125 C 1.859375 19.222656 1.746094 19.363281 1.664062 19.546875 C 1.582031 19.730469 1.539062 19.953125 1.539062 20.21875 C 1.539062 20.484375 1.582031 20.707031 1.660156 20.894531 C 1.742188 21.078125 1.855469 21.21875 2.003906 21.316406 C 2.148438 21.414062 2.324219 21.464844 2.523438 21.464844 C 2.703125 21.464844 2.859375 21.429688 2.988281 21.367188 C 3.117188 21.300781 3.214844 21.207031 3.285156 21.089844 C 3.355469 20.972656 3.386719 20.832031 3.386719 20.667969 L 3.550781 20.691406 L 2.574219 20.691406 L 2.574219 20.089844 L 4.160156 20.089844 L 4.160156 20.566406 C 4.160156 20.902344 4.089844 21.1875 3.949219 21.429688 C 3.808594 21.667969 3.617188 21.851562 3.367188 21.980469 C 3.121094 22.109375 2.839844 22.171875 2.519531 22.171875 C 2.164062 22.171875 1.851562 22.09375 1.582031 21.9375 C 1.3125 21.78125 1.101562 21.554688 0.953125 21.265625 C 0.800781 20.972656 0.726562 20.625 0.726562 20.226562 C 0.726562 19.917969 0.773438 19.644531 0.859375 19.402344 C 0.949219 19.160156 1.078125 18.953125 1.238281 18.785156 C 1.402344 18.617188 1.589844 18.488281 1.804688 18.402344 C 2.019531 18.3125 2.25 18.269531 2.503906 18.269531 C 2.71875 18.269531 2.917969 18.300781 3.101562 18.363281 C 3.289062 18.425781 3.453125 18.515625 3.597656 18.628906 C 3.742188 18.742188 3.859375 18.878906 3.949219 19.035156 C 4.042969 19.191406 4.101562 19.363281 4.125 19.550781 Z M 6.046875 22.175781 C 5.753906 22.175781 5.5 22.117188 5.289062 22 C 5.082031 21.878906 4.917969 21.710938 4.804688 21.492188 C 4.691406 21.269531 4.632812 21.011719 4.632812 20.710938 C 4.632812 20.417969 4.691406 20.160156 4.804688 19.9375 C 4.917969 19.714844 5.078125 19.542969 5.285156 19.421875 C 5.492188 19.296875 5.734375 19.234375 6.015625 19.234375 C 6.203125 19.234375 6.378906 19.265625 6.539062 19.324219 C 6.703125 19.386719 6.84375 19.476562 6.964844 19.59375 C 7.089844 19.714844 7.183594 19.867188 7.25 20.046875 C 7.320312 20.226562 7.351562 20.4375 7.351562 20.683594 L 7.351562 20.898438 L 4.949219 20.898438 L 4.949219 20.410156 L 6.609375 20.410156 C 6.609375 20.296875 6.585938 20.195312 6.535156 20.105469 C 6.488281 20.019531 6.417969 19.949219 6.332031 19.902344 C 6.242188 19.851562 6.144531 19.824219 6.027344 19.824219 C 5.910156 19.824219 5.800781 19.851562 5.710938 19.910156 C 5.617188 19.960938 5.546875 20.035156 5.496094 20.128906 C 5.441406 20.21875 5.414062 20.324219 5.414062 20.433594 L 5.414062 20.902344 C 5.414062 21.042969 5.441406 21.164062 5.492188 21.265625 C 5.546875 21.367188 5.621094 21.449219 5.714844 21.503906 C 5.8125 21.558594 5.925781 21.585938 6.058594 21.585938 C 6.148438 21.585938 6.226562 21.574219 6.300781 21.550781 C 6.375 21.523438 6.4375 21.488281 6.488281 21.4375 C 6.539062 21.390625 6.578125 21.328125 6.605469 21.257812 L 7.335938 21.304688 C 7.300781 21.480469 7.222656 21.632812 7.109375 21.765625 C 6.996094 21.894531 6.847656 21.996094 6.667969 22.070312 C 6.488281 22.140625 6.28125 22.175781 6.046875 22.175781 Z M 9.164062 22.175781 C 8.871094 22.175781 8.621094 22.117188 8.410156 22 C 8.199219 21.878906 8.039062 21.710938 7.925781 21.492188 C 7.808594 21.269531 7.753906 21.011719 7.753906 20.710938 C 7.753906 20.417969 7.808594 20.160156 7.925781 19.9375 C 8.039062 19.714844 8.199219 19.542969 8.402344 19.421875 C 8.613281 19.296875 8.855469 19.234375 9.132812 19.234375 C 9.320312 19.234375 9.496094 19.265625 9.660156 19.324219 C 9.820312 19.386719 9.964844 19.476562 10.085938 19.59375 C 10.207031 19.714844 10.300781 19.867188 10.371094 20.046875 C 10.4375 20.226562 10.472656 20.4375 10.472656 20.683594 L 10.472656 20.898438 L 8.070312 20.898438 L 8.070312 20.410156 L 9.730469 20.410156 C 9.730469 20.296875 9.703125 20.195312 9.65625 20.105469 C 9.605469 20.019531 9.535156 19.949219 9.449219 19.902344 C 9.363281 19.851562 9.261719 19.824219 9.148438 19.824219 C 9.027344 19.824219 8.921875 19.851562 8.828125 19.910156 C 8.738281 19.960938 8.664062 20.035156 8.613281 20.128906 C 8.5625 20.21875 8.535156 20.324219 8.535156 20.433594 L 8.535156 20.902344 C 8.535156 21.042969 8.558594 21.164062 8.613281 21.265625 C 8.664062 21.367188 8.738281 21.449219 8.835938 21.503906 C 8.933594 21.558594 9.046875 21.585938 9.179688 21.585938 C 9.265625 21.585938 9.347656 21.574219 9.417969 21.550781 C 9.492188 21.523438 9.554688 21.488281 9.605469 21.4375 C 9.660156 21.390625 9.699219 21.328125 9.726562 21.257812 L 10.457031 21.304688 C 10.417969 21.480469 10.34375 21.632812 10.226562 21.765625 C 10.113281 21.894531 9.96875 21.996094 9.785156 22.070312 C 9.609375 22.140625 9.402344 22.175781 9.164062 22.175781 Z M 12.269531 23.25 C 12.015625 23.25 11.796875 23.214844 11.613281 23.144531 C 11.429688 23.074219 11.285156 22.980469 11.179688 22.859375 C 11.070312 22.738281 11 22.605469 10.96875 22.457031 L 11.699219 22.355469 C 11.722656 22.414062 11.757812 22.46875 11.804688 22.515625 C 11.851562 22.566406 11.917969 22.605469 11.996094 22.636719 C 12.078125 22.667969 12.171875 22.683594 12.289062 22.683594 C 12.460938 22.683594 12.601562 22.640625 12.714844 22.554688 C 12.824219 22.472656 12.882812 22.332031 12.882812 22.136719 L 12.882812 21.617188 L 12.847656 21.617188 C 12.8125 21.695312 12.761719 21.769531 12.691406 21.839844 C 12.625 21.910156 12.535156 21.96875 12.425781 22.015625 C 12.316406 22.058594 12.1875 22.082031 12.035156 22.082031 C 11.824219 22.082031 11.628906 22.03125 11.453125 21.933594 C 11.277344 21.832031 11.140625 21.679688 11.035156 21.472656 C 10.933594 21.265625 10.882812 21.007812 10.882812 20.691406 C 10.882812 20.367188 10.933594 20.097656 11.039062 19.882812 C 11.144531 19.664062 11.285156 19.503906 11.457031 19.394531 C 11.632812 19.289062 11.824219 19.234375 12.035156 19.234375 C 12.195312 19.234375 12.328125 19.261719 12.433594 19.316406 C 12.542969 19.371094 12.628906 19.4375 12.695312 19.515625 C 12.761719 19.597656 12.8125 19.675781 12.847656 19.75 L 12.878906 19.75 L 12.878906 19.273438 L 13.660156 19.273438 L 13.660156 22.148438 C 13.660156 22.390625 13.601562 22.59375 13.484375 22.757812 C 13.367188 22.921875 13.203125 23.042969 12.992188 23.125 C 12.78125 23.207031 12.542969 23.25 12.269531 23.25 Z M 12.285156 21.488281 C 12.414062 21.488281 12.523438 21.457031 12.609375 21.390625 C 12.699219 21.328125 12.765625 21.238281 12.8125 21.117188 C 12.863281 20.996094 12.886719 20.855469 12.886719 20.6875 C 12.886719 20.519531 12.863281 20.375 12.816406 20.253906 C 12.769531 20.128906 12.699219 20.035156 12.609375 19.964844 C 12.523438 19.898438 12.414062 19.863281 12.285156 19.863281 C 12.15625 19.863281 12.046875 19.898438 11.957031 19.96875 C 11.871094 20.039062 11.800781 20.136719 11.757812 20.257812 C 11.710938 20.382812 11.6875 20.527344 11.6875 20.6875 C 11.6875 20.851562 11.710938 20.996094 11.757812 21.113281 C 11.804688 21.234375 11.871094 21.324219 11.957031 21.390625 C 12.046875 21.457031 12.15625 21.488281 12.285156 21.488281 Z M 15.078125 18.320312 L 15.078125 22.121094 L 14.289062 22.121094 L 14.289062 18.320312 Z M 17.007812 22.175781 C 16.71875 22.175781 16.464844 22.117188 16.253906 22 C 16.042969 21.878906 15.882812 21.710938 15.769531 21.492188 C 15.652344 21.269531 15.597656 21.011719 15.597656 20.710938 C 15.597656 20.417969 15.652344 20.160156 15.769531 19.9375 C 15.882812 19.714844 16.042969 19.542969 16.246094 19.421875 C 16.457031 19.296875 16.699219 19.234375 16.976562 19.234375 C 17.164062 19.234375 17.339844 19.265625 17.503906 19.324219 C 17.664062 19.386719 17.808594 19.476562 17.929688 19.59375 C 18.050781 19.714844 18.144531 19.867188 18.214844 20.046875 C 18.28125 20.226562 18.316406 20.4375 18.316406 20.683594 L 18.316406 20.898438 L 15.914062 20.898438 L 15.914062 20.410156 L 17.574219 20.410156 C 17.574219 20.296875 17.546875 20.195312 17.5 20.105469 C 17.449219 20.019531 17.382812 19.949219 17.292969 19.902344 C 17.207031 19.851562 17.105469 19.824219 16.992188 19.824219 C 16.871094 19.824219 16.765625 19.851562 16.671875 19.910156 C 16.582031 19.960938 16.507812 20.035156 16.457031 20.128906 C 16.40625 20.21875 16.378906 20.324219 16.378906 20.433594 L 16.378906 20.902344 C 16.378906 21.042969 16.402344 21.164062 16.457031 21.265625 C 16.507812 21.367188 16.582031 21.449219 16.679688 21.503906 C 16.777344 21.558594 16.890625 21.585938 17.023438 21.585938 C 17.109375 21.585938 17.191406 21.574219 17.261719 21.550781 C 17.335938 21.523438 17.398438 21.488281 17.449219 21.4375 C 17.503906 21.390625 17.542969 21.328125 17.570312 21.257812 L 18.300781 21.304688 C 18.261719 21.480469 18.1875 21.632812 18.070312 21.765625 C 17.957031 21.894531 17.8125 21.996094 17.628906 22.070312 C 17.453125 22.140625 17.246094 22.175781 17.007812 22.175781 Z M 17.007812 22.175781 " fill-opacity="1" fill-rule="nonzero"/><path fill="#000000" d="M 1.941406 28.589844 C 1.941406 28.144531 1.941406 26.425781 1.941406 25.914062 C 1.941406 25.765625 1.9375 25.605469 1.914062 25.464844 L 2.367188 25.464844 C 2.347656 25.605469 2.335938 25.773438 2.335938 25.914062 C 2.335938 26.421875 2.335938 28.007812 2.335938 28.488281 C 2.335938 28.824219 2.460938 28.929688 3.039062 28.929688 C 3.597656 28.929688 4.070312 28.882812 4.550781 28.785156 L 4.535156 29.203125 C 4.101562 29.265625 3.617188 29.304688 3.011719 29.304688 C 2.113281 29.304688 1.941406 29.066406 1.941406 28.589844 Z M 4.757812 26.421875 C 4.71875 26.476562 4.671875 26.558594 4.636719 26.617188 C 4.414062 27.019531 4.035156 27.628906 3.644531 28.027344 L 3.308594 27.828125 C 3.671875 27.496094 4.027344 26.960938 4.171875 26.675781 C 4.019531 26.703125 1.410156 27.226562 0.828125 27.355469 L 0.75 26.945312 C 1.371094 26.875 3.847656 26.375 4.214844 26.285156 C 4.316406 26.261719 4.414062 26.234375 4.472656 26.199219 Z M 7.203125 25.78125 C 7.179688 25.660156 7.152344 25.554688 7.117188 25.453125 L 7.550781 25.378906 C 7.558594 25.464844 7.578125 25.605469 7.597656 25.714844 C 7.625 25.925781 8.160156 28.589844 8.226562 28.910156 C 8.261719 29.046875 8.300781 29.210938 8.347656 29.351562 L 7.902344 29.433594 C 7.878906 29.269531 7.863281 29.121094 7.832031 28.980469 C 7.78125 28.671875 7.261719 26.035156 7.203125 25.78125 Z M 5.839844 26.484375 C 5.960938 26.476562 6.089844 26.464844 6.246094 26.453125 C 6.679688 26.402344 8.355469 26.136719 8.8125 26.042969 C 8.953125 26.019531 9.082031 25.992188 9.164062 25.964844 L 9.242188 26.375 C 9.167969 26.378906 9.023438 26.402344 8.890625 26.421875 C 8.390625 26.5 6.738281 26.761719 6.3125 26.835938 C 6.183594 26.859375 6.066406 26.882812 5.925781 26.917969 Z M 5.824219 27.882812 C 5.941406 27.878906 6.125 27.859375 6.25 27.839844 C 6.769531 27.769531 8.570312 27.476562 9.152344 27.367188 C 9.335938 27.335938 9.476562 27.300781 9.578125 27.269531 L 9.660156 27.679688 C 9.558594 27.6875 9.40625 27.71875 9.226562 27.746094 C 8.582031 27.84375 6.832031 28.128906 6.34375 28.21875 C 6.152344 28.25 6.019531 28.28125 5.910156 28.308594 Z M 13.722656 26.90625 C 13.707031 26.949219 13.695312 27.015625 13.695312 27.058594 C 13.652344 27.421875 13.476562 28.585938 13.417969 28.925781 L 13.011719 28.925781 C 13.0625 28.664062 13.242188 27.476562 13.257812 27.164062 C 12.957031 27.164062 11.851562 27.164062 11.722656 27.164062 C 11.582031 27.164062 11.449219 27.167969 11.328125 27.179688 L 11.328125 26.773438 C 11.445312 26.785156 11.59375 26.796875 11.71875 26.796875 C 11.902344 26.796875 12.917969 26.796875 13.191406 26.796875 C 13.269531 26.796875 13.390625 26.785156 13.425781 26.761719 Z M 10.875 28.769531 C 10.988281 28.785156 11.128906 28.792969 11.277344 28.792969 C 11.539062 28.792969 13.664062 28.792969 13.921875 28.792969 C 14.027344 28.792969 14.203125 28.785156 14.304688 28.773438 L 14.304688 29.167969 C 14.210938 29.164062 14.039062 29.164062 13.929688 29.164062 C 13.660156 29.164062 11.519531 29.164062 11.277344 29.164062 C 11.128906 29.164062 11.019531 29.167969 10.875 29.171875 Z M 18.757812 25.535156 C 18.75 25.652344 18.742188 25.792969 18.742188 25.957031 C 18.742188 26.144531 18.742188 26.558594 18.742188 26.738281 C 18.742188 27.90625 18.589844 28.289062 18.234375 28.703125 C 17.925781 29.082031 17.441406 29.292969 17.085938 29.414062 L 16.765625 29.082031 C 17.210938 28.964844 17.625 28.773438 17.925781 28.429688 C 18.269531 28.03125 18.332031 27.636719 18.332031 26.722656 C 18.332031 26.535156 18.332031 26.125 18.332031 25.957031 C 18.332031 25.792969 18.316406 25.652344 18.304688 25.535156 Z M 16.511719 25.574219 C 16.5 25.664062 16.496094 25.804688 16.496094 25.917969 C 16.496094 26.0625 16.496094 27.335938 16.496094 27.539062 C 16.496094 27.664062 16.5 27.824219 16.511719 27.910156 L 16.070312 27.910156 C 16.078125 27.835938 16.089844 27.679688 16.089844 27.539062 C 16.089844 27.328125 16.089844 26.0625 16.089844 25.917969 C 16.089844 25.835938 16.082031 25.664062 16.070312 25.574219 Z M 20.886719 25.625 C 21.027344 25.640625 21.167969 25.652344 21.328125 25.652344 C 21.609375 25.652344 23.019531 25.652344 23.289062 25.652344 C 23.425781 25.652344 23.601562 25.640625 23.742188 25.625 L 23.742188 26.03125 C 23.59375 26.019531 23.425781 26.011719 23.289062 26.011719 C 23.019531 26.011719 21.609375 26.011719 21.332031 26.011719 C 21.171875 26.011719 21.011719 26.019531 20.886719 26.03125 Z M 20.308594 26.84375 C 20.441406 26.859375 20.582031 26.863281 20.730469 26.863281 C 21.011719 26.863281 23.644531 26.863281 23.898438 26.863281 C 24.003906 26.863281 24.160156 26.859375 24.28125 26.84375 L 24.28125 27.242188 C 24.171875 27.238281 24.019531 27.234375 23.898438 27.234375 C 23.644531 27.234375 21.011719 27.234375 20.730469 27.234375 C 20.585938 27.234375 20.441406 27.238281 20.308594 27.246094 Z M 22.589844 27.039062 C 22.589844 27.648438 22.515625 28.152344 22.296875 28.5625 C 22.121094 28.886719 21.753906 29.230469 21.347656 29.445312 L 20.988281 29.183594 C 21.359375 29.023438 21.710938 28.746094 21.898438 28.4375 C 22.140625 28.050781 22.179688 27.578125 22.183594 27.042969 Z M 24.992188 27.964844 C 25.632812 27.808594 26.34375 27.46875 26.742188 27.226562 C 27.199219 26.949219 27.644531 26.546875 27.894531 26.242188 L 28.195312 26.535156 C 27.914062 26.835938 27.410156 27.257812 26.90625 27.5625 C 26.5 27.804688 25.828125 28.125 25.183594 28.324219 Z M 26.699219 27.449219 L 27.101562 27.347656 L 27.101562 29.167969 C 27.101562 29.3125 27.105469 29.515625 27.125 29.589844 L 26.675781 29.589844 C 26.683594 29.515625 26.699219 29.3125 26.699219 29.167969 Z M 30.503906 27.054688 L 30.503906 28.769531 L 30.160156 28.769531 L 30.160156 27.394531 L 29.453125 27.394531 L 29.453125 27.054688 Z M 30.503906 28.625 C 30.742188 28.984375 31.15625 29.148438 31.730469 29.167969 C 32.261719 29.191406 33.382812 29.179688 33.964844 29.140625 C 33.917969 29.222656 33.867188 29.390625 33.847656 29.496094 C 33.308594 29.523438 32.273438 29.53125 31.730469 29.507812 C 31.09375 29.484375 30.652344 29.3125 30.351562 28.929688 C 30.105469 29.140625 29.84375 29.351562 29.566406 29.5625 L 29.386719 29.203125 C 29.628906 29.050781 29.929688 28.832031 30.1875 28.625 Z M 29.535156 25.476562 L 29.785156 25.25 C 30.097656 25.464844 30.460938 25.796875 30.621094 26.035156 L 30.34375 26.285156 C 30.191406 26.046875 29.839844 25.703125 29.535156 25.476562 Z M 31.472656 25.953125 L 31.703125 25.746094 C 32.160156 25.90625 32.769531 26.175781 33.097656 26.367188 L 32.847656 26.597656 C 32.542969 26.40625 31.941406 26.132812 31.472656 25.953125 Z M 31.011719 26.359375 L 33.515625 26.359375 L 33.515625 26.640625 L 31.355469 26.640625 L 31.355469 28.871094 L 31.011719 28.871094 Z M 33.34375 26.359375 L 33.691406 26.359375 L 33.691406 28.507812 C 33.691406 28.6875 33.65625 28.769531 33.527344 28.824219 C 33.402344 28.882812 33.199219 28.882812 32.871094 28.882812 C 32.859375 28.789062 32.816406 28.664062 32.769531 28.582031 C 33 28.589844 33.203125 28.585938 33.265625 28.585938 C 33.328125 28.585938 33.34375 28.566406 33.34375 28.503906 Z M 31.011719 25.339844 L 33.429688 25.339844 L 33.429688 25.632812 L 31.011719 25.632812 Z M 31.199219 27.066406 L 33.484375 27.066406 L 33.484375 27.339844 L 31.199219 27.339844 Z M 31.199219 27.78125 L 33.484375 27.78125 L 33.484375 28.0625 L 31.199219 28.0625 Z M 32.171875 26.476562 L 32.5 26.476562 L 32.5 28.851562 L 32.171875 28.851562 Z M 33.308594 25.339844 L 33.390625 25.339844 L 33.46875 25.320312 L 33.691406 25.496094 C 33.367188 25.800781 32.878906 26.101562 32.4375 26.285156 C 32.386719 26.222656 32.296875 26.125 32.242188 26.074219 C 32.640625 25.917969 33.089844 25.636719 33.308594 25.410156 Z M 36.898438 28.730469 L 38.335938 28.730469 L 38.335938 29.074219 L 36.898438 29.074219 Z M 36.75 25.558594 L 38.496094 25.558594 L 38.496094 29.410156 L 38.132812 29.410156 L 38.132812 25.902344 L 37.097656 25.902344 L 37.097656 29.464844 L 36.75 29.464844 Z M 35.316406 25.957031 L 35.683594 25.957031 L 35.683594 26.933594 C 35.683594 27.757812 35.519531 28.871094 34.515625 29.589844 C 34.46875 29.511719 34.335938 29.371094 34.257812 29.320312 C 35.203125 28.644531 35.316406 27.679688 35.316406 26.925781 Z M 34.816406 25.792969 L 36.449219 25.792969 L 36.449219 26.132812 L 34.816406 26.132812 Z M 34.3125 27.097656 L 36.59375 27.097656 L 36.59375 27.445312 L 34.3125 27.445312 Z M 35.566406 27.738281 C 35.757812 27.90625 36.421875 28.652344 36.574219 28.839844 L 36.328125 29.144531 C 36.125 28.847656 35.566406 28.183594 35.34375 27.945312 Z M 34.859375 25.136719 L 35.214844 25.203125 C 35.074219 25.855469 34.839844 26.480469 34.554688 26.894531 C 34.492188 26.835938 34.335938 26.734375 34.253906 26.683594 C 34.542969 26.3125 34.742188 25.730469 34.859375 25.136719 Z M 34.859375 25.136719 " fill-opacity="1" fill-rule="nonzero"/><g clip-path="url(#eef746c3a2)"><path fill="#aaa9a9" d="M 3.308594 34.238281 L 5.113281 34.238281 L 5.113281 34.578125 L 3.308594 34.578125 Z M 0.757812 33.109375 L 2.898438 33.109375 L 2.898438 33.421875 L 0.757812 33.421875 Z M 0.707031 35.035156 L 2.921875 35.035156 L 2.921875 35.351562 L 0.707031 35.351562 Z M 0.691406 34.21875 L 2.953125 34.21875 L 2.953125 34.53125 L 0.691406 34.53125 Z M 4.210938 34.375 L 4.5625 34.375 L 4.5625 37.039062 L 4.210938 37.039062 Z M 1.65625 32.621094 L 2.011719 32.621094 L 2.011719 33.269531 L 1.65625 33.269531 Z M 1.65625 34.472656 L 2.011719 34.472656 L 2.011719 37.058594 L 1.65625 37.058594 Z M 3.132812 32.996094 L 3.578125 33.132812 C 3.574219 33.171875 3.546875 33.191406 3.476562 33.203125 L 3.476562 34.699219 C 3.476562 35.429688 3.390625 36.414062 2.707031 37.085938 C 2.664062 37.003906 2.535156 36.882812 2.445312 36.835938 C 3.066406 36.222656 3.132812 35.386719 3.132812 34.695312 Z M 4.757812 32.660156 L 5.046875 32.925781 C 4.59375 33.128906 3.914062 33.292969 3.332031 33.394531 C 3.3125 33.316406 3.265625 33.191406 3.222656 33.121094 C 3.765625 33.003906 4.402344 32.832031 4.757812 32.660156 Z M 1.976562 35.441406 C 2.132812 35.550781 2.660156 35.980469 2.78125 36.09375 L 2.566406 36.363281 C 2.414062 36.183594 1.957031 35.757812 1.777344 35.609375 Z M 1.050781 33.507812 L 1.335938 33.445312 C 1.4375 33.65625 1.519531 33.945312 1.542969 34.128906 L 1.238281 34.210938 C 1.226562 34.023438 1.148438 33.730469 1.050781 33.507812 Z M 2.289062 33.433594 L 2.621094 33.507812 C 2.527344 33.75 2.425781 34.023438 2.339844 34.199219 L 2.046875 34.132812 C 2.136719 33.9375 2.238281 33.636719 2.289062 33.433594 Z M 1.660156 35.195312 L 1.921875 35.296875 C 1.675781 35.835938 1.230469 36.410156 0.84375 36.710938 C 0.785156 36.625 0.675781 36.511719 0.59375 36.453125 C 0.988281 36.195312 1.429688 35.671875 1.660156 35.195312 Z M 6.957031 32.894531 C 6.933594 33.054688 6.917969 33.226562 6.910156 33.386719 C 6.890625 33.933594 6.851562 35.085938 6.851562 35.808594 C 6.851562 36.339844 7.1875 36.523438 7.644531 36.523438 C 8.53125 36.523438 9.035156 36.03125 9.386719 35.527344 L 9.65625 35.855469 C 9.328125 36.316406 8.699219 36.921875 7.636719 36.921875 C 6.9375 36.921875 6.457031 36.636719 6.457031 35.839844 C 6.457031 35.121094 6.507812 33.894531 6.507812 33.386719 C 6.507812 33.207031 6.492188 33.035156 6.464844 32.894531 Z M 11.238281 33.292969 C 11.210938 33.40625 11.199219 33.636719 11.195312 33.765625 C 11.1875 34.066406 11.195312 34.511719 11.226562 34.910156 C 11.308594 35.71875 11.542969 36.257812 11.890625 36.257812 C 12.136719 36.257812 12.367188 35.757812 12.492188 35.273438 L 12.796875 35.617188 C 12.5 36.4375 12.210938 36.71875 11.882812 36.71875 C 11.421875 36.71875 10.984375 36.261719 10.847656 35.007812 C 10.804688 34.589844 10.796875 33.996094 10.796875 33.714844 C 10.796875 33.605469 10.796875 33.394531 10.765625 33.285156 Z M 13.757812 33.425781 C 14.191406 33.988281 14.542969 35.019531 14.613281 35.839844 L 14.222656 35.996094 C 14.140625 35.121094 13.84375 34.125 13.382812 33.554688 Z M 15.710938 33.351562 C 15.898438 33.363281 16.023438 33.363281 16.140625 33.363281 C 16.398438 33.363281 18.507812 33.363281 18.742188 33.363281 C 18.84375 33.363281 19.019531 33.363281 19.171875 33.355469 C 19.160156 33.472656 19.160156 33.609375 19.160156 33.730469 C 19.160156 33.957031 19.160156 35.9375 19.160156 36.121094 C 19.160156 36.277344 19.164062 36.65625 19.171875 36.710938 L 18.75 36.710938 C 18.753906 36.65625 18.757812 36.378906 18.757812 36.175781 C 18.757812 35.996094 18.757812 33.746094 18.757812 33.746094 L 16.113281 33.746094 C 16.113281 33.746094 16.113281 35.976562 16.113281 36.175781 C 16.113281 36.335938 16.117188 36.644531 16.117188 36.710938 L 15.707031 36.710938 C 15.707031 36.644531 15.714844 36.292969 15.714844 36.121094 C 15.714844 35.921875 15.714844 33.917969 15.714844 33.730469 C 15.714844 33.617188 15.714844 33.472656 15.710938 33.351562 Z M 18.917969 36.054688 L 18.917969 36.433594 L 15.917969 36.433594 L 15.917969 36.054688 Z M 23.554688 32.792969 C 23.675781 32.96875 23.851562 33.265625 23.949219 33.457031 L 23.6875 33.582031 C 23.589844 33.382812 23.425781 33.089844 23.292969 32.90625 Z M 24.085938 32.601562 C 24.214844 32.78125 24.398438 33.082031 24.492188 33.261719 L 24.230469 33.375 C 24.125 33.167969 23.96875 32.890625 23.832031 32.710938 Z M 23.875 33.757812 C 23.835938 33.832031 23.789062 33.945312 23.765625 34.023438 C 23.632812 34.507812 23.332031 35.167969 22.90625 35.691406 C 22.464844 36.230469 21.882812 36.675781 20.972656 37.011719 L 20.625 36.695312 C 21.515625 36.433594 22.117188 35.992188 22.558594 35.476562 C 22.9375 35.03125 23.230469 34.40625 23.332031 33.964844 L 21.535156 33.964844 L 21.691406 33.613281 C 21.890625 33.613281 23.085938 33.613281 23.234375 33.613281 C 23.367188 33.613281 23.472656 33.597656 23.554688 33.566406 Z M 22.253906 33.027344 C 22.175781 33.152344 22.085938 33.316406 22.039062 33.410156 C 21.753906 33.945312 21.246094 34.636719 20.46875 35.15625 L 20.128906 34.90625 C 20.96875 34.40625 21.441406 33.703125 21.65625 33.265625 C 21.703125 33.183594 21.777344 33.003906 21.808594 32.882812 Z M 25.113281 34.925781 C 25.949219 34.699219 26.6875 34.355469 27.226562 34.023438 C 27.734375 33.703125 28.21875 33.285156 28.550781 32.875 L 28.878906 33.183594 C 28.460938 33.613281 27.953125 34.023438 27.382812 34.375 C 26.851562 34.707031 26.082031 35.058594 25.300781 35.300781 Z M 27.148438 34.21875 L 27.5625 34.09375 L 27.5625 36.3125 C 27.5625 36.492188 27.574219 36.734375 27.597656 36.824219 L 27.117188 36.824219 C 27.132812 36.734375 27.148438 36.492188 27.148438 36.3125 Z M 30.640625 33.125 C 30.980469 33.351562 31.605469 33.855469 31.871094 34.125 L 31.570312 34.433594 C 31.324219 34.183594 30.722656 33.65625 30.359375 33.421875 Z M 30.222656 36.375 C 31.066406 36.25 31.699219 35.953125 32.160156 35.667969 C 32.910156 35.195312 33.496094 34.476562 33.777344 33.875 L 34.007812 34.292969 C 33.679688 34.894531 33.117188 35.554688 32.386719 36.015625 C 31.898438 36.320312 31.285156 36.621094 30.476562 36.773438 Z M 36.441406 32.910156 C 36.421875 32.996094 36.402344 33.105469 36.382812 33.195312 C 36.351562 33.371094 36.289062 33.769531 36.21875 34.070312 C 36.054688 34.753906 35.710938 35.960938 35.164062 36.84375 L 34.765625 36.691406 C 35.316406 35.949219 35.707031 34.652344 35.835938 34.058594 C 35.929688 33.671875 35.992188 33.234375 35.992188 32.863281 Z M 38.109375 33.46875 C 38.410156 33.863281 38.832031 34.746094 38.996094 35.191406 L 38.617188 35.371094 C 38.476562 34.875 38.09375 34.03125 37.753906 33.628906 Z M 34.699219 33.972656 C 34.847656 33.984375 34.972656 33.976562 35.128906 33.972656 C 35.492188 33.964844 36.476562 33.855469 36.804688 33.855469 C 37.238281 33.855469 37.589844 34.023438 37.589844 34.675781 C 37.589844 35.253906 37.511719 36.023438 37.308594 36.429688 C 37.160156 36.753906 36.917969 36.835938 36.601562 36.835938 C 36.417969 36.835938 36.183594 36.800781 36.035156 36.761719 L 35.96875 36.359375 C 36.171875 36.421875 36.425781 36.457031 36.5625 36.457031 C 36.742188 36.457031 36.886719 36.417969 36.984375 36.210938 C 37.140625 35.878906 37.21875 35.25 37.21875 34.726562 C 37.21875 34.277344 37.015625 34.195312 36.703125 34.195312 C 36.378906 34.195312 35.46875 34.308594 35.171875 34.335938 C 35.0625 34.351562 34.863281 34.375 34.738281 34.394531 Z M 38.164062 32.765625 C 38.285156 32.941406 38.457031 33.234375 38.558594 33.433594 L 38.296875 33.550781 C 38.203125 33.351562 38.035156 33.0625 37.902344 32.875 Z M 38.695312 32.570312 C 38.828125 32.75 39.011719 33.054688 39.109375 33.234375 L 38.839844 33.351562 C 38.738281 33.136719 38.578125 32.863281 38.4375 32.683594 Z M 39.480469 33.644531 L 41.03125 33.644531 L 41.03125 33.988281 L 39.480469 33.988281 Z M 40.167969 32.601562 L 40.503906 32.601562 L 40.503906 37.058594 L 40.167969 37.058594 Z M 40.160156 33.855469 L 40.386719 33.933594 C 40.238281 34.707031 39.914062 35.660156 39.566406 36.144531 C 39.523438 36.050781 39.4375 35.914062 39.378906 35.832031 C 39.699219 35.394531 40.023438 34.550781 40.160156 33.855469 Z M 40.480469 34.324219 C 40.59375 34.453125 41.007812 35.050781 41.097656 35.191406 L 40.894531 35.476562 C 40.785156 35.238281 40.449219 34.667969 40.324219 34.476562 Z M 41.511719 33.75 L 43.359375 33.75 L 43.359375 34.058594 L 41.511719 34.058594 Z M 42.421875 32.929688 C 42.144531 33.34375 41.632812 33.796875 41.105469 34.085938 C 41.066406 33.992188 40.984375 33.863281 40.921875 33.785156 C 41.464844 33.527344 41.980469 33.050781 42.242188 32.609375 L 42.578125 32.609375 C 42.921875 33.09375 43.464844 33.53125 43.972656 33.753906 C 43.90625 33.835938 43.828125 33.972656 43.78125 34.070312 C 43.285156 33.8125 42.734375 33.363281 42.421875 32.929688 Z M 41.515625 34.796875 L 41.515625 35.460938 L 43.339844 35.460938 L 43.339844 34.796875 Z M 41.195312 34.507812 L 43.671875 34.507812 L 43.671875 35.761719 L 41.195312 35.761719 Z M 42.246094 33.933594 L 42.582031 33.933594 L 42.582031 35.21875 C 42.582031 35.917969 42.359375 36.660156 41.0625 37.085938 C 41.03125 37.011719 40.925781 36.875 40.863281 36.816406 C 42.09375 36.421875 42.246094 35.816406 42.246094 35.210938 Z M 42.632812 35.574219 C 42.910156 36.300781 43.324219 36.574219 43.945312 36.78125 C 43.863281 36.859375 43.769531 36.980469 43.730469 37.085938 C 43.058594 36.832031 42.617188 36.484375 42.320312 35.640625 Z M 46.882812 36.195312 L 48.316406 36.195312 L 48.316406 36.539062 L 46.882812 36.539062 Z M 46.730469 33.023438 L 48.476562 33.023438 L 48.476562 36.875 L 48.113281 36.875 L 48.113281 33.367188 L 47.078125 33.367188 L 47.078125 36.925781 L 46.730469 36.925781 Z M 45.296875 33.421875 L 45.664062 33.421875 L 45.664062 34.394531 C 45.664062 35.21875 45.5 36.335938 44.496094 37.054688 C 44.449219 36.976562 44.316406 36.835938 44.238281 36.78125 C 45.183594 36.109375 45.296875 35.140625 45.296875 34.390625 Z M 44.796875 33.253906 L 46.429688 33.253906 L 46.429688 33.59375 L 44.796875 33.59375 Z M 44.292969 34.558594 L 46.574219 34.558594 L 46.574219 34.910156 L 44.292969 34.910156 Z M 45.546875 35.199219 C 45.738281 35.371094 46.402344 36.117188 46.554688 36.300781 L 46.308594 36.605469 C 46.105469 36.3125 45.546875 35.648438 45.324219 35.410156 Z M 44.839844 32.601562 L 45.195312 32.667969 C 45.054688 33.316406 44.820312 33.945312 44.535156 34.355469 C 44.472656 34.296875 44.316406 34.195312 44.234375 34.148438 C 44.527344 33.773438 44.722656 33.191406 44.839844 32.601562 Z M 51.460938 33.242188 C 51.429688 33.132812 51.386719 32.988281 51.339844 32.855469 L 51.757812 32.808594 C 51.800781 33.089844 51.925781 33.507812 52.039062 33.824219 C 52.1875 34.238281 52.433594 34.691406 52.644531 34.972656 C 52.707031 35.070312 52.777344 35.152344 52.851562 35.230469 L 52.65625 35.507812 C 52.425781 35.449219 51.832031 35.394531 51.484375 35.371094 L 51.515625 35.050781 C 51.785156 35.074219 52.144531 35.101562 52.320312 35.121094 C 52.113281 34.8125 51.847656 34.332031 51.6875 33.890625 C 51.582031 33.613281 51.515625 33.390625 51.460938 33.242188 Z M 49.6875 33.617188 C 50.496094 33.710938 51.261719 33.714844 51.816406 33.65625 C 52.199219 33.613281 52.675781 33.527344 53.054688 33.394531 L 53.097656 33.777344 C 52.753906 33.875 52.292969 33.953125 51.941406 33.996094 C 51.324219 34.070312 50.554688 34.074219 49.695312 34.003906 Z M 50.4375 35.160156 C 50.292969 35.398438 50.207031 35.609375 50.207031 35.835938 C 50.207031 36.300781 50.628906 36.5 51.347656 36.511719 C 51.839844 36.511719 52.261719 36.460938 52.59375 36.390625 L 52.582031 36.777344 C 52.273438 36.832031 51.867188 36.882812 51.324219 36.878906 C 50.402344 36.875 49.824219 36.542969 49.824219 35.882812 C 49.824219 35.613281 49.917969 35.359375 50.058594 35.074219 Z M 58.492188 36.304688 C 58.230469 36.570312 57.929688 36.714844 57.601562 36.714844 C 57.277344 36.714844 57.0625 36.5 57.0625 36.101562 C 57.0625 35.558594 57.242188 34.765625 57.242188 34.292969 C 57.242188 34.011719 57.101562 33.890625 56.855469 33.890625 C 56.398438 33.890625 55.695312 34.492188 55.242188 35.046875 L 55.246094 34.566406 C 55.546875 34.234375 56.351562 33.535156 56.945312 33.535156 C 57.402344 33.535156 57.625 33.792969 57.625 34.1875 C 57.625 34.671875 57.441406 35.507812 57.441406 35.996094 C 57.441406 36.160156 57.523438 36.292969 57.699219 36.292969 C 57.925781 36.292969 58.183594 36.152344 58.429688 35.894531 Z M 55.234375 33.988281 C 55.074219 34.011719 54.550781 34.074219 54.195312 34.132812 L 54.148438 33.730469 C 54.257812 33.734375 54.347656 33.734375 54.46875 33.726562 C 54.726562 33.710938 55.332031 33.636719 55.554688 33.566406 L 55.695312 33.730469 C 55.613281 33.855469 55.484375 34.066406 55.402344 34.199219 L 55.253906 34.867188 C 55.03125 35.210938 54.582031 35.863281 54.277344 36.285156 L 54.035156 35.957031 C 54.335938 35.578125 54.988281 34.691406 55.179688 34.371094 L 55.195312 34.117188 Z M 55.1875 33.1875 C 55.1875 33.074219 55.191406 32.949219 55.167969 32.828125 L 55.625 32.84375 C 55.554688 33.15625 55.410156 34.546875 55.410156 35.398438 C 55.410156 35.839844 55.410156 36.136719 55.429688 36.570312 C 55.433594 36.652344 55.449219 36.773438 55.453125 36.863281 L 55.039062 36.863281 C 55.046875 36.773438 55.050781 36.65625 55.050781 36.578125 C 55.050781 36.109375 55.054688 35.863281 55.0625 35.332031 C 55.070312 34.90625 55.1875 33.367188 55.1875 33.1875 Z M 61.390625 32.828125 C 61.382812 32.910156 61.371094 33.007812 61.367188 33.152344 C 61.355469 33.347656 61.355469 33.996094 61.355469 34.40625 C 61.355469 35.046875 61.429688 35.894531 61.429688 36.21875 C 61.429688 36.558594 61.207031 36.902344 60.578125 36.902344 C 59.878906 36.902344 59.496094 36.65625 59.496094 36.183594 C 59.496094 35.742188 59.917969 35.449219 60.613281 35.449219 C 61.636719 35.449219 62.4375 36 62.8125 36.304688 L 62.585938 36.652344 C 62.152344 36.25 61.433594 35.761719 60.570312 35.761719 C 60.105469 35.761719 59.859375 35.941406 59.859375 36.164062 C 59.859375 36.394531 60.046875 36.558594 60.527344 36.558594 C 60.808594 36.558594 61.046875 36.476562 61.046875 36.136719 C 61.046875 35.761719 61 34.832031 61 34.40625 C 61 33.96875 61 33.457031 61 33.121094 C 61 33.035156 60.992188 32.890625 60.980469 32.828125 Z M 59.539062 33.351562 C 59.847656 33.410156 60.457031 33.457031 60.773438 33.457031 C 61.390625 33.457031 62.039062 33.414062 62.671875 33.3125 L 62.671875 33.667969 C 62.121094 33.730469 61.429688 33.792969 60.78125 33.792969 C 60.445312 33.792969 59.847656 33.75 59.542969 33.710938 Z M 59.515625 34.386719 C 59.859375 34.4375 60.410156 34.472656 60.730469 34.472656 C 61.433594 34.472656 62.078125 34.425781 62.707031 34.332031 L 62.707031 34.695312 C 62.050781 34.777344 61.457031 34.8125 60.730469 34.8125 C 60.398438 34.8125 59.863281 34.789062 59.519531 34.75 Z M 65.113281 32.894531 C 65.089844 33.054688 65.074219 33.226562 65.0625 33.386719 C 65.042969 33.933594 65.007812 35.085938 65.007812 35.808594 C 65.007812 36.339844 65.339844 36.523438 65.800781 36.523438 C 66.6875 36.523438 67.191406 36.03125 67.539062 35.527344 L 67.8125 35.855469 C 67.480469 36.316406 66.851562 36.921875 65.789062 36.921875 C 65.09375 36.921875 64.613281 36.636719 64.613281 35.839844 C 64.613281 35.121094 64.660156 33.894531 64.660156 33.386719 C 64.660156 33.207031 64.648438 33.035156 64.617188 32.894531 Z M 70.453125 32.863281 C 70.425781 32.96875 70.390625 33.152344 70.371094 33.246094 C 70.296875 33.59375 70.195312 34.144531 70.058594 34.628906 C 69.886719 35.316406 69.5625 36.320312 69.304688 36.851562 L 68.882812 36.710938 C 69.171875 36.203125 69.511719 35.21875 69.695312 34.535156 C 69.8125 34.089844 69.9375 33.476562 69.972656 33.226562 C 69.992188 33.089844 70.003906 32.925781 69.992188 32.824219 Z M 69.382812 33.671875 C 69.914062 33.671875 70.628906 33.585938 71.226562 33.433594 L 71.226562 33.8125 C 70.628906 33.949219 69.894531 34.03125 69.371094 34.03125 C 69.160156 34.03125 68.988281 34.027344 68.808594 34.011719 L 68.800781 33.632812 C 69.027344 33.664062 69.203125 33.671875 69.382812 33.671875 Z M 70.914062 34.335938 C 71.164062 34.3125 71.488281 34.296875 71.800781 34.296875 C 72.082031 34.296875 72.378906 34.308594 72.640625 34.335938 L 72.628906 34.707031 C 72.378906 34.675781 72.097656 34.648438 71.808594 34.648438 C 71.507812 34.648438 71.210938 34.667969 70.914062 34.699219 Z M 71.011719 35.515625 C 70.972656 35.675781 70.941406 35.828125 70.941406 35.953125 C 70.941406 36.179688 71.074219 36.402344 71.761719 36.402344 C 72.082031 36.402344 72.410156 36.371094 72.710938 36.3125 L 72.695312 36.699219 C 72.433594 36.738281 72.109375 36.765625 71.757812 36.765625 C 70.996094 36.765625 70.578125 36.535156 70.578125 36.054688 C 70.578125 35.871094 70.609375 35.6875 70.652344 35.480469 Z M 74.097656 35.496094 C 74.503906 35.496094 74.835938 35.828125 74.835938 36.234375 C 74.835938 36.640625 74.503906 36.972656 74.097656 36.972656 C 73.691406 36.972656 73.355469 36.640625 73.355469 36.234375 C 73.355469 35.828125 73.691406 35.496094 74.097656 35.496094 Z M 74.097656 36.722656 C 74.367188 36.722656 74.585938 36.503906 74.585938 36.234375 C 74.585938 35.960938 74.367188 35.742188 74.097656 35.742188 C 73.824219 35.742188 73.601562 35.960938 73.601562 36.234375 C 73.601562 36.503906 73.824219 36.722656 74.097656 36.722656 Z M 74.097656 36.722656 " fill-opacity="1" fill-rule="nonzero"/></g><path fill="#aaa9a9" d="M 4.976562 39.746094 C 4.9375 39.789062 4.878906 39.859375 4.84375 39.914062 C 4.652344 40.246094 4.191406 40.871094 3.636719 41.253906 L 3.3125 40.996094 C 3.765625 40.738281 4.21875 40.214844 4.375 39.914062 C 4.035156 39.914062 1.84375 39.914062 1.613281 39.914062 C 1.433594 39.914062 1.253906 39.925781 1.066406 39.9375 L 1.066406 39.5 C 1.234375 39.527344 1.433594 39.546875 1.613281 39.546875 C 1.84375 39.546875 4.109375 39.546875 4.398438 39.546875 C 4.492188 39.546875 4.664062 39.53125 4.734375 39.511719 Z M 3.039062 40.378906 C 3.039062 41.695312 2.921875 42.582031 1.683594 43.203125 L 1.332031 42.914062 C 1.460938 42.867188 1.632812 42.785156 1.765625 42.695312 C 2.515625 42.234375 2.621094 41.542969 2.621094 40.734375 C 2.621094 40.617188 2.621094 40.511719 2.601562 40.378906 Z M 9.289062 39.988281 C 9.25 40.054688 9.203125 40.167969 9.179688 40.246094 C 9.046875 40.734375 8.75 41.390625 8.320312 41.917969 C 7.878906 42.457031 7.296875 42.898438 6.390625 43.238281 L 6.039062 42.917969 C 6.929688 42.65625 7.53125 42.21875 7.976562 41.699219 C 8.351562 41.257812 8.648438 40.628906 8.746094 40.1875 L 6.953125 40.1875 L 7.109375 39.835938 C 7.304688 39.835938 8.5 39.835938 8.648438 39.835938 C 8.78125 39.835938 8.890625 39.820312 8.96875 39.792969 Z M 7.667969 39.253906 C 7.589844 39.378906 7.5 39.546875 7.453125 39.632812 C 7.167969 40.171875 6.664062 40.863281 5.882812 41.378906 L 5.542969 41.132812 C 6.382812 40.632812 6.855469 39.925781 7.070312 39.492188 C 7.117188 39.40625 7.191406 39.230469 7.21875 39.105469 Z M 10.953125 39.433594 C 11.09375 39.449219 11.234375 39.457031 11.394531 39.457031 C 11.675781 39.457031 13.085938 39.457031 13.355469 39.457031 C 13.492188 39.457031 13.664062 39.449219 13.804688 39.433594 L 13.804688 39.835938 C 13.660156 39.828125 13.492188 39.816406 13.355469 39.816406 C 13.085938 39.816406 11.675781 39.816406 11.398438 39.816406 C 11.238281 39.816406 11.078125 39.828125 10.953125 39.835938 Z M 10.375 40.652344 C 10.507812 40.667969 10.648438 40.671875 10.796875 40.671875 C 11.078125 40.671875 13.710938 40.671875 13.964844 40.671875 C 14.066406 40.671875 14.226562 40.667969 14.347656 40.652344 L 14.347656 41.050781 C 14.238281 41.042969 14.085938 41.039062 13.964844 41.039062 C 13.710938 41.039062 11.078125 41.039062 10.796875 41.039062 C 10.652344 41.039062 10.507812 41.042969 10.375 41.054688 Z M 12.65625 40.847656 C 12.65625 41.457031 12.582031 41.960938 12.363281 42.367188 C 12.1875 42.695312 11.820312 43.039062 11.414062 43.25 L 11.054688 42.988281 C 11.425781 42.828125 11.777344 42.554688 11.964844 42.242188 C 12.207031 41.859375 12.246094 41.382812 12.25 40.851562 Z M 15.058594 41.773438 C 15.699219 41.617188 16.410156 41.277344 16.808594 41.035156 C 17.265625 40.757812 17.710938 40.355469 17.960938 40.050781 L 18.261719 40.339844 C 17.980469 40.640625 17.476562 41.0625 16.972656 41.371094 C 16.566406 41.613281 15.890625 41.933594 15.246094 42.132812 Z M 16.765625 41.257812 L 17.167969 41.15625 L 17.167969 42.976562 C 17.167969 43.121094 17.171875 43.324219 17.191406 43.398438 L 16.742188 43.398438 C 16.75 43.324219 16.765625 43.121094 16.765625 42.976562 Z M 22.847656 39.21875 C 22.96875 39.394531 23.140625 39.6875 23.238281 39.886719 L 22.976562 40 C 22.878906 39.808594 22.722656 39.515625 22.589844 39.332031 Z M 23.375 39.027344 C 23.507812 39.207031 23.691406 39.507812 23.78125 39.6875 L 23.519531 39.800781 C 23.417969 39.59375 23.257812 39.316406 23.121094 39.136719 Z M 20.671875 39.378906 C 20.65625 39.496094 20.640625 39.636719 20.640625 39.773438 C 20.640625 40.035156 20.640625 41.984375 20.640625 42.335938 C 20.640625 42.585938 20.75 42.648438 20.980469 42.695312 C 21.136719 42.722656 21.382812 42.734375 21.621094 42.734375 C 22.132812 42.734375 22.875 42.683594 23.28125 42.578125 L 23.28125 43.023438 C 22.863281 43.085938 22.132812 43.121094 21.605469 43.121094 C 21.316406 43.121094 21.03125 43.109375 20.824219 43.078125 C 20.457031 43.007812 20.25 42.839844 20.25 42.441406 C 20.25 41.976562 20.25 40.035156 20.25 39.773438 C 20.25 39.65625 20.238281 39.496094 20.21875 39.378906 Z M 20.460938 40.914062 C 21.050781 40.789062 21.925781 40.519531 22.488281 40.28125 C 22.632812 40.214844 22.773438 40.148438 22.914062 40.058594 L 23.085938 40.449219 C 22.945312 40.507812 22.769531 40.582031 22.625 40.640625 C 22.023438 40.882812 21.0625 41.164062 20.46875 41.316406 Z M 25.203125 39.433594 C 25.34375 39.449219 25.484375 39.457031 25.644531 39.457031 C 25.925781 39.457031 27.335938 39.457031 27.605469 39.457031 C 27.742188 39.457031 27.914062 39.449219 28.054688 39.433594 L 28.054688 39.835938 C 27.910156 39.828125 27.742188 39.816406 27.605469 39.816406 C 27.335938 39.816406 25.925781 39.816406 25.648438 39.816406 C 25.488281 39.816406 25.328125 39.828125 25.203125 39.835938 Z M 24.625 40.652344 C 24.757812 40.667969 24.898438 40.671875 25.046875 40.671875 C 25.328125 40.671875 27.960938 40.671875 28.214844 40.671875 C 28.316406 40.671875 28.476562 40.667969 28.597656 40.652344 L 28.597656 41.050781 C 28.488281 41.042969 28.335938 41.039062 28.214844 41.039062 C 27.960938 41.039062 25.328125 41.039062 25.046875 41.039062 C 24.902344 41.039062 24.757812 41.042969 24.625 41.054688 Z M 26.90625 40.847656 C 26.90625 41.457031 26.832031 41.960938 26.613281 42.367188 C 26.4375 42.695312 26.070312 43.039062 25.664062 43.25 L 25.304688 42.988281 C 25.675781 42.828125 26.027344 42.554688 26.214844 42.242188 C 26.457031 41.859375 26.496094 41.382812 26.5 40.851562 Z M 29.308594 41.773438 C 29.949219 41.617188 30.660156 41.277344 31.058594 41.035156 C 31.515625 40.757812 31.960938 40.355469 32.210938 40.050781 L 32.511719 40.339844 C 32.230469 40.640625 31.726562 41.0625 31.222656 41.371094 C 30.816406 41.613281 30.140625 41.933594 29.496094 42.132812 Z M 31.015625 41.257812 L 31.417969 41.15625 L 31.417969 42.976562 C 31.417969 43.121094 31.421875 43.324219 31.441406 43.398438 L 30.992188 43.398438 C 31 43.324219 31.015625 43.121094 31.015625 42.976562 Z M 35.796875 39.1875 C 35.753906 39.375 35.699219 39.644531 35.574219 39.96875 C 35.453125 40.261719 35.273438 40.589844 35.082031 40.839844 C 35.269531 40.730469 35.546875 40.660156 35.757812 40.660156 C 36.132812 40.660156 36.421875 40.882812 36.421875 41.277344 C 36.421875 41.53125 36.433594 42.085938 36.4375 42.386719 L 36.066406 42.386719 C 36.085938 42.132812 36.089844 41.632812 36.085938 41.378906 C 36.078125 41.097656 35.886719 40.96875 35.632812 40.96875 C 35.324219 40.96875 35.019531 41.121094 34.796875 41.320312 C 34.65625 41.457031 34.519531 41.632812 34.359375 41.832031 L 34.023438 41.582031 C 34.722656 40.914062 35.046875 40.351562 35.210938 39.9375 C 35.316406 39.671875 35.386719 39.378906 35.402344 39.152344 Z M 34.136719 39.710938 C 34.398438 39.746094 34.730469 39.757812 34.953125 39.757812 C 35.609375 39.757812 36.449219 39.71875 37.128906 39.597656 L 37.128906 39.957031 C 36.453125 40.058594 35.550781 40.101562 34.933594 40.101562 C 34.726562 40.101562 34.40625 40.09375 34.136719 40.074219 Z M 37.839844 40.878906 C 37.71875 40.917969 37.542969 40.988281 37.410156 41.035156 C 37.066406 41.171875 36.605469 41.355469 36.136719 41.597656 C 35.65625 41.851562 35.316406 42.113281 35.316406 42.445312 C 35.316406 42.824219 35.691406 42.882812 36.191406 42.882812 C 36.570312 42.882812 37.09375 42.839844 37.519531 42.761719 L 37.503906 43.15625 C 37.136719 43.199219 36.597656 43.238281 36.175781 43.238281 C 35.488281 43.238281 34.929688 43.085938 34.929688 42.5 C 34.929688 41.90625 35.53125 41.542969 36.109375 41.25 C 36.570312 41.011719 36.960938 40.859375 37.28125 40.710938 C 37.425781 40.640625 37.546875 40.589844 37.683594 40.519531 Z M 40.941406 41.292969 L 42.835938 41.292969 L 42.835938 41.574219 L 40.941406 41.574219 Z M 40.941406 42.085938 L 42.835938 42.085938 L 42.835938 42.375 L 40.941406 42.375 Z M 40.945312 42.886719 L 43.0625 42.886719 L 43.0625 43.199219 L 40.945312 43.199219 Z M 40.390625 39.445312 L 43.039062 39.445312 L 43.039062 40.273438 L 42.714844 40.273438 L 42.714844 39.757812 L 40.707031 39.757812 L 40.707031 40.273438 L 40.390625 40.273438 Z M 41.730469 40.714844 L 42.070312 40.714844 L 42.070312 43.054688 L 41.730469 43.054688 Z M 41.070312 40.480469 L 42.917969 40.480469 L 42.917969 40.796875 L 41.070312 40.796875 L 41.070312 43.40625 L 40.726562 43.40625 L 40.726562 40.8125 L 41.042969 40.480469 Z M 41.527344 38.945312 L 41.875 39.011719 C 41.597656 39.996094 41.121094 40.800781 40.464844 41.320312 C 40.410156 41.253906 40.28125 41.117188 40.203125 41.054688 C 40.84375 40.589844 41.289062 39.835938 41.527344 38.945312 Z M 42.03125 39.90625 L 42.375 39.992188 C 42.257812 40.246094 42.128906 40.515625 42.027344 40.699219 L 41.746094 40.617188 C 41.847656 40.421875 41.972656 40.117188 42.03125 39.90625 Z M 38.667969 39.273438 L 40.378906 39.273438 L 40.378906 39.609375 L 38.667969 39.609375 Z M 39.15625 40.691406 L 40.25 40.691406 L 40.25 42.816406 L 39.15625 42.816406 L 39.15625 42.496094 L 39.933594 42.496094 L 39.933594 41.015625 L 39.15625 41.015625 Z M 39.238281 39.433594 L 39.585938 39.488281 C 39.4375 40.507812 39.1875 41.460938 38.734375 42.097656 C 38.695312 42.015625 38.59375 41.835938 38.527344 41.753906 C 38.914062 41.203125 39.121094 40.347656 39.238281 39.433594 Z M 39.007812 40.691406 L 39.3125 40.691406 L 39.3125 43.195312 L 39.007812 43.195312 Z M 46.265625 39.285156 L 46.601562 39.285156 C 46.5 40.070312 46.261719 40.855469 45.414062 41.277344 C 45.375 41.199219 45.273438 41.078125 45.195312 41.019531 C 45.984375 40.65625 46.183594 39.949219 46.265625 39.285156 Z M 45.375 39.976562 L 45.554688 39.726562 C 46.058594 39.894531 46.664062 40.195312 46.984375 40.417969 L 46.808594 40.703125 C 46.484375 40.46875 45.878906 40.148438 45.375 39.976562 Z M 47.410156 39.152344 L 47.753906 39.152344 C 47.753906 39.152344 47.753906 39.257812 47.75 39.308594 C 47.699219 40.453125 47.652344 40.882812 47.53125 41.023438 C 47.453125 41.117188 47.371094 41.152344 47.238281 41.164062 C 47.125 41.175781 46.894531 41.171875 46.667969 41.160156 C 46.664062 41.058594 46.628906 40.917969 46.574219 40.832031 C 46.800781 40.851562 47.003906 40.851562 47.082031 40.851562 C 47.15625 40.855469 47.203125 40.839844 47.234375 40.800781 C 47.324219 40.699219 47.371094 40.3125 47.410156 39.214844 Z M 45.921875 41.738281 L 46.261719 41.738281 L 46.261719 42.90625 C 46.261719 43.027344 46.28125 43.046875 46.417969 43.046875 C 46.480469 43.046875 46.792969 43.046875 46.871094 43.046875 C 47.003906 43.046875 47.023438 42.980469 47.035156 42.496094 C 47.105469 42.554688 47.25 42.601562 47.347656 42.632812 C 47.308594 43.222656 47.214844 43.375 46.910156 43.375 C 46.832031 43.375 46.449219 43.375 46.371094 43.375 C 46.003906 43.375 45.921875 43.269531 45.921875 42.914062 Z M 45.460938 41.902344 L 45.757812 41.976562 C 45.703125 42.40625 45.601562 42.878906 45.34375 43.148438 L 45.074219 42.96875 C 45.304688 42.734375 45.414062 42.304688 45.460938 41.902344 Z M 46.003906 41.292969 L 46.21875 41.078125 C 46.539062 41.25 46.910156 41.511719 47.089844 41.714844 L 46.863281 41.960938 C 46.6875 41.757812 46.320312 41.476562 46.003906 41.292969 Z M 47.132812 41.9375 L 47.433594 41.816406 C 47.695312 42.171875 47.914062 42.644531 47.988281 42.976562 L 47.660156 43.109375 C 47.597656 42.78125 47.386719 42.292969 47.132812 41.9375 Z M 45.417969 39.152344 L 47.558594 39.152344 L 47.558594 39.46875 L 45.417969 39.46875 Z M 43.664062 40.414062 L 45.039062 40.414062 L 45.039062 40.703125 L 43.664062 40.703125 Z M 43.683594 39.117188 L 45.019531 39.117188 L 45.019531 39.410156 L 43.683594 39.410156 Z M 43.664062 41.0625 L 45.039062 41.0625 L 45.039062 41.355469 L 43.664062 41.355469 Z M 43.445312 39.753906 L 45.175781 39.753906 L 45.175781 40.054688 L 43.445312 40.054688 Z M 43.824219 41.71875 L 45.039062 41.71875 L 45.039062 43.136719 L 43.824219 43.136719 L 43.824219 42.828125 L 44.726562 42.828125 L 44.726562 42.019531 L 43.824219 42.019531 Z M 43.660156 41.71875 L 43.96875 41.71875 L 43.96875 43.359375 L 43.660156 43.359375 Z M 51.144531 39.175781 C 51.136719 39.234375 51.121094 39.425781 51.121094 39.484375 C 51.105469 39.796875 51.117188 40.734375 51.121094 41.121094 L 50.753906 40.933594 C 50.753906 40.71875 50.75 39.753906 50.734375 39.488281 C 50.722656 39.355469 50.710938 39.21875 50.699219 39.175781 Z M 48.566406 39.855469 C 49.226562 39.847656 50.4375 39.800781 51.183594 39.800781 C 51.777344 39.800781 52.378906 39.800781 52.605469 39.808594 L 52.601562 40.167969 C 52.328125 40.152344 51.890625 40.140625 51.179688 40.140625 C 50.347656 40.140625 49.308594 40.175781 48.578125 40.230469 Z M 51.113281 41.261719 C 51.113281 41.914062 50.8125 42.238281 50.371094 42.238281 C 49.964844 42.238281 49.570312 41.953125 49.570312 41.421875 C 49.570312 40.941406 49.96875 40.582031 50.429688 40.582031 C 50.992188 40.582031 51.277344 41 51.277344 41.558594 C 51.277344 42.21875 50.957031 42.945312 49.832031 43.28125 L 49.507812 42.964844 C 50.390625 42.757812 50.902344 42.324219 50.902344 41.523438 C 50.902344 41.089844 50.691406 40.902344 50.429688 40.902344 C 50.171875 40.902344 49.933594 41.101562 49.933594 41.417969 C 49.933594 41.722656 50.164062 41.898438 50.429688 41.898438 C 50.730469 41.898438 50.921875 41.644531 50.84375 41.128906 Z M 54.105469 39.449219 C 54.214844 39.457031 54.347656 39.464844 54.445312 39.464844 C 54.703125 39.464844 55.851562 39.429688 56.109375 39.40625 C 56.253906 39.390625 56.320312 39.378906 56.375 39.359375 L 56.597656 39.648438 C 56.511719 39.707031 56.414062 39.769531 56.320312 39.839844 C 56.085938 40.027344 55.425781 40.59375 55.046875 40.902344 C 55.269531 40.832031 55.503906 40.808594 55.722656 40.808594 C 56.523438 40.808594 57.101562 41.289062 57.101562 41.941406 C 57.101562 42.722656 56.457031 43.234375 55.429688 43.234375 C 54.769531 43.234375 54.367188 42.945312 54.367188 42.539062 C 54.367188 42.207031 54.667969 41.90625 55.113281 41.90625 C 55.757812 41.90625 56.085938 42.363281 56.117188 42.855469 L 55.769531 42.914062 C 55.742188 42.5 55.503906 42.203125 55.113281 42.203125 C 54.890625 42.203125 54.722656 42.339844 54.722656 42.507812 C 54.722656 42.746094 54.988281 42.886719 55.371094 42.886719 C 56.195312 42.886719 56.714844 42.546875 56.714844 41.941406 C 56.714844 41.460938 56.257812 41.109375 55.625 41.109375 C 54.820312 41.109375 54.382812 41.449219 53.773438 42.074219 L 53.492188 41.792969 C 53.894531 41.460938 54.519531 40.9375 54.796875 40.699219 C 55.066406 40.476562 55.675781 39.96875 55.917969 39.75 C 55.664062 39.765625 54.695312 39.800781 54.441406 39.816406 C 54.328125 39.828125 54.222656 39.832031 54.117188 39.847656 Z M 54.105469 39.449219 " fill-opacity="1" fill-rule="nonzero"/><g clip-path="url(#80eff5d64f)"><path stroke-linecap="butt" transform="matrix(0.372786, 0, 0, 0.37317, -8.482935, -28.256333)" fill="none" stroke-linejoin="miter" d="M 24.002444 203.499728 L 336.996065 203.499728 " stroke="#d4d4d4" stroke-width="1" stroke-opacity="1" stroke-miterlimit="4"/></g><path fill="#000000" d="M 2.140625 56.453125 L 0.792969 56.453125 L 0.792969 52.652344 L 2.152344 52.652344 C 2.53125 52.652344 2.859375 52.730469 3.136719 52.882812 C 3.410156 53.03125 3.625 53.25 3.773438 53.53125 C 3.921875 53.816406 3.996094 54.15625 3.996094 54.550781 C 3.996094 54.945312 3.921875 55.285156 3.773438 55.570312 C 3.625 55.855469 3.410156 56.074219 3.132812 56.226562 C 2.855469 56.378906 2.523438 56.453125 2.140625 56.453125 Z M 1.597656 55.765625 L 2.105469 55.765625 C 2.34375 55.765625 2.542969 55.722656 2.703125 55.636719 C 2.867188 55.554688 2.988281 55.421875 3.070312 55.242188 C 3.15625 55.0625 3.195312 54.832031 3.195312 54.550781 C 3.195312 54.269531 3.15625 54.039062 3.070312 53.863281 C 2.988281 53.683594 2.867188 53.550781 2.707031 53.46875 C 2.542969 53.382812 2.34375 53.34375 2.109375 53.34375 L 1.597656 53.34375 Z M 5.386719 56.507812 C 5.207031 56.507812 5.042969 56.476562 4.902344 56.414062 C 4.761719 56.347656 4.648438 56.253906 4.566406 56.128906 C 4.484375 56.003906 4.441406 55.84375 4.441406 55.65625 C 4.441406 55.5 4.472656 55.367188 4.53125 55.257812 C 4.585938 55.152344 4.667969 55.0625 4.765625 55 C 4.867188 54.933594 4.980469 54.882812 5.109375 54.851562 C 5.238281 54.816406 5.371094 54.792969 5.511719 54.78125 C 5.675781 54.761719 5.8125 54.746094 5.914062 54.730469 C 6.011719 54.714844 6.085938 54.691406 6.132812 54.660156 C 6.179688 54.628906 6.203125 54.585938 6.203125 54.523438 L 6.203125 54.511719 C 6.203125 54.394531 6.164062 54.304688 6.089844 54.238281 C 6.015625 54.175781 5.914062 54.144531 5.777344 54.144531 C 5.636719 54.144531 5.523438 54.175781 5.441406 54.238281 C 5.355469 54.300781 5.300781 54.378906 5.273438 54.472656 L 4.542969 54.414062 C 4.578125 54.238281 4.652344 54.089844 4.761719 53.964844 C 4.871094 53.835938 5.011719 53.738281 5.183594 53.671875 C 5.355469 53.601562 5.554688 53.566406 5.78125 53.566406 C 5.941406 53.566406 6.09375 53.585938 6.238281 53.621094 C 6.382812 53.660156 6.511719 53.714844 6.625 53.792969 C 6.738281 53.871094 6.828125 53.972656 6.894531 54.09375 C 6.957031 54.214844 6.992188 54.363281 6.992188 54.53125 L 6.992188 56.453125 L 6.242188 56.453125 L 6.242188 56.058594 L 6.21875 56.058594 C 6.175781 56.148438 6.113281 56.226562 6.035156 56.292969 C 5.960938 56.359375 5.867188 56.414062 5.761719 56.453125 C 5.652344 56.488281 5.527344 56.507812 5.386719 56.507812 Z M 5.613281 55.960938 C 5.730469 55.960938 5.832031 55.9375 5.921875 55.894531 C 6.011719 55.847656 6.082031 55.78125 6.132812 55.703125 C 6.183594 55.625 6.207031 55.535156 6.207031 55.433594 L 6.207031 55.132812 C 6.183594 55.148438 6.148438 55.164062 6.105469 55.175781 C 6.0625 55.1875 6.015625 55.199219 5.960938 55.210938 C 5.910156 55.222656 5.855469 55.230469 5.804688 55.238281 C 5.75 55.246094 5.703125 55.253906 5.660156 55.261719 C 5.566406 55.273438 5.484375 55.296875 5.414062 55.324219 C 5.347656 55.355469 5.292969 55.394531 5.253906 55.445312 C 5.214844 55.496094 5.195312 55.558594 5.195312 55.632812 C 5.195312 55.738281 5.234375 55.820312 5.3125 55.878906 C 5.394531 55.933594 5.492188 55.960938 5.613281 55.960938 Z M 9.117188 53.605469 L 9.117188 54.199219 L 7.402344 54.199219 L 7.402344 53.605469 Z M 7.792969 52.921875 L 8.582031 52.921875 L 8.582031 55.578125 C 8.582031 55.652344 8.59375 55.707031 8.617188 55.75 C 8.636719 55.789062 8.667969 55.816406 8.707031 55.832031 C 8.75 55.847656 8.796875 55.855469 8.847656 55.855469 C 8.886719 55.855469 8.921875 55.851562 8.960938 55.847656 C 8.996094 55.839844 9.027344 55.832031 9.046875 55.828125 L 9.167969 56.417969 C 9.128906 56.429688 9.074219 56.445312 9.003906 56.460938 C 8.929688 56.476562 8.84375 56.488281 8.742188 56.492188 C 8.550781 56.5 8.382812 56.472656 8.242188 56.417969 C 8.097656 56.359375 7.988281 56.269531 7.910156 56.144531 C 7.832031 56.023438 7.792969 55.867188 7.792969 55.679688 Z M 10.898438 56.507812 C 10.605469 56.507812 10.355469 56.449219 10.140625 56.332031 C 9.933594 56.210938 9.769531 56.042969 9.65625 55.824219 C 9.542969 55.601562 9.488281 55.34375 9.488281 55.042969 C 9.488281 54.75 9.542969 54.492188 9.65625 54.269531 C 9.769531 54.046875 9.929688 53.875 10.136719 53.75 C 10.34375 53.628906 10.589844 53.566406 10.867188 53.566406 C 11.054688 53.566406 11.230469 53.597656 11.390625 53.65625 C 11.554688 53.714844 11.695312 53.804688 11.816406 53.925781 C 11.941406 54.046875 12.035156 54.199219 12.101562 54.378906 C 12.171875 54.558594 12.207031 54.769531 12.207031 55.011719 L 12.207031 55.230469 L 9.800781 55.230469 L 9.800781 54.742188 L 11.460938 54.742188 C 11.460938 54.625 11.4375 54.527344 11.386719 54.4375 C 11.339844 54.351562 11.269531 54.28125 11.183594 54.234375 C 11.097656 54.183594 10.996094 54.15625 10.878906 54.15625 C 10.761719 54.15625 10.652344 54.183594 10.5625 54.238281 C 10.46875 54.292969 10.398438 54.367188 10.347656 54.460938 C 10.292969 54.550781 10.269531 54.652344 10.265625 54.765625 L 10.265625 55.234375 C 10.265625 55.375 10.292969 55.496094 10.34375 55.597656 C 10.398438 55.699219 10.472656 55.78125 10.570312 55.835938 C 10.664062 55.890625 10.78125 55.917969 10.910156 55.917969 C 11 55.917969 11.078125 55.90625 11.152344 55.882812 C 11.226562 55.855469 11.289062 55.820312 11.339844 55.769531 C 11.390625 55.722656 11.429688 55.660156 11.457031 55.589844 L 12.1875 55.636719 C 12.152344 55.8125 12.074219 55.964844 11.960938 56.097656 C 11.847656 56.226562 11.699219 56.328125 11.519531 56.402344 C 11.339844 56.472656 11.132812 56.507812 10.898438 56.507812 Z M 13.324219 56.453125 L 12.238281 52.652344 L 13.117188 52.652344 L 13.742188 55.292969 L 13.773438 55.292969 L 14.46875 52.652344 L 15.21875 52.652344 L 15.910156 55.300781 L 15.945312 55.300781 L 16.570312 52.652344 L 17.449219 52.652344 L 16.363281 56.453125 L 15.582031 56.453125 L 14.859375 53.96875 L 14.828125 53.96875 L 14.105469 56.453125 Z M 18.367188 56.507812 C 18.1875 56.507812 18.027344 56.476562 17.882812 56.414062 C 17.742188 56.347656 17.628906 56.253906 17.546875 56.128906 C 17.464844 56.003906 17.425781 55.84375 17.425781 55.65625 C 17.425781 55.5 17.453125 55.367188 17.511719 55.257812 C 17.570312 55.152344 17.648438 55.0625 17.75 55 C 17.847656 54.933594 17.960938 54.882812 18.089844 54.851562 C 18.21875 54.816406 18.351562 54.792969 18.492188 54.78125 C 18.660156 54.761719 18.792969 54.746094 18.894531 54.730469 C 18.996094 54.714844 19.070312 54.691406 19.113281 54.660156 C 19.160156 54.628906 19.183594 54.585938 19.183594 54.523438 L 19.183594 54.511719 C 19.183594 54.394531 19.144531 54.304688 19.070312 54.238281 C 19 54.175781 18.894531 54.144531 18.761719 54.144531 C 18.617188 54.144531 18.503906 54.175781 18.421875 54.238281 C 18.335938 54.300781 18.28125 54.378906 18.253906 54.472656 L 17.523438 54.414062 C 17.5625 54.238281 17.632812 54.089844 17.742188 53.964844 C 17.851562 53.835938 17.992188 53.738281 18.164062 53.671875 C 18.335938 53.601562 18.535156 53.566406 18.765625 53.566406 C 18.921875 53.566406 19.074219 53.585938 19.21875 53.621094 C 19.363281 53.660156 19.492188 53.714844 19.605469 53.792969 C 19.71875 53.871094 19.808594 53.972656 19.875 54.09375 C 19.9375 54.214844 19.972656 54.363281 19.972656 54.53125 L 19.972656 56.453125 L 19.222656 56.453125 L 19.222656 56.058594 L 19.203125 56.058594 C 19.15625 56.148438 19.09375 56.226562 19.019531 56.292969 C 18.941406 56.359375 18.847656 56.414062 18.742188 56.453125 C 18.632812 56.488281 18.511719 56.507812 18.367188 56.507812 Z M 18.59375 55.960938 C 18.710938 55.960938 18.8125 55.9375 18.902344 55.894531 C 18.992188 55.847656 19.0625 55.78125 19.113281 55.703125 C 19.164062 55.625 19.1875 55.535156 19.1875 55.433594 L 19.1875 55.132812 C 19.164062 55.148438 19.128906 55.164062 19.085938 55.175781 C 19.042969 55.1875 18.996094 55.199219 18.945312 55.210938 C 18.890625 55.222656 18.835938 55.230469 18.785156 55.238281 C 18.730469 55.246094 18.683594 55.253906 18.640625 55.261719 C 18.546875 55.273438 18.464844 55.296875 18.398438 55.324219 C 18.328125 55.355469 18.273438 55.394531 18.234375 55.445312 C 18.199219 55.496094 18.179688 55.558594 18.179688 55.632812 C 18.179688 55.738281 18.21875 55.820312 18.296875 55.878906 C 18.375 55.933594 18.472656 55.960938 18.59375 55.960938 Z M 23.136719 53.605469 L 22.140625 56.453125 L 21.25 56.453125 L 20.257812 53.605469 L 21.089844 53.605469 L 21.683594 55.640625 L 21.710938 55.640625 L 22.300781 53.605469 Z M 24.746094 56.507812 C 24.453125 56.507812 24.203125 56.449219 23.992188 56.332031 C 23.78125 56.210938 23.617188 56.042969 23.503906 55.824219 C 23.390625 55.601562 23.335938 55.34375 23.335938 55.042969 C 23.335938 54.75 23.390625 54.492188 23.503906 54.269531 C 23.617188 54.046875 23.777344 53.875 23.984375 53.75 C 24.191406 53.628906 24.4375 53.566406 24.714844 53.566406 C 24.902344 53.566406 25.078125 53.597656 25.238281 53.65625 C 25.402344 53.714844 25.542969 53.804688 25.664062 53.925781 C 25.789062 54.046875 25.882812 54.199219 25.949219 54.378906 C 26.019531 54.558594 26.054688 54.769531 26.054688 55.011719 L 26.054688 55.230469 L 23.648438 55.230469 L 23.648438 54.742188 L 25.308594 54.742188 C 25.308594 54.625 25.285156 54.527344 25.234375 54.4375 C 25.1875 54.351562 25.117188 54.28125 25.03125 54.234375 C 24.945312 54.183594 24.84375 54.15625 24.726562 54.15625 C 24.609375 54.15625 24.5 54.183594 24.410156 54.238281 C 24.316406 54.292969 24.246094 54.367188 24.195312 54.460938 C 24.140625 54.550781 24.117188 54.652344 24.113281 54.765625 L 24.113281 55.234375 C 24.113281 55.375 24.140625 55.496094 24.191406 55.597656 C 24.246094 55.699219 24.320312 55.78125 24.417969 55.835938 C 24.511719 55.890625 24.628906 55.917969 24.757812 55.917969 C 24.847656 55.917969 24.925781 55.90625 25 55.882812 C 25.074219 55.855469 25.136719 55.820312 25.1875 55.769531 C 25.238281 55.722656 25.277344 55.660156 25.304688 55.589844 L 26.035156 55.636719 C 26 55.8125 25.921875 55.964844 25.808594 56.097656 C 25.695312 56.226562 25.546875 56.328125 25.367188 56.402344 C 25.1875 56.472656 24.980469 56.507812 24.746094 56.507812 Z M 24.746094 56.507812 " fill-opacity="1" fill-rule="nonzero"/><g clip-path="url(#bf86b0924b)"><path fill="#000000" d="M 4.335938 60.304688 C 4.308594 60.339844 4.242188 60.449219 4.21875 60.511719 C 4.027344 60.992188 3.65625 61.671875 3.253906 62.117188 C 2.710938 62.722656 2.019531 63.300781 1.253906 63.648438 L 0.945312 63.324219 C 1.730469 63.023438 2.441406 62.441406 2.941406 61.890625 C 3.269531 61.515625 3.625 60.9375 3.75 60.535156 C 3.574219 60.535156 2.023438 60.535156 1.859375 60.535156 C 1.683594 60.535156 1.421875 60.554688 1.371094 60.558594 L 1.371094 60.125 C 1.433594 60.132812 1.710938 60.152344 1.859375 60.152344 C 2.046875 60.152344 3.546875 60.152344 3.730469 60.152344 C 3.886719 60.152344 4.015625 60.136719 4.09375 60.113281 Z M 3.316406 61.863281 C 3.839844 62.300781 4.484375 62.980469 4.816406 63.382812 L 4.480469 63.679688 C 4.132812 63.21875 3.566406 62.597656 3.042969 62.136719 Z M 6.9375 63.117188 C 6.9375 62.84375 6.9375 60.699219 6.9375 60.296875 C 6.9375 60.15625 6.929688 59.945312 6.90625 59.789062 L 7.378906 59.789062 C 7.359375 59.9375 7.34375 60.148438 7.34375 60.296875 C 7.34375 61.050781 7.351562 62.886719 7.351562 63.117188 C 7.351562 63.273438 7.359375 63.535156 7.378906 63.695312 L 6.910156 63.695312 C 6.933594 63.539062 6.9375 63.296875 6.9375 63.117188 Z M 7.257812 61.0625 C 7.898438 61.25 8.878906 61.621094 9.414062 61.882812 L 9.246094 62.296875 C 8.691406 62 7.785156 61.65625 7.257812 61.492188 Z M 11.230469 63.394531 C 11.265625 63.316406 11.277344 63.246094 11.277344 63.15625 C 11.277344 62.851562 11.277344 60.839844 11.277344 60.378906 C 11.277344 60.25 11.257812 60.03125 11.238281 59.9375 L 11.710938 59.9375 C 11.699219 60.054688 11.679688 60.238281 11.679688 60.375 C 11.679688 60.835938 11.679688 62.882812 11.679688 63.132812 C 12.609375 62.894531 13.726562 62.257812 14.332031 61.476562 L 14.550781 61.816406 C 13.921875 62.597656 12.921875 63.195312 11.710938 63.546875 C 11.664062 63.5625 11.585938 63.585938 11.507812 63.628906 Z M 15.492188 61.441406 C 15.640625 61.457031 15.894531 61.472656 16.171875 61.472656 C 16.523438 61.472656 18.46875 61.472656 18.828125 61.472656 C 19.070312 61.472656 19.238281 61.453125 19.351562 61.441406 L 19.351562 61.917969 C 19.246094 61.914062 19.042969 61.898438 18.832031 61.898438 C 18.460938 61.898438 16.527344 61.898438 16.171875 61.898438 C 15.902344 61.898438 15.648438 61.910156 15.492188 61.917969 Z M 23.222656 59.925781 C 23.34375 60.105469 23.5625 60.449219 23.675781 60.679688 L 23.398438 60.808594 C 23.277344 60.550781 23.113281 60.257812 22.953125 60.039062 Z M 23.855469 59.691406 C 23.984375 59.863281 24.203125 60.210938 24.320312 60.433594 L 24.042969 60.558594 C 23.917969 60.308594 23.746094 60.027344 23.585938 59.8125 Z M 21.148438 59.851562 C 21.4375 60.011719 21.992188 60.386719 22.207031 60.539062 L 21.972656 60.871094 C 21.746094 60.695312 21.21875 60.339844 20.933594 60.179688 Z M 20.421875 63.320312 C 20.957031 63.226562 21.558594 63.039062 22.050781 62.757812 C 22.855469 62.296875 23.492188 61.664062 23.882812 60.980469 L 24.121094 61.378906 C 23.699219 62.03125 23.03125 62.660156 22.253906 63.113281 C 21.765625 63.398438 21.097656 63.625 20.652344 63.71875 Z M 20.421875 60.941406 C 20.707031 61.097656 21.277344 61.449219 21.484375 61.597656 L 21.261719 61.9375 C 21.023438 61.769531 20.5 61.429688 20.203125 61.277344 Z M 27.328125 60.234375 C 27.265625 60.738281 27.167969 61.308594 27.019531 61.824219 C 26.722656 62.820312 26.335938 63.335938 25.890625 63.335938 C 25.453125 63.335938 25.023438 62.839844 25.023438 62.035156 C 25.023438 60.980469 25.957031 60.066406 27.144531 60.066406 C 28.277344 60.066406 29 60.867188 29 61.851562 C 29 62.863281 28.332031 63.542969 27.179688 63.695312 L 26.957031 63.335938 C 27.109375 63.320312 27.257812 63.300781 27.371094 63.277344 C 27.992188 63.136719 28.601562 62.671875 28.601562 61.832031 C 28.601562 61.054688 28.066406 60.414062 27.136719 60.414062 C 26.070312 60.414062 25.40625 61.292969 25.40625 62.003906 C 25.40625 62.617188 25.679688 62.886719 25.898438 62.886719 C 26.125 62.886719 26.386719 62.558594 26.636719 61.738281 C 26.777344 61.277344 26.878906 60.730469 26.925781 60.226562 Z M 30.996094 60.007812 L 34.109375 60.007812 L 34.109375 60.347656 L 30.996094 60.347656 Z M 31.476562 61.128906 L 31.476562 61.855469 L 33.59375 61.855469 L 33.59375 61.128906 Z M 31.144531 60.816406 L 33.949219 60.816406 L 33.949219 62.164062 L 31.144531 62.164062 Z M 31.441406 62.261719 C 31.898438 63.023438 32.890625 63.476562 34.152344 63.617188 C 34.074219 63.695312 33.984375 63.839844 33.933594 63.941406 C 32.648438 63.757812 31.65625 63.253906 31.144531 62.363281 Z M 32.34375 59.488281 L 32.703125 59.488281 L 32.703125 61.636719 C 32.703125 62.574219 32.542969 63.503906 31.039062 63.949219 C 30.996094 63.867188 30.894531 63.722656 30.824219 63.644531 C 32.261719 63.28125 32.34375 62.453125 32.34375 61.632812 Z M 30.789062 59.457031 L 31.132812 59.566406 C 30.804688 60.386719 30.285156 61.199219 29.746094 61.738281 C 29.714844 61.65625 29.613281 61.46875 29.542969 61.378906 C 30.03125 60.917969 30.507812 60.195312 30.789062 59.457031 Z M 30.28125 60.730469 L 30.625 60.386719 L 30.628906 60.390625 L 30.628906 63.957031 L 30.28125 63.957031 Z M 35.238281 59.8125 L 38.375 59.8125 L 38.375 60.164062 L 35.238281 60.164062 Z M 35.238281 60.941406 L 38.367188 60.941406 L 38.367188 61.289062 L 35.238281 61.289062 Z M 35.214844 62.101562 L 38.378906 62.101562 L 38.378906 62.445312 L 35.214844 62.445312 Z M 35.035156 59.8125 L 35.394531 59.8125 L 35.394531 61.574219 C 35.394531 62.3125 35.304688 63.316406 34.730469 63.960938 C 34.671875 63.886719 34.527344 63.765625 34.449219 63.71875 C 34.980469 63.117188 35.035156 62.253906 35.035156 61.570312 Z M 38.226562 59.8125 L 38.585938 59.8125 L 38.585938 63.4375 C 38.585938 63.675781 38.527344 63.785156 38.367188 63.847656 C 38.203125 63.90625 37.921875 63.910156 37.460938 63.90625 C 37.449219 63.808594 37.390625 63.648438 37.335938 63.554688 C 37.679688 63.566406 38.011719 63.5625 38.101562 63.5625 C 38.195312 63.558594 38.226562 63.527344 38.226562 63.4375 Z M 36.554688 59.945312 L 36.925781 59.945312 L 36.925781 63.886719 L 36.554688 63.886719 Z M 40.742188 60.480469 L 41.09375 60.59375 C 40.773438 61.019531 40.277344 61.421875 39.835938 61.679688 C 39.785156 61.609375 39.652344 61.460938 39.574219 61.394531 C 40.011719 61.175781 40.46875 60.835938 40.742188 60.480469 Z M 41.980469 60.6875 L 42.226562 60.476562 C 42.671875 60.734375 43.230469 61.136719 43.503906 61.414062 L 43.234375 61.660156 C 42.972656 61.378906 42.429688 60.96875 41.980469 60.6875 Z M 41.566406 61.355469 C 41.167969 61.878906 40.375 62.5 39.566406 62.894531 C 39.523438 62.804688 39.429688 62.671875 39.355469 62.59375 C 40.175781 62.21875 40.980469 61.574219 41.363281 61.019531 L 41.726562 61.019531 C 42.246094 61.640625 43.074219 62.21875 43.820312 62.523438 C 43.738281 62.613281 43.652344 62.746094 43.59375 62.851562 C 42.871094 62.511719 42.019531 61.902344 41.566406 61.355469 Z M 40.222656 62.304688 L 42.910156 62.304688 L 42.910156 63.917969 L 42.542969 63.917969 L 42.542969 62.632812 L 40.578125 62.632812 L 40.578125 63.9375 L 40.222656 63.9375 Z M 40.394531 63.445312 L 42.734375 63.445312 L 42.734375 63.769531 L 40.394531 63.769531 Z M 41.363281 59.46875 L 41.738281 59.46875 L 41.738281 60.105469 L 41.363281 60.105469 Z M 39.535156 59.917969 L 43.582031 59.917969 L 43.582031 60.800781 L 43.214844 60.800781 L 43.214844 60.25 L 39.894531 60.25 L 39.894531 60.800781 L 39.535156 60.800781 Z M 45.191406 60.316406 L 45.191406 60.589844 L 47.605469 60.589844 L 47.605469 60.316406 Z M 45.191406 59.847656 L 45.191406 60.109375 L 47.605469 60.109375 L 47.605469 59.847656 Z M 44.84375 59.628906 L 47.96875 59.628906 L 47.96875 60.808594 L 44.84375 60.808594 Z M 45.101562 62.222656 L 45.101562 62.5 L 47.75 62.5 L 47.75 62.222656 Z M 45.101562 61.734375 L 45.101562 62.003906 L 47.75 62.003906 L 47.75 61.734375 Z M 44.753906 61.507812 L 48.109375 61.507812 L 48.109375 62.722656 L 44.753906 62.722656 Z M 46.21875 61.589844 L 46.578125 61.589844 L 46.578125 63.679688 L 46.21875 63.679688 Z M 44.238281 61.011719 L 48.585938 61.011719 L 48.585938 61.292969 L 44.238281 61.292969 Z M 44.621094 62.992188 L 48.214844 62.992188 L 48.214844 63.246094 L 44.621094 63.246094 Z M 44.207031 63.527344 L 48.609375 63.527344 L 48.609375 63.816406 L 44.207031 63.816406 Z M 50.886719 59.777344 C 50.867188 59.867188 50.847656 59.972656 50.828125 60.066406 C 50.792969 60.238281 50.730469 60.636719 50.664062 60.9375 C 50.5 61.621094 50.15625 62.832031 49.605469 63.714844 L 49.210938 63.558594 C 49.761719 62.816406 50.148438 61.519531 50.28125 60.929688 C 50.371094 60.539062 50.433594 60.105469 50.433594 59.730469 Z M 52.554688 60.335938 C 52.855469 60.730469 53.277344 61.613281 53.441406 62.058594 L 53.0625 62.238281 C 52.921875 61.742188 52.539062 60.898438 52.199219 60.496094 Z M 49.140625 60.839844 C 49.292969 60.851562 49.417969 60.847656 49.574219 60.839844 C 49.9375 60.832031 50.921875 60.726562 51.25 60.726562 C 51.679688 60.726562 52.035156 60.890625 52.035156 61.542969 C 52.035156 62.121094 51.957031 62.894531 51.753906 63.296875 C 51.601562 63.621094 51.359375 63.703125 51.046875 63.703125 C 50.863281 63.703125 50.628906 63.667969 50.480469 63.628906 L 50.410156 63.226562 C 50.613281 63.292969 50.871094 63.324219 51.007812 63.324219 C 51.1875 63.324219 51.332031 63.285156 51.429688 63.078125 C 51.585938 62.746094 51.660156 62.117188 51.660156 61.59375 C 51.660156 61.148438 51.457031 61.0625 51.148438 61.0625 C 50.824219 61.0625 49.914062 61.175781 49.617188 61.207031 C 49.503906 61.21875 49.304688 61.242188 49.179688 61.261719 Z M 52.605469 59.632812 C 52.726562 59.808594 52.902344 60.105469 53.003906 60.304688 L 52.742188 60.417969 C 52.644531 60.21875 52.480469 59.929688 52.34375 59.746094 Z M 53.140625 59.4375 C 53.269531 59.617188 53.453125 59.925781 53.550781 60.105469 L 53.285156 60.21875 C 53.183594 60.007812 53.023438 59.730469 52.882812 59.550781 Z M 55.957031 61.039062 L 57.945312 61.039062 L 57.945312 61.402344 L 55.957031 61.402344 Z M 53.925781 63.339844 L 58.277344 63.339844 L 58.277344 63.703125 L 53.925781 63.703125 Z M 55.746094 59.542969 L 56.128906 59.542969 L 56.128906 63.535156 L 55.746094 63.535156 Z M 60.882812 60.605469 L 62.691406 60.605469 L 62.691406 60.910156 L 60.882812 60.910156 Z M 60.128906 63.507812 C 60.574219 63.433594 61.277344 63.292969 61.953125 63.15625 L 61.980469 63.476562 C 61.367188 63.617188 60.71875 63.757812 60.25 63.863281 Z M 60.675781 59.6875 L 61.03125 59.6875 L 61.03125 63.539062 L 60.675781 63.539062 Z M 60.882812 59.6875 L 62.859375 59.6875 L 62.859375 61.839844 L 60.882812 61.839844 L 60.882812 61.519531 L 62.507812 61.519531 L 62.507812 60.007812 L 60.882812 60.007812 Z M 61.820312 61.632812 C 62.027344 62.539062 62.46875 63.296875 63.191406 63.617188 C 63.109375 63.6875 63 63.824219 62.949219 63.917969 C 62.191406 63.535156 61.742188 62.714844 61.519531 61.691406 Z M 62.785156 61.953125 L 63.070312 62.160156 C 62.796875 62.414062 62.453125 62.683594 62.183594 62.863281 L 61.953125 62.679688 C 62.214844 62.492188 62.582031 62.183594 62.785156 61.953125 Z M 58.917969 59.683594 L 60.15625 59.683594 L 60.15625 60.011719 L 59.261719 60.011719 L 59.261719 63.9375 L 58.917969 63.9375 Z M 60.050781 59.683594 L 60.117188 59.683594 L 60.171875 59.667969 L 60.417969 59.816406 C 60.265625 60.21875 60.058594 60.71875 59.878906 61.101562 C 60.273438 61.507812 60.367188 61.851562 60.367188 62.152344 C 60.367188 62.417969 60.300781 62.617188 60.15625 62.71875 C 60.085938 62.765625 59.992188 62.796875 59.890625 62.804688 C 59.777344 62.820312 59.644531 62.820312 59.523438 62.8125 C 59.515625 62.722656 59.488281 62.578125 59.429688 62.480469 C 59.554688 62.496094 59.664062 62.496094 59.75 62.492188 C 59.8125 62.484375 59.871094 62.472656 59.917969 62.441406 C 60.003906 62.390625 60.03125 62.261719 60.027344 62.113281 C 60.027344 61.84375 59.925781 61.523438 59.546875 61.148438 C 59.742188 60.707031 59.9375 60.117188 60.050781 59.785156 Z M 65.574219 60.269531 C 66.101562 60.359375 67.085938 60.339844 67.566406 60.269531 L 67.566406 60.660156 C 67.046875 60.71875 66.109375 60.71875 65.578125 60.660156 Z M 65.765625 62.25 C 65.71875 62.421875 65.695312 62.558594 65.695312 62.691406 C 65.695312 62.914062 65.851562 63.132812 66.515625 63.132812 C 66.945312 63.132812 67.324219 63.09375 67.710938 63 L 67.722656 63.40625 C 67.421875 63.46875 67.015625 63.507812 66.511719 63.507812 C 65.699219 63.507812 65.335938 63.238281 65.335938 62.78125 C 65.335938 62.621094 65.363281 62.445312 65.414062 62.214844 Z M 64.65625 59.894531 C 64.625 59.976562 64.585938 60.132812 64.566406 60.21875 C 64.476562 60.671875 64.324219 61.535156 64.324219 62.082031 C 64.324219 62.316406 64.339844 62.519531 64.367188 62.757812 C 64.449219 62.539062 64.5625 62.25 64.644531 62.050781 L 64.847656 62.210938 C 64.726562 62.554688 64.546875 63.0625 64.503906 63.296875 C 64.488281 63.363281 64.480469 63.457031 64.480469 63.515625 C 64.484375 63.5625 64.488281 63.628906 64.496094 63.683594 L 64.148438 63.707031 C 64.054688 63.363281 63.972656 62.804688 63.972656 62.144531 C 63.972656 61.433594 64.132812 60.605469 64.1875 60.199219 C 64.203125 60.089844 64.21875 59.96875 64.222656 59.863281 Z M 69.402344 61.382812 L 69.402344 63.101562 L 69.054688 63.101562 L 69.054688 61.722656 L 68.4375 61.722656 L 68.4375 61.382812 Z M 69.402344 62.957031 C 69.632812 63.316406 70.058594 63.480469 70.632812 63.5 C 71.171875 63.523438 72.292969 63.507812 72.878906 63.46875 C 72.835938 63.554688 72.777344 63.722656 72.761719 63.828125 C 72.214844 63.855469 71.175781 63.863281 70.632812 63.839844 C 69.996094 63.816406 69.554688 63.644531 69.253906 63.261719 C 69.039062 63.46875 68.816406 63.679688 68.574219 63.894531 L 68.386719 63.539062 C 68.597656 63.382812 68.859375 63.164062 69.089844 62.957031 Z M 68.484375 59.792969 L 68.757812 59.59375 C 69.058594 59.8125 69.398438 60.148438 69.550781 60.386719 L 69.25 60.613281 C 69.113281 60.371094 68.777344 60.03125 68.484375 59.792969 Z M 70.25 60.816406 L 70.5625 60.738281 C 70.671875 60.890625 70.769531 61.097656 70.804688 61.238281 L 70.46875 61.328125 C 70.445312 61.1875 70.351562 60.972656 70.25 60.816406 Z M 69.957031 59.84375 L 72.480469 59.84375 L 72.480469 60.113281 L 69.957031 60.113281 Z M 69.921875 61.890625 L 72.550781 61.890625 L 72.550781 62.160156 L 69.921875 62.160156 Z M 69.738281 61.289062 L 72.742188 61.289062 L 72.742188 61.5625 L 69.738281 61.5625 Z M 69.632812 60.476562 L 72.808594 60.476562 L 72.808594 60.757812 L 69.632812 60.757812 Z M 69.679688 62.523438 L 72.773438 62.523438 L 72.773438 62.804688 L 69.679688 62.804688 Z M 71.011719 59.46875 L 71.375 59.46875 L 71.375 60.65625 L 71.011719 60.65625 Z M 71.011719 61.414062 L 71.375 61.414062 L 71.375 63.265625 L 71.011719 63.265625 Z M 71.800781 60.71875 L 72.15625 60.816406 C 72.054688 61.007812 71.949219 61.199219 71.859375 61.332031 L 71.574219 61.242188 C 71.652344 61.09375 71.753906 60.867188 71.800781 60.71875 Z M 74.710938 59.765625 C 74.6875 59.925781 74.671875 60.09375 74.660156 60.253906 C 74.640625 60.800781 74.605469 61.953125 74.605469 62.675781 C 74.605469 63.207031 74.9375 63.394531 75.398438 63.394531 C 76.285156 63.394531 76.789062 62.898438 77.136719 62.394531 L 77.410156 62.722656 C 77.078125 63.183594 76.449219 63.789062 75.390625 63.789062 C 74.691406 63.789062 74.210938 63.503906 74.210938 62.710938 C 74.210938 61.992188 74.257812 60.761719 74.257812 60.253906 C 74.257812 60.074219 74.246094 59.90625 74.214844 59.765625 Z M 80.679688 59.695312 C 80.671875 59.777344 80.660156 59.875 80.65625 60.019531 C 80.648438 60.214844 80.648438 60.867188 80.648438 61.273438 C 80.648438 61.914062 80.71875 62.761719 80.71875 63.085938 C 80.71875 63.425781 80.496094 63.769531 79.867188 63.769531 C 79.167969 63.769531 78.785156 63.523438 78.785156 63.054688 C 78.785156 62.613281 79.207031 62.316406 79.90625 62.316406 C 80.929688 62.316406 81.726562 62.867188 82.101562 63.175781 L 81.878906 63.519531 C 81.441406 63.117188 80.722656 62.632812 79.863281 62.632812 C 79.398438 62.632812 79.148438 62.8125 79.148438 63.035156 C 79.148438 63.261719 79.339844 63.425781 79.816406 63.425781 C 80.097656 63.425781 80.335938 63.34375 80.335938 63.003906 C 80.335938 62.632812 80.289062 61.699219 80.289062 61.273438 C 80.289062 60.835938 80.289062 60.328125 80.289062 59.988281 C 80.289062 59.90625 80.285156 59.757812 80.269531 59.695312 Z M 78.828125 60.21875 C 79.140625 60.277344 79.746094 60.328125 80.066406 60.328125 C 80.679688 60.328125 81.332031 60.285156 81.960938 60.179688 L 81.960938 60.535156 C 81.414062 60.597656 80.71875 60.660156 80.070312 60.660156 C 79.734375 60.660156 79.140625 60.617188 78.835938 60.578125 Z M 78.804688 61.253906 C 79.148438 61.308594 79.703125 61.339844 80.023438 61.339844 C 80.722656 61.339844 81.367188 61.292969 82 61.199219 L 82 61.5625 C 81.339844 61.648438 80.75 61.679688 80.023438 61.679688 C 79.6875 61.679688 79.152344 61.65625 78.808594 61.617188 Z M 84.402344 59.765625 C 84.378906 59.925781 84.363281 60.09375 84.355469 60.253906 C 84.335938 60.800781 84.296875 61.953125 84.296875 62.675781 C 84.296875 63.207031 84.628906 63.394531 85.089844 63.394531 C 85.976562 63.394531 86.480469 62.898438 86.832031 62.394531 L 87.101562 62.722656 C 86.773438 63.183594 86.140625 63.789062 85.082031 63.789062 C 84.382812 63.789062 83.902344 63.503906 83.902344 62.710938 C 83.902344 61.992188 83.953125 60.761719 83.953125 60.253906 C 83.953125 60.074219 83.9375 59.90625 83.910156 59.765625 Z M 89.742188 59.730469 C 89.714844 59.835938 89.679688 60.019531 89.660156 60.113281 C 89.589844 60.460938 89.488281 61.011719 89.351562 61.496094 C 89.175781 62.183594 88.851562 63.1875 88.59375 63.71875 L 88.171875 63.578125 C 88.464844 63.074219 88.804688 62.089844 88.988281 61.402344 C 89.105469 60.957031 89.230469 60.347656 89.261719 60.09375 C 89.28125 59.957031 89.292969 59.792969 89.28125 59.691406 Z M 88.671875 60.539062 C 89.207031 60.539062 89.917969 60.453125 90.519531 60.304688 L 90.519531 60.679688 C 89.917969 60.816406 89.1875 60.898438 88.664062 60.898438 C 88.449219 60.898438 88.28125 60.894531 88.101562 60.878906 L 88.089844 60.5 C 88.320312 60.53125 88.492188 60.539062 88.671875 60.539062 Z M 90.203125 61.207031 C 90.457031 61.179688 90.78125 61.167969 91.089844 61.167969 C 91.371094 61.167969 91.667969 61.175781 91.929688 61.207031 L 91.917969 61.574219 C 91.667969 61.542969 91.386719 61.515625 91.101562 61.515625 C 90.800781 61.515625 90.5 61.535156 90.203125 61.570312 Z M 90.300781 62.382812 C 90.261719 62.542969 90.234375 62.695312 90.234375 62.820312 C 90.234375 63.046875 90.363281 63.273438 91.050781 63.273438 C 91.371094 63.273438 91.699219 63.238281 92 63.179688 L 91.988281 63.566406 C 91.726562 63.605469 91.402344 63.636719 91.046875 63.636719 C 90.285156 63.636719 89.871094 63.402344 89.871094 62.921875 C 89.871094 62.738281 89.898438 62.554688 89.941406 62.351562 Z M 90.300781 62.382812 " fill-opacity="1" fill-rule="nonzero"/></g></svg>