<svg xmlns="http://www.w3.org/2000/svg" xmlns:xlink="http://www.w3.org/1999/xlink" width="43" zoomAndPan="magnify" viewBox="0 0 32.25 32.249998" height="43" preserveAspectRatio="xMidYMid meet" version="1.0"><defs><clipPath id="00b76ef0fd"><path d="M 0 0 L 31.515625 0 L 31.515625 31.515625 L 0 31.515625 Z M 0 0 " clip-rule="nonzero"/></clipPath><clipPath id="b7fd27bb69"><path d="M 4.175781 7.851562 L 18.09375 7.851562 L 18.09375 27.832031 L 4.175781 27.832031 Z M 4.175781 7.851562 " clip-rule="nonzero"/></clipPath><clipPath id="ce1178589f"><path d="M 0 0 L 31.515625 0 L 31.515625 31.515625 L 0 31.515625 Z M 0 0 " clip-rule="nonzero"/></clipPath><clipPath id="5c8ba2812b"><path d="M 3.121094 1.300781 L 8.992188 1.300781 L 8.992188 6.179688 L 3.121094 6.179688 Z M 3.121094 1.300781 " clip-rule="nonzero"/></clipPath><clipPath id="cca4fd62cf"><path d="M 3.355469 2.078125 C 2.453125 2.824219 3.214844 3.550781 3.636719 3.933594 L 6.097656 6.179688 L 8.507812 3.941406 C 8.902344 3.527344 9.160156 3.089844 8.96875 2.597656 C 8.851562 1.925781 8.265625 1.398438 7.539062 1.324219 C 7.097656 1.238281 6.667969 1.398438 6.332031 1.660156 C 6.242188 1.734375 6.164062 1.8125 6.09375 1.898438 C 6.007812 1.800781 5.910156 1.710938 5.800781 1.632812 C 5.414062 1.355469 4.925781 1.132812 4.453125 1.328125 C 4.007812 1.410156 3.605469 1.683594 3.355469 2.078125 Z M 3.355469 2.078125 " clip-rule="nonzero"/></clipPath><clipPath id="60f7aec095"><path d="M 23.65625 1.300781 L 27.082031 1.300781 L 27.082031 6.179688 L 23.65625 6.179688 Z M 23.65625 1.300781 " clip-rule="nonzero"/></clipPath><clipPath id="27138b8be9"><path d="M 0 9.523438 L 31.515625 9.523438 L 31.515625 10.175781 L 0 10.175781 Z M 0 9.523438 " clip-rule="nonzero"/></clipPath><clipPath id="f2d9fd8af7"><path d="M 11.828125 12.132812 L 19.160156 12.132812 L 19.160156 19.308594 L 11.828125 19.308594 Z M 11.828125 12.132812 " clip-rule="nonzero"/></clipPath><clipPath id="e0f13e326b"><path d="M 29 15 L 31.515625 15 L 31.515625 19 L 29 19 Z M 29 15 " clip-rule="nonzero"/></clipPath><clipPath id="44fa57f37f"><path d="M 27 22 L 31.515625 22 L 31.515625 28 L 27 28 Z M 27 22 " clip-rule="nonzero"/></clipPath><clipPath id="4a9cb338c7"><path d="M 0 29 L 1 29 L 1 31.515625 L 0 31.515625 Z M 0 29 " clip-rule="nonzero"/></clipPath><clipPath id="6a52ffdd0a"><path d="M 1 29 L 6 29 L 6 31.515625 L 1 31.515625 Z M 1 29 " clip-rule="nonzero"/></clipPath><clipPath id="4fe75df197"><path d="M 6 29 L 11 29 L 11 31.515625 L 6 31.515625 Z M 6 29 " clip-rule="nonzero"/></clipPath><clipPath id="b197367496"><path d="M 11 29 L 17 29 L 17 31.515625 L 11 31.515625 Z M 11 29 " clip-rule="nonzero"/></clipPath><clipPath id="2e7456248f"><path d="M 16 29 L 22 29 L 22 31.515625 L 16 31.515625 Z M 16 29 " clip-rule="nonzero"/></clipPath><clipPath id="dcd4b9e327"><path d="M 22 29 L 27 29 L 27 31.515625 L 22 31.515625 Z M 22 29 " clip-rule="nonzero"/></clipPath><clipPath id="fd31c6c7a5"><path d="M 27 29 L 31.515625 29 L 31.515625 31.515625 L 27 31.515625 Z M 27 29 " clip-rule="nonzero"/></clipPath></defs><g clip-path="url(#00b76ef0fd)"><path fill="#ffffff" d="M 0 0 L 31.515625 0 L 31.515625 31.515625 L 0 31.515625 Z M 0 0 " fill-opacity="1" fill-rule="nonzero"/></g><g clip-path="url(#b7fd27bb69)"><path fill="#aaa9a9" d="M 4.175781 7.851562 L 18.09375 7.851562 L 18.09375 27.808594 L 4.175781 27.808594 Z M 4.175781 7.851562 " fill-opacity="1" fill-rule="nonzero"/></g><g clip-path="url(#ce1178589f)"><rect x="-3.225" width="38.7" fill="#ffffff" y="-3.225" height="38.699998" fill-opacity="1"/><rect x="-3.225" width="38.7" fill="#ffffff" y="-3.225" height="38.699998" fill-opacity="1"/></g><g clip-path="url(#5c8ba2812b)"><g clip-path="url(#cca4fd62cf)"><path stroke-linecap="butt" transform="matrix(0.488936, 0, 0, 0.487963, 3.122616, 1.299862)" fill="none" stroke-linejoin="miter" d="M 0.476243 1.594922 C -1.369281 3.123919 0.188629 4.61289 1.051472 5.397402 L 6.084721 10.000403 L 11.01411 5.413412 C 11.821028 4.564859 12.34832 3.668274 11.956845 2.659616 C 11.717167 1.282718 10.518774 0.202014 9.032767 0.0499146 C 8.129978 -0.1262 7.251157 0.202014 6.564078 0.738364 C 6.380325 0.890463 6.220539 1.050567 6.076732 1.226682 C 5.900968 1.026551 5.701236 0.842431 5.477536 0.682327 C 4.686596 0.113956 3.687936 -0.342341 2.721232 0.0579198 C 1.810454 0.226029 0.987558 0.786395 0.476243 1.594922 Z M 0.476243 1.594922 " stroke="#737373" stroke-width="2" stroke-opacity="1" stroke-miterlimit="4"/></g></g><g clip-path="url(#60f7aec095)"><path fill="#737373" d="M 27.050781 6.160156 C 26.992188 6.160156 26.941406 6.136719 26.898438 6.09375 L 25.464844 4.574219 L 24.03125 6.09375 C 23.964844 6.160156 23.890625 6.179688 23.800781 6.144531 C 23.710938 6.109375 23.667969 6.042969 23.664062 5.945312 L 23.664062 1.511719 C 23.664062 1.453125 23.6875 1.402344 23.726562 1.359375 C 23.769531 1.320312 23.816406 1.300781 23.875 1.300781 L 27.050781 1.300781 C 27.109375 1.300781 27.160156 1.320312 27.203125 1.359375 C 27.242188 1.402344 27.265625 1.453125 27.265625 1.511719 L 27.265625 5.945312 C 27.265625 6.003906 27.242188 6.054688 27.203125 6.097656 C 27.160156 6.136719 27.109375 6.160156 27.050781 6.160156 Z M 25.464844 4.058594 C 25.527344 4.058594 25.578125 4.082031 25.617188 4.125 L 26.839844 5.417969 L 26.839844 1.722656 L 24.089844 1.722656 L 24.089844 5.417969 L 25.3125 4.125 C 25.351562 4.082031 25.402344 4.058594 25.464844 4.058594 Z M 25.464844 4.058594 " fill-opacity="1" fill-rule="nonzero"/></g><g clip-path="url(#27138b8be9)"><path stroke-linecap="butt" transform="matrix(0.488936, 0, 0, 0.487963, -65.81735, 9.56839)" fill="none" stroke-linejoin="miter" d="M 0.00192931 0.500263 L 269.9998 0.500263 " stroke="#d9d9d9" stroke-width="1" stroke-opacity="1" stroke-miterlimit="4"/></g><path fill="#000000" d="M -0.292969 15.351562 L -0.171875 15.390625 C -0.0859375 15.417969 -0.0195312 15.472656 0.0234375 15.554688 C 0.0664062 15.644531 0.0742188 15.726562 0.0429688 15.808594 C -0.183594 16.542969 -0.421875 17.203125 -0.671875 17.796875 C -0.679688 17.8125 -0.679688 17.824219 -0.671875 17.835938 C -0.667969 17.84375 -0.65625 17.847656 -0.640625 17.847656 C 0.0117188 17.800781 0.675781 17.742188 1.351562 17.671875 C 1.355469 17.671875 1.363281 17.671875 1.371094 17.664062 C 1.382812 17.648438 1.386719 17.640625 1.378906 17.632812 L 0.929688 16.847656 C 0.890625 16.773438 0.882812 16.695312 0.910156 16.613281 C 0.945312 16.53125 0.996094 16.476562 1.074219 16.441406 L 1.144531 16.410156 C 1.230469 16.367188 1.320312 16.367188 1.410156 16.398438 C 1.503906 16.425781 1.578125 16.480469 1.625 16.5625 C 1.972656 17.148438 2.28125 17.703125 2.554688 18.234375 C 2.59375 18.308594 2.597656 18.386719 2.566406 18.46875 C 2.535156 18.554688 2.476562 18.617188 2.390625 18.652344 L 2.328125 18.683594 C 2.242188 18.722656 2.148438 18.726562 2.054688 18.691406 C 1.964844 18.652344 1.902344 18.589844 1.859375 18.507812 L 1.757812 18.324219 C 1.742188 18.289062 1.71875 18.277344 1.6875 18.285156 C 0.421875 18.441406 -0.832031 18.542969 -2.070312 18.589844 C -2.160156 18.59375 -2.242188 18.570312 -2.316406 18.507812 C -2.378906 18.449219 -2.414062 18.367188 -2.417969 18.273438 C -2.425781 18.1875 -2.398438 18.109375 -2.335938 18.039062 C -2.273438 17.980469 -2.203125 17.941406 -2.113281 17.929688 L -1.621094 17.90625 C -1.597656 17.90625 -1.570312 17.890625 -1.550781 17.855469 C -1.25 17.171875 -0.972656 16.410156 -0.714844 15.574219 C -0.6875 15.488281 -0.632812 15.421875 -0.550781 15.378906 C -0.46875 15.339844 -0.382812 15.328125 -0.292969 15.351562 Z M 1.320312 13.964844 C 1.660156 14.582031 2.070312 15.121094 2.554688 15.585938 C 2.621094 15.652344 2.65625 15.730469 2.65625 15.820312 C 2.65625 15.914062 2.625 15.992188 2.566406 16.054688 L 2.492188 16.125 C 2.425781 16.191406 2.34375 16.226562 2.257812 16.226562 C 2.15625 16.226562 2.074219 16.195312 2.011719 16.132812 C 1.425781 15.5625 0.953125 14.925781 0.59375 14.21875 C 0.554688 14.144531 0.546875 14.0625 0.582031 13.972656 C 0.625 13.898438 0.6875 13.847656 0.769531 13.8125 L 0.847656 13.78125 C 0.9375 13.753906 1.027344 13.757812 1.113281 13.789062 C 1.203125 13.824219 1.269531 13.882812 1.320312 13.964844 Z M -0.5 14.21875 C -0.859375 14.925781 -1.332031 15.5625 -1.917969 16.132812 C -1.980469 16.195312 -2.0625 16.226562 -2.164062 16.226562 C -2.253906 16.226562 -2.332031 16.191406 -2.398438 16.125 L -2.46875 16.054688 C -2.53125 15.992188 -2.5625 15.914062 -2.5625 15.820312 C -2.5625 15.730469 -2.527344 15.652344 -2.460938 15.585938 C -1.976562 15.121094 -1.566406 14.582031 -1.222656 13.964844 C -1.175781 13.882812 -1.109375 13.824219 -1.03125 13.789062 C -0.941406 13.757812 -0.851562 13.753906 -0.753906 13.78125 L -0.671875 13.8125 C -0.589844 13.847656 -0.527344 13.898438 -0.488281 13.972656 C -0.457031 14.0625 -0.457031 14.144531 -0.5 14.21875 Z M -0.5 14.21875 " fill-opacity="1" fill-rule="nonzero"/><path fill="#000000" d="M 3.714844 17.917969 C 4.027344 17.878906 4.246094 17.847656 4.367188 17.824219 C 4.410156 17.820312 4.429688 17.800781 4.429688 17.765625 L 4.429688 16.175781 C 4.429688 16.140625 4.410156 16.125 4.378906 16.125 L 3.847656 16.125 C 3.757812 16.125 3.683594 16.09375 3.621094 16.03125 C 3.566406 15.964844 3.539062 15.890625 3.539062 15.808594 C 3.539062 15.726562 3.566406 15.65625 3.621094 15.59375 C 3.683594 15.53125 3.757812 15.503906 3.847656 15.503906 L 5.808594 15.503906 C 5.894531 15.503906 5.972656 15.53125 6.03125 15.59375 C 6.09375 15.65625 6.125 15.726562 6.125 15.808594 C 6.125 15.890625 6.09375 15.964844 6.03125 16.03125 C 5.972656 16.09375 5.894531 16.125 5.808594 16.125 L 5.257812 16.125 C 5.21875 16.125 5.207031 16.140625 5.207031 16.175781 L 5.207031 17.644531 C 5.207031 17.648438 5.210938 17.660156 5.226562 17.671875 C 5.230469 17.679688 5.242188 17.683594 5.257812 17.683594 C 5.527344 17.636719 5.796875 17.578125 6.0625 17.511719 C 6.148438 17.496094 6.226562 17.511719 6.289062 17.550781 C 6.355469 17.597656 6.398438 17.664062 6.421875 17.746094 C 6.433594 17.824219 6.414062 17.90625 6.371094 17.988281 C 6.320312 18.070312 6.253906 18.117188 6.164062 18.132812 C 5.539062 18.289062 4.757812 18.429688 3.816406 18.558594 C 3.726562 18.574219 3.644531 18.550781 3.5625 18.5 C 3.492188 18.449219 3.453125 18.378906 3.4375 18.285156 C 3.421875 18.199219 3.445312 18.117188 3.5 18.039062 C 3.546875 17.972656 3.617188 17.933594 3.714844 17.917969 Z M 7.910156 18.761719 C 7.769531 18.761719 7.636719 18.726562 7.511719 18.652344 C 7.375 18.574219 7.242188 18.449219 7.113281 18.265625 C 6.976562 18.082031 6.855469 17.851562 6.746094 17.570312 C 6.644531 17.304688 6.546875 16.941406 6.460938 16.46875 C 6.378906 16.058594 6.320312 15.550781 6.277344 14.953125 C 6.277344 14.917969 6.257812 14.902344 6.214844 14.902344 L 3.59375 14.902344 C 3.511719 14.902344 3.433594 14.871094 3.367188 14.808594 C 3.304688 14.75 3.277344 14.675781 3.277344 14.585938 C 3.277344 14.5 3.304688 14.421875 3.367188 14.359375 C 3.429688 14.300781 3.503906 14.269531 3.59375 14.269531 L 6.195312 14.269531 C 6.230469 14.269531 6.242188 14.253906 6.238281 14.21875 C 6.238281 14.125 6.238281 13.972656 6.238281 13.769531 C 6.222656 13.683594 6.253906 13.605469 6.328125 13.535156 C 6.394531 13.46875 6.472656 13.433594 6.5625 13.433594 L 6.636719 13.433594 C 6.738281 13.433594 6.820312 13.46875 6.878906 13.535156 C 6.941406 13.597656 6.972656 13.675781 6.972656 13.769531 L 6.992188 14.21875 C 6.992188 14.253906 7.003906 14.269531 7.03125 14.269531 L 7.769531 14.269531 C 7.773438 14.269531 7.777344 14.265625 7.777344 14.257812 C 7.777344 14.253906 7.773438 14.246094 7.769531 14.238281 L 7.359375 13.972656 C 7.292969 13.941406 7.246094 13.878906 7.226562 13.789062 C 7.207031 13.707031 7.21875 13.636719 7.269531 13.578125 C 7.320312 13.503906 7.390625 13.453125 7.472656 13.433594 C 7.558594 13.414062 7.636719 13.429688 7.707031 13.472656 L 8.15625 13.761719 C 8.222656 13.808594 8.269531 13.878906 8.289062 13.972656 C 8.308594 14.054688 8.292969 14.136719 8.238281 14.21875 L 8.21875 14.238281 C 8.21875 14.238281 8.21875 14.246094 8.21875 14.257812 C 8.222656 14.265625 8.230469 14.269531 8.238281 14.269531 C 8.324219 14.269531 8.402344 14.300781 8.460938 14.359375 C 8.523438 14.4375 8.554688 14.511719 8.554688 14.585938 C 8.554688 14.675781 8.523438 14.75 8.460938 14.808594 C 8.394531 14.871094 8.320312 14.902344 8.238281 14.902344 L 7.074219 14.902344 C 7.039062 14.902344 7.027344 14.917969 7.03125 14.953125 C 7.058594 15.359375 7.097656 15.722656 7.15625 16.03125 C 7.21875 16.375 7.277344 16.652344 7.339844 16.867188 C 7.394531 17.085938 7.453125 17.28125 7.523438 17.449219 C 7.589844 17.621094 7.648438 17.734375 7.695312 17.796875 C 7.75 17.871094 7.792969 17.90625 7.820312 17.90625 C 7.914062 17.90625 7.984375 17.695312 8.035156 17.265625 C 8.039062 17.183594 8.078125 17.121094 8.15625 17.082031 C 8.222656 17.042969 8.292969 17.035156 8.371094 17.0625 L 8.402344 17.070312 C 8.496094 17.113281 8.570312 17.175781 8.625 17.253906 C 8.671875 17.335938 8.691406 17.429688 8.675781 17.53125 C 8.621094 17.9375 8.527344 18.25 8.390625 18.457031 C 8.253906 18.660156 8.09375 18.761719 7.910156 18.761719 Z M 7.910156 18.761719 " fill-opacity="1" fill-rule="nonzero"/><path fill="#000000" d="M 9.253906 19.253906 L 9.214844 19.253906 C 9.152344 19.253906 9.105469 19.222656 9.082031 19.160156 C 9.0625 19.101562 9.070312 19.050781 9.113281 19.007812 C 9.71875 18.292969 10.019531 17.460938 10.019531 16.5 C 10.019531 15.539062 9.71875 14.699219 9.113281 13.984375 C 9.070312 13.941406 9.0625 13.890625 9.082031 13.832031 C 9.105469 13.769531 9.152344 13.738281 9.214844 13.738281 L 9.253906 13.738281 C 9.484375 13.738281 9.675781 13.820312 9.828125 13.984375 C 10.132812 14.324219 10.367188 14.710938 10.53125 15.144531 C 10.699219 15.574219 10.785156 16.027344 10.785156 16.5 C 10.785156 16.96875 10.699219 17.421875 10.53125 17.855469 C 10.367188 18.285156 10.132812 18.667969 9.828125 19.007812 C 9.675781 19.171875 9.484375 19.253906 9.253906 19.253906 Z M 9.253906 19.253906 " fill-opacity="1" fill-rule="nonzero"/><g clip-path="url(#f2d9fd8af7)"><path fill="#000000" d="M 15.734375 12.441406 L 16.425781 12.195312 C 16.625 12.125 16.847656 12.195312 16.964844 12.371094 L 17.382812 12.976562 C 17.441406 13.0625 17.53125 13.128906 17.632812 13.160156 L 18.339844 13.367188 C 18.539062 13.425781 18.679688 13.617188 18.671875 13.824219 L 18.652344 14.558594 C 18.652344 14.664062 18.683594 14.769531 18.75 14.855469 L 19.195312 15.4375 C 19.328125 15.601562 19.328125 15.835938 19.195312 16.003906 L 18.75 16.585938 C 18.683594 16.671875 18.652344 16.773438 18.652344 16.882812 L 18.671875 17.617188 C 18.679688 17.824219 18.539062 18.011719 18.339844 18.074219 L 17.632812 18.28125 C 17.53125 18.3125 17.441406 18.375 17.382812 18.464844 L 16.964844 19.070312 C 16.847656 19.242188 16.625 19.316406 16.425781 19.242188 L 15.734375 19 C 15.628906 18.964844 15.519531 18.964844 15.421875 19 L 14.726562 19.242188 C 14.527344 19.316406 14.304688 19.242188 14.1875 19.070312 L 13.773438 18.464844 C 13.710938 18.375 13.621094 18.3125 13.519531 18.28125 L 12.816406 18.074219 C 12.609375 18.011719 12.476562 17.824219 12.480469 17.617188 L 12.5 16.882812 C 12.503906 16.773438 12.46875 16.671875 12.402344 16.585938 L 11.953125 16.003906 C 11.828125 15.835938 11.828125 15.601562 11.953125 15.4375 L 12.402344 14.855469 C 12.46875 14.769531 12.503906 14.664062 12.5 14.558594 L 12.480469 13.824219 C 12.476562 13.617188 12.609375 13.425781 12.816406 13.367188 L 13.519531 13.160156 C 13.621094 13.128906 13.710938 13.0625 13.773438 12.976562 L 14.1875 12.371094 C 14.304688 12.195312 14.527344 12.125 14.726562 12.195312 L 15.421875 12.441406 C 15.519531 12.476562 15.628906 12.476562 15.734375 12.441406 " fill-opacity="1" fill-rule="nonzero"/></g><path fill="#ffffff" d="M 17.652344 14.628906 L 17.066406 14.042969 L 14.878906 16.226562 L 14.085938 15.441406 L 13.5 16.023438 L 14.878906 17.398438 L 15.691406 16.585938 L 17.652344 14.628906 " fill-opacity="1" fill-rule="nonzero"/><path fill="#737373" d="M 2.160156 2.808594 C 2 2.550781 1.765625 2.421875 1.445312 2.421875 C 1.125 2.421875 0.886719 2.550781 0.730469 2.808594 C 0.570312 3.0625 0.496094 3.472656 0.496094 4.042969 C 0.496094 4.605469 0.570312 5.015625 0.730469 5.273438 C 0.886719 5.527344 1.125 5.652344 1.445312 5.652344 C 1.765625 5.652344 2 5.527344 2.160156 5.273438 C 2.324219 5.015625 2.40625 4.605469 2.40625 4.042969 C 2.40625 3.472656 2.324219 3.0625 2.160156 2.808594 Z M 2.457031 5.539062 C 2.214844 5.839844 1.878906 5.988281 1.445312 5.988281 C 1.015625 5.988281 0.679688 5.839844 0.433594 5.539062 C 0.195312 5.234375 0.078125 4.734375 0.078125 4.042969 C 0.078125 3.34375 0.195312 2.84375 0.433594 2.542969 C 0.679688 2.238281 1.015625 2.085938 1.445312 2.085938 C 1.878906 2.085938 2.214844 2.238281 2.457031 2.542969 C 2.699219 2.84375 2.824219 3.34375 2.824219 4.042969 C 2.824219 4.734375 2.699219 5.234375 2.457031 5.539062 Z M 2.457031 5.539062 " fill-opacity="1" fill-rule="nonzero"/><path fill="#737373" d="M 13.347656 2.605469 L 12.214844 3.707031 L 12.214844 3.714844 C 12.214844 3.714844 12.21875 3.714844 12.226562 3.714844 L 12.367188 3.714844 C 12.742188 3.714844 13.023438 3.804688 13.214844 3.980469 C 13.414062 4.160156 13.511719 4.417969 13.511719 4.753906 C 13.511719 5.148438 13.394531 5.457031 13.15625 5.671875 C 12.921875 5.882812 12.59375 5.988281 12.164062 5.988281 C 11.851562 5.988281 11.574219 5.925781 11.328125 5.804688 C 11.277344 5.785156 11.246094 5.75 11.226562 5.703125 C 11.210938 5.648438 11.214844 5.597656 11.234375 5.550781 C 11.25 5.507812 11.277344 5.484375 11.316406 5.46875 C 11.363281 5.449219 11.410156 5.449219 11.460938 5.46875 C 11.683594 5.585938 11.917969 5.640625 12.164062 5.640625 C 12.464844 5.640625 12.691406 5.566406 12.847656 5.417969 C 13.011719 5.269531 13.09375 5.046875 13.09375 4.753906 C 13.09375 4.511719 13.011719 4.328125 12.847656 4.203125 C 12.683594 4.082031 12.421875 4.019531 12.0625 4.019531 L 11.839844 4.019531 C 11.796875 4.019531 11.757812 4.007812 11.726562 3.980469 C 11.691406 3.949219 11.675781 3.910156 11.675781 3.867188 C 11.675781 3.761719 11.714844 3.667969 11.796875 3.59375 L 12.929688 2.492188 C 12.929688 2.488281 12.925781 2.480469 12.921875 2.480469 L 11.347656 2.480469 C 11.308594 2.480469 11.265625 2.46875 11.226562 2.429688 C 11.191406 2.398438 11.175781 2.359375 11.175781 2.308594 C 11.175781 2.261719 11.191406 2.222656 11.226562 2.1875 C 11.257812 2.152344 11.300781 2.136719 11.347656 2.136719 L 13.289062 2.136719 C 13.339844 2.136719 13.382812 2.152344 13.410156 2.1875 C 13.445312 2.222656 13.460938 2.261719 13.460938 2.308594 C 13.460938 2.425781 13.421875 2.523438 13.347656 2.605469 Z M 13.347656 2.605469 " fill-opacity="1" fill-rule="nonzero"/><path fill="#737373" d="M 14.519531 5.875 C 14.851562 5.605469 15.105469 5.324219 15.285156 5.039062 C 15.460938 4.753906 15.585938 4.410156 15.664062 4 C 15.738281 3.59375 15.777344 3.070312 15.777344 2.429688 C 15.777344 2.398438 15.761719 2.378906 15.734375 2.378906 L 14.480469 2.378906 C 14.429688 2.378906 14.390625 2.363281 14.355469 2.328125 C 14.316406 2.296875 14.296875 2.253906 14.296875 2.207031 C 14.296875 2.152344 14.316406 2.109375 14.355469 2.074219 C 14.390625 2.042969 14.429688 2.023438 14.480469 2.023438 L 18.65625 2.023438 C 18.710938 2.023438 18.753906 2.042969 18.789062 2.074219 C 18.820312 2.109375 18.839844 2.152344 18.839844 2.207031 C 18.839844 2.253906 18.820312 2.296875 18.789062 2.328125 C 18.753906 2.363281 18.710938 2.378906 18.65625 2.378906 L 16.234375 2.378906 C 16.207031 2.378906 16.195312 2.398438 16.195312 2.429688 C 16.195312 2.773438 16.183594 3.078125 16.164062 3.347656 C 16.164062 3.382812 16.175781 3.398438 16.203125 3.398438 L 18.144531 3.398438 C 18.226562 3.398438 18.292969 3.425781 18.347656 3.480469 C 18.410156 3.539062 18.441406 3.601562 18.441406 3.683594 C 18.441406 4.058594 18.433594 4.375 18.421875 4.632812 C 18.414062 4.890625 18.394531 5.117188 18.359375 5.304688 C 18.332031 5.484375 18.292969 5.636719 18.246094 5.765625 C 18.207031 5.875 18.148438 5.960938 18.074219 6.027344 C 18.003906 6.089844 17.925781 6.128906 17.839844 6.152344 C 17.757812 6.175781 17.648438 6.191406 17.511719 6.191406 C 17.289062 6.191406 17.003906 6.175781 16.664062 6.152344 C 16.609375 6.144531 16.5625 6.125 16.519531 6.089844 C 16.484375 6.054688 16.46875 6.007812 16.46875 5.949219 C 16.46875 5.902344 16.484375 5.859375 16.519531 5.824219 C 16.5625 5.785156 16.605469 5.769531 16.652344 5.773438 C 17.035156 5.800781 17.308594 5.816406 17.480469 5.816406 C 17.589844 5.816406 17.671875 5.792969 17.726562 5.753906 C 17.789062 5.714844 17.839844 5.625 17.890625 5.488281 C 17.9375 5.367188 17.972656 5.164062 17.992188 4.878906 C 18.015625 4.605469 18.03125 4.242188 18.03125 3.785156 C 18.03125 3.761719 18.015625 3.746094 17.980469 3.746094 L 16.175781 3.746094 C 16.144531 3.746094 16.128906 3.761719 16.125 3.785156 C 16.046875 4.324219 15.910156 4.773438 15.703125 5.132812 C 15.5 5.484375 15.195312 5.832031 14.796875 6.160156 C 14.753906 6.195312 14.703125 6.210938 14.644531 6.210938 C 14.585938 6.203125 14.539062 6.183594 14.5 6.140625 C 14.464844 6.101562 14.449219 6.050781 14.457031 6 C 14.464844 5.941406 14.484375 5.902344 14.519531 5.875 Z M 14.519531 5.875 " fill-opacity="1" fill-rule="nonzero"/><path fill="#a6a6a6" d="M 24.34375 16.785156 L 24.34375 16.675781 C 24.34375 16.417969 24.285156 16.214844 24.171875 16.074219 C 24.054688 15.929688 23.902344 15.859375 23.710938 15.859375 C 23.511719 15.859375 23.359375 15.9375 23.242188 16.09375 C 23.132812 16.242188 23.078125 16.457031 23.078125 16.734375 C 23.078125 17.007812 23.136719 17.222656 23.253906 17.378906 C 23.367188 17.527344 23.519531 17.601562 23.710938 17.601562 C 23.910156 17.601562 24.0625 17.53125 24.171875 17.386719 C 24.285156 17.246094 24.34375 17.046875 24.34375 16.785156 Z M 23.804688 18.90625 C 23.175781 18.90625 22.65625 18.703125 22.242188 18.292969 C 21.824219 17.894531 21.621094 17.375 21.621094 16.734375 C 21.621094 16.097656 21.824219 15.574219 22.230469 15.167969 C 22.644531 14.757812 23.171875 14.554688 23.804688 14.554688 C 24.441406 14.554688 24.964844 14.757812 25.367188 15.15625 C 25.773438 15.558594 25.980469 16.082031 25.980469 16.734375 C 25.980469 17.0625 25.921875 17.363281 25.816406 17.632812 C 25.773438 17.730469 25.707031 17.804688 25.613281 17.855469 C 25.523438 17.90625 25.429688 17.929688 25.324219 17.929688 L 24.671875 17.929688 C 24.589844 17.929688 24.519531 17.902344 24.457031 17.847656 C 24.402344 17.792969 24.371094 17.722656 24.367188 17.644531 L 24.367188 17.589844 C 24.351562 17.589844 24.34375 17.597656 24.34375 17.601562 C 24.152344 17.855469 23.902344 17.980469 23.589844 17.980469 C 23.296875 17.980469 23.0625 17.871094 22.886719 17.652344 C 22.707031 17.4375 22.621094 17.128906 22.621094 16.734375 C 22.621094 16.335938 22.703125 16.027344 22.875 15.808594 C 23.050781 15.589844 23.289062 15.480469 23.589844 15.480469 C 23.910156 15.480469 24.164062 15.605469 24.355469 15.847656 C 24.355469 15.855469 24.359375 15.859375 24.367188 15.859375 L 24.367188 15.757812 C 24.367188 15.695312 24.386719 15.644531 24.425781 15.605469 C 24.472656 15.558594 24.53125 15.53125 24.589844 15.53125 C 24.65625 15.53125 24.714844 15.558594 24.753906 15.605469 C 24.800781 15.644531 24.824219 15.695312 24.824219 15.757812 L 24.824219 17.53125 C 24.824219 17.566406 24.839844 17.582031 24.875 17.582031 L 25.398438 17.582031 C 25.429688 17.582031 25.453125 17.566406 25.46875 17.53125 C 25.574219 17.292969 25.632812 17.027344 25.632812 16.734375 C 25.632812 16.183594 25.460938 15.746094 25.121094 15.410156 C 24.789062 15.070312 24.347656 14.902344 23.804688 14.902344 C 23.265625 14.902344 22.824219 15.070312 22.476562 15.410156 C 22.136719 15.753906 21.964844 16.191406 21.964844 16.734375 C 21.964844 17.273438 22.136719 17.710938 22.476562 18.050781 C 22.824219 18.390625 23.265625 18.558594 23.804688 18.558594 C 24.152344 18.558594 24.464844 18.480469 24.742188 18.324219 C 24.785156 18.296875 24.828125 18.289062 24.875 18.292969 C 24.929688 18.308594 24.972656 18.332031 25 18.367188 C 25.023438 18.40625 25.03125 18.449219 25.019531 18.5 C 25.011719 18.550781 24.988281 18.589844 24.949219 18.609375 C 24.621094 18.808594 24.238281 18.90625 23.804688 18.90625 Z M 23.804688 18.90625 " fill-opacity="1" fill-rule="nonzero"/><path fill="#a6a6a6" d="M 27.082031 16.625 L 27.082031 18.039062 C 27.082031 18.097656 27.0625 18.148438 27.019531 18.191406 C 26.980469 18.234375 26.929688 18.253906 26.867188 18.253906 C 26.808594 18.253906 26.757812 18.234375 26.714844 18.191406 C 26.671875 18.148438 26.652344 18.097656 26.652344 18.039062 L 26.652344 15.410156 C 26.652344 15.355469 26.671875 15.308594 26.714844 15.269531 C 26.753906 15.226562 26.800781 15.207031 26.855469 15.207031 C 26.910156 15.207031 26.957031 15.226562 27 15.269531 C 27.046875 15.308594 27.070312 15.355469 27.070312 15.410156 L 27.070312 15.746094 C 27.070312 15.746094 27.074219 15.746094 27.082031 15.746094 C 27.085938 15.746094 27.089844 15.746094 27.089844 15.738281 C 27.199219 15.554688 27.347656 15.410156 27.53125 15.308594 C 27.714844 15.203125 27.910156 15.144531 28.121094 15.144531 C 28.460938 15.144531 28.714844 15.253906 28.878906 15.472656 C 29.046875 15.683594 29.132812 16.019531 29.132812 16.480469 L 29.132812 18.039062 C 29.132812 18.101562 29.113281 18.152344 29.074219 18.191406 C 29.03125 18.234375 28.980469 18.253906 28.917969 18.253906 C 28.863281 18.253906 28.816406 18.234375 28.777344 18.191406 C 28.734375 18.152344 28.714844 18.101562 28.714844 18.039062 L 28.714844 16.511719 C 28.714844 16.132812 28.660156 15.871094 28.550781 15.726562 C 28.441406 15.578125 28.253906 15.503906 27.988281 15.503906 C 27.757812 15.503906 27.546875 15.613281 27.355469 15.839844 C 27.171875 16.0625 27.082031 16.324219 27.082031 16.625 Z M 27.082031 16.625 " fill-opacity="1" fill-rule="nonzero"/><g clip-path="url(#e0f13e326b)"><path fill="#a6a6a6" d="M 30.414062 16.625 L 30.414062 18.039062 C 30.414062 18.097656 30.394531 18.148438 30.351562 18.191406 C 30.3125 18.234375 30.261719 18.253906 30.199219 18.253906 C 30.144531 18.253906 30.09375 18.234375 30.046875 18.191406 C 30.003906 18.148438 29.984375 18.097656 29.984375 18.039062 L 29.984375 15.410156 C 29.984375 15.355469 30.003906 15.308594 30.046875 15.269531 C 30.085938 15.226562 30.132812 15.207031 30.1875 15.207031 C 30.242188 15.207031 30.292969 15.226562 30.332031 15.269531 C 30.378906 15.308594 30.402344 15.355469 30.402344 15.410156 L 30.402344 15.746094 C 30.402344 15.746094 30.40625 15.746094 30.414062 15.746094 C 30.417969 15.746094 30.425781 15.746094 30.425781 15.738281 C 30.53125 15.554688 30.679688 15.410156 30.863281 15.308594 C 31.046875 15.203125 31.242188 15.144531 31.457031 15.144531 C 31.792969 15.144531 32.046875 15.253906 32.210938 15.472656 C 32.378906 15.683594 32.464844 16.019531 32.464844 16.480469 L 32.464844 18.039062 C 32.464844 18.101562 32.445312 18.152344 32.40625 18.191406 C 32.363281 18.234375 32.3125 18.253906 32.25 18.253906 C 32.195312 18.253906 32.148438 18.234375 32.109375 18.191406 C 32.066406 18.152344 32.046875 18.101562 32.046875 18.039062 L 32.046875 16.511719 C 32.046875 16.132812 31.992188 15.871094 31.882812 15.726562 C 31.773438 15.578125 31.589844 15.503906 31.324219 15.503906 C 31.089844 15.503906 30.878906 15.613281 30.691406 15.839844 C 30.503906 16.0625 30.414062 16.324219 30.414062 16.625 Z M 30.414062 16.625 " fill-opacity="1" fill-rule="nonzero"/></g><path fill="#000000" d="M -0.347656 23.105469 L -0.273438 23.105469 C -0.28125 23.085938 -0.285156 23.070312 -0.285156 23.054688 C -0.285156 23.035156 -0.285156 23.019531 -0.285156 23.003906 C -0.285156 22.863281 -0.234375 22.738281 -0.132812 22.636719 C -0.03125 22.53125 0.09375 22.476562 0.246094 22.476562 C 0.394531 22.476562 0.519531 22.53125 0.625 22.636719 C 0.730469 22.738281 0.785156 22.867188 0.785156 23.015625 C 0.785156 23.164062 0.730469 23.289062 0.625 23.390625 C 0.519531 23.492188 0.394531 23.542969 0.246094 23.542969 C 0.21875 23.542969 0.179688 23.542969 0.132812 23.535156 C 0.0429688 23.867188 -0.0625 24.175781 -0.183594 24.460938 C -0.304688 24.742188 -0.445312 24.988281 -0.589844 25.195312 C -0.742188 25.417969 -0.929688 25.640625 -1.152344 25.847656 C -1.378906 26.050781 -1.621094 26.234375 -1.878906 26.386719 C -1.976562 26.449219 -2.070312 26.507812 -2.164062 26.5625 C -2.253906 26.609375 -2.351562 26.65625 -2.460938 26.703125 C -2.570312 26.75 -2.695312 26.800781 -2.839844 26.855469 C -2.875 26.769531 -2.90625 26.703125 -2.941406 26.664062 C -2.96875 26.617188 -3.019531 26.558594 -3.09375 26.488281 C -2.855469 26.421875 -2.652344 26.347656 -2.480469 26.265625 C -2.304688 26.183594 -2.113281 26.078125 -1.910156 25.941406 C -1.625 25.75 -1.375 25.539062 -1.164062 25.308594 C -0.953125 25.070312 -0.777344 24.804688 -0.632812 24.503906 C -0.484375 24.195312 -0.363281 23.851562 -0.265625 23.464844 L -2.921875 23.464844 C -3.058594 23.464844 -3.171875 23.46875 -3.257812 23.472656 C -3.339844 23.472656 -3.421875 23.480469 -3.503906 23.492188 L -3.503906 23.074219 C -3.40625 23.089844 -3.324219 23.101562 -3.246094 23.105469 C -3.171875 23.105469 -3.0625 23.105469 -2.921875 23.105469 Z M 0.246094 22.6875 C 0.164062 22.6875 0.0859375 22.71875 0.0195312 22.78125 C -0.0390625 22.839844 -0.0703125 22.921875 -0.0703125 23.015625 C -0.0703125 23.097656 -0.0390625 23.171875 0.0195312 23.238281 C 0.0859375 23.300781 0.164062 23.332031 0.246094 23.332031 C 0.339844 23.332031 0.417969 23.300781 0.480469 23.238281 C 0.542969 23.171875 0.574219 23.097656 0.574219 23.015625 C 0.574219 22.921875 0.542969 22.839844 0.480469 22.78125 C 0.417969 22.71875 0.339844 22.6875 0.246094 22.6875 Z M 0.246094 22.6875 " fill-opacity="1" fill-rule="nonzero"/><path fill="#000000" d="M 2.152344 23.207031 L 2.152344 22.800781 C 2.234375 22.816406 2.308594 22.828125 2.378906 22.832031 C 2.453125 22.839844 2.5625 22.839844 2.703125 22.839844 L 4.449219 22.839844 C 4.59375 22.839844 4.699219 22.839844 4.765625 22.832031 C 4.839844 22.828125 4.914062 22.816406 4.992188 22.800781 L 4.992188 23.207031 C 4.921875 23.195312 4.851562 23.1875 4.777344 23.1875 C 4.699219 23.183594 4.59375 23.179688 4.449219 23.179688 L 2.703125 23.179688 C 2.5625 23.179688 2.453125 23.183594 2.378906 23.1875 C 2.300781 23.1875 2.226562 23.195312 2.152344 23.207031 Z M 1.714844 24.402344 L 1.714844 24.011719 C 1.773438 24.019531 1.832031 24.027344 1.886719 24.035156 C 1.941406 24.035156 2 24.039062 2.0625 24.042969 C 2.128906 24.042969 2.214844 24.042969 2.316406 24.042969 L 4.992188 24.042969 C 5.09375 24.042969 5.164062 24.042969 5.207031 24.035156 C 5.246094 24.027344 5.289062 24.019531 5.339844 24.003906 L 5.53125 24.226562 C 5.503906 24.261719 5.484375 24.300781 5.472656 24.339844 C 5.457031 24.375 5.425781 24.445312 5.378906 24.554688 C 5.238281 24.960938 5.050781 25.3125 4.828125 25.601562 C 4.609375 25.894531 4.339844 26.148438 4.019531 26.359375 C 3.699219 26.5625 3.316406 26.738281 2.867188 26.886719 C 2.832031 26.8125 2.800781 26.753906 2.777344 26.714844 C 2.746094 26.667969 2.703125 26.605469 2.644531 26.53125 C 2.996094 26.429688 3.292969 26.316406 3.53125 26.195312 C 3.777344 26.070312 3.996094 25.917969 4.195312 25.734375 C 4.378906 25.566406 4.535156 25.378906 4.664062 25.175781 C 4.792969 24.964844 4.917969 24.695312 5.042969 24.371094 L 2.316406 24.371094 C 2.171875 24.371094 2.054688 24.375 1.96875 24.378906 C 1.886719 24.386719 1.800781 24.394531 1.714844 24.402344 Z M 1.714844 24.402344 " fill-opacity="1" fill-rule="nonzero"/><path fill="#000000" d="M 7.019531 23.339844 L 7.277344 23.066406 C 7.460938 23.183594 7.625 23.289062 7.765625 23.390625 C 7.910156 23.492188 8.042969 23.59375 8.164062 23.699219 C 8.285156 23.800781 8.410156 23.917969 8.53125 24.042969 L 8.257812 24.359375 C 7.882812 23.960938 7.46875 23.621094 7.019531 23.339844 Z M 7.050781 26.722656 L 6.9375 26.296875 C 7.074219 26.292969 7.226562 26.269531 7.398438 26.234375 C 7.574219 26.195312 7.757812 26.148438 7.941406 26.09375 C 8.125 26.03125 8.296875 25.964844 8.460938 25.886719 C 9.453125 25.449219 10.160156 24.675781 10.585938 23.574219 C 10.644531 23.65625 10.695312 23.71875 10.738281 23.757812 C 10.777344 23.792969 10.832031 23.835938 10.902344 23.882812 C 10.695312 24.328125 10.464844 24.714844 10.207031 25.03125 C 9.953125 25.355469 9.65625 25.632812 9.316406 25.867188 C 9.132812 25.992188 8.945312 26.101562 8.757812 26.195312 C 8.574219 26.285156 8.367188 26.363281 8.144531 26.4375 C 7.917969 26.515625 7.660156 26.582031 7.367188 26.644531 C 7.300781 26.65625 7.246094 26.671875 7.203125 26.683594 C 7.167969 26.691406 7.117188 26.703125 7.050781 26.722656 Z M 7.050781 26.722656 " fill-opacity="1" fill-rule="nonzero"/><path fill="#000000" d="M 14.308594 23.289062 C 14.289062 23.53125 14.25 23.773438 14.195312 24.023438 C 14.148438 24.277344 14.089844 24.519531 14.023438 24.746094 C 13.953125 24.972656 13.878906 25.175781 13.796875 25.359375 C 13.648438 25.707031 13.492188 25.960938 13.328125 26.125 C 13.171875 26.28125 12.996094 26.359375 12.808594 26.359375 C 12.644531 26.359375 12.496094 26.304688 12.367188 26.195312 C 12.238281 26.078125 12.136719 25.925781 12.0625 25.734375 C 11.984375 25.546875 11.949219 25.332031 11.949219 25.09375 C 11.949219 24.824219 11.996094 24.5625 12.09375 24.320312 C 12.1875 24.070312 12.320312 23.84375 12.492188 23.648438 C 12.914062 23.191406 13.472656 22.964844 14.175781 22.964844 C 14.46875 22.964844 14.738281 23.007812 14.984375 23.097656 C 15.234375 23.183594 15.445312 23.308594 15.617188 23.472656 C 15.78125 23.636719 15.902344 23.828125 15.984375 24.042969 C 16.070312 24.261719 16.117188 24.496094 16.117188 24.746094 C 16.117188 25.148438 16.007812 25.507812 15.800781 25.828125 C 15.597656 26.140625 15.300781 26.378906 14.921875 26.539062 C 14.804688 26.589844 14.691406 26.632812 14.574219 26.671875 C 14.457031 26.710938 14.3125 26.746094 14.136719 26.785156 C 14.105469 26.699219 14.078125 26.632812 14.054688 26.59375 C 14.035156 26.550781 13.996094 26.496094 13.953125 26.429688 C 14.140625 26.402344 14.300781 26.367188 14.429688 26.328125 C 14.566406 26.285156 14.695312 26.242188 14.820312 26.183594 C 15.109375 26.058594 15.339844 25.863281 15.503906 25.601562 C 15.667969 25.339844 15.75 25.046875 15.75 24.726562 C 15.75 24.429688 15.671875 24.167969 15.523438 23.941406 C 15.382812 23.714844 15.175781 23.539062 14.910156 23.421875 C 14.816406 23.382812 14.722656 23.351562 14.636719 23.332031 C 14.554688 23.308594 14.445312 23.296875 14.308594 23.289062 Z M 13.929688 23.300781 C 13.773438 23.316406 13.636719 23.339844 13.511719 23.382812 C 13.394531 23.417969 13.277344 23.472656 13.15625 23.542969 C 12.890625 23.703125 12.679688 23.917969 12.53125 24.195312 C 12.382812 24.46875 12.308594 24.769531 12.308594 25.09375 C 12.308594 25.265625 12.328125 25.417969 12.367188 25.550781 C 12.414062 25.683594 12.476562 25.785156 12.554688 25.867188 C 12.625 25.945312 12.710938 25.980469 12.808594 25.980469 C 13.015625 25.980469 13.238281 25.730469 13.460938 25.226562 C 13.535156 25.0625 13.605469 24.875 13.664062 24.65625 C 13.726562 24.4375 13.78125 24.214844 13.828125 23.984375 C 13.875 23.746094 13.910156 23.519531 13.929688 23.300781 Z M 13.929688 23.300781 " fill-opacity="1" fill-rule="nonzero"/><path fill="#000000" d="M 18.035156 23.859375 L 18.035156 23.136719 C 17.925781 23.164062 17.828125 23.1875 17.746094 23.207031 C 17.667969 23.230469 17.578125 23.25 17.492188 23.269531 C 17.402344 23.285156 17.292969 23.300781 17.164062 23.320312 C 17.144531 23.265625 17.121094 23.21875 17.09375 23.179688 C 17.074219 23.132812 17.046875 23.082031 17.011719 23.023438 C 17.222656 23 17.414062 22.96875 17.59375 22.933594 C 17.769531 22.898438 17.945312 22.859375 18.117188 22.8125 C 18.285156 22.765625 18.46875 22.703125 18.667969 22.628906 C 18.761719 22.601562 18.832031 22.578125 18.871094 22.554688 C 18.910156 22.535156 18.957031 22.511719 19.003906 22.476562 L 19.238281 22.761719 C 19.199219 22.773438 19.167969 22.785156 19.148438 22.789062 C 19.132812 22.796875 19.09375 22.8125 19.035156 22.832031 C 18.910156 22.871094 18.800781 22.910156 18.699219 22.945312 C 18.59375 22.980469 18.476562 23.015625 18.351562 23.054688 L 18.351562 23.859375 L 18.859375 23.859375 C 18.949219 23.859375 19.027344 23.859375 19.09375 23.859375 C 19.167969 23.855469 19.242188 23.847656 19.308594 23.839844 L 19.308594 24.1875 C 19.242188 24.175781 19.171875 24.167969 19.105469 24.167969 C 19.035156 24.160156 18.953125 24.15625 18.851562 24.15625 L 18.359375 24.15625 C 18.402344 24.265625 18.433594 24.351562 18.460938 24.410156 C 18.496094 24.46875 18.542969 24.535156 18.605469 24.613281 C 18.6875 24.730469 18.773438 24.839844 18.871094 24.941406 C 18.964844 25.042969 19.09375 25.164062 19.257812 25.308594 C 19.175781 25.398438 19.109375 25.492188 19.066406 25.59375 C 18.933594 25.457031 18.824219 25.339844 18.738281 25.238281 C 18.65625 25.128906 18.578125 25.023438 18.511719 24.921875 C 18.453125 24.820312 18.386719 24.695312 18.320312 24.554688 C 18.324219 24.703125 18.332031 24.859375 18.339844 25.023438 C 18.34375 25.179688 18.351562 25.316406 18.351562 25.441406 L 18.351562 26.519531 C 18.351562 26.683594 18.351562 26.808594 18.351562 26.898438 C 18.355469 26.992188 18.367188 27.074219 18.378906 27.152344 L 17.992188 27.152344 C 18.003906 27.0625 18.011719 26.96875 18.011719 26.867188 C 18.019531 26.769531 18.023438 26.65625 18.023438 26.519531 L 18.023438 25.5 C 18.023438 25.40625 18.023438 25.324219 18.023438 25.246094 C 18.027344 25.164062 18.035156 25.078125 18.035156 24.980469 C 18.039062 24.886719 18.046875 24.769531 18.054688 24.625 C 17.972656 24.84375 17.886719 25.039062 17.796875 25.214844 C 17.710938 25.386719 17.605469 25.550781 17.492188 25.707031 C 17.375 25.863281 17.238281 26.027344 17.085938 26.195312 C 17.046875 26.128906 17.015625 26.070312 16.980469 26.03125 C 16.945312 25.984375 16.910156 25.941406 16.871094 25.898438 C 17.023438 25.757812 17.15625 25.617188 17.269531 25.480469 C 17.375 25.347656 17.476562 25.191406 17.574219 25.023438 C 17.660156 24.878906 17.738281 24.734375 17.808594 24.585938 C 17.882812 24.429688 17.941406 24.285156 17.984375 24.15625 L 17.480469 24.15625 C 17.378906 24.15625 17.289062 24.160156 17.207031 24.167969 C 17.128906 24.175781 17.058594 24.183594 16.992188 24.1875 L 16.992188 23.832031 C 17.054688 23.84375 17.117188 23.855469 17.1875 23.859375 C 17.261719 23.859375 17.363281 23.859375 17.492188 23.859375 Z M 19.675781 22.789062 L 20.066406 22.789062 C 20.058594 22.871094 20.050781 22.953125 20.046875 23.035156 C 20.046875 23.117188 20.046875 23.234375 20.046875 23.382812 L 20.046875 25.398438 C 20.046875 25.515625 20.046875 25.609375 20.046875 25.683594 C 20.046875 25.753906 20.046875 25.8125 20.046875 25.859375 C 20.050781 25.90625 20.058594 25.953125 20.066406 26 L 19.675781 26 C 19.691406 25.925781 19.699219 25.851562 19.699219 25.777344 C 19.703125 25.695312 19.707031 25.570312 19.707031 25.398438 L 19.707031 23.382812 C 19.707031 23.238281 19.703125 23.125 19.699219 23.046875 C 19.691406 22.957031 19.683594 22.871094 19.675781 22.789062 Z M 20.953125 22.503906 L 21.363281 22.503906 C 21.335938 22.664062 21.320312 22.878906 21.320312 23.15625 L 21.320312 26.582031 C 21.320312 26.703125 21.304688 26.796875 21.269531 26.855469 C 21.234375 26.921875 21.171875 26.972656 21.085938 27 C 20.996094 27.023438 20.871094 27.039062 20.710938 27.039062 C 20.632812 27.039062 20.546875 27.035156 20.445312 27.03125 C 20.347656 27.03125 20.253906 27.023438 20.167969 27.019531 C 20.152344 26.949219 20.140625 26.890625 20.128906 26.847656 C 20.113281 26.796875 20.089844 26.742188 20.066406 26.671875 C 20.34375 26.710938 20.570312 26.722656 20.738281 26.722656 C 20.839844 26.722656 20.90625 26.714844 20.933594 26.695312 C 20.96875 26.671875 20.984375 26.632812 20.984375 26.570312 L 20.984375 23.15625 C 20.984375 23.007812 20.980469 22.882812 20.972656 22.78125 C 20.972656 22.679688 20.96875 22.585938 20.953125 22.503906 Z M 20.953125 22.503906 " fill-opacity="1" fill-rule="nonzero"/><path fill="#000000" d="M 24.648438 25.398438 L 24.648438 26.386719 C 24.648438 26.527344 24.648438 26.636719 24.648438 26.722656 C 24.652344 26.8125 24.664062 26.886719 24.679688 26.949219 L 24.300781 26.949219 C 24.3125 26.878906 24.320312 26.804688 24.320312 26.722656 C 24.328125 26.636719 24.332031 26.527344 24.332031 26.386719 L 24.332031 25.398438 L 22.902344 25.398438 C 22.875 25.660156 22.835938 25.886719 22.789062 26.082031 C 22.75 26.28125 22.691406 26.460938 22.617188 26.621094 C 22.546875 26.777344 22.457031 26.941406 22.339844 27.113281 C 22.277344 27.054688 22.226562 27.011719 22.1875 26.980469 C 22.152344 26.949219 22.101562 26.921875 22.035156 26.886719 C 22.140625 26.738281 22.226562 26.597656 22.289062 26.46875 C 22.355469 26.335938 22.410156 26.179688 22.453125 26 C 22.515625 25.765625 22.554688 25.445312 22.574219 25.042969 C 22.601562 24.644531 22.617188 24.125 22.617188 23.484375 C 22.617188 23.308594 22.617188 23.171875 22.617188 23.074219 C 22.617188 22.972656 22.609375 22.890625 22.605469 22.832031 C 22.605469 22.769531 22.601562 22.703125 22.59375 22.628906 C 22.738281 22.644531 22.925781 22.648438 23.167969 22.648438 L 25.976562 22.648438 C 26.109375 22.648438 26.214844 22.648438 26.292969 22.648438 C 26.375 22.644531 26.449219 22.636719 26.527344 22.628906 C 26.519531 22.703125 26.511719 22.777344 26.507812 22.851562 C 26.507812 22.929688 26.507812 23.023438 26.507812 23.136719 L 26.507812 26.632812 C 26.507812 26.742188 26.488281 26.820312 26.457031 26.878906 C 26.417969 26.9375 26.359375 26.980469 26.273438 27 C 26.183594 27.023438 26.050781 27.039062 25.882812 27.039062 C 25.800781 27.039062 25.699219 27.035156 25.578125 27.03125 C 25.460938 27.03125 25.347656 27.023438 25.242188 27.019531 C 25.226562 26.910156 25.199219 26.796875 25.160156 26.671875 C 25.308594 26.695312 25.445312 26.710938 25.566406 26.722656 C 25.695312 26.730469 25.808594 26.734375 25.902344 26.734375 C 26.019531 26.734375 26.09375 26.722656 26.128906 26.703125 C 26.160156 26.683594 26.179688 26.644531 26.179688 26.582031 L 26.179688 25.398438 Z M 24.648438 23.871094 L 26.179688 23.871094 L 26.179688 22.964844 L 24.648438 22.964844 Z M 24.332031 23.871094 L 24.332031 22.964844 L 22.953125 22.964844 L 22.953125 23.871094 Z M 24.648438 24.175781 L 24.648438 25.105469 L 26.179688 25.105469 L 26.179688 24.175781 Z M 24.332031 24.175781 L 22.941406 24.175781 C 22.941406 24.246094 22.941406 24.308594 22.941406 24.371094 C 22.941406 24.429688 22.941406 24.480469 22.941406 24.511719 C 22.941406 24.621094 22.9375 24.703125 22.933594 24.757812 C 22.933594 24.8125 22.933594 24.863281 22.933594 24.910156 C 22.933594 24.957031 22.925781 25.023438 22.921875 25.105469 L 24.332031 25.105469 Z M 24.332031 24.175781 " fill-opacity="1" fill-rule="nonzero"/><g clip-path="url(#44fa57f37f)"><path fill="#000000" d="M 31.160156 25.460938 L 31.160156 22.984375 C 31.160156 22.847656 31.15625 22.738281 31.148438 22.65625 C 31.148438 22.578125 31.140625 22.503906 31.128906 22.433594 L 31.527344 22.433594 C 31.511719 22.515625 31.503906 22.597656 31.496094 22.679688 C 31.496094 22.761719 31.496094 22.863281 31.496094 22.984375 L 31.496094 25.378906 L 31.578125 25.359375 C 31.695312 25.332031 31.785156 25.308594 31.855469 25.289062 C 31.929688 25.261719 31.996094 25.238281 32.058594 25.214844 L 32.121094 25.582031 C 32.050781 25.582031 31.972656 25.59375 31.886719 25.613281 C 31.804688 25.628906 31.714844 25.644531 31.621094 25.664062 L 31.496094 25.695312 L 31.496094 26.570312 C 31.496094 26.695312 31.496094 26.796875 31.496094 26.886719 C 31.503906 26.972656 31.511719 27.054688 31.527344 27.132812 L 31.128906 27.132812 C 31.140625 27.0625 31.148438 26.988281 31.148438 26.90625 C 31.15625 26.828125 31.160156 26.710938 31.160156 26.5625 L 31.160156 25.777344 L 29.792969 26.113281 C 29.683594 26.132812 29.585938 26.160156 29.507812 26.183594 C 29.429688 26.203125 29.363281 26.226562 29.300781 26.246094 L 29.242188 25.878906 C 29.300781 25.878906 29.375 25.875 29.453125 25.859375 C 29.542969 25.84375 29.640625 25.824219 29.742188 25.796875 Z M 28.269531 24.503906 L 27.914062 24.503906 C 27.804688 24.503906 27.714844 24.507812 27.648438 24.511719 C 27.585938 24.511719 27.523438 24.519531 27.464844 24.535156 L 27.464844 24.195312 C 27.515625 24.203125 27.574219 24.210938 27.636719 24.21875 C 27.703125 24.21875 27.796875 24.21875 27.914062 24.21875 L 28.332031 24.21875 L 28.332031 22.996094 C 28.332031 22.867188 28.328125 22.757812 28.320312 22.667969 C 28.3125 22.582031 28.304688 22.503906 28.300781 22.433594 L 28.679688 22.433594 C 28.664062 22.503906 28.652344 22.582031 28.648438 22.667969 C 28.648438 22.75 28.648438 22.855469 28.648438 22.984375 L 28.648438 24.21875 L 28.953125 24.21875 C 29.125 24.21875 29.253906 24.210938 29.34375 24.195312 L 29.34375 24.523438 C 29.285156 24.519531 29.230469 24.511719 29.167969 24.511719 C 29.109375 24.507812 29.035156 24.503906 28.953125 24.503906 L 28.667969 24.503906 C 28.777344 24.714844 28.886719 24.894531 28.996094 25.042969 C 29.109375 25.183594 29.25 25.328125 29.414062 25.472656 C 29.335938 25.574219 29.277344 25.664062 29.230469 25.746094 C 29.128906 25.632812 29.039062 25.527344 28.964844 25.429688 C 28.894531 25.335938 28.835938 25.242188 28.78125 25.144531 C 28.726562 25.050781 28.671875 24.945312 28.617188 24.828125 C 28.621094 24.90625 28.628906 24.996094 28.628906 25.105469 C 28.632812 25.214844 28.636719 25.316406 28.636719 25.410156 C 28.644531 25.507812 28.648438 25.570312 28.648438 25.601562 L 28.648438 26.582031 C 28.648438 26.703125 28.648438 26.808594 28.648438 26.898438 C 28.652344 26.984375 28.664062 27.070312 28.679688 27.152344 L 28.300781 27.152344 C 28.304688 27.0625 28.3125 26.972656 28.320312 26.886719 C 28.328125 26.796875 28.332031 26.695312 28.332031 26.570312 L 28.332031 25.683594 C 28.332031 25.5625 28.332031 25.433594 28.332031 25.296875 C 28.335938 25.164062 28.34375 25.023438 28.351562 24.878906 C 28.242188 25.214844 28.128906 25.496094 28.003906 25.726562 C 27.882812 25.957031 27.730469 26.171875 27.554688 26.367188 C 27.515625 26.300781 27.480469 26.246094 27.453125 26.203125 C 27.425781 26.164062 27.390625 26.125 27.351562 26.082031 C 27.488281 25.949219 27.597656 25.8125 27.6875 25.675781 C 27.78125 25.539062 27.878906 25.382812 27.972656 25.207031 C 28.019531 25.121094 28.058594 25.042969 28.085938 24.980469 C 28.113281 24.914062 28.140625 24.847656 28.167969 24.777344 C 28.195312 24.703125 28.230469 24.613281 28.269531 24.503906 Z M 27.484375 22.882812 L 27.761719 22.761719 C 27.820312 22.910156 27.867188 23.042969 27.902344 23.15625 C 27.945312 23.265625 27.980469 23.375 28.015625 23.484375 C 28.046875 23.59375 28.078125 23.722656 28.105469 23.871094 L 27.832031 23.992188 C 27.804688 23.835938 27.773438 23.699219 27.738281 23.574219 C 27.703125 23.453125 27.667969 23.339844 27.628906 23.230469 C 27.589844 23.113281 27.546875 23 27.484375 22.882812 Z M 29.167969 22.75 L 29.476562 22.863281 C 29.414062 23.039062 29.367188 23.183594 29.332031 23.289062 C 29.296875 23.398438 29.265625 23.488281 29.242188 23.554688 C 29.21875 23.617188 29.191406 23.683594 29.160156 23.75 C 29.128906 23.808594 29.09375 23.890625 29.046875 23.992188 L 28.792969 23.871094 C 28.859375 23.75 28.914062 23.632812 28.953125 23.523438 C 28.996094 23.417969 29.03125 23.304688 29.066406 23.1875 C 29.101562 23.066406 29.132812 22.921875 29.167969 22.75 Z M 29.699219 23.054688 L 29.925781 22.820312 C 30.082031 22.929688 30.207031 23.023438 30.300781 23.105469 C 30.40625 23.1875 30.496094 23.269531 30.578125 23.351562 C 30.664062 23.425781 30.761719 23.519531 30.863281 23.625 L 30.648438 23.902344 C 30.53125 23.773438 30.429688 23.664062 30.34375 23.574219 C 30.253906 23.488281 30.160156 23.40625 30.058594 23.332031 C 29.960938 23.25 29.84375 23.15625 29.699219 23.054688 Z M 29.535156 24.359375 L 29.773438 24.117188 C 29.914062 24.21875 30.035156 24.308594 30.140625 24.390625 C 30.246094 24.472656 30.347656 24.554688 30.433594 24.636719 C 30.523438 24.714844 30.613281 24.808594 30.699219 24.910156 L 30.488281 25.175781 C 30.375 25.054688 30.273438 24.949219 30.179688 24.859375 C 30.089844 24.773438 29.996094 24.691406 29.894531 24.613281 C 29.796875 24.535156 29.679688 24.449219 29.535156 24.359375 Z M 29.535156 24.359375 " fill-opacity="1" fill-rule="nonzero"/></g><g clip-path="url(#4a9cb338c7)"><path fill="#000000" d="M -1.429688 32.339844 L -1.429688 33.328125 C -1.429688 33.464844 -1.429688 33.578125 -1.429688 33.664062 C -1.425781 33.75 -1.414062 33.828125 -1.398438 33.886719 L -1.777344 33.886719 C -1.761719 33.820312 -1.753906 33.746094 -1.753906 33.664062 C -1.75 33.578125 -1.746094 33.464844 -1.746094 33.328125 L -1.746094 32.339844 L -3.175781 32.339844 C -3.203125 32.597656 -3.242188 32.824219 -3.289062 33.023438 C -3.328125 33.222656 -3.386719 33.398438 -3.460938 33.5625 C -3.53125 33.71875 -3.621094 33.882812 -3.738281 34.050781 C -3.796875 33.996094 -3.847656 33.953125 -3.890625 33.917969 C -3.925781 33.890625 -3.976562 33.859375 -4.042969 33.828125 C -3.9375 33.679688 -3.847656 33.539062 -3.789062 33.410156 C -3.722656 33.273438 -3.664062 33.117188 -3.625 32.941406 C -3.5625 32.703125 -3.523438 32.386719 -3.503906 31.984375 C -3.476562 31.582031 -3.460938 31.0625 -3.460938 30.421875 C -3.460938 30.246094 -3.460938 30.113281 -3.460938 30.015625 C -3.460938 29.914062 -3.464844 29.832031 -3.472656 29.769531 C -3.472656 29.710938 -3.476562 29.644531 -3.480469 29.566406 C -3.339844 29.582031 -3.148438 29.589844 -2.910156 29.589844 L -0.101562 29.589844 C 0.0351562 29.589844 0.136719 29.589844 0.214844 29.589844 C 0.296875 29.582031 0.375 29.574219 0.449219 29.566406 C 0.441406 29.644531 0.433594 29.71875 0.429688 29.792969 C 0.429688 29.867188 0.429688 29.960938 0.429688 30.078125 L 0.429688 33.574219 C 0.429688 33.683594 0.410156 33.761719 0.378906 33.816406 C 0.34375 33.878906 0.28125 33.917969 0.195312 33.941406 C 0.105469 33.964844 -0.0234375 33.980469 -0.195312 33.980469 C -0.273438 33.980469 -0.378906 33.976562 -0.5 33.96875 C -0.617188 33.96875 -0.730469 33.964844 -0.835938 33.960938 C -0.851562 33.851562 -0.878906 33.734375 -0.917969 33.613281 C -0.769531 33.632812 -0.632812 33.652344 -0.511719 33.664062 C -0.382812 33.671875 -0.269531 33.675781 -0.171875 33.675781 C -0.0585938 33.675781 0.015625 33.664062 0.0507812 33.644531 C 0.0859375 33.625 0.101562 33.582031 0.101562 33.523438 L 0.101562 32.339844 Z M -1.429688 30.8125 L 0.101562 30.8125 L 0.101562 29.902344 L -1.429688 29.902344 Z M -1.746094 30.8125 L -1.746094 29.902344 L -3.125 29.902344 L -3.125 30.8125 Z M -1.429688 31.117188 L -1.429688 32.042969 L 0.101562 32.042969 L 0.101562 31.117188 Z M -1.746094 31.117188 L -3.132812 31.117188 C -3.132812 31.183594 -3.132812 31.25 -3.132812 31.308594 C -3.132812 31.371094 -3.132812 31.417969 -3.132812 31.453125 C -3.132812 31.5625 -3.140625 31.644531 -3.144531 31.699219 C -3.144531 31.753906 -3.144531 31.804688 -3.144531 31.851562 C -3.144531 31.898438 -3.148438 31.960938 -3.15625 32.042969 L -1.746094 32.042969 Z M -1.746094 31.117188 " fill-opacity="1" fill-rule="nonzero"/></g><g clip-path="url(#6a52ffdd0a)"><path fill="#000000" d="M 3.59375 31.25 L 1.90625 31.25 C 1.789062 31.25 1.683594 31.253906 1.589844 31.257812 C 1.5 31.265625 1.417969 31.273438 1.335938 31.28125 L 1.335938 30.921875 C 1.398438 30.9375 1.472656 30.949219 1.558594 30.953125 C 1.648438 30.953125 1.765625 30.953125 1.90625 30.953125 L 3.226562 30.953125 L 3.226562 30.300781 L 2.386719 30.300781 C 2.257812 30.300781 2.152344 30.304688 2.070312 30.3125 C 1.988281 30.3125 1.90625 30.320312 1.824219 30.332031 L 1.824219 29.984375 C 1.886719 30 1.960938 30.011719 2.050781 30.015625 C 2.136719 30.015625 2.25 30.015625 2.386719 30.015625 L 3.226562 30.015625 L 3.226562 29.832031 C 3.226562 29.726562 3.21875 29.636719 3.214844 29.566406 C 3.214844 29.492188 3.207031 29.417969 3.195312 29.34375 L 3.582031 29.34375 C 3.566406 29.414062 3.554688 29.484375 3.550781 29.558594 C 3.550781 29.625 3.550781 29.71875 3.550781 29.832031 L 3.550781 30.015625 L 4.042969 30.015625 C 4.175781 30.015625 4.289062 30.015625 4.378906 30.015625 C 4.464844 30.011719 4.542969 30 4.613281 29.984375 L 4.613281 30.332031 C 4.542969 30.320312 4.46875 30.3125 4.390625 30.3125 C 4.308594 30.304688 4.195312 30.300781 4.050781 30.300781 L 3.550781 30.300781 L 3.550781 30.953125 L 4.019531 30.953125 C 4.21875 30.8125 4.402344 30.65625 4.574219 30.496094 C 4.75 30.328125 4.902344 30.164062 5.03125 30.003906 C 5.167969 29.84375 5.269531 29.699219 5.339844 29.578125 L 5.644531 29.78125 C 5.597656 29.835938 5.542969 29.898438 5.480469 29.964844 C 5.34375 30.136719 5.199219 30.296875 5.042969 30.453125 C 4.882812 30.605469 4.695312 30.769531 4.46875 30.953125 L 5.328125 30.953125 C 5.464844 30.953125 5.574219 30.953125 5.65625 30.953125 C 5.742188 30.949219 5.820312 30.9375 5.890625 30.921875 L 5.890625 31.28125 C 5.71875 31.257812 5.527344 31.25 5.316406 31.25 L 4.082031 31.25 C 3.933594 31.359375 3.792969 31.457031 3.664062 31.542969 C 3.535156 31.625 3.394531 31.714844 3.246094 31.808594 C 3.378906 31.804688 3.484375 31.800781 3.5625 31.800781 C 3.636719 31.800781 3.710938 31.800781 3.785156 31.800781 L 4.683594 31.800781 C 4.808594 31.800781 4.910156 31.796875 4.992188 31.789062 C 5.074219 31.785156 5.15625 31.777344 5.246094 31.769531 C 5.238281 31.851562 5.230469 31.929688 5.226562 32.003906 C 5.226562 32.078125 5.226562 32.195312 5.226562 32.351562 L 5.226562 33.511719 C 5.226562 33.640625 5.226562 33.746094 5.226562 33.828125 C 5.230469 33.910156 5.242188 33.984375 5.257812 34.050781 L 4.898438 34.050781 L 4.898438 33.808594 L 2.746094 33.808594 L 2.746094 34.050781 L 2.378906 34.050781 C 2.382812 33.96875 2.390625 33.886719 2.398438 33.808594 C 2.402344 33.730469 2.40625 33.632812 2.40625 33.511719 L 2.40625 32.625 C 2.40625 32.570312 2.40625 32.511719 2.40625 32.453125 C 2.40625 32.386719 2.410156 32.316406 2.417969 32.246094 C 2.265625 32.328125 2.113281 32.410156 1.957031 32.480469 C 1.800781 32.550781 1.613281 32.628906 1.386719 32.714844 C 1.359375 32.65625 1.332031 32.605469 1.304688 32.5625 C 1.277344 32.519531 1.234375 32.46875 1.183594 32.421875 C 1.492188 32.3125 1.785156 32.203125 2.050781 32.085938 C 2.320312 31.96875 2.582031 31.84375 2.828125 31.707031 C 3.078125 31.574219 3.332031 31.417969 3.59375 31.25 Z M 2.746094 32.074219 L 2.746094 32.625 L 4.898438 32.625 L 4.898438 32.074219 Z M 2.746094 32.910156 L 2.746094 33.523438 L 4.898438 33.523438 L 4.898438 32.910156 Z M 2.746094 32.910156 " fill-opacity="1" fill-rule="nonzero"/></g><g clip-path="url(#4fe75df197)"><path fill="#000000" d="M 9.09375 30.230469 C 9.074219 30.46875 9.035156 30.714844 8.980469 30.964844 C 8.933594 31.214844 8.875 31.457031 8.808594 31.6875 C 8.738281 31.910156 8.664062 32.117188 8.582031 32.296875 C 8.433594 32.644531 8.277344 32.898438 8.113281 33.0625 C 7.957031 33.222656 7.78125 33.296875 7.59375 33.296875 C 7.429688 33.296875 7.28125 33.242188 7.152344 33.132812 C 7.023438 33.019531 6.921875 32.867188 6.847656 32.675781 C 6.769531 32.488281 6.734375 32.273438 6.734375 32.035156 C 6.734375 31.765625 6.78125 31.503906 6.878906 31.257812 C 6.972656 31.007812 7.105469 30.785156 7.277344 30.585938 C 7.699219 30.132812 8.257812 29.902344 8.960938 29.902344 C 9.25 29.902344 9.523438 29.949219 9.769531 30.035156 C 10.019531 30.125 10.230469 30.25 10.402344 30.414062 C 10.5625 30.578125 10.6875 30.765625 10.769531 30.984375 C 10.855469 31.203125 10.902344 31.4375 10.902344 31.6875 C 10.902344 32.089844 10.792969 32.449219 10.585938 32.765625 C 10.378906 33.082031 10.085938 33.316406 9.707031 33.480469 C 9.589844 33.53125 9.472656 33.574219 9.359375 33.613281 C 9.242188 33.648438 9.097656 33.683594 8.921875 33.726562 C 8.890625 33.640625 8.863281 33.574219 8.839844 33.53125 C 8.816406 33.492188 8.78125 33.4375 8.734375 33.367188 C 8.925781 33.34375 9.085938 33.308594 9.214844 33.265625 C 9.351562 33.226562 9.480469 33.179688 9.605469 33.125 C 9.894531 32.996094 10.125 32.804688 10.289062 32.542969 C 10.453125 32.277344 10.535156 31.988281 10.535156 31.667969 C 10.535156 31.367188 10.457031 31.105469 10.308594 30.882812 C 10.164062 30.652344 9.960938 30.480469 9.695312 30.363281 C 9.597656 30.320312 9.507812 30.292969 9.421875 30.269531 C 9.339844 30.25 9.230469 30.238281 9.09375 30.230469 Z M 8.714844 30.238281 C 8.558594 30.253906 8.417969 30.28125 8.296875 30.320312 C 8.179688 30.355469 8.0625 30.410156 7.941406 30.484375 C 7.675781 30.644531 7.464844 30.859375 7.316406 31.136719 C 7.167969 31.410156 7.09375 31.707031 7.09375 32.035156 C 7.09375 32.203125 7.113281 32.355469 7.152344 32.492188 C 7.199219 32.621094 7.261719 32.726562 7.335938 32.808594 C 7.410156 32.882812 7.496094 32.921875 7.59375 32.921875 C 7.800781 32.921875 8.019531 32.671875 8.246094 32.167969 C 8.320312 32.003906 8.390625 31.816406 8.449219 31.59375 C 8.511719 31.378906 8.566406 31.15625 8.613281 30.921875 C 8.660156 30.6875 8.695312 30.460938 8.714844 30.238281 Z M 8.714844 30.238281 " fill-opacity="1" fill-rule="nonzero"/></g><g clip-path="url(#b197367496)"><path fill="#000000" d="M 13.972656 31.808594 L 15.085938 31.808594 C 15.210938 31.808594 15.316406 31.808594 15.390625 31.808594 C 15.472656 31.804688 15.558594 31.792969 15.648438 31.777344 C 15.640625 31.855469 15.632812 31.933594 15.625 32.011719 C 15.625 32.089844 15.625 32.203125 15.625 32.351562 L 15.625 33.542969 C 15.625 33.660156 15.625 33.757812 15.625 33.835938 C 15.632812 33.917969 15.640625 33.992188 15.65625 34.0625 L 15.300781 34.0625 L 15.300781 33.816406 L 12.765625 33.816406 L 12.765625 34.0625 L 12.421875 34.0625 C 12.433594 33.992188 12.441406 33.917969 12.441406 33.835938 C 12.445312 33.757812 12.449219 33.660156 12.449219 33.542969 L 12.449219 32.351562 C 12.449219 32.207031 12.445312 32.101562 12.441406 32.023438 C 12.441406 31.949219 12.433594 31.867188 12.429688 31.777344 C 12.515625 31.792969 12.597656 31.804688 12.675781 31.808594 C 12.75 31.808594 12.855469 31.808594 12.992188 31.808594 L 13.613281 31.808594 C 13.660156 31.722656 13.703125 31.640625 13.738281 31.566406 C 13.769531 31.492188 13.800781 31.414062 13.828125 31.332031 L 14.1875 31.414062 C 14.136719 31.515625 14.101562 31.589844 14.074219 31.636719 C 14.046875 31.683594 14.011719 31.742188 13.972656 31.808594 Z M 12.765625 32.085938 L 12.765625 32.644531 L 15.300781 32.644531 L 15.300781 32.085938 Z M 12.765625 32.910156 L 12.765625 33.53125 L 15.300781 33.53125 L 15.300781 32.910156 Z M 12.328125 31.167969 L 12.328125 29.832031 C 12.328125 29.710938 12.324219 29.617188 12.316406 29.546875 C 12.316406 29.480469 12.308594 29.414062 12.296875 29.355469 L 12.683594 29.355469 C 12.679688 29.410156 12.671875 29.476562 12.664062 29.558594 C 12.65625 29.632812 12.65625 29.726562 12.65625 29.832031 L 12.65625 29.976562 L 13.511719 29.976562 C 13.621094 29.976562 13.707031 29.976562 13.769531 29.976562 C 13.835938 29.96875 13.894531 29.960938 13.953125 29.945312 L 13.953125 30.300781 C 13.875 30.289062 13.804688 30.28125 13.738281 30.28125 C 13.675781 30.277344 13.597656 30.269531 13.511719 30.269531 L 12.65625 30.269531 L 12.65625 31.117188 C 12.78125 31.097656 12.890625 31.082031 12.980469 31.066406 C 13.074219 31.046875 13.167969 31.03125 13.257812 31.015625 C 13.34375 30.996094 13.445312 30.972656 13.554688 30.941406 C 13.667969 30.917969 13.808594 30.886719 13.972656 30.851562 L 13.972656 31.125 C 13.617188 31.214844 13.289062 31.289062 12.992188 31.351562 C 12.691406 31.414062 12.410156 31.46875 12.144531 31.515625 C 12.035156 31.53125 11.949219 31.542969 11.890625 31.554688 C 11.832031 31.570312 11.78125 31.582031 11.734375 31.59375 L 11.683594 31.238281 C 11.746094 31.234375 11.800781 31.230469 11.847656 31.230469 C 11.894531 31.230469 11.953125 31.226562 12.023438 31.21875 C 12.097656 31.207031 12.199219 31.1875 12.328125 31.167969 Z M 14.542969 30.414062 L 14.542969 30.921875 C 14.542969 30.972656 14.554688 31.007812 14.574219 31.035156 C 14.601562 31.054688 14.660156 31.074219 14.75 31.085938 C 14.835938 31.09375 14.972656 31.097656 15.15625 31.097656 C 15.386719 31.097656 15.550781 31.089844 15.648438 31.074219 C 15.742188 31.0625 15.800781 31.039062 15.832031 31.003906 C 15.863281 30.964844 15.890625 30.890625 15.914062 30.78125 C 15.933594 30.671875 15.949219 30.511719 15.964844 30.300781 C 16.03125 30.34375 16.082031 30.371094 16.117188 30.394531 C 16.148438 30.410156 16.199219 30.421875 16.269531 30.433594 C 16.253906 30.625 16.234375 30.777344 16.207031 30.890625 C 16.1875 31.007812 16.160156 31.097656 16.125 31.15625 C 16.097656 31.21875 16.058594 31.265625 16.003906 31.300781 C 15.964844 31.320312 15.90625 31.339844 15.839844 31.351562 C 15.78125 31.367188 15.6875 31.375 15.566406 31.382812 C 15.441406 31.390625 15.273438 31.390625 15.066406 31.390625 C 14.824219 31.390625 14.644531 31.382812 14.523438 31.359375 C 14.402344 31.339844 14.3125 31.308594 14.269531 31.257812 C 14.226562 31.207031 14.207031 31.125 14.207031 31.023438 L 14.207031 29.8125 C 14.207031 29.71875 14.203125 29.636719 14.195312 29.566406 C 14.195312 29.492188 14.1875 29.421875 14.175781 29.355469 L 14.574219 29.355469 C 14.558594 29.410156 14.550781 29.472656 14.542969 29.535156 C 14.542969 29.605469 14.542969 29.695312 14.542969 29.800781 L 14.542969 30.117188 C 14.644531 30.09375 14.722656 30.070312 14.777344 30.058594 C 14.839844 30.035156 14.894531 30.015625 14.941406 29.996094 C 14.996094 29.976562 15.066406 29.953125 15.15625 29.925781 C 15.304688 29.863281 15.425781 29.8125 15.523438 29.769531 C 15.617188 29.730469 15.699219 29.691406 15.769531 29.648438 C 15.835938 29.609375 15.90625 29.566406 15.972656 29.527344 L 16.199219 29.800781 C 16.117188 29.835938 16.050781 29.863281 16.003906 29.882812 C 15.964844 29.902344 15.917969 29.925781 15.871094 29.945312 C 15.824219 29.964844 15.75 29.996094 15.65625 30.035156 C 15.519531 30.09375 15.351562 30.152344 15.15625 30.21875 C 14.957031 30.289062 14.753906 30.351562 14.542969 30.414062 Z M 14.542969 30.414062 " fill-opacity="1" fill-rule="nonzero"/></g><g clip-path="url(#2e7456248f)"><path fill="#000000" d="M 19.707031 30.351562 L 18.984375 30.351562 C 18.882812 30.351562 18.792969 30.355469 18.726562 30.363281 C 18.667969 30.363281 18.601562 30.371094 18.535156 30.382812 L 18.535156 30.058594 C 18.59375 30.0625 18.660156 30.070312 18.726562 30.078125 C 18.800781 30.078125 18.890625 30.078125 18.992188 30.078125 L 19.269531 30.078125 C 19.226562 29.984375 19.179688 29.894531 19.125 29.8125 C 19.078125 29.726562 19.015625 29.625 18.933594 29.507812 L 19.207031 29.382812 C 19.292969 29.515625 19.367188 29.632812 19.421875 29.742188 C 19.484375 29.84375 19.539062 29.953125 19.585938 30.078125 L 20.1875 30.078125 C 20.269531 29.949219 20.335938 29.832031 20.390625 29.730469 C 20.445312 29.625 20.496094 29.503906 20.546875 29.375 L 20.851562 29.484375 C 20.824219 29.542969 20.789062 29.609375 20.75 29.691406 C 20.710938 29.765625 20.664062 29.839844 20.617188 29.914062 C 20.578125 29.984375 20.539062 30.035156 20.515625 30.078125 L 20.972656 30.078125 C 21.070312 30.078125 21.152344 30.078125 21.230469 30.078125 C 21.304688 30.070312 21.378906 30.0625 21.453125 30.046875 L 21.453125 30.394531 C 21.378906 30.378906 21.304688 30.371094 21.230469 30.363281 C 21.160156 30.355469 21.078125 30.351562 20.972656 30.351562 L 20.023438 30.351562 L 20.023438 30.800781 L 20.8125 30.800781 C 20.917969 30.800781 21.007812 30.800781 21.078125 30.800781 C 21.152344 30.796875 21.222656 30.785156 21.292969 30.769531 L 21.292969 31.117188 C 21.222656 31.113281 21.152344 31.105469 21.085938 31.105469 C 21.019531 31.101562 20.929688 31.097656 20.820312 31.097656 L 20.023438 31.097656 L 20.023438 31.566406 L 21.046875 31.566406 C 21.148438 31.566406 21.234375 31.5625 21.3125 31.554688 C 21.386719 31.550781 21.457031 31.539062 21.527344 31.523438 L 21.527344 31.871094 C 21.386719 31.851562 21.230469 31.839844 21.054688 31.839844 L 20.054688 31.839844 C 20.101562 31.957031 20.148438 32.054688 20.1875 32.136719 C 20.230469 32.21875 20.269531 32.296875 20.3125 32.371094 C 20.355469 32.445312 20.414062 32.527344 20.484375 32.613281 C 20.597656 32.511719 20.699219 32.414062 20.78125 32.320312 C 20.867188 32.21875 20.960938 32.09375 21.054688 31.941406 L 21.320312 32.136719 C 21.199219 32.292969 21.089844 32.421875 20.996094 32.523438 C 20.898438 32.625 20.789062 32.730469 20.667969 32.839844 C 20.8125 33 20.957031 33.140625 21.105469 33.257812 C 21.261719 33.367188 21.445312 33.472656 21.660156 33.574219 C 21.609375 33.613281 21.570312 33.660156 21.535156 33.707031 C 21.507812 33.75 21.476562 33.808594 21.445312 33.867188 C 21.28125 33.769531 21.136719 33.679688 21.015625 33.582031 C 20.898438 33.488281 20.785156 33.386719 20.679688 33.277344 C 20.578125 33.175781 20.488281 33.078125 20.414062 32.980469 C 20.34375 32.878906 20.273438 32.773438 20.207031 32.65625 C 20.140625 32.53125 20.066406 32.386719 19.984375 32.207031 C 20.003906 32.371094 20.015625 32.488281 20.015625 32.554688 C 20.019531 32.621094 20.023438 32.679688 20.023438 32.726562 L 20.023438 33.707031 C 20.023438 33.839844 19.988281 33.933594 19.921875 33.980469 C 19.863281 34.035156 19.730469 34.0625 19.535156 34.0625 C 19.464844 34.0625 19.394531 34.058594 19.320312 34.050781 C 19.25 34.050781 19.179688 34.046875 19.105469 34.042969 C 19.097656 33.972656 19.089844 33.914062 19.074219 33.867188 C 19.058594 33.820312 19.039062 33.769531 19.015625 33.714844 C 19.210938 33.742188 19.382812 33.757812 19.535156 33.757812 C 19.609375 33.757812 19.65625 33.75 19.675781 33.734375 C 19.699219 33.71875 19.707031 33.691406 19.707031 33.644531 L 19.707031 32.910156 C 19.589844 32.992188 19.496094 33.058594 19.421875 33.113281 C 19.347656 33.164062 19.273438 33.207031 19.207031 33.246094 C 19.140625 33.289062 19.058594 33.335938 18.972656 33.390625 C 18.882812 33.4375 18.761719 33.5 18.605469 33.582031 C 18.570312 33.601562 18.527344 33.628906 18.484375 33.652344 C 18.441406 33.675781 18.402344 33.699219 18.371094 33.726562 L 18.21875 33.378906 C 18.414062 33.324219 18.640625 33.230469 18.890625 33.09375 C 19.148438 32.957031 19.421875 32.789062 19.707031 32.585938 L 19.707031 31.839844 L 18.902344 31.839844 C 18.800781 31.839844 18.710938 31.84375 18.644531 31.851562 C 18.578125 31.851562 18.511719 31.855469 18.453125 31.859375 L 18.453125 31.535156 C 18.558594 31.554688 18.710938 31.566406 18.902344 31.566406 L 19.707031 31.566406 L 19.707031 31.097656 L 19.136719 31.097656 C 19.019531 31.097656 18.933594 31.101562 18.871094 31.105469 C 18.816406 31.105469 18.75 31.113281 18.675781 31.117188 L 18.675781 30.78125 C 18.742188 30.789062 18.808594 30.796875 18.871094 30.800781 C 18.933594 30.800781 19.015625 30.800781 19.125 30.800781 L 19.707031 30.800781 Z M 17.625 30.394531 L 17.625 29.882812 C 17.625 29.726562 17.621094 29.617188 17.613281 29.546875 C 17.613281 29.472656 17.609375 29.40625 17.605469 29.34375 L 17.960938 29.34375 C 17.953125 29.414062 17.945312 29.484375 17.941406 29.566406 C 17.941406 29.644531 17.941406 29.746094 17.941406 29.875 L 17.941406 30.394531 L 18.144531 30.394531 C 18.21875 30.394531 18.28125 30.394531 18.328125 30.394531 C 18.375 30.386719 18.425781 30.378906 18.472656 30.363281 L 18.472656 30.6875 C 18.375 30.675781 18.269531 30.667969 18.144531 30.667969 L 17.953125 30.667969 C 17.996094 30.804688 18.0625 30.949219 18.144531 31.097656 C 18.234375 31.246094 18.332031 31.386719 18.441406 31.515625 C 18.40625 31.5625 18.375 31.609375 18.351562 31.65625 C 18.320312 31.699219 18.292969 31.746094 18.257812 31.800781 C 18.183594 31.671875 18.117188 31.554688 18.0625 31.453125 C 18.015625 31.347656 17.96875 31.214844 17.921875 31.066406 C 17.925781 31.289062 17.929688 31.46875 17.929688 31.59375 C 17.9375 31.71875 17.941406 31.828125 17.941406 31.921875 L 17.941406 33.5 C 17.941406 33.640625 17.941406 33.75 17.941406 33.847656 C 17.945312 33.949219 17.957031 34.035156 17.972656 34.101562 L 17.59375 34.101562 C 17.605469 34.027344 17.613281 33.941406 17.613281 33.847656 C 17.621094 33.75 17.625 33.640625 17.625 33.5 L 17.625 32.023438 C 17.625 31.957031 17.625 31.90625 17.625 31.871094 C 17.625 31.828125 17.625 31.789062 17.625 31.75 C 17.628906 31.707031 17.636719 31.648438 17.644531 31.566406 C 17.644531 31.542969 17.644531 31.515625 17.644531 31.472656 C 17.652344 31.433594 17.65625 31.378906 17.65625 31.308594 C 17.65625 31.289062 17.65625 31.265625 17.65625 31.238281 C 17.660156 31.207031 17.667969 31.164062 17.667969 31.117188 C 17.628906 31.28125 17.597656 31.417969 17.5625 31.523438 C 17.527344 31.625 17.496094 31.726562 17.460938 31.820312 C 17.425781 31.910156 17.382812 32.011719 17.328125 32.125 C 17.273438 32.234375 17.222656 32.328125 17.175781 32.410156 C 17.136719 32.492188 17.074219 32.589844 16.992188 32.707031 C 16.964844 32.652344 16.933594 32.601562 16.898438 32.554688 C 16.871094 32.507812 16.832031 32.453125 16.789062 32.390625 C 16.890625 32.269531 16.976562 32.144531 17.054688 32.011719 C 17.136719 31.886719 17.210938 31.734375 17.277344 31.566406 C 17.34375 31.417969 17.402344 31.265625 17.453125 31.105469 C 17.503906 30.949219 17.546875 30.804688 17.574219 30.667969 L 17.296875 30.667969 C 17.140625 30.667969 17.023438 30.675781 16.941406 30.6875 L 16.941406 30.363281 C 17.015625 30.382812 17.136719 30.394531 17.296875 30.394531 Z M 18.566406 32.117188 L 18.800781 31.953125 C 18.894531 32.070312 18.976562 32.175781 19.054688 32.269531 C 19.128906 32.355469 19.207031 32.460938 19.289062 32.585938 L 19.054688 32.757812 C 18.972656 32.628906 18.898438 32.519531 18.832031 32.429688 C 18.761719 32.335938 18.671875 32.234375 18.566406 32.117188 Z M 18.566406 32.117188 " fill-opacity="1" fill-rule="nonzero"/></g><g clip-path="url(#dcd4b9e327)"><path fill="#000000" d="M 22.859375 29.617188 L 23.28125 29.691406 C 23.238281 29.800781 23.199219 29.921875 23.167969 30.058594 C 23.132812 30.1875 23.097656 30.339844 23.054688 30.515625 C 23 30.796875 22.957031 31.058594 22.933594 31.308594 C 22.914062 31.554688 22.902344 31.835938 22.902344 32.144531 C 22.902344 32.351562 22.902344 32.53125 22.902344 32.695312 C 22.90625 32.855469 22.917969 33 22.933594 33.132812 C 22.964844 32.964844 23.007812 32.804688 23.066406 32.644531 C 23.117188 32.488281 23.1875 32.316406 23.269531 32.125 L 23.523438 32.238281 C 23.441406 32.410156 23.367188 32.589844 23.300781 32.777344 C 23.238281 32.960938 23.1875 33.132812 23.148438 33.296875 C 23.109375 33.457031 23.097656 33.582031 23.097656 33.675781 C 23.097656 33.683594 23.097656 33.691406 23.097656 33.707031 C 23.097656 33.71875 23.097656 33.734375 23.097656 33.757812 L 22.71875 33.785156 C 22.71875 33.746094 22.714844 33.710938 22.707031 33.683594 C 22.699219 33.660156 22.691406 33.621094 22.6875 33.574219 C 22.660156 33.390625 22.636719 33.222656 22.617188 33.074219 C 22.59375 32.917969 22.578125 32.761719 22.566406 32.605469 C 22.558594 32.449219 22.554688 32.285156 22.554688 32.105469 C 22.554688 31.855469 22.558594 31.625 22.574219 31.414062 C 22.59375 31.195312 22.621094 30.980469 22.65625 30.761719 C 22.691406 30.535156 22.734375 30.296875 22.789062 30.035156 C 22.816406 29.914062 22.832031 29.828125 22.839844 29.78125 C 22.851562 29.734375 22.859375 29.679688 22.859375 29.617188 Z M 23.933594 30.605469 L 23.945312 30.238281 C 24.050781 30.269531 24.171875 30.289062 24.3125 30.300781 C 24.453125 30.308594 24.628906 30.3125 24.832031 30.3125 C 25.417969 30.3125 25.882812 30.269531 26.230469 30.179688 L 26.25 30.546875 C 26.242188 30.546875 26.125 30.5625 25.894531 30.585938 C 25.742188 30.613281 25.570312 30.636719 25.371094 30.648438 C 25.175781 30.65625 24.976562 30.65625 24.769531 30.65625 C 24.628906 30.65625 24.496094 30.65625 24.371094 30.648438 C 24.25 30.644531 24.101562 30.628906 23.933594 30.605469 Z M 24.320312 31.625 L 24.605469 31.777344 C 24.339844 32.0625 24.207031 32.320312 24.207031 32.542969 C 24.207031 32.925781 24.546875 33.113281 25.21875 33.113281 C 25.449219 33.113281 25.671875 33.101562 25.882812 33.074219 C 26.101562 33.039062 26.277344 32.992188 26.414062 32.929688 L 26.464844 33.339844 C 26.429688 33.339844 26.40625 33.34375 26.382812 33.347656 C 26.367188 33.347656 26.335938 33.351562 26.28125 33.359375 C 26.101562 33.394531 25.925781 33.417969 25.75 33.441406 C 25.570312 33.460938 25.394531 33.472656 25.21875 33.472656 C 24.917969 33.472656 24.671875 33.441406 24.472656 33.378906 C 24.28125 33.3125 24.132812 33.210938 24.023438 33.074219 C 23.914062 32.9375 23.863281 32.777344 23.863281 32.59375 C 23.863281 32.429688 23.894531 32.277344 23.964844 32.125 C 24.039062 31.976562 24.15625 31.808594 24.320312 31.625 Z M 24.320312 31.625 " fill-opacity="1" fill-rule="nonzero"/></g><g clip-path="url(#fd31c6c7a5)"><path fill="#000000" d="M 28.984375 30.996094 L 28.996094 30.636719 C 29.117188 30.664062 29.246094 30.6875 29.382812 30.699219 C 29.519531 30.714844 29.703125 30.71875 29.933594 30.71875 C 30.03125 30.71875 30.117188 30.71875 30.199219 30.71875 C 30.28125 30.714844 30.375 30.707031 30.488281 30.699219 C 30.488281 30.578125 30.488281 30.480469 30.488281 30.414062 C 30.488281 30.339844 30.488281 30.277344 30.488281 30.230469 C 30.488281 30.175781 30.488281 30.117188 30.488281 30.058594 C 30.488281 29.996094 30.488281 29.914062 30.488281 29.8125 C 30.488281 29.726562 30.480469 29.652344 30.464844 29.597656 L 30.855469 29.597656 C 30.839844 29.675781 30.828125 29.777344 30.824219 29.902344 C 30.824219 30.035156 30.824219 30.207031 30.824219 30.421875 C 30.824219 30.453125 30.824219 30.484375 30.824219 30.527344 C 30.824219 30.566406 30.824219 30.617188 30.824219 30.679688 C 31.027344 30.652344 31.203125 30.625 31.355469 30.597656 C 31.511719 30.5625 31.636719 30.527344 31.730469 30.484375 L 31.742188 30.832031 C 31.742188 30.832031 31.734375 30.835938 31.722656 30.839844 C 31.714844 30.839844 31.683594 30.847656 31.628906 30.863281 C 31.582031 30.871094 31.5 30.886719 31.386719 30.914062 C 31.316406 30.929688 31.238281 30.941406 31.148438 30.953125 C 31.070312 30.960938 30.957031 30.972656 30.824219 30.996094 C 30.824219 31.125 30.824219 31.242188 30.824219 31.351562 C 30.828125 31.453125 30.832031 31.558594 30.832031 31.667969 C 30.839844 31.769531 30.847656 31.886719 30.855469 32.011719 C 30.867188 32.144531 30.875 32.292969 30.882812 32.460938 C 31.011719 32.523438 31.121094 32.578125 31.199219 32.625 C 31.289062 32.664062 31.375 32.714844 31.457031 32.765625 C 31.542969 32.824219 31.644531 32.894531 31.753906 32.980469 C 31.785156 33 31.808594 33.019531 31.824219 33.03125 C 31.835938 33.039062 31.855469 33.050781 31.886719 33.0625 L 31.722656 33.429688 C 31.644531 33.34375 31.550781 33.257812 31.4375 33.175781 C 31.320312 33.09375 31.171875 33 30.988281 32.890625 C 30.972656 32.882812 30.957031 32.875 30.9375 32.859375 C 30.921875 32.847656 30.90625 32.835938 30.882812 32.828125 C 30.890625 32.863281 30.894531 32.886719 30.894531 32.898438 C 30.894531 32.914062 30.894531 32.9375 30.894531 32.960938 C 30.894531 33.105469 30.875 33.222656 30.832031 33.316406 C 30.773438 33.457031 30.664062 33.5625 30.507812 33.644531 C 30.355469 33.71875 30.175781 33.757812 29.964844 33.757812 C 29.660156 33.757812 29.417969 33.6875 29.242188 33.550781 C 29.0625 33.417969 28.976562 33.234375 28.976562 33.011719 C 28.976562 32.871094 29.015625 32.746094 29.097656 32.636719 C 29.183594 32.519531 29.304688 32.429688 29.453125 32.371094 C 29.601562 32.308594 29.773438 32.277344 29.964844 32.277344 C 30.074219 32.277344 30.183594 32.289062 30.292969 32.308594 C 30.398438 32.324219 30.488281 32.347656 30.546875 32.378906 C 30.539062 32.328125 30.53125 32.179688 30.515625 31.941406 C 30.507812 31.707031 30.5 31.398438 30.496094 31.015625 C 30.375 31.023438 30.265625 31.03125 30.179688 31.035156 C 30.089844 31.035156 29.996094 31.035156 29.894531 31.035156 C 29.691406 31.035156 29.496094 31.03125 29.3125 31.015625 C 29.261719 31.007812 29.226562 31.003906 29.199219 31.003906 C 29.171875 31.003906 29.152344 31.003906 29.136719 31.003906 C 29.117188 31.003906 29.101562 31.003906 29.085938 31.003906 C 29.070312 31.003906 29.0625 31.003906 29.058594 31.003906 C 29.042969 31 29.03125 30.996094 29.027344 30.996094 C 29.019531 30.996094 29.011719 30.996094 29.003906 30.996094 C 28.996094 30.996094 28.996094 30.996094 28.996094 30.996094 C 28.996094 30.996094 28.992188 30.996094 28.984375 30.996094 Z M 30.546875 32.695312 C 30.445312 32.65625 30.355469 32.628906 30.273438 32.613281 C 30.191406 32.59375 30.097656 32.585938 29.996094 32.585938 C 29.792969 32.585938 29.628906 32.625 29.507812 32.707031 C 29.382812 32.78125 29.320312 32.886719 29.320312 33.023438 C 29.320312 33.144531 29.375 33.246094 29.484375 33.328125 C 29.59375 33.40625 29.742188 33.441406 29.925781 33.441406 C 30.039062 33.441406 30.144531 33.425781 30.242188 33.390625 C 30.335938 33.355469 30.40625 33.3125 30.457031 33.257812 C 30.523438 33.183594 30.558594 33.046875 30.558594 32.847656 C 30.558594 32.835938 30.550781 32.808594 30.546875 32.765625 C 30.546875 32.722656 30.546875 32.695312 30.546875 32.695312 Z M 28.054688 29.597656 L 28.464844 29.667969 C 28.410156 29.792969 28.355469 29.953125 28.300781 30.148438 C 28.253906 30.339844 28.210938 30.546875 28.179688 30.769531 C 28.144531 30.988281 28.117188 31.214844 28.097656 31.441406 C 28.078125 31.667969 28.066406 31.886719 28.066406 32.105469 C 28.066406 32.195312 28.066406 32.308594 28.066406 32.453125 C 28.070312 32.589844 28.078125 32.714844 28.085938 32.839844 C 28.085938 32.859375 28.085938 32.878906 28.085938 32.890625 C 28.085938 32.90625 28.085938 32.9375 28.085938 32.980469 C 28.085938 33.007812 28.085938 33.027344 28.085938 33.03125 C 28.085938 33.039062 28.085938 33.058594 28.085938 33.082031 L 28.105469 33.082031 C 28.140625 32.957031 28.167969 32.847656 28.1875 32.765625 C 28.214844 32.6875 28.246094 32.601562 28.28125 32.511719 C 28.3125 32.425781 28.355469 32.308594 28.414062 32.167969 C 28.425781 32.144531 28.4375 32.128906 28.445312 32.117188 C 28.449219 32.101562 28.453125 32.085938 28.453125 32.0625 L 28.710938 32.1875 C 28.632812 32.355469 28.558594 32.539062 28.484375 32.726562 C 28.414062 32.917969 28.363281 33.097656 28.320312 33.265625 C 28.285156 33.429688 28.269531 33.5625 28.269531 33.664062 C 28.269531 33.679688 28.269531 33.6875 28.269531 33.695312 C 28.269531 33.707031 28.273438 33.730469 28.28125 33.765625 L 27.902344 33.808594 C 27.902344 33.777344 27.898438 33.757812 27.894531 33.734375 C 27.894531 33.714844 27.886719 33.675781 27.871094 33.613281 C 27.832031 33.367188 27.796875 33.117188 27.769531 32.859375 C 27.742188 32.59375 27.730469 32.328125 27.730469 32.0625 C 27.730469 31.835938 27.734375 31.613281 27.75 31.402344 C 27.769531 31.183594 27.800781 30.960938 27.839844 30.730469 C 27.882812 30.492188 27.933594 30.226562 27.996094 29.925781 C 28.019531 29.808594 28.039062 29.734375 28.046875 29.699219 C 28.050781 29.667969 28.054688 29.632812 28.054688 29.597656 Z M 28.054688 29.597656 " fill-opacity="1" fill-rule="nonzero"/></g></svg>