<svg xmlns="http://www.w3.org/2000/svg" xmlns:xlink="http://www.w3.org/1999/xlink" width="48" zoomAndPan="magnify" viewBox="0 0 36 36.000001" height="48" preserveAspectRatio="xMidYMid meet" version="1.0"><defs><clipPath id="3d48e9d3b8"><path d="M 0.488281 0 L 35.511719 0 L 35.511719 35.027344 L 0.488281 35.027344 Z M 0.488281 0 " clip-rule="nonzero"/></clipPath><clipPath id="d7462491af"><path d="M 10.773438 10.257812 L 24.632812 10.257812 L 24.632812 18.074219 L 10.773438 18.074219 Z M 10.773438 10.257812 " clip-rule="nonzero"/></clipPath><clipPath id="b064bb9d1a"><path d="M 0.488281 0 L 34.785156 0 L 34.785156 34.296875 L 0.488281 34.296875 Z M 0.488281 0 " clip-rule="nonzero"/></clipPath><clipPath id="83f20f34e6"><path d="M 2.867188 0 L 34.785156 0 L 34.785156 1.679688 L 2.867188 1.679688 Z M 2.867188 0 " clip-rule="nonzero"/></clipPath><clipPath id="80059caa18"><path d="M 2.824219 15.054688 L 34.785156 15.054688 L 34.785156 27.851562 L 2.824219 27.851562 Z M 2.824219 15.054688 " clip-rule="nonzero"/></clipPath><clipPath id="936b795dc1"><path d="M 2 30 L 6 30 L 6 34.296875 L 2 34.296875 Z M 2 30 " clip-rule="nonzero"/></clipPath><clipPath id="1d4ce18f0c"><path d="M 5 30 L 10 30 L 10 34.296875 L 5 34.296875 Z M 5 30 " clip-rule="nonzero"/></clipPath><clipPath id="94f238fa02"><path d="M 10 30 L 15 30 L 15 34.296875 L 10 34.296875 Z M 10 30 " clip-rule="nonzero"/></clipPath><clipPath id="66b7f36aa9"><path d="M 14 30 L 19 30 L 19 34.296875 L 14 34.296875 Z M 14 30 " clip-rule="nonzero"/></clipPath><clipPath id="420cc667cf"><path d="M 19 30 L 24 30 L 24 34.296875 L 19 34.296875 Z M 19 30 " clip-rule="nonzero"/></clipPath><clipPath id="a6b7e06b25"><path d="M 23 31 L 28 31 L 28 34.296875 L 23 34.296875 Z M 23 31 " clip-rule="nonzero"/></clipPath><clipPath id="c668bee207"><path d="M 28 30 L 33 30 L 33 34.296875 L 28 34.296875 Z M 28 30 " clip-rule="nonzero"/></clipPath><clipPath id="fc115839fb"><path d="M 32 31 L 34.785156 31 L 34.785156 34.296875 L 32 34.296875 Z M 32 31 " clip-rule="nonzero"/></clipPath><clipPath id="44060e0e81"><path d="M 0.488281 10 L 27 10 L 27 12 L 0.488281 12 Z M 0.488281 10 " clip-rule="nonzero"/></clipPath><clipPath id="719620560a"><path d="M 0.488281 6 L 4 6 L 4 11 L 0.488281 11 Z M 0.488281 6 " clip-rule="nonzero"/></clipPath><clipPath id="48d58888fe"><path d="M 33 19 L 34.785156 19 L 34.785156 24 L 33 24 Z M 33 19 " clip-rule="nonzero"/></clipPath></defs><g clip-path="url(#3d48e9d3b8)"><path fill="#ffffff" d="M 0.488281 0 L 35.511719 0 L 35.511719 35.027344 L 0.488281 35.027344 Z M 0.488281 0 " fill-opacity="1" fill-rule="nonzero"/></g><g clip-path="url(#d7462491af)"><path fill="#aaa9a9" d="M 10.773438 10.257812 L 24.636719 10.257812 L 24.636719 18.074219 L 10.773438 18.074219 Z M 10.773438 10.257812 " fill-opacity="1" fill-rule="nonzero"/></g><g clip-path="url(#b064bb9d1a)"><rect x="-3.6" width="43.2" fill="#ffffff" y="-3.6" height="43.200001" fill-opacity="1"/><rect x="-3.6" width="43.2" fill="#ffffff" y="-3.6" height="43.200001" fill-opacity="1"/></g><g clip-path="url(#83f20f34e6)"><path fill="#e6e6e6" d="M 2.867188 -11.117188 L 103.957031 -11.117188 L 103.957031 1.679688 L 2.867188 1.679688 Z M 2.867188 -11.117188 " fill-opacity="1" fill-rule="nonzero"/></g><g clip-path="url(#80059caa18)"><path fill="#e6e6e6" d="M 2.824219 15.054688 L 103.914062 15.054688 L 103.914062 27.851562 L 2.824219 27.851562 Z M 2.824219 15.054688 " fill-opacity="1" fill-rule="nonzero"/></g><g clip-path="url(#936b795dc1)"><path fill="#00bf63" d="M 4.34375 32.519531 C 4.4375 32.535156 4.515625 32.558594 4.585938 32.59375 C 4.660156 32.621094 4.730469 32.660156 4.808594 32.714844 C 5.03125 32.882812 5.140625 33.117188 5.140625 33.421875 C 5.140625 33.734375 5.03125 33.976562 4.816406 34.140625 C 4.601562 34.304688 4.292969 34.386719 3.898438 34.386719 C 3.484375 34.386719 3.167969 34.304688 2.945312 34.140625 C 2.722656 33.976562 2.613281 33.734375 2.613281 33.421875 C 2.613281 33.097656 2.746094 32.851562 3.015625 32.671875 C 3.082031 32.628906 3.148438 32.59375 3.210938 32.570312 C 3.269531 32.550781 3.339844 32.535156 3.421875 32.519531 C 3.222656 32.480469 3.066406 32.390625 2.945312 32.246094 C 2.828125 32.101562 2.773438 31.921875 2.773438 31.710938 C 2.773438 31.433594 2.871094 31.214844 3.066406 31.050781 C 3.269531 30.890625 3.539062 30.808594 3.875 30.808594 C 4.226562 30.808594 4.5 30.890625 4.695312 31.050781 C 4.890625 31.214844 4.988281 31.433594 4.988281 31.710938 C 4.988281 31.921875 4.929688 32.101562 4.816406 32.246094 C 4.703125 32.390625 4.542969 32.480469 4.34375 32.519531 Z M 3.875 31.113281 C 3.648438 31.113281 3.460938 31.171875 3.320312 31.285156 C 3.183594 31.402344 3.117188 31.546875 3.117188 31.730469 C 3.117188 31.933594 3.183594 32.09375 3.320312 32.207031 C 3.453125 32.324219 3.644531 32.378906 3.886719 32.378906 C 4.121094 32.378906 4.308594 32.324219 4.441406 32.207031 C 4.578125 32.09375 4.644531 31.933594 4.644531 31.730469 C 4.644531 31.542969 4.574219 31.394531 4.433594 31.285156 C 4.296875 31.171875 4.113281 31.113281 3.875 31.113281 Z M 3.875 32.691406 C 3.597656 32.691406 3.382812 32.757812 3.21875 32.886719 C 3.0625 33.007812 2.988281 33.179688 2.988281 33.402344 C 2.988281 33.613281 3.0625 33.777344 3.21875 33.898438 C 3.375 34.019531 3.59375 34.082031 3.875 34.082031 C 4.03125 34.082031 4.171875 34.0625 4.292969 34.019531 C 4.417969 33.980469 4.523438 33.925781 4.605469 33.847656 C 4.71875 33.742188 4.777344 33.59375 4.777344 33.402344 C 4.777344 33.179688 4.695312 33.007812 4.535156 32.886719 C 4.371094 32.757812 4.152344 32.691406 3.875 32.691406 Z M 3.875 32.691406 " fill-opacity="1" fill-rule="nonzero"/></g><g clip-path="url(#1d4ce18f0c)"><path fill="#00bf63" d="M 9.128906 31.628906 L 8.777344 31.628906 C 8.734375 31.746094 8.699219 31.84375 8.675781 31.921875 C 8.648438 32.003906 8.621094 32.078125 8.59375 32.144531 C 8.566406 32.214844 8.535156 32.289062 8.503906 32.367188 C 8.414062 32.546875 8.316406 32.710938 8.210938 32.867188 C 8.101562 33.023438 7.976562 33.175781 7.835938 33.332031 C 7.957031 33.449219 8.082031 33.550781 8.210938 33.644531 C 8.34375 33.742188 8.492188 33.832031 8.65625 33.917969 C 8.769531 33.980469 8.878906 34.035156 8.976562 34.082031 C 9.078125 34.128906 9.1875 34.171875 9.300781 34.214844 C 9.414062 34.25 9.546875 34.285156 9.695312 34.324219 C 9.617188 34.40625 9.550781 34.507812 9.503906 34.628906 C 9.113281 34.492188 8.765625 34.34375 8.460938 34.171875 C 8.164062 33.996094 7.886719 33.789062 7.621094 33.542969 C 7.097656 34.03125 6.46875 34.386719 5.742188 34.617188 C 5.714844 34.558594 5.683594 34.507812 5.648438 34.464844 C 5.621094 34.425781 5.589844 34.386719 5.546875 34.34375 C 6.28125 34.140625 6.90625 33.808594 7.421875 33.339844 C 7.3125 33.21875 7.214844 33.105469 7.125 32.988281 C 7.039062 32.867188 6.953125 32.734375 6.875 32.59375 C 6.8125 32.492188 6.757812 32.398438 6.710938 32.308594 C 6.671875 32.214844 6.632812 32.117188 6.589844 32.015625 C 6.550781 31.90625 6.503906 31.777344 6.449219 31.628906 L 6.117188 31.628906 C 6.007812 31.628906 5.914062 31.632812 5.832031 31.640625 C 5.757812 31.640625 5.683594 31.644531 5.621094 31.648438 L 5.621094 31.335938 C 5.746094 31.355469 5.914062 31.367188 6.125 31.367188 L 7.421875 31.367188 L 7.421875 31.011719 C 7.421875 30.863281 7.410156 30.730469 7.390625 30.617188 L 7.742188 30.617188 C 7.738281 30.675781 7.730469 30.738281 7.722656 30.796875 C 7.714844 30.859375 7.714844 30.925781 7.714844 31 L 7.714844 31.367188 L 9.128906 31.367188 C 9.34375 31.367188 9.515625 31.355469 9.636719 31.335938 L 9.636719 31.648438 C 9.574219 31.644531 9.507812 31.640625 9.433594 31.640625 C 9.359375 31.632812 9.257812 31.628906 9.128906 31.628906 Z M 8.441406 31.628906 L 6.761719 31.628906 C 6.808594 31.757812 6.847656 31.871094 6.875 31.964844 C 6.90625 32.050781 6.945312 32.136719 6.984375 32.21875 C 7.027344 32.296875 7.078125 32.390625 7.136719 32.492188 C 7.210938 32.613281 7.285156 32.722656 7.359375 32.824219 C 7.433594 32.921875 7.523438 33.023438 7.621094 33.128906 C 7.816406 32.921875 7.980469 32.691406 8.109375 32.449219 C 8.242188 32.207031 8.355469 31.933594 8.441406 31.628906 Z M 8.441406 31.628906 " fill-opacity="1" fill-rule="nonzero"/></g><g clip-path="url(#94f238fa02)"><path fill="#00bf63" d="M 11.945312 31.082031 L 11.945312 30.949219 C 11.945312 30.867188 11.941406 30.804688 11.9375 30.746094 C 11.9375 30.6875 11.929688 30.632812 11.925781 30.574219 L 12.28125 30.574219 C 12.265625 30.632812 12.253906 30.6875 12.25 30.746094 C 12.25 30.804688 12.25 30.867188 12.25 30.949219 L 12.25 31.082031 L 13.554688 31.082031 C 13.648438 31.082031 13.730469 31.082031 13.808594 31.082031 C 13.890625 31.078125 13.964844 31.070312 14.039062 31.0625 C 14.03125 31.109375 14.023438 31.160156 14.019531 31.214844 C 14.019531 31.269531 14.019531 31.332031 14.019531 31.40625 L 14.019531 31.667969 C 14.019531 31.726562 14.019531 31.777344 14.019531 31.832031 C 14.023438 31.878906 14.03125 31.929688 14.039062 31.984375 L 13.738281 31.984375 L 13.738281 31.34375 L 10.558594 31.34375 L 10.558594 31.984375 L 10.257812 31.984375 C 10.261719 31.929688 10.269531 31.878906 10.277344 31.832031 C 10.28125 31.777344 10.289062 31.726562 10.289062 31.667969 L 10.289062 31.40625 C 10.289062 31.339844 10.28125 31.28125 10.277344 31.222656 C 10.277344 31.171875 10.269531 31.117188 10.257812 31.0625 C 10.335938 31.070312 10.414062 31.078125 10.488281 31.082031 C 10.5625 31.082031 10.644531 31.082031 10.742188 31.082031 Z M 10.671875 32.945312 L 11.988281 32.945312 C 11.988281 32.867188 11.980469 32.800781 11.976562 32.742188 C 11.976562 32.691406 11.972656 32.640625 11.964844 32.59375 L 12.1875 32.59375 C 12.296875 32.53125 12.390625 32.476562 12.472656 32.429688 C 12.554688 32.382812 12.628906 32.332031 12.707031 32.277344 C 12.785156 32.21875 12.871094 32.144531 12.96875 32.066406 L 11.238281 32.066406 C 11.070312 32.066406 10.925781 32.074219 10.804688 32.09375 L 10.804688 31.78125 C 10.855469 31.789062 10.917969 31.796875 10.984375 31.800781 C 11.058594 31.808594 11.140625 31.8125 11.238281 31.8125 L 12.988281 31.8125 C 13.144531 31.8125 13.253906 31.804688 13.324219 31.792969 L 13.472656 31.972656 C 13.445312 32 13.425781 32.023438 13.414062 32.035156 C 13.398438 32.050781 13.367188 32.078125 13.3125 32.125 C 13.195312 32.214844 13.089844 32.296875 12.988281 32.378906 C 12.886719 32.453125 12.777344 32.527344 12.664062 32.59375 C 12.554688 32.660156 12.433594 32.730469 12.289062 32.804688 L 12.289062 32.945312 L 13.625 32.945312 C 13.8125 32.945312 13.972656 32.941406 14.101562 32.925781 L 14.101562 33.242188 C 13.972656 33.21875 13.8125 33.210938 13.625 33.210938 L 12.289062 33.210938 L 12.289062 34.242188 C 12.289062 34.378906 12.253906 34.472656 12.179688 34.527344 C 12.109375 34.582031 11.988281 34.609375 11.804688 34.609375 C 11.714844 34.609375 11.625 34.601562 11.53125 34.597656 C 11.441406 34.597656 11.34375 34.589844 11.238281 34.578125 C 11.230469 34.523438 11.21875 34.476562 11.207031 34.4375 C 11.199219 34.394531 11.183594 34.34375 11.15625 34.273438 C 11.25 34.292969 11.359375 34.3125 11.480469 34.324219 C 11.601562 34.339844 11.707031 34.34375 11.792969 34.34375 C 11.867188 34.34375 11.917969 34.335938 11.945312 34.316406 C 11.972656 34.292969 11.988281 34.261719 11.988281 34.214844 L 11.988281 33.210938 L 10.671875 33.210938 C 10.488281 33.210938 10.332031 33.21875 10.207031 33.242188 L 10.207031 32.925781 C 10.273438 32.933594 10.34375 32.941406 10.417969 32.945312 C 10.492188 32.945312 10.574219 32.945312 10.671875 32.945312 Z M 10.671875 32.945312 " fill-opacity="1" fill-rule="nonzero"/></g><g clip-path="url(#66b7f36aa9)"><path fill="#00bf63" d="M 17.898438 30.726562 L 18.253906 30.738281 C 18.246094 30.765625 18.238281 30.792969 18.234375 30.820312 C 18.234375 30.847656 18.226562 30.886719 18.222656 30.941406 C 18.222656 30.988281 18.21875 31.070312 18.210938 31.183594 C 18.203125 31.300781 18.191406 31.429688 18.171875 31.578125 C 18.152344 31.726562 18.125 31.871094 18.101562 32.015625 C 18.074219 32.15625 18.042969 32.277344 18.011719 32.378906 C 17.96875 32.519531 17.917969 32.660156 17.859375 32.792969 C 17.804688 32.929688 17.738281 33.066406 17.65625 33.199219 C 17.898438 33.664062 18.265625 34.046875 18.757812 34.34375 C 18.710938 34.390625 18.671875 34.4375 18.648438 34.476562 C 18.621094 34.515625 18.589844 34.566406 18.554688 34.628906 C 18.398438 34.519531 18.273438 34.421875 18.171875 34.335938 C 18.074219 34.242188 17.972656 34.128906 17.859375 34 C 17.777344 33.90625 17.710938 33.824219 17.65625 33.746094 C 17.601562 33.664062 17.542969 33.570312 17.484375 33.464844 C 17.28125 33.726562 17.050781 33.957031 16.785156 34.152344 C 16.523438 34.34375 16.203125 34.511719 15.824219 34.667969 C 15.804688 34.613281 15.777344 34.5625 15.742188 34.515625 C 15.707031 34.46875 15.671875 34.429688 15.632812 34.394531 C 15.828125 34.320312 15.992188 34.25 16.128906 34.183594 C 16.269531 34.117188 16.402344 34.039062 16.53125 33.949219 C 16.855469 33.734375 17.121094 33.480469 17.324219 33.191406 C 17.523438 32.894531 17.671875 32.546875 17.765625 32.15625 C 17.859375 31.769531 17.910156 31.375 17.910156 30.960938 C 17.910156 30.898438 17.910156 30.855469 17.910156 30.828125 C 17.910156 30.804688 17.902344 30.769531 17.898438 30.726562 Z M 15.148438 33.625 L 15.125 31.214844 C 15.125 31.121094 15.121094 31.039062 15.117188 30.96875 C 15.117188 30.898438 15.109375 30.820312 15.097656 30.738281 L 15.449219 30.738281 C 15.433594 30.859375 15.429688 31 15.429688 31.164062 L 15.429688 31.214844 L 15.449219 33.503906 C 15.570312 33.457031 15.675781 33.417969 15.765625 33.382812 C 15.851562 33.339844 15.941406 33.296875 16.039062 33.25 C 16.21875 33.164062 16.363281 33.089844 16.472656 33.027344 C 16.578125 32.964844 16.667969 32.914062 16.734375 32.867188 L 16.785156 33.148438 C 16.609375 33.257812 16.433594 33.359375 16.25 33.453125 C 16.074219 33.542969 15.886719 33.628906 15.695312 33.714844 C 15.496094 33.804688 15.273438 33.898438 15.027344 33.992188 C 14.957031 34.019531 14.90625 34.039062 14.875 34.050781 C 14.839844 34.066406 14.796875 34.082031 14.753906 34.101562 L 14.652344 33.777344 C 14.753906 33.753906 14.835938 33.726562 14.90625 33.707031 C 14.976562 33.6875 15.058594 33.660156 15.148438 33.625 Z M 16.027344 31.214844 L 16.28125 31.042969 C 16.402344 31.164062 16.503906 31.28125 16.59375 31.386719 C 16.6875 31.488281 16.777344 31.597656 16.855469 31.710938 C 16.941406 31.828125 17.042969 31.964844 17.160156 32.125 L 16.886719 32.316406 C 16.8125 32.191406 16.746094 32.082031 16.683594 31.992188 C 16.625 31.898438 16.558594 31.816406 16.492188 31.742188 C 16.433594 31.660156 16.363281 31.578125 16.289062 31.496094 C 16.214844 31.410156 16.128906 31.316406 16.027344 31.214844 Z M 16.027344 31.214844 " fill-opacity="1" fill-rule="nonzero"/></g><g clip-path="url(#420cc667cf)"><path fill="#00bf63" d="M 21.230469 32.339844 L 21.230469 34.171875 L 22.707031 34.171875 C 22.816406 34.171875 22.90625 34.171875 22.980469 34.171875 C 23.0625 34.167969 23.136719 34.15625 23.214844 34.140625 L 23.214844 34.488281 C 23.132812 34.472656 23.050781 34.460938 22.972656 34.457031 C 22.890625 34.457031 22.800781 34.457031 22.707031 34.457031 L 19.703125 34.457031 C 19.609375 34.457031 19.515625 34.457031 19.429688 34.457031 C 19.34375 34.460938 19.253906 34.472656 19.167969 34.488281 L 19.167969 34.140625 C 19.25 34.15625 19.328125 34.167969 19.410156 34.171875 C 19.496094 34.171875 19.59375 34.171875 19.703125 34.171875 L 20.917969 34.171875 L 20.917969 31.121094 C 20.917969 30.957031 20.902344 30.796875 20.878906 30.65625 L 21.261719 30.65625 C 21.242188 30.796875 21.230469 30.957031 21.230469 31.121094 L 21.230469 32.042969 L 22.375 32.042969 C 22.46875 32.042969 22.550781 32.042969 22.628906 32.042969 C 22.707031 32.039062 22.777344 32.03125 22.839844 32.023438 L 22.839844 32.367188 C 22.773438 32.363281 22.699219 32.355469 22.628906 32.347656 C 22.550781 32.34375 22.46875 32.339844 22.375 32.339844 Z M 21.230469 32.339844 " fill-opacity="1" fill-rule="nonzero"/></g><g clip-path="url(#a6b7e06b25)"><path fill="#00bf63" d="M 25.929688 31.34375 C 25.910156 31.554688 25.875 31.769531 25.828125 31.984375 C 25.789062 32.203125 25.738281 32.410156 25.675781 32.613281 C 25.621094 32.808594 25.558594 32.984375 25.484375 33.140625 C 25.355469 33.441406 25.222656 33.664062 25.078125 33.808594 C 24.941406 33.945312 24.796875 34.011719 24.632812 34.011719 C 24.492188 34.011719 24.363281 33.964844 24.25 33.867188 C 24.132812 33.765625 24.042969 33.636719 23.976562 33.472656 C 23.917969 33.304688 23.886719 33.117188 23.886719 32.90625 C 23.886719 32.679688 23.925781 32.453125 24.007812 32.238281 C 24.09375 32.023438 24.210938 31.828125 24.359375 31.660156 C 24.726562 31.261719 25.210938 31.0625 25.816406 31.0625 C 26.066406 31.0625 26.296875 31.101562 26.515625 31.183594 C 26.730469 31.257812 26.914062 31.367188 27.0625 31.507812 C 27.203125 31.644531 27.308594 31.808594 27.386719 32.003906 C 27.460938 32.195312 27.496094 32.398438 27.496094 32.613281 C 27.496094 32.957031 27.40625 33.269531 27.222656 33.542969 C 27.042969 33.824219 26.789062 34.03125 26.464844 34.171875 C 26.363281 34.214844 26.261719 34.25 26.160156 34.285156 C 26.0625 34.3125 25.933594 34.34375 25.777344 34.375 C 25.757812 34.300781 25.738281 34.25 25.71875 34.214844 C 25.695312 34.171875 25.660156 34.128906 25.617188 34.070312 C 25.78125 34.046875 25.925781 34.015625 26.039062 33.980469 C 26.15625 33.945312 26.265625 33.90625 26.375 33.859375 C 26.621094 33.746094 26.820312 33.574219 26.960938 33.351562 C 27.101562 33.125 27.171875 32.871094 27.171875 32.59375 C 27.171875 32.335938 27.109375 32.109375 26.980469 31.914062 C 26.859375 31.71875 26.683594 31.566406 26.457031 31.457031 C 26.367188 31.425781 26.285156 31.402344 26.210938 31.386719 C 26.136719 31.367188 26.042969 31.351562 25.929688 31.34375 Z M 25.605469 31.355469 C 25.46875 31.371094 25.347656 31.394531 25.242188 31.425781 C 25.140625 31.453125 25.039062 31.503906 24.9375 31.566406 C 24.707031 31.707031 24.527344 31.890625 24.390625 32.136719 C 24.261719 32.375 24.199219 32.632812 24.199219 32.917969 C 24.199219 33.058594 24.214844 33.1875 24.25 33.300781 C 24.289062 33.417969 24.34375 33.507812 24.410156 33.574219 C 24.476562 33.644531 24.554688 33.675781 24.632812 33.675781 C 24.816406 33.675781 25 33.460938 25.191406 33.027344 C 25.257812 32.886719 25.316406 32.722656 25.371094 32.542969 C 25.425781 32.355469 25.472656 32.15625 25.515625 31.953125 C 25.554688 31.746094 25.585938 31.546875 25.605469 31.355469 Z M 25.605469 31.355469 " fill-opacity="1" fill-rule="nonzero"/></g><g clip-path="url(#c668bee207)"><path fill="#00bf63" d="M 29.324219 31.0625 L 29.695312 31.121094 C 29.6875 31.15625 29.679688 31.191406 29.675781 31.222656 C 29.667969 31.257812 29.660156 31.332031 29.644531 31.4375 C 29.578125 31.863281 29.496094 32.246094 29.394531 32.59375 C 29.292969 32.929688 29.164062 33.234375 29.007812 33.503906 C 28.851562 33.773438 28.667969 34.027344 28.453125 34.253906 C 28.390625 34.191406 28.34375 34.148438 28.3125 34.121094 C 28.273438 34.097656 28.226562 34.0625 28.160156 34.019531 C 28.300781 33.886719 28.421875 33.753906 28.523438 33.617188 C 28.625 33.480469 28.71875 33.320312 28.816406 33.128906 C 29.042969 32.671875 29.199219 32.144531 29.28125 31.558594 C 29.292969 31.464844 29.304688 31.378906 29.3125 31.304688 C 29.316406 31.230469 29.324219 31.171875 29.324219 31.132812 C 29.324219 31.128906 29.324219 31.117188 29.324219 31.101562 C 29.324219 31.089844 29.324219 31.078125 29.324219 31.0625 Z M 30.617188 31.121094 L 30.949219 31.0625 C 30.949219 31.136719 30.960938 31.234375 30.980469 31.355469 C 31 31.476562 31.023438 31.605469 31.050781 31.742188 C 31.085938 31.878906 31.125 32.011719 31.164062 32.144531 C 31.378906 32.953125 31.71875 33.570312 32.183594 34.011719 C 32.117188 34.050781 32.066406 34.089844 32.035156 34.121094 C 32 34.148438 31.957031 34.199219 31.902344 34.265625 C 31.753906 34.101562 31.617188 33.929688 31.496094 33.746094 C 31.382812 33.558594 31.265625 33.339844 31.152344 33.089844 C 31.042969 32.84375 30.949219 32.585938 30.871094 32.308594 C 30.789062 32.023438 30.722656 31.730469 30.679688 31.425781 C 30.664062 31.339844 30.652344 31.28125 30.648438 31.242188 C 30.640625 31.203125 30.628906 31.164062 30.617188 31.121094 Z M 31.738281 30.828125 C 31.867188 30.828125 31.976562 30.875 32.0625 30.96875 C 32.15625 31.058594 32.207031 31.167969 32.207031 31.292969 C 32.207031 31.425781 32.15625 31.53125 32.0625 31.617188 C 31.976562 31.707031 31.867188 31.75 31.738281 31.75 C 31.609375 31.75 31.5 31.707031 31.40625 31.617188 C 31.316406 31.53125 31.273438 31.425781 31.273438 31.292969 C 31.273438 31.167969 31.316406 31.058594 31.40625 30.96875 C 31.5 30.875 31.609375 30.828125 31.738281 30.828125 Z M 31.738281 31.019531 C 31.664062 31.019531 31.601562 31.050781 31.546875 31.101562 C 31.492188 31.148438 31.46875 31.214844 31.46875 31.292969 C 31.46875 31.371094 31.492188 31.433594 31.546875 31.488281 C 31.601562 31.542969 31.664062 31.566406 31.738281 31.566406 C 31.820312 31.566406 31.882812 31.542969 31.933594 31.488281 C 31.984375 31.433594 32.011719 31.371094 32.011719 31.292969 C 32.011719 31.214844 31.984375 31.148438 31.933594 31.101562 C 31.882812 31.050781 31.820312 31.019531 31.738281 31.019531 Z M 31.738281 31.019531 " fill-opacity="1" fill-rule="nonzero"/></g><g clip-path="url(#fc115839fb)"><path fill="#00bf63" d="M 36.527344 34.101562 L 36.265625 34.386719 C 36.089844 34.15625 35.875 33.925781 35.628906 33.6875 C 35.386719 33.441406 35.117188 33.210938 34.828125 32.988281 C 34.722656 33.109375 34.621094 33.21875 34.527344 33.3125 C 34.4375 33.398438 34.347656 33.484375 34.261719 33.566406 C 34.175781 33.640625 34.074219 33.714844 33.96875 33.796875 C 33.808594 33.914062 33.660156 34.011719 33.523438 34.089844 C 33.394531 34.171875 33.246094 34.257812 33.078125 34.34375 C 33.042969 34.269531 33.015625 34.21875 32.988281 34.183594 C 32.960938 34.148438 32.917969 34.101562 32.855469 34.039062 C 32.976562 33.996094 33.082031 33.945312 33.171875 33.898438 C 33.265625 33.851562 33.359375 33.796875 33.453125 33.738281 C 33.546875 33.675781 33.65625 33.605469 33.777344 33.523438 C 34.132812 33.253906 34.449219 32.945312 34.71875 32.601562 C 34.992188 32.253906 35.214844 31.878906 35.386719 31.488281 C 35.390625 31.46875 35.394531 31.457031 35.394531 31.457031 C 35.402344 31.453125 35.40625 31.441406 35.40625 31.425781 C 35.410156 31.421875 35.417969 31.410156 35.425781 31.394531 C 35.398438 31.402344 35.359375 31.40625 35.316406 31.40625 L 33.808594 31.425781 C 33.707031 31.425781 33.617188 31.429688 33.542969 31.4375 C 33.476562 31.445312 33.410156 31.453125 33.34375 31.457031 L 33.332031 31.09375 C 33.394531 31.105469 33.445312 31.117188 33.496094 31.121094 C 33.546875 31.121094 33.609375 31.121094 33.6875 31.121094 C 33.691406 31.121094 33.707031 31.121094 33.726562 31.121094 C 33.746094 31.121094 33.773438 31.121094 33.808594 31.121094 L 35.417969 31.101562 C 35.496094 31.097656 35.554688 31.09375 35.589844 31.09375 C 35.628906 31.085938 35.667969 31.078125 35.710938 31.0625 L 35.890625 31.253906 C 35.871094 31.28125 35.851562 31.3125 35.832031 31.34375 C 35.8125 31.378906 35.789062 31.425781 35.769531 31.476562 C 35.640625 31.761719 35.519531 32 35.40625 32.195312 C 35.289062 32.386719 35.164062 32.570312 35.023438 32.742188 C 35.222656 32.894531 35.40625 33.039062 35.566406 33.179688 C 35.730469 33.316406 35.882812 33.457031 36.035156 33.605469 C 36.1875 33.753906 36.351562 33.917969 36.527344 34.101562 Z M 36.527344 34.101562 " fill-opacity="1" fill-rule="nonzero"/></g><g clip-path="url(#44060e0e81)"><path fill="#000000" d="M 0.25 10.789062 L 26.527344 10.789062 L 26.527344 11.273438 L 0.25 11.273438 Z M 0.25 10.789062 " fill-opacity="1" fill-rule="nonzero"/></g><g clip-path="url(#719620560a)"><path fill="#000000" d="M 1.210938 6.484375 L 1.210938 8.199219 C 1.210938 8.226562 1.226562 8.242188 1.261719 8.25 C 1.441406 8.277344 1.652344 8.289062 1.886719 8.289062 C 2.273438 8.289062 2.566406 8.207031 2.769531 8.046875 C 2.972656 7.878906 3.070312 7.636719 3.070312 7.328125 C 3.070312 7.015625 2.972656 6.785156 2.769531 6.628906 C 2.570312 6.464844 2.277344 6.382812 1.886719 6.382812 C 1.679688 6.382812 1.46875 6.398438 1.261719 6.425781 C 1.226562 6.433594 1.210938 6.453125 1.210938 6.484375 Z M 1.210938 8.675781 L 1.210938 10.074219 C 1.210938 10.132812 1.183594 10.1875 1.140625 10.234375 C 1.097656 10.28125 1.042969 10.304688 0.976562 10.304688 C 0.910156 10.304688 0.851562 10.28125 0.804688 10.234375 C 0.765625 10.1875 0.746094 10.132812 0.746094 10.074219 L 0.746094 6.425781 C 0.746094 6.332031 0.777344 6.25 0.835938 6.179688 C 0.898438 6.109375 0.972656 6.066406 1.070312 6.050781 C 1.363281 6.015625 1.648438 6 1.917969 6 C 2.445312 6 2.84375 6.109375 3.113281 6.332031 C 3.386719 6.554688 3.527344 6.878906 3.527344 7.296875 C 3.527344 7.742188 3.386719 8.082031 3.113281 8.320312 C 2.84375 8.550781 2.445312 8.664062 1.917969 8.664062 C 1.707031 8.664062 1.488281 8.652344 1.261719 8.632812 C 1.226562 8.632812 1.210938 8.648438 1.210938 8.675781 Z M 1.210938 8.675781 " fill-opacity="1" fill-rule="nonzero"/></g><path fill="#000000" d="M 5.714844 8.714844 C 5.3125 8.714844 4.996094 8.78125 4.773438 8.917969 C 4.550781 9.054688 4.441406 9.238281 4.441406 9.476562 C 4.441406 9.652344 4.496094 9.789062 4.601562 9.890625 C 4.710938 9.988281 4.855469 10.03125 5.039062 10.03125 C 5.304688 10.03125 5.539062 9.9375 5.738281 9.75 C 5.929688 9.554688 6.03125 9.316406 6.03125 9.039062 L 6.03125 8.765625 C 6.03125 8.730469 6.011719 8.714844 5.980469 8.714844 Z M 4.9375 10.367188 C 4.660156 10.367188 4.4375 10.289062 4.269531 10.132812 C 4.109375 9.972656 4.027344 9.757812 4.027344 9.496094 C 4.027344 9.15625 4.171875 8.890625 4.460938 8.695312 C 4.757812 8.492188 5.175781 8.390625 5.714844 8.390625 L 5.980469 8.390625 C 6.011719 8.390625 6.03125 8.375 6.03125 8.339844 C 6.023438 8.054688 5.960938 7.859375 5.847656 7.742188 C 5.738281 7.628906 5.546875 7.570312 5.269531 7.570312 C 4.988281 7.570312 4.699219 7.636719 4.410156 7.761719 C 4.371094 7.777344 4.332031 7.777344 4.289062 7.761719 C 4.25 7.742188 4.222656 7.707031 4.21875 7.660156 C 4.203125 7.613281 4.207031 7.566406 4.230469 7.519531 C 4.253906 7.472656 4.292969 7.4375 4.339844 7.417969 C 4.636719 7.289062 4.945312 7.226562 5.269531 7.226562 C 5.695312 7.226562 6 7.3125 6.179688 7.488281 C 6.363281 7.660156 6.453125 7.945312 6.453125 8.351562 L 6.453125 9.496094 C 6.453125 9.691406 6.46875 9.894531 6.503906 10.101562 C 6.511719 10.160156 6.496094 10.203125 6.464844 10.246094 C 6.429688 10.285156 6.386719 10.304688 6.332031 10.304688 C 6.273438 10.304688 6.21875 10.289062 6.171875 10.253906 C 6.132812 10.214844 6.105469 10.164062 6.101562 10.101562 C 6.085938 10.03125 6.074219 9.921875 6.070312 9.777344 C 6.070312 9.773438 6.070312 9.769531 6.070312 9.769531 C 6.0625 9.769531 6.058594 9.773438 6.058594 9.777344 C 5.953125 9.960938 5.800781 10.109375 5.605469 10.214844 C 5.40625 10.316406 5.183594 10.367188 4.9375 10.367188 Z M 4.9375 10.367188 " fill-opacity="1" fill-rule="nonzero"/><path fill="#000000" d="M 8.316406 10.011719 C 8.539062 10.011719 8.710938 9.96875 8.832031 9.878906 C 8.953125 9.792969 9.015625 9.667969 9.015625 9.503906 C 9.015625 9.351562 8.960938 9.230469 8.851562 9.152344 C 8.746094 9.0625 8.554688 8.996094 8.285156 8.949219 C 7.902344 8.882812 7.625 8.777344 7.457031 8.632812 C 7.289062 8.488281 7.203125 8.285156 7.203125 8.035156 C 7.203125 7.789062 7.300781 7.589844 7.496094 7.449219 C 7.691406 7.300781 7.964844 7.226562 8.316406 7.226562 C 8.621094 7.226562 8.90625 7.28125 9.175781 7.386719 C 9.222656 7.40625 9.257812 7.441406 9.277344 7.488281 C 9.304688 7.527344 9.308594 7.578125 9.289062 7.628906 C 9.273438 7.671875 9.246094 7.707031 9.207031 7.730469 C 9.167969 7.753906 9.125 7.753906 9.085938 7.730469 C 8.835938 7.625 8.578125 7.570312 8.316406 7.570312 C 8.085938 7.570312 7.910156 7.609375 7.789062 7.691406 C 7.675781 7.773438 7.617188 7.890625 7.617188 8.035156 C 7.617188 8.175781 7.667969 8.289062 7.769531 8.371094 C 7.875 8.453125 8.066406 8.515625 8.335938 8.5625 C 8.734375 8.632812 9.015625 8.738281 9.1875 8.886719 C 9.359375 9.035156 9.449219 9.242188 9.449219 9.503906 C 9.449219 9.769531 9.347656 9.980469 9.144531 10.132812 C 8.949219 10.289062 8.671875 10.367188 8.316406 10.367188 C 7.964844 10.367188 7.648438 10.300781 7.367188 10.164062 C 7.316406 10.136719 7.28125 10.101562 7.253906 10.050781 C 7.234375 10 7.230469 9.949219 7.246094 9.898438 C 7.257812 9.859375 7.285156 9.828125 7.324219 9.808594 C 7.371094 9.789062 7.410156 9.789062 7.445312 9.808594 C 7.730469 9.945312 8.019531 10.011719 8.316406 10.011719 Z M 8.316406 10.011719 " fill-opacity="1" fill-rule="nonzero"/><path fill="#000000" d="M 11.195312 10.011719 C 11.417969 10.011719 11.589844 9.96875 11.710938 9.878906 C 11.832031 9.792969 11.894531 9.667969 11.894531 9.503906 C 11.894531 9.351562 11.839844 9.230469 11.734375 9.152344 C 11.625 9.0625 11.433594 8.996094 11.167969 8.949219 C 10.78125 8.882812 10.503906 8.777344 10.335938 8.632812 C 10.167969 8.488281 10.082031 8.285156 10.082031 8.035156 C 10.082031 7.789062 10.179688 7.589844 10.378906 7.449219 C 10.570312 7.300781 10.84375 7.226562 11.195312 7.226562 C 11.5 7.226562 11.785156 7.28125 12.054688 7.386719 C 12.101562 7.40625 12.136719 7.441406 12.15625 7.488281 C 12.183594 7.527344 12.1875 7.578125 12.167969 7.628906 C 12.152344 7.671875 12.128906 7.707031 12.085938 7.730469 C 12.046875 7.753906 12.007812 7.753906 11.964844 7.730469 C 11.714844 7.625 11.460938 7.570312 11.195312 7.570312 C 10.964844 7.570312 10.792969 7.609375 10.671875 7.691406 C 10.554688 7.773438 10.5 7.890625 10.5 8.035156 C 10.5 8.175781 10.550781 8.289062 10.648438 8.371094 C 10.757812 8.453125 10.945312 8.515625 11.21875 8.5625 C 11.613281 8.632812 11.898438 8.738281 12.066406 8.886719 C 12.242188 9.035156 12.328125 9.242188 12.328125 9.503906 C 12.328125 9.769531 12.226562 9.980469 12.027344 10.132812 C 11.828125 10.289062 11.554688 10.367188 11.195312 10.367188 C 10.84375 10.367188 10.527344 10.300781 10.246094 10.164062 C 10.199219 10.136719 10.160156 10.101562 10.132812 10.050781 C 10.113281 10 10.109375 9.949219 10.125 9.898438 C 10.136719 9.859375 10.164062 9.828125 10.207031 9.808594 C 10.25 9.789062 10.292969 9.789062 10.328125 9.808594 C 10.609375 9.945312 10.898438 10.011719 11.195312 10.011719 Z M 11.195312 10.011719 " fill-opacity="1" fill-rule="nonzero"/><path fill="#000000" d="M 14.21875 10.226562 C 14.148438 10.28125 14.070312 10.304688 13.984375 10.304688 C 13.90625 10.304688 13.828125 10.28125 13.761719 10.234375 C 13.695312 10.179688 13.652344 10.109375 13.632812 10.023438 L 12.902344 7.507812 C 12.886719 7.449219 12.898438 7.398438 12.933594 7.355469 C 12.972656 7.3125 13.023438 7.285156 13.085938 7.285156 C 13.152344 7.285156 13.210938 7.3125 13.265625 7.355469 C 13.320312 7.398438 13.359375 7.449219 13.378906 7.507812 L 13.984375 9.921875 C 13.992188 9.921875 13.996094 9.921875 13.996094 9.921875 L 14.570312 7.570312 C 14.585938 7.488281 14.625 7.421875 14.695312 7.367188 C 14.765625 7.3125 14.847656 7.285156 14.9375 7.285156 C 15.03125 7.285156 15.109375 7.3125 15.179688 7.367188 C 15.246094 7.421875 15.289062 7.488281 15.3125 7.570312 L 15.878906 9.921875 C 15.878906 9.921875 15.878906 9.921875 15.886719 9.921875 C 15.890625 9.921875 15.898438 9.921875 15.898438 9.921875 L 16.503906 7.5 C 16.523438 7.4375 16.558594 7.386719 16.617188 7.347656 C 16.667969 7.304688 16.730469 7.285156 16.796875 7.285156 C 16.859375 7.285156 16.902344 7.3125 16.929688 7.355469 C 16.960938 7.398438 16.972656 7.445312 16.960938 7.5 L 16.242188 10.023438 C 16.214844 10.109375 16.164062 10.179688 16.101562 10.234375 C 16.03125 10.28125 15.953125 10.304688 15.867188 10.304688 C 15.785156 10.304688 15.710938 10.28125 15.644531 10.226562 C 15.578125 10.171875 15.535156 10.101562 15.511719 10.023438 L 14.9375 7.710938 C 14.9375 7.707031 14.929688 7.703125 14.925781 7.703125 C 14.925781 7.703125 14.925781 7.707031 14.925781 7.710938 L 14.347656 10.023438 C 14.328125 10.101562 14.285156 10.171875 14.21875 10.226562 Z M 14.21875 10.226562 " fill-opacity="1" fill-rule="nonzero"/><path fill="#000000" d="M 19.605469 7.894531 C 19.425781 7.679688 19.183594 7.570312 18.875 7.570312 C 18.570312 7.570312 18.332031 7.679688 18.15625 7.894531 C 17.980469 8.113281 17.894531 8.410156 17.894531 8.796875 C 17.894531 9.179688 17.980469 9.480469 18.15625 9.699219 C 18.332031 9.90625 18.570312 10.011719 18.875 10.011719 C 19.183594 10.011719 19.425781 9.90625 19.605469 9.699219 C 19.777344 9.480469 19.867188 9.179688 19.867188 8.796875 C 19.867188 8.410156 19.777344 8.113281 19.605469 7.894531 Z M 19.90625 9.941406 C 19.648438 10.226562 19.304688 10.367188 18.875 10.367188 C 18.449219 10.367188 18.105469 10.226562 17.84375 9.941406 C 17.585938 9.65625 17.460938 9.277344 17.460938 8.796875 C 17.460938 8.316406 17.585938 7.933594 17.84375 7.652344 C 18.105469 7.367188 18.449219 7.226562 18.875 7.226562 C 19.304688 7.226562 19.648438 7.367188 19.90625 7.652344 C 20.171875 7.933594 20.300781 8.316406 20.300781 8.796875 C 20.300781 9.277344 20.171875 9.65625 19.90625 9.941406 Z M 19.90625 9.941406 " fill-opacity="1" fill-rule="nonzero"/><path fill="#000000" d="M 21.40625 8.867188 L 21.40625 10.09375 C 21.40625 10.152344 21.382812 10.203125 21.335938 10.246094 C 21.296875 10.285156 21.246094 10.304688 21.183594 10.304688 C 21.121094 10.304688 21.074219 10.285156 21.03125 10.246094 C 20.992188 10.203125 20.972656 10.152344 20.972656 10.09375 L 20.972656 7.488281 C 20.972656 7.433594 20.992188 7.386719 21.03125 7.347656 C 21.074219 7.304688 21.117188 7.285156 21.171875 7.285156 C 21.234375 7.285156 21.285156 7.304688 21.324219 7.347656 C 21.367188 7.386719 21.386719 7.433594 21.386719 7.488281 L 21.394531 7.925781 C 21.402344 7.925781 21.40625 7.925781 21.40625 7.925781 C 21.710938 7.507812 22.128906 7.273438 22.671875 7.226562 C 22.714844 7.226562 22.757812 7.242188 22.792969 7.277344 C 22.824219 7.3125 22.84375 7.355469 22.84375 7.40625 C 22.84375 7.457031 22.824219 7.496094 22.792969 7.527344 C 22.765625 7.566406 22.722656 7.585938 22.671875 7.601562 C 22.285156 7.636719 21.976562 7.769531 21.75 8.003906 C 21.519531 8.234375 21.40625 8.523438 21.40625 8.867188 Z M 21.40625 8.867188 " fill-opacity="1" fill-rule="nonzero"/><path fill="#000000" d="M 24.746094 7.570312 C 24.460938 7.570312 24.238281 7.679688 24.078125 7.894531 C 23.921875 8.105469 23.84375 8.40625 23.84375 8.796875 C 23.84375 9.1875 23.925781 9.488281 24.085938 9.699219 C 24.25 9.90625 24.464844 10.011719 24.746094 10.011719 C 25.007812 10.011719 25.21875 9.910156 25.382812 9.707031 C 25.550781 9.5 25.636719 9.207031 25.636719 8.835938 L 25.636719 8.753906 C 25.636719 8.386719 25.550781 8.09375 25.382812 7.882812 C 25.21875 7.675781 25.007812 7.570312 24.746094 7.570312 Z M 24.644531 10.367188 C 24.273438 10.367188 23.976562 10.230469 23.753906 9.960938 C 23.535156 9.683594 23.429688 9.296875 23.429688 8.796875 C 23.429688 8.289062 23.535156 7.902344 23.753906 7.628906 C 23.96875 7.363281 24.265625 7.226562 24.644531 7.226562 C 25.074219 7.226562 25.398438 7.40625 25.613281 7.761719 C 25.613281 7.769531 25.617188 7.773438 25.625 7.773438 C 25.628906 7.773438 25.636719 7.773438 25.636719 7.773438 L 25.636719 6.160156 C 25.636719 6.101562 25.65625 6.050781 25.695312 6.007812 C 25.742188 5.964844 25.792969 5.9375 25.847656 5.9375 C 25.90625 5.9375 25.957031 5.964844 26 6.007812 C 26.039062 6.050781 26.058594 6.101562 26.058594 6.160156 L 26.058594 10.101562 C 26.058594 10.160156 26.039062 10.203125 26 10.246094 C 25.957031 10.285156 25.910156 10.304688 25.859375 10.304688 C 25.800781 10.304688 25.757812 10.285156 25.714844 10.246094 C 25.675781 10.203125 25.65625 10.160156 25.65625 10.101562 L 25.644531 9.800781 C 25.644531 9.792969 25.644531 9.789062 25.644531 9.789062 C 25.628906 9.789062 25.625 9.792969 25.625 9.800781 C 25.414062 10.179688 25.089844 10.367188 24.644531 10.367188 Z M 24.644531 10.367188 " fill-opacity="1" fill-rule="nonzero"/><path fill="#737373" d="M 14.507812 24.15625 L 14.050781 24.15625 C 14.0625 24.054688 14.074219 23.957031 14.082031 23.871094 C 14.085938 23.789062 14.09375 23.6875 14.09375 23.566406 L 14.09375 22.929688 C 14.09375 22.855469 14.09375 22.792969 14.09375 22.746094 C 14.097656 22.691406 14.105469 22.632812 14.113281 22.5625 C 13.871094 22.9375 13.519531 23.121094 13.058594 23.121094 C 12.667969 23.121094 12.355469 22.996094 12.121094 22.734375 C 11.890625 22.480469 11.773438 22.128906 11.773438 21.683594 C 11.773438 21.386719 11.828125 21.128906 11.9375 20.910156 C 12.042969 20.695312 12.191406 20.53125 12.382812 20.414062 C 12.570312 20.292969 12.792969 20.234375 13.050781 20.234375 C 13.527344 20.234375 13.882812 20.421875 14.113281 20.789062 C 14.105469 20.746094 14.097656 20.707031 14.09375 20.679688 C 14.09375 20.652344 14.09375 20.617188 14.09375 20.578125 L 14.09375 20.285156 L 14.507812 20.285156 C 14.492188 20.378906 14.480469 20.472656 14.476562 20.558594 C 14.476562 20.644531 14.476562 20.753906 14.476562 20.882812 L 14.476562 23.578125 C 14.476562 23.785156 14.488281 23.976562 14.507812 24.15625 Z M 12.179688 21.683594 C 12.179688 22.027344 12.261719 22.296875 12.421875 22.492188 C 12.585938 22.683594 12.800781 22.777344 13.082031 22.777344 C 13.382812 22.777344 13.625 22.675781 13.808594 22.472656 C 13.992188 22.269531 14.082031 22 14.082031 21.660156 C 14.082031 21.332031 13.992188 21.070312 13.808594 20.871094 C 13.632812 20.667969 13.398438 20.566406 13.109375 20.566406 C 12.820312 20.566406 12.589844 20.667969 12.421875 20.859375 C 12.261719 21.058594 12.179688 21.332031 12.179688 21.683594 Z M 12.179688 21.683594 " fill-opacity="1" fill-rule="nonzero"/><path fill="#737373" d="M 17.921875 23.070312 L 17.566406 23.070312 C 17.546875 22.964844 17.511719 22.835938 17.464844 22.683594 L 16.960938 21.175781 C 16.960938 21.164062 16.949219 21.128906 16.929688 21.074219 C 16.914062 21.019531 16.894531 20.949219 16.871094 20.851562 C 16.847656 20.925781 16.828125 20.992188 16.808594 21.054688 C 16.792969 21.113281 16.785156 21.160156 16.777344 21.183594 L 16.273438 22.683594 C 16.21875 22.84375 16.183594 22.96875 16.160156 23.070312 L 15.808594 23.070312 C 15.792969 23.023438 15.78125 22.988281 15.777344 22.96875 C 15.769531 22.945312 15.757812 22.910156 15.746094 22.867188 C 15.738281 22.820312 15.722656 22.757812 15.695312 22.675781 L 15.140625 20.890625 C 15.105469 20.796875 15.070312 20.695312 15.027344 20.585938 C 14.992188 20.472656 14.960938 20.371094 14.9375 20.285156 L 15.414062 20.285156 C 15.417969 20.445312 15.457031 20.636719 15.523438 20.851562 L 15.898438 22.136719 C 15.917969 22.179688 15.933594 22.230469 15.949219 22.289062 C 15.960938 22.351562 15.980469 22.425781 16 22.511719 C 16.011719 22.453125 16.03125 22.382812 16.050781 22.300781 C 16.074219 22.21875 16.09375 22.164062 16.101562 22.136719 L 16.597656 20.679688 C 16.621094 20.597656 16.648438 20.523438 16.667969 20.457031 C 16.6875 20.390625 16.699219 20.332031 16.699219 20.285156 L 17.042969 20.285156 C 17.046875 20.332031 17.0625 20.390625 17.082031 20.457031 C 17.101562 20.523438 17.121094 20.597656 17.144531 20.679688 L 17.636719 22.167969 C 17.644531 22.1875 17.652344 22.222656 17.667969 22.269531 C 17.679688 22.316406 17.695312 22.359375 17.710938 22.402344 C 17.722656 22.4375 17.730469 22.460938 17.730469 22.472656 C 17.734375 22.480469 17.738281 22.492188 17.738281 22.511719 C 17.765625 22.410156 17.785156 22.332031 17.800781 22.269531 C 17.8125 22.210938 17.820312 22.171875 17.820312 22.160156 L 18.203125 20.851562 C 18.246094 20.738281 18.269531 20.632812 18.285156 20.535156 C 18.304688 20.441406 18.320312 20.359375 18.328125 20.285156 L 18.792969 20.285156 C 18.773438 20.339844 18.742188 20.414062 18.710938 20.515625 C 18.675781 20.617188 18.636719 20.746094 18.589844 20.890625 L 18.03125 22.683594 C 17.996094 22.785156 17.976562 22.863281 17.960938 22.917969 C 17.945312 22.964844 17.933594 23.015625 17.921875 23.070312 Z M 17.921875 23.070312 " fill-opacity="1" fill-rule="nonzero"/><path fill="#737373" d="M 21.652344 21.734375 L 19.476562 21.734375 C 19.484375 21.910156 19.5 22.050781 19.527344 22.160156 C 19.5625 22.265625 19.613281 22.367188 19.691406 22.460938 C 19.855469 22.691406 20.101562 22.808594 20.417969 22.808594 C 20.835938 22.808594 21.121094 22.609375 21.269531 22.210938 L 21.621094 22.351562 C 21.574219 22.460938 21.53125 22.542969 21.492188 22.605469 C 21.449219 22.664062 21.398438 22.722656 21.339844 22.777344 C 21.097656 23.019531 20.785156 23.140625 20.410156 23.140625 C 20.136719 23.140625 19.90625 23.085938 19.710938 22.96875 C 19.511719 22.847656 19.359375 22.679688 19.246094 22.460938 C 19.136719 22.238281 19.082031 21.980469 19.082031 21.683594 C 19.082031 21.386719 19.136719 21.128906 19.246094 20.910156 C 19.351562 20.6875 19.5 20.515625 19.691406 20.394531 C 19.886719 20.273438 20.109375 20.210938 20.367188 20.210938 C 20.695312 20.210938 20.976562 20.3125 21.199219 20.515625 C 21.425781 20.71875 21.566406 20.992188 21.613281 21.335938 C 21.617188 21.367188 21.625 21.421875 21.632812 21.511719 C 21.636719 21.589844 21.644531 21.667969 21.652344 21.734375 Z M 19.5 21.410156 L 21.238281 21.410156 C 21.222656 21.265625 21.191406 21.144531 21.148438 21.042969 C 21.105469 20.941406 21.046875 20.855469 20.964844 20.78125 C 20.808594 20.625 20.605469 20.546875 20.359375 20.546875 C 20.195312 20.546875 20.050781 20.585938 19.921875 20.667969 C 19.800781 20.746094 19.699219 20.851562 19.621094 20.992188 C 19.585938 21.0625 19.558594 21.121094 19.539062 21.175781 C 19.523438 21.230469 19.511719 21.308594 19.5 21.410156 Z M 19.5 21.410156 " fill-opacity="1" fill-rule="nonzero"/><path fill="#737373" d="M 24.039062 20.285156 L 23.917969 20.679688 C 23.824219 20.652344 23.746094 20.636719 23.6875 20.628906 C 23.628906 20.617188 23.570312 20.609375 23.503906 20.609375 C 23.242188 20.609375 23.027344 20.714844 22.867188 20.921875 C 22.804688 21.003906 22.761719 21.082031 22.734375 21.15625 C 22.707031 21.222656 22.691406 21.316406 22.683594 21.4375 L 22.683594 22.492188 C 22.683594 22.609375 22.683594 22.710938 22.683594 22.796875 C 22.691406 22.878906 22.699219 22.96875 22.714844 23.070312 L 22.25 23.070312 C 22.261719 22.949219 22.273438 22.847656 22.28125 22.765625 C 22.285156 22.683594 22.289062 22.589844 22.289062 22.484375 L 22.289062 20.871094 C 22.289062 20.738281 22.285156 20.628906 22.28125 20.546875 C 22.273438 20.464844 22.261719 20.378906 22.25 20.285156 L 22.683594 20.285156 L 22.683594 20.578125 C 22.683594 20.597656 22.683594 20.625 22.683594 20.660156 C 22.683594 20.695312 22.679688 20.71875 22.675781 20.730469 C 22.71875 20.65625 22.765625 20.59375 22.804688 20.546875 C 22.851562 20.492188 22.902344 20.449219 22.957031 20.414062 C 23.058594 20.355469 23.15625 20.3125 23.25 20.285156 C 23.34375 20.25 23.453125 20.234375 23.574219 20.234375 C 23.65625 20.234375 23.726562 20.242188 23.789062 20.253906 C 23.847656 20.261719 23.929688 20.269531 24.039062 20.285156 Z M 24.039062 20.285156 " fill-opacity="1" fill-rule="nonzero"/><path fill="#737373" d="M 24.792969 19.511719 L 25.257812 19.511719 C 25.242188 19.59375 25.234375 19.683594 25.226562 19.777344 C 25.226562 19.875 25.226562 19.976562 25.226562 20.089844 L 25.226562 20.285156 L 25.46875 20.285156 C 25.59375 20.285156 25.683594 20.285156 25.753906 20.285156 C 25.828125 20.277344 25.90625 20.269531 25.996094 20.253906 L 25.996094 20.648438 C 25.914062 20.636719 25.835938 20.628906 25.753906 20.628906 C 25.679688 20.625 25.585938 20.617188 25.46875 20.617188 L 25.226562 20.617188 L 25.226562 22.410156 C 25.226562 22.554688 25.246094 22.644531 25.289062 22.683594 C 25.347656 22.746094 25.433594 22.777344 25.542969 22.777344 C 25.605469 22.777344 25.671875 22.765625 25.734375 22.746094 C 25.792969 22.726562 25.867188 22.691406 25.957031 22.644531 L 26.066406 23 C 25.957031 23.046875 25.859375 23.082031 25.773438 23.101562 C 25.683594 23.113281 25.585938 23.121094 25.480469 23.121094 C 25.25 23.121094 25.082031 23.066406 24.976562 22.957031 C 24.878906 22.863281 24.832031 22.699219 24.832031 22.460938 L 24.832031 20.617188 L 24.628906 20.617188 C 24.542969 20.617188 24.460938 20.625 24.386719 20.628906 C 24.320312 20.628906 24.246094 20.636719 24.164062 20.648438 L 24.164062 20.253906 C 24.230469 20.269531 24.300781 20.277344 24.367188 20.285156 C 24.433594 20.285156 24.523438 20.285156 24.628906 20.285156 L 24.832031 20.285156 L 24.832031 20.089844 C 24.832031 19.984375 24.828125 19.882812 24.824219 19.785156 C 24.816406 19.691406 24.804688 19.601562 24.792969 19.511719 Z M 24.792969 19.511719 " fill-opacity="1" fill-rule="nonzero"/><path fill="#737373" d="M 26.957031 19.523438 L 26.957031 19.117188 C 27.023438 19.125 27.089844 19.132812 27.148438 19.136719 C 27.210938 19.136719 27.285156 19.136719 27.382812 19.136719 L 27.714844 19.136719 C 27.800781 19.136719 27.871094 19.136719 27.929688 19.136719 C 27.980469 19.132812 28.050781 19.125 28.140625 19.117188 C 28.125 19.273438 28.113281 19.421875 28.101562 19.5625 C 28.09375 19.699219 28.089844 19.835938 28.089844 19.96875 L 28.089844 22.484375 C 28.089844 22.605469 28.09375 22.710938 28.101562 22.796875 C 28.105469 22.886719 28.117188 22.976562 28.132812 23.070312 L 27.644531 23.070312 C 27.65625 22.984375 27.667969 22.894531 27.675781 22.808594 C 27.679688 22.714844 27.6875 22.605469 27.6875 22.484375 L 27.6875 19.492188 L 27.402344 19.492188 C 27.320312 19.492188 27.242188 19.5 27.167969 19.503906 C 27.101562 19.511719 27.03125 19.519531 26.957031 19.523438 Z M 26.957031 19.523438 " fill-opacity="1" fill-rule="nonzero"/><path fill="#737373" d="M 31.957031 23.070312 L 30.390625 23.070312 C 30.28125 23.070312 30.195312 23.070312 30.136719 23.070312 C 30.074219 23.070312 30.019531 23.074219 29.972656 23.082031 C 29.925781 23.082031 29.875 23.085938 29.820312 23.089844 C 29.84375 22.957031 29.859375 22.851562 29.871094 22.777344 C 29.886719 22.703125 29.898438 22.640625 29.914062 22.59375 C 29.925781 22.539062 29.945312 22.480469 29.972656 22.410156 C 30.09375 22.09375 30.316406 21.796875 30.640625 21.519531 C 30.6875 21.488281 30.726562 21.457031 30.753906 21.429688 C 30.785156 21.402344 30.828125 21.371094 30.875 21.335938 C 30.925781 21.304688 30.996094 21.261719 31.078125 21.207031 C 31.164062 21.144531 31.28125 21.0625 31.429688 20.953125 C 31.6875 20.785156 31.867188 20.636719 31.96875 20.507812 C 32.066406 20.371094 32.117188 20.226562 32.117188 20.070312 C 32.117188 19.875 32.039062 19.722656 31.886719 19.605469 C 31.730469 19.484375 31.523438 19.421875 31.257812 19.421875 C 30.914062 19.421875 30.664062 19.535156 30.511719 19.757812 C 30.460938 19.824219 30.425781 19.894531 30.398438 19.96875 C 30.371094 20.046875 30.347656 20.148438 30.328125 20.285156 L 29.894531 20.203125 C 29.933594 20.019531 29.976562 19.875 30.023438 19.765625 C 30.070312 19.660156 30.136719 19.558594 30.214844 19.460938 C 30.453125 19.199219 30.796875 19.066406 31.257812 19.066406 C 31.523438 19.066406 31.746094 19.109375 31.9375 19.1875 C 32.125 19.269531 32.269531 19.390625 32.371094 19.542969 C 32.476562 19.691406 32.535156 19.867188 32.535156 20.070312 C 32.535156 20.335938 32.433594 20.578125 32.230469 20.800781 C 32.183594 20.859375 32.128906 20.917969 32.066406 20.972656 C 32.007812 21.019531 31.921875 21.082031 31.816406 21.15625 C 31.707031 21.230469 31.554688 21.335938 31.359375 21.46875 C 31.222656 21.558594 31.109375 21.640625 31.015625 21.710938 C 30.925781 21.78125 30.855469 21.84375 30.792969 21.90625 C 30.734375 21.964844 30.671875 22.035156 30.609375 22.109375 C 30.53125 22.210938 30.46875 22.304688 30.429688 22.390625 C 30.390625 22.472656 30.351562 22.578125 30.316406 22.707031 L 31.96875 22.707031 C 32.09375 22.707031 32.203125 22.703125 32.300781 22.695312 C 32.402344 22.691406 32.496094 22.679688 32.59375 22.664062 L 32.59375 23.101562 C 32.492188 23.089844 32.394531 23.082031 32.300781 23.082031 C 32.203125 23.074219 32.089844 23.070312 31.957031 23.070312 Z M 31.957031 23.070312 " fill-opacity="1" fill-rule="nonzero"/><g clip-path="url(#48d58888fe)"><path fill="#737373" d="M 33.140625 22.21875 L 33.578125 22.117188 C 33.617188 22.246094 33.65625 22.347656 33.699219 22.410156 C 33.742188 22.480469 33.808594 22.542969 33.890625 22.605469 C 34.066406 22.726562 34.289062 22.785156 34.558594 22.785156 C 34.855469 22.785156 35.089844 22.714844 35.265625 22.574219 C 35.441406 22.433594 35.53125 22.238281 35.53125 21.984375 C 35.53125 21.738281 35.4375 21.546875 35.257812 21.410156 C 35.078125 21.265625 34.820312 21.195312 34.476562 21.195312 C 34.402344 21.195312 34.332031 21.199219 34.265625 21.207031 C 34.195312 21.214844 34.128906 21.222656 34.0625 21.226562 L 34.0625 20.820312 C 34.183594 20.839844 34.3125 20.851562 34.445312 20.851562 C 34.792969 20.851562 35.039062 20.769531 35.195312 20.609375 C 35.261719 20.546875 35.3125 20.472656 35.347656 20.386719 C 35.386719 20.292969 35.410156 20.199219 35.410156 20.109375 C 35.410156 19.886719 35.332031 19.714844 35.1875 19.59375 C 35.035156 19.46875 34.835938 19.402344 34.578125 19.402344 C 34.261719 19.402344 34.03125 19.492188 33.890625 19.675781 C 33.855469 19.722656 33.824219 19.773438 33.800781 19.828125 C 33.78125 19.875 33.753906 19.949219 33.730469 20.050781 L 33.292969 19.949219 C 33.339844 19.824219 33.378906 19.722656 33.414062 19.644531 C 33.457031 19.570312 33.507812 19.5 33.578125 19.433594 C 33.804688 19.183594 34.144531 19.058594 34.597656 19.058594 C 34.976562 19.058594 35.273438 19.148438 35.488281 19.332031 C 35.710938 19.511719 35.824219 19.761719 35.824219 20.070312 C 35.824219 20.234375 35.789062 20.382812 35.722656 20.515625 C 35.660156 20.644531 35.574219 20.75 35.457031 20.832031 C 35.398438 20.878906 35.328125 20.917969 35.257812 20.941406 C 35.1875 20.960938 35.097656 20.988281 34.984375 21.011719 C 35.128906 21.027344 35.25 21.050781 35.335938 21.085938 C 35.429688 21.121094 35.523438 21.171875 35.609375 21.234375 C 35.839844 21.414062 35.953125 21.671875 35.953125 22.015625 C 35.953125 22.359375 35.828125 22.640625 35.582031 22.847656 C 35.328125 23.050781 34.988281 23.152344 34.558594 23.152344 C 34.039062 23.152344 33.652344 23.007812 33.40625 22.726562 C 33.347656 22.664062 33.304688 22.601562 33.261719 22.535156 C 33.226562 22.460938 33.1875 22.355469 33.140625 22.21875 Z M 33.140625 22.21875 " fill-opacity="1" fill-rule="nonzero"/></g></svg>