<svg xmlns="http://www.w3.org/2000/svg" xmlns:xlink="http://www.w3.org/1999/xlink" width="67" zoomAndPan="magnify" viewBox="0 0 50.25 50.249998" height="67" preserveAspectRatio="xMidYMid meet" version="1.0"><defs><clipPath id="d8e4033c01"><path d="M 0 0 L 49.511719 0 L 49.511719 49.511719 L 0 49.511719 Z M 0 0 " clip-rule="nonzero"/></clipPath><clipPath id="2e53c42e51"><path d="M 14.953125 7.246094 L 28.988281 7.246094 L 28.988281 15.164062 L 14.953125 15.164062 Z M 14.953125 7.246094 " clip-rule="nonzero"/></clipPath><clipPath id="ded8861383"><path d="M 0 0 L 48.773438 0 L 48.773438 48.773438 L 0 48.773438 Z M 0 0 " clip-rule="nonzero"/></clipPath><clipPath id="84b892fe22"><path d="M 8.347656 21.730469 L 48.773438 21.730469 L 48.773438 34.6875 L 8.347656 34.6875 Z M 8.347656 21.730469 " clip-rule="nonzero"/></clipPath><clipPath id="60708f308b"><path d="M 8.339844 48.234375 L 48.773438 48.234375 L 48.773438 48.773438 L 8.339844 48.773438 Z M 8.339844 48.234375 " clip-rule="nonzero"/></clipPath><clipPath id="4725fcfdbb"><path d="M 44 3 L 48.773438 3 L 48.773438 8 L 44 8 Z M 44 3 " clip-rule="nonzero"/></clipPath></defs><g clip-path="url(#d8e4033c01)"><path fill="#ffffff" d="M 0 0 L 49.511719 0 L 49.511719 49.511719 L 0 49.511719 Z M 0 0 " fill-opacity="1" fill-rule="nonzero"/></g><g clip-path="url(#2e53c42e51)"><path fill="#aaa9a9" d="M 14.953125 7.246094 L 28.996094 7.246094 L 28.996094 15.164062 L 14.953125 15.164062 Z M 14.953125 7.246094 " fill-opacity="1" fill-rule="nonzero"/></g><g clip-path="url(#ded8861383)"><rect x="-5.025" width="60.3" fill="#ffffff" y="-5.025" height="60.299998" fill-opacity="1"/><rect x="-5.025" width="60.3" fill="#ffffff" y="-5.025" height="60.299998" fill-opacity="1"/></g><g clip-path="url(#84b892fe22)"><path fill="#e6e6e6" d="M 8.347656 21.730469 L 110.71875 21.730469 L 110.71875 34.6875 L 8.347656 34.6875 Z M 8.347656 21.730469 " fill-opacity="1" fill-rule="nonzero"/></g><g clip-path="url(#60708f308b)"><path fill="#e6e6e6" d="M 8.339844 48.234375 L 110.710938 48.234375 L 110.710938 61.191406 L 8.339844 61.191406 Z M 8.339844 48.234375 " fill-opacity="1" fill-rule="nonzero"/></g><path fill="#00bf63" d="M 9.882812 -0.839844 C 9.976562 -0.824219 10.058594 -0.800781 10.128906 -0.769531 C 10.203125 -0.738281 10.277344 -0.699219 10.355469 -0.644531 C 10.582031 -0.472656 10.691406 -0.234375 10.691406 0.0742188 C 10.691406 0.390625 10.582031 0.632812 10.363281 0.800781 C 10.144531 0.964844 9.835938 1.046875 9.433594 1.046875 C 9.015625 1.046875 8.695312 0.964844 8.46875 0.800781 C 8.246094 0.632812 8.132812 0.390625 8.132812 0.0742188 C 8.132812 -0.253906 8.265625 -0.507812 8.542969 -0.6875 C 8.609375 -0.730469 8.675781 -0.769531 8.734375 -0.789062 C 8.796875 -0.808594 8.871094 -0.824219 8.949219 -0.839844 C 8.75 -0.882812 8.59375 -0.972656 8.46875 -1.117188 C 8.351562 -1.265625 8.296875 -1.449219 8.296875 -1.660156 C 8.296875 -1.941406 8.394531 -2.164062 8.59375 -2.328125 C 8.796875 -2.492188 9.070312 -2.574219 9.414062 -2.574219 C 9.765625 -2.574219 10.042969 -2.492188 10.242188 -2.328125 C 10.4375 -2.164062 10.539062 -1.941406 10.539062 -1.660156 C 10.539062 -1.449219 10.480469 -1.265625 10.363281 -1.117188 C 10.246094 -0.972656 10.089844 -0.882812 9.882812 -0.839844 Z M 9.414062 -2.265625 C 9.179688 -2.265625 8.992188 -2.207031 8.847656 -2.09375 C 8.710938 -1.972656 8.644531 -1.824219 8.644531 -1.640625 C 8.644531 -1.433594 8.710938 -1.273438 8.847656 -1.15625 C 8.984375 -1.039062 9.175781 -0.984375 9.421875 -0.984375 C 9.660156 -0.984375 9.847656 -1.039062 9.984375 -1.15625 C 10.121094 -1.273438 10.191406 -1.433594 10.191406 -1.640625 C 10.191406 -1.832031 10.117188 -1.980469 9.976562 -2.09375 C 9.835938 -2.207031 9.648438 -2.265625 9.414062 -2.265625 Z M 9.414062 -0.664062 C 9.128906 -0.664062 8.910156 -0.597656 8.746094 -0.46875 C 8.585938 -0.347656 8.511719 -0.171875 8.511719 0.0546875 C 8.511719 0.265625 8.585938 0.433594 8.746094 0.554688 C 8.902344 0.679688 9.125 0.742188 9.414062 0.742188 C 9.570312 0.742188 9.710938 0.71875 9.832031 0.679688 C 9.960938 0.636719 10.066406 0.582031 10.148438 0.503906 C 10.265625 0.398438 10.324219 0.246094 10.324219 0.0546875 C 10.324219 -0.171875 10.242188 -0.347656 10.078125 -0.46875 C 9.914062 -0.597656 9.691406 -0.664062 9.414062 -0.664062 Z M 9.414062 -0.664062 " fill-opacity="1" fill-rule="nonzero"/><path fill="#00bf63" d="M 14.730469 -1.742188 L 14.375 -1.742188 C 14.332031 -1.625 14.296875 -1.527344 14.269531 -1.445312 C 14.242188 -1.363281 14.214844 -1.285156 14.1875 -1.21875 C 14.160156 -1.148438 14.128906 -1.074219 14.097656 -0.992188 C 14.007812 -0.8125 13.90625 -0.648438 13.800781 -0.492188 C 13.691406 -0.332031 13.5625 -0.175781 13.421875 -0.0195312 C 13.542969 0.0976562 13.667969 0.203125 13.800781 0.300781 C 13.933594 0.398438 14.085938 0.488281 14.25 0.578125 C 14.367188 0.636719 14.476562 0.695312 14.578125 0.742188 C 14.679688 0.789062 14.789062 0.832031 14.90625 0.875 C 15.019531 0.910156 15.15625 0.945312 15.304688 0.988281 C 15.222656 1.070312 15.15625 1.171875 15.109375 1.292969 C 14.714844 1.15625 14.363281 1.003906 14.054688 0.832031 C 13.753906 0.65625 13.472656 0.441406 13.207031 0.195312 C 12.671875 0.6875 12.039062 1.050781 11.300781 1.285156 C 11.273438 1.222656 11.242188 1.171875 11.207031 1.128906 C 11.179688 1.089844 11.144531 1.046875 11.105469 1.007812 C 11.847656 0.800781 12.480469 0.464844 13 -0.0078125 C 12.890625 -0.132812 12.789062 -0.25 12.703125 -0.367188 C 12.613281 -0.492188 12.53125 -0.625 12.449219 -0.769531 C 12.386719 -0.871094 12.328125 -0.964844 12.285156 -1.054688 C 12.242188 -1.148438 12.203125 -1.25 12.160156 -1.351562 C 12.121094 -1.460938 12.070312 -1.589844 12.015625 -1.742188 L 11.679688 -1.742188 C 11.570312 -1.742188 11.472656 -1.738281 11.390625 -1.734375 C 11.316406 -1.734375 11.242188 -1.726562 11.175781 -1.722656 L 11.175781 -2.039062 C 11.304688 -2.019531 11.476562 -2.007812 11.6875 -2.007812 L 13 -2.007812 L 13 -2.367188 C 13 -2.519531 12.992188 -2.652344 12.96875 -2.769531 L 13.328125 -2.769531 C 13.320312 -2.707031 13.3125 -2.644531 13.308594 -2.585938 C 13.300781 -2.523438 13.296875 -2.453125 13.296875 -2.378906 L 13.296875 -2.007812 L 14.730469 -2.007812 C 14.949219 -2.007812 15.121094 -2.019531 15.246094 -2.039062 L 15.246094 -1.722656 C 15.183594 -1.726562 15.113281 -1.734375 15.039062 -1.734375 C 14.960938 -1.738281 14.859375 -1.742188 14.730469 -1.742188 Z M 14.035156 -1.742188 L 12.335938 -1.742188 C 12.382812 -1.613281 12.417969 -1.5 12.449219 -1.402344 C 12.480469 -1.3125 12.519531 -1.230469 12.558594 -1.148438 C 12.601562 -1.066406 12.652344 -0.972656 12.714844 -0.871094 C 12.789062 -0.746094 12.863281 -0.632812 12.9375 -0.53125 C 13.011719 -0.433594 13.101562 -0.332031 13.207031 -0.222656 C 13.402344 -0.433594 13.566406 -0.664062 13.699219 -0.910156 C 13.832031 -1.15625 13.945312 -1.433594 14.035156 -1.742188 Z M 14.035156 -1.742188 " fill-opacity="1" fill-rule="nonzero"/><path fill="#00bf63" d="M 17.585938 -2.296875 L 17.585938 -2.429688 C 17.585938 -2.511719 17.578125 -2.578125 17.574219 -2.636719 C 17.574219 -2.699219 17.570312 -2.753906 17.5625 -2.808594 L 17.921875 -2.808594 C 17.90625 -2.753906 17.898438 -2.699219 17.890625 -2.636719 C 17.890625 -2.578125 17.890625 -2.511719 17.890625 -2.429688 L 17.890625 -2.296875 L 19.214844 -2.296875 C 19.308594 -2.296875 19.390625 -2.296875 19.46875 -2.296875 C 19.550781 -2.300781 19.628906 -2.308594 19.703125 -2.316406 C 19.695312 -2.269531 19.6875 -2.21875 19.683594 -2.164062 C 19.683594 -2.105469 19.683594 -2.042969 19.683594 -1.96875 L 19.683594 -1.703125 C 19.683594 -1.644531 19.683594 -1.589844 19.683594 -1.539062 C 19.6875 -1.488281 19.695312 -1.4375 19.703125 -1.382812 L 19.398438 -1.382812 L 19.398438 -2.03125 L 16.179688 -2.03125 L 16.179688 -1.382812 L 15.875 -1.382812 C 15.878906 -1.4375 15.886719 -1.488281 15.894531 -1.539062 C 15.898438 -1.589844 15.902344 -1.644531 15.902344 -1.703125 L 15.902344 -1.96875 C 15.902344 -2.035156 15.898438 -2.097656 15.894531 -2.152344 C 15.894531 -2.207031 15.886719 -2.261719 15.875 -2.316406 C 15.957031 -2.308594 16.03125 -2.300781 16.109375 -2.296875 C 16.183594 -2.296875 16.269531 -2.296875 16.363281 -2.296875 Z M 16.292969 -0.410156 L 17.625 -0.410156 C 17.625 -0.492188 17.621094 -0.558594 17.613281 -0.613281 C 17.613281 -0.667969 17.609375 -0.71875 17.605469 -0.769531 L 17.828125 -0.769531 C 17.9375 -0.828125 18.035156 -0.882812 18.117188 -0.933594 C 18.199219 -0.976562 18.277344 -1.03125 18.351562 -1.085938 C 18.433594 -1.148438 18.519531 -1.21875 18.617188 -1.300781 L 16.867188 -1.300781 C 16.695312 -1.300781 16.550781 -1.292969 16.425781 -1.269531 L 16.425781 -1.589844 C 16.480469 -1.582031 16.542969 -1.574219 16.609375 -1.570312 C 16.683594 -1.5625 16.769531 -1.558594 16.867188 -1.558594 L 18.640625 -1.558594 C 18.796875 -1.558594 18.910156 -1.5625 18.976562 -1.578125 L 19.132812 -1.394531 C 19.101562 -1.367188 19.082031 -1.34375 19.070312 -1.332031 C 19.054688 -1.316406 19.019531 -1.285156 18.96875 -1.238281 C 18.847656 -1.148438 18.742188 -1.066406 18.640625 -0.984375 C 18.535156 -0.90625 18.425781 -0.835938 18.3125 -0.769531 C 18.203125 -0.699219 18.074219 -0.625 17.933594 -0.550781 L 17.933594 -0.410156 L 19.285156 -0.410156 C 19.472656 -0.410156 19.636719 -0.414062 19.765625 -0.429688 L 19.765625 -0.109375 C 19.636719 -0.132812 19.472656 -0.140625 19.285156 -0.140625 L 17.933594 -0.140625 L 17.933594 0.90625 C 17.933594 1.039062 17.894531 1.136719 17.820312 1.191406 C 17.75 1.246094 17.625 1.273438 17.441406 1.273438 C 17.351562 1.273438 17.257812 1.269531 17.164062 1.265625 C 17.074219 1.265625 16.972656 1.257812 16.867188 1.242188 C 16.859375 1.1875 16.847656 1.140625 16.835938 1.101562 C 16.828125 1.058594 16.8125 1.003906 16.785156 0.933594 C 16.878906 0.957031 16.988281 0.972656 17.113281 0.988281 C 17.234375 1.003906 17.339844 1.007812 17.429688 1.007812 C 17.503906 1.007812 17.554688 0.996094 17.585938 0.976562 C 17.609375 0.957031 17.625 0.921875 17.625 0.875 L 17.625 -0.140625 L 16.292969 -0.140625 C 16.109375 -0.140625 15.949219 -0.132812 15.820312 -0.109375 L 15.820312 -0.429688 C 15.886719 -0.421875 15.960938 -0.414062 16.035156 -0.410156 C 16.113281 -0.410156 16.195312 -0.410156 16.292969 -0.410156 Z M 16.292969 -0.410156 " fill-opacity="1" fill-rule="nonzero"/><path fill="#00bf63" d="M 23.613281 -2.65625 L 23.96875 -2.644531 C 23.960938 -2.617188 23.957031 -2.589844 23.949219 -2.5625 C 23.949219 -2.535156 23.945312 -2.496094 23.941406 -2.441406 C 23.941406 -2.390625 23.933594 -2.308594 23.929688 -2.195312 C 23.921875 -2.078125 23.910156 -1.941406 23.886719 -1.792969 C 23.867188 -1.644531 23.84375 -1.496094 23.816406 -1.351562 C 23.789062 -1.210938 23.757812 -1.085938 23.726562 -0.984375 C 23.683594 -0.839844 23.632812 -0.699219 23.570312 -0.5625 C 23.515625 -0.425781 23.449219 -0.289062 23.367188 -0.152344 C 23.613281 0.320312 23.984375 0.707031 24.484375 1.007812 C 24.433594 1.054688 24.394531 1.101562 24.371094 1.140625 C 24.34375 1.183594 24.3125 1.234375 24.277344 1.292969 C 24.117188 1.183594 23.992188 1.085938 23.886719 0.996094 C 23.792969 0.902344 23.6875 0.789062 23.570312 0.660156 C 23.488281 0.5625 23.417969 0.480469 23.367188 0.402344 C 23.308594 0.320312 23.253906 0.226562 23.191406 0.113281 C 22.988281 0.382812 22.75 0.613281 22.484375 0.8125 C 22.21875 1.003906 21.894531 1.175781 21.511719 1.335938 C 21.492188 1.28125 21.464844 1.226562 21.429688 1.183594 C 21.394531 1.132812 21.359375 1.09375 21.316406 1.058594 C 21.515625 0.984375 21.679688 0.914062 21.820312 0.84375 C 21.960938 0.777344 22.097656 0.695312 22.230469 0.605469 C 22.558594 0.390625 22.824219 0.132812 23.027344 -0.164062 C 23.234375 -0.460938 23.382812 -0.8125 23.480469 -1.210938 C 23.574219 -1.597656 23.621094 -2.003906 23.621094 -2.421875 C 23.621094 -2.480469 23.621094 -2.523438 23.621094 -2.554688 C 23.621094 -2.578125 23.617188 -2.613281 23.613281 -2.65625 Z M 20.824219 0.277344 L 20.804688 -2.164062 C 20.804688 -2.257812 20.800781 -2.339844 20.792969 -2.410156 C 20.792969 -2.484375 20.785156 -2.5625 20.773438 -2.644531 L 21.132812 -2.644531 C 21.117188 -2.523438 21.113281 -2.378906 21.113281 -2.214844 L 21.113281 -2.164062 L 21.132812 0.15625 C 21.253906 0.109375 21.359375 0.0703125 21.449219 0.03125 C 21.539062 -0.0078125 21.628906 -0.0507812 21.726562 -0.101562 C 21.910156 -0.1875 22.058594 -0.265625 22.167969 -0.328125 C 22.273438 -0.386719 22.363281 -0.441406 22.433594 -0.492188 L 22.484375 -0.203125 C 22.304688 -0.09375 22.125 0.0078125 21.941406 0.105469 C 21.761719 0.195312 21.574219 0.285156 21.378906 0.371094 C 21.179688 0.460938 20.953125 0.554688 20.703125 0.648438 C 20.632812 0.675781 20.582031 0.695312 20.546875 0.710938 C 20.511719 0.726562 20.472656 0.742188 20.425781 0.761719 L 20.324219 0.433594 C 20.425781 0.40625 20.511719 0.382812 20.578125 0.359375 C 20.652344 0.339844 20.734375 0.316406 20.824219 0.277344 Z M 21.714844 -2.164062 L 21.972656 -2.339844 C 22.097656 -2.214844 22.199219 -2.097656 22.289062 -1.988281 C 22.386719 -1.886719 22.476562 -1.777344 22.558594 -1.660156 C 22.644531 -1.542969 22.746094 -1.402344 22.863281 -1.238281 L 22.585938 -1.046875 C 22.511719 -1.171875 22.445312 -1.285156 22.382812 -1.375 C 22.320312 -1.46875 22.253906 -1.554688 22.1875 -1.628906 C 22.125 -1.710938 22.058594 -1.792969 21.984375 -1.875 C 21.90625 -1.964844 21.820312 -2.0625 21.714844 -2.164062 Z M 21.714844 -2.164062 " fill-opacity="1" fill-rule="nonzero"/><path fill="#00bf63" d="M 26.988281 -1.023438 L 26.988281 0.832031 L 28.480469 0.832031 C 28.589844 0.832031 28.683594 0.832031 28.757812 0.832031 C 28.839844 0.828125 28.917969 0.816406 28.996094 0.800781 L 28.996094 1.152344 C 28.914062 1.136719 28.832031 1.125 28.75 1.121094 C 28.667969 1.121094 28.578125 1.121094 28.480469 1.121094 L 25.441406 1.121094 C 25.34375 1.121094 25.25 1.121094 25.164062 1.121094 C 25.074219 1.125 24.984375 1.136719 24.898438 1.152344 L 24.898438 0.800781 C 24.976562 0.816406 25.058594 0.828125 25.140625 0.832031 C 25.230469 0.832031 25.328125 0.832031 25.441406 0.832031 L 26.667969 0.832031 L 26.667969 -2.257812 C 26.667969 -2.425781 26.652344 -2.585938 26.628906 -2.726562 L 27.015625 -2.726562 C 26.996094 -2.585938 26.988281 -2.425781 26.988281 -2.257812 L 26.988281 -1.320312 L 28.144531 -1.320312 C 28.238281 -1.320312 28.324219 -1.320312 28.398438 -1.320312 C 28.480469 -1.328125 28.554688 -1.335938 28.617188 -1.34375 L 28.617188 -0.992188 C 28.546875 -1 28.472656 -1.007812 28.398438 -1.015625 C 28.324219 -1.019531 28.238281 -1.023438 28.144531 -1.023438 Z M 26.988281 -1.023438 " fill-opacity="1" fill-rule="nonzero"/><path fill="#00bf63" d="M 31.742188 -2.03125 C 31.722656 -1.816406 31.6875 -1.601562 31.640625 -1.382812 C 31.601562 -1.164062 31.550781 -0.953125 31.488281 -0.746094 C 31.429688 -0.546875 31.367188 -0.371094 31.292969 -0.214844 C 31.164062 0.09375 31.027344 0.320312 30.882812 0.464844 C 30.746094 0.601562 30.597656 0.667969 30.433594 0.667969 C 30.289062 0.667969 30.160156 0.621094 30.042969 0.523438 C 29.925781 0.421875 29.832031 0.289062 29.765625 0.125 C 29.707031 -0.0429688 29.675781 -0.238281 29.675781 -0.449219 C 29.675781 -0.679688 29.714844 -0.90625 29.796875 -1.128906 C 29.882812 -1.34375 30.003906 -1.539062 30.15625 -1.710938 C 30.523438 -2.113281 31.015625 -2.316406 31.632812 -2.316406 C 31.882812 -2.316406 32.117188 -2.277344 32.339844 -2.195312 C 32.554688 -2.117188 32.742188 -2.007812 32.890625 -1.867188 C 33.035156 -1.726562 33.140625 -1.5625 33.21875 -1.363281 C 33.292969 -1.171875 33.332031 -0.964844 33.332031 -0.746094 C 33.332031 -0.398438 33.238281 -0.0820312 33.054688 0.195312 C 32.871094 0.480469 32.613281 0.6875 32.285156 0.832031 C 32.183594 0.875 32.082031 0.914062 31.980469 0.945312 C 31.878906 0.972656 31.746094 1.003906 31.589844 1.039062 C 31.570312 0.964844 31.550781 0.910156 31.527344 0.875 C 31.507812 0.832031 31.472656 0.785156 31.425781 0.730469 C 31.59375 0.703125 31.738281 0.675781 31.855469 0.636719 C 31.972656 0.605469 32.085938 0.5625 32.195312 0.515625 C 32.445312 0.398438 32.644531 0.226562 32.789062 0 C 32.933594 -0.230469 33.003906 -0.484375 33.003906 -0.769531 C 33.003906 -1.027344 32.9375 -1.253906 32.808594 -1.457031 C 32.6875 -1.652344 32.507812 -1.808594 32.277344 -1.917969 C 32.1875 -1.949219 32.105469 -1.972656 32.03125 -1.988281 C 31.953125 -2.007812 31.859375 -2.023438 31.742188 -2.03125 Z M 31.417969 -2.019531 C 31.277344 -2.003906 31.15625 -1.980469 31.046875 -1.949219 C 30.945312 -1.917969 30.84375 -1.871094 30.738281 -1.804688 C 30.507812 -1.664062 30.324219 -1.476562 30.1875 -1.230469 C 30.054688 -0.988281 29.992188 -0.726562 29.992188 -0.441406 C 29.992188 -0.296875 30.007812 -0.164062 30.042969 -0.0507812 C 30.085938 0.0703125 30.136719 0.160156 30.207031 0.226562 C 30.273438 0.296875 30.351562 0.328125 30.433594 0.328125 C 30.617188 0.328125 30.804688 0.113281 30.996094 -0.328125 C 31.0625 -0.46875 31.125 -0.632812 31.179688 -0.820312 C 31.234375 -1.007812 31.28125 -1.210938 31.324219 -1.414062 C 31.363281 -1.625 31.394531 -1.828125 31.417969 -2.019531 Z M 31.417969 -2.019531 " fill-opacity="1" fill-rule="nonzero"/><path fill="#00bf63" d="M 35.179688 -2.316406 L 35.558594 -2.257812 C 35.550781 -2.21875 35.542969 -2.1875 35.539062 -2.152344 C 35.53125 -2.117188 35.519531 -2.046875 35.507812 -1.9375 C 35.4375 -1.507812 35.355469 -1.117188 35.25 -0.769531 C 35.148438 -0.425781 35.019531 -0.117188 34.863281 0.15625 C 34.703125 0.429688 34.515625 0.683594 34.300781 0.914062 C 34.238281 0.851562 34.1875 0.808594 34.15625 0.78125 C 34.121094 0.757812 34.070312 0.71875 34 0.679688 C 34.144531 0.542969 34.269531 0.40625 34.371094 0.269531 C 34.472656 0.132812 34.570312 -0.03125 34.667969 -0.222656 C 34.898438 -0.6875 35.058594 -1.21875 35.140625 -1.816406 C 35.152344 -1.910156 35.160156 -1.996094 35.167969 -2.070312 C 35.175781 -2.144531 35.179688 -2.203125 35.179688 -2.246094 C 35.179688 -2.25 35.179688 -2.261719 35.179688 -2.277344 C 35.179688 -2.289062 35.179688 -2.300781 35.179688 -2.316406 Z M 36.492188 -2.257812 L 36.828125 -2.316406 C 36.828125 -2.242188 36.839844 -2.144531 36.859375 -2.019531 C 36.878906 -1.898438 36.902344 -1.765625 36.933594 -1.628906 C 36.964844 -1.492188 37.003906 -1.355469 37.042969 -1.21875 C 37.261719 -0.402344 37.609375 0.226562 38.078125 0.667969 C 38.011719 0.710938 37.957031 0.75 37.925781 0.78125 C 37.890625 0.808594 37.847656 0.859375 37.792969 0.925781 C 37.640625 0.761719 37.503906 0.585938 37.382812 0.402344 C 37.265625 0.210938 37.148438 -0.0117188 37.035156 -0.265625 C 36.925781 -0.511719 36.828125 -0.773438 36.746094 -1.054688 C 36.664062 -1.34375 36.597656 -1.640625 36.554688 -1.949219 C 36.539062 -2.035156 36.527344 -2.097656 36.523438 -2.132812 C 36.515625 -2.175781 36.503906 -2.214844 36.492188 -2.257812 Z M 37.628906 -2.554688 C 37.757812 -2.554688 37.867188 -2.503906 37.957031 -2.410156 C 38.050781 -2.320312 38.101562 -2.210938 38.101562 -2.082031 C 38.101562 -1.949219 38.050781 -1.839844 37.957031 -1.753906 C 37.867188 -1.664062 37.757812 -1.621094 37.628906 -1.621094 C 37.496094 -1.621094 37.386719 -1.664062 37.289062 -1.753906 C 37.199219 -1.839844 37.15625 -1.949219 37.15625 -2.082031 C 37.15625 -2.210938 37.199219 -2.320312 37.289062 -2.410156 C 37.386719 -2.503906 37.496094 -2.554688 37.628906 -2.554688 Z M 37.628906 -2.359375 C 37.550781 -2.359375 37.488281 -2.332031 37.433594 -2.277344 C 37.378906 -2.226562 37.351562 -2.164062 37.351562 -2.082031 C 37.351562 -2.003906 37.378906 -1.941406 37.433594 -1.886719 C 37.488281 -1.832031 37.550781 -1.804688 37.628906 -1.804688 C 37.710938 -1.804688 37.773438 -1.832031 37.824219 -1.886719 C 37.875 -1.941406 37.90625 -2.003906 37.90625 -2.082031 C 37.90625 -2.164062 37.875 -2.226562 37.824219 -2.277344 C 37.773438 -2.332031 37.710938 -2.359375 37.628906 -2.359375 Z M 37.628906 -2.359375 " fill-opacity="1" fill-rule="nonzero"/><path fill="#00bf63" d="M 42.476562 0.761719 L 42.210938 1.046875 C 42.03125 0.816406 41.816406 0.582031 41.566406 0.339844 C 41.320312 0.09375 41.050781 -0.140625 40.757812 -0.367188 C 40.648438 -0.246094 40.542969 -0.132812 40.449219 -0.0390625 C 40.359375 0.0507812 40.269531 0.136719 40.183594 0.21875 C 40.09375 0.292969 39.992188 0.371094 39.886719 0.453125 C 39.722656 0.570312 39.570312 0.667969 39.433594 0.75 C 39.304688 0.832031 39.152344 0.921875 38.984375 1.007812 C 38.949219 0.933594 38.917969 0.878906 38.890625 0.84375 C 38.863281 0.808594 38.820312 0.761719 38.757812 0.699219 C 38.882812 0.652344 38.988281 0.605469 39.078125 0.554688 C 39.171875 0.507812 39.265625 0.453125 39.363281 0.390625 C 39.457031 0.328125 39.570312 0.257812 39.691406 0.175781 C 40.054688 -0.0976562 40.371094 -0.410156 40.644531 -0.757812 C 40.921875 -1.113281 41.148438 -1.488281 41.320312 -1.886719 C 41.324219 -1.90625 41.332031 -1.917969 41.332031 -1.917969 C 41.335938 -1.921875 41.339844 -1.933594 41.339844 -1.949219 C 41.347656 -1.953125 41.355469 -1.964844 41.363281 -1.980469 C 41.332031 -1.972656 41.296875 -1.96875 41.25 -1.96875 L 39.722656 -1.949219 C 39.621094 -1.949219 39.53125 -1.941406 39.457031 -1.9375 C 39.386719 -1.929688 39.316406 -1.921875 39.25 -1.917969 L 39.242188 -2.285156 C 39.300781 -2.269531 39.355469 -2.261719 39.40625 -2.257812 C 39.457031 -2.257812 39.523438 -2.257812 39.597656 -2.257812 C 39.605469 -2.257812 39.621094 -2.257812 39.640625 -2.257812 C 39.660156 -2.257812 39.6875 -2.257812 39.722656 -2.257812 L 41.351562 -2.277344 C 41.433594 -2.28125 41.488281 -2.285156 41.527344 -2.285156 C 41.566406 -2.292969 41.609375 -2.300781 41.648438 -2.316406 L 41.832031 -2.121094 C 41.8125 -2.09375 41.792969 -2.0625 41.769531 -2.03125 C 41.75 -1.996094 41.730469 -1.949219 41.710938 -1.898438 C 41.578125 -1.609375 41.457031 -1.367188 41.339844 -1.167969 C 41.222656 -0.976562 41.09375 -0.792969 40.953125 -0.613281 C 41.15625 -0.460938 41.339844 -0.316406 41.503906 -0.171875 C 41.667969 -0.0351562 41.824219 0.109375 41.976562 0.257812 C 42.132812 0.410156 42.300781 0.578125 42.476562 0.761719 Z M 42.476562 0.761719 " fill-opacity="1" fill-rule="nonzero"/><path fill="#00bf63" d="M 44.050781 -0.808594 L 43.671875 -0.808594 C 43.675781 -0.855469 43.679688 -0.902344 43.679688 -0.953125 C 43.6875 -1.007812 43.691406 -1.082031 43.691406 -1.179688 L 43.691406 -1.957031 C 43.691406 -2.046875 43.691406 -2.113281 43.691406 -2.152344 C 43.691406 -2.195312 43.6875 -2.242188 43.679688 -2.296875 C 43.726562 -2.296875 43.785156 -2.292969 43.84375 -2.285156 C 43.910156 -2.285156 43.972656 -2.285156 44.027344 -2.285156 L 46.394531 -2.285156 C 46.484375 -2.285156 46.550781 -2.285156 46.589844 -2.285156 C 46.632812 -2.292969 46.671875 -2.300781 46.714844 -2.316406 L 46.90625 -2.144531 C 46.878906 -2.101562 46.863281 -2.066406 46.855469 -2.039062 C 46.847656 -2.011719 46.839844 -1.960938 46.835938 -1.886719 C 46.789062 -1.539062 46.726562 -1.230469 46.652344 -0.972656 C 46.582031 -0.71875 46.492188 -0.492188 46.386719 -0.296875 C 46.273438 -0.101562 46.140625 0.078125 45.976562 0.246094 C 45.632812 0.605469 45.195312 0.882812 44.664062 1.089844 C 44.628906 1.011719 44.597656 0.960938 44.570312 0.925781 C 44.550781 0.882812 44.511719 0.839844 44.449219 0.78125 C 44.816406 0.652344 45.128906 0.5 45.382812 0.320312 C 45.632812 0.136719 45.84375 -0.0820312 46.007812 -0.335938 C 46.089844 -0.472656 46.160156 -0.617188 46.222656 -0.769531 C 46.28125 -0.917969 46.335938 -1.089844 46.375 -1.292969 C 46.417969 -1.488281 46.449219 -1.71875 46.476562 -1.980469 L 44.039062 -1.980469 L 44.039062 -1.1875 C 44.039062 -1.085938 44.039062 -1.007812 44.039062 -0.964844 C 44.039062 -0.921875 44.039062 -0.890625 44.039062 -0.871094 C 44.042969 -0.851562 44.050781 -0.828125 44.050781 -0.808594 Z M 44.050781 -0.808594 " fill-opacity="1" fill-rule="nonzero"/><path fill="#00bf63" d="M 8.132812 6.417969 L 8.367188 6.203125 C 8.488281 6.304688 8.597656 6.40625 8.695312 6.5 C 8.796875 6.597656 8.890625 6.699219 8.980469 6.808594 C 9.078125 6.910156 9.175781 7.03125 9.277344 7.175781 L 9.023438 7.414062 C 8.878906 7.199219 8.734375 7.019531 8.59375 6.867188 C 8.449219 6.710938 8.296875 6.5625 8.132812 6.417969 Z M 8.132812 6.417969 " fill-opacity="1" fill-rule="nonzero"/><path fill="#00bf63" d="M 14.589844 3.371094 L 14.957031 3.371094 C 14.949219 3.429688 14.941406 3.5 14.9375 3.574219 C 14.9375 3.652344 14.9375 3.738281 14.9375 3.839844 L 14.9375 6.992188 C 14.9375 7.136719 14.902344 7.230469 14.835938 7.28125 C 14.765625 7.332031 14.636719 7.363281 14.445312 7.363281 C 14.355469 7.363281 14.261719 7.355469 14.160156 7.351562 C 14.0625 7.351562 13.949219 7.34375 13.820312 7.332031 C 13.8125 7.261719 13.804688 7.203125 13.789062 7.15625 C 13.773438 7.113281 13.761719 7.0625 13.738281 6.992188 C 13.882812 7.019531 14.003906 7.039062 14.109375 7.054688 C 14.214844 7.070312 14.316406 7.074219 14.414062 7.074219 C 14.496094 7.074219 14.550781 7.070312 14.578125 7.054688 C 14.605469 7.03125 14.621094 7 14.621094 6.949219 L 14.621094 3.832031 C 14.621094 3.738281 14.617188 3.652344 14.609375 3.585938 C 14.601562 3.511719 14.59375 3.4375 14.589844 3.371094 Z M 15.664062 4.457031 L 15.984375 4.363281 C 16.003906 4.503906 16.035156 4.640625 16.074219 4.785156 C 16.117188 4.925781 16.179688 5.101562 16.269531 5.320312 C 16.355469 5.539062 16.453125 5.738281 16.558594 5.925781 C 16.664062 6.105469 16.796875 6.289062 16.945312 6.480469 C 16.890625 6.519531 16.84375 6.558594 16.800781 6.59375 C 16.765625 6.628906 16.730469 6.664062 16.691406 6.703125 C 16.558594 6.535156 16.449219 6.375 16.363281 6.234375 C 16.273438 6.089844 16.191406 5.941406 16.125 5.78125 C 16.058594 5.625 15.984375 5.449219 15.910156 5.246094 C 15.910156 5.246094 15.890625 5.191406 15.851562 5.074219 C 15.8125 4.957031 15.761719 4.78125 15.695312 4.550781 C 15.679688 4.523438 15.671875 4.507812 15.664062 4.5 C 15.664062 4.492188 15.664062 4.476562 15.664062 4.457031 Z M 13.484375 4.394531 L 13.820312 4.476562 C 13.8125 4.507812 13.804688 4.535156 13.800781 4.558594 C 13.792969 4.589844 13.78125 4.636719 13.761719 4.703125 C 13.746094 4.765625 13.722656 4.859375 13.6875 4.980469 C 13.632812 5.214844 13.566406 5.425781 13.492188 5.617188 C 13.425781 5.808594 13.34375 5.992188 13.246094 6.160156 C 13.15625 6.332031 13.046875 6.507812 12.917969 6.695312 C 12.871094 6.652344 12.828125 6.621094 12.785156 6.59375 C 12.746094 6.566406 12.695312 6.539062 12.644531 6.507812 C 12.757812 6.351562 12.859375 6.207031 12.941406 6.070312 C 13.027344 5.925781 13.105469 5.777344 13.164062 5.617188 C 13.230469 5.460938 13.292969 5.285156 13.351562 5.082031 C 13.425781 4.8125 13.46875 4.582031 13.484375 4.394531 Z M 13.484375 4.394531 " fill-opacity="1" fill-rule="nonzero"/><path fill="#00bf63" d="M 20.875 4.363281 L 20.515625 4.363281 C 20.472656 4.484375 20.4375 4.582031 20.414062 4.664062 C 20.382812 4.746094 20.355469 4.820312 20.332031 4.886719 C 20.300781 4.957031 20.273438 5.03125 20.238281 5.113281 C 20.148438 5.292969 20.050781 5.460938 19.941406 5.617188 C 19.832031 5.777344 19.707031 5.933594 19.5625 6.089844 C 19.683594 6.207031 19.8125 6.3125 19.941406 6.40625 C 20.078125 6.503906 20.226562 6.597656 20.390625 6.683594 C 20.507812 6.746094 20.617188 6.800781 20.71875 6.847656 C 20.824219 6.898438 20.929688 6.941406 21.046875 6.980469 C 21.164062 7.019531 21.296875 7.054688 21.449219 7.09375 C 21.367188 7.175781 21.300781 7.28125 21.253906 7.402344 C 20.855469 7.265625 20.503906 7.113281 20.199219 6.941406 C 19.894531 6.765625 19.613281 6.550781 19.347656 6.304688 C 18.816406 6.796875 18.179688 7.160156 17.441406 7.390625 C 17.414062 7.332031 17.382812 7.28125 17.347656 7.238281 C 17.320312 7.199219 17.289062 7.15625 17.246094 7.113281 C 17.988281 6.910156 18.621094 6.570312 19.140625 6.097656 C 19.03125 5.976562 18.933594 5.859375 18.84375 5.738281 C 18.753906 5.617188 18.671875 5.484375 18.589844 5.339844 C 18.527344 5.238281 18.472656 5.140625 18.425781 5.050781 C 18.382812 4.957031 18.34375 4.859375 18.300781 4.753906 C 18.261719 4.648438 18.210938 4.515625 18.160156 4.363281 L 17.820312 4.363281 C 17.710938 4.363281 17.617188 4.371094 17.535156 4.375 C 17.457031 4.375 17.386719 4.378906 17.320312 4.386719 L 17.320312 4.066406 C 17.445312 4.085938 17.617188 4.097656 17.832031 4.097656 L 19.140625 4.097656 L 19.140625 3.738281 C 19.140625 3.589844 19.132812 3.457031 19.113281 3.339844 L 19.46875 3.339844 C 19.460938 3.398438 19.453125 3.460938 19.449219 3.523438 C 19.441406 3.585938 19.441406 3.652344 19.441406 3.730469 L 19.441406 4.097656 L 20.875 4.097656 C 21.089844 4.097656 21.261719 4.085938 21.386719 4.066406 L 21.386719 4.386719 C 21.324219 4.378906 21.253906 4.375 21.179688 4.375 C 21.105469 4.371094 21 4.363281 20.875 4.363281 Z M 20.175781 4.363281 L 18.476562 4.363281 C 18.523438 4.496094 18.5625 4.609375 18.589844 4.703125 C 18.621094 4.792969 18.660156 4.878906 18.703125 4.960938 C 18.742188 5.042969 18.792969 5.132812 18.855469 5.238281 C 18.929688 5.359375 19.003906 5.472656 19.082031 5.574219 C 19.15625 5.671875 19.246094 5.777344 19.347656 5.882812 C 19.542969 5.671875 19.707031 5.441406 19.839844 5.195312 C 19.976562 4.949219 20.085938 4.671875 20.175781 4.363281 Z M 20.175781 4.363281 " fill-opacity="1" fill-rule="nonzero"/><path fill="#00bf63" d="M 23.726562 3.8125 L 23.726562 3.675781 C 23.726562 3.59375 23.71875 3.527344 23.714844 3.472656 C 23.714844 3.410156 23.710938 3.355469 23.707031 3.296875 L 24.0625 3.296875 C 24.046875 3.355469 24.039062 3.410156 24.03125 3.472656 C 24.03125 3.527344 24.03125 3.59375 24.03125 3.675781 L 24.03125 3.8125 L 25.355469 3.8125 C 25.449219 3.8125 25.535156 3.8125 25.609375 3.8125 C 25.691406 3.804688 25.769531 3.796875 25.847656 3.789062 C 25.839844 3.839844 25.832031 3.890625 25.824219 3.945312 C 25.824219 4 25.824219 4.066406 25.824219 4.140625 L 25.824219 4.40625 C 25.824219 4.460938 25.824219 4.515625 25.824219 4.570312 C 25.832031 4.617188 25.839844 4.671875 25.847656 4.722656 L 25.539062 4.722656 L 25.539062 4.078125 L 22.320312 4.078125 L 22.320312 4.722656 L 22.015625 4.722656 C 22.019531 4.671875 22.027344 4.617188 22.035156 4.570312 C 22.039062 4.515625 22.046875 4.460938 22.046875 4.40625 L 22.046875 4.140625 C 22.046875 4.074219 22.039062 4.011719 22.035156 3.953125 C 22.035156 3.902344 22.027344 3.847656 22.015625 3.789062 C 22.097656 3.796875 22.171875 3.804688 22.25 3.8125 C 22.324219 3.8125 22.410156 3.8125 22.507812 3.8125 Z M 22.433594 5.699219 L 23.765625 5.699219 C 23.765625 5.617188 23.761719 5.550781 23.757812 5.492188 C 23.757812 5.441406 23.75 5.386719 23.746094 5.339844 L 23.972656 5.339844 C 24.078125 5.277344 24.175781 5.222656 24.257812 5.175781 C 24.339844 5.128906 24.417969 5.078125 24.496094 5.023438 C 24.574219 4.960938 24.664062 4.886719 24.761719 4.804688 L 23.007812 4.804688 C 22.835938 4.804688 22.691406 4.816406 22.566406 4.835938 L 22.566406 4.519531 C 22.621094 4.527344 22.683594 4.535156 22.753906 4.539062 C 22.828125 4.546875 22.910156 4.550781 23.007812 4.550781 L 24.78125 4.550781 C 24.9375 4.550781 25.050781 4.542969 25.117188 4.527344 L 25.273438 4.714844 C 25.246094 4.742188 25.222656 4.761719 25.210938 4.777344 C 25.195312 4.789062 25.164062 4.820312 25.109375 4.867188 C 24.992188 4.957031 24.882812 5.042969 24.78125 5.125 C 24.679688 5.203125 24.570312 5.273438 24.453125 5.339844 C 24.34375 5.410156 24.21875 5.480469 24.074219 5.554688 L 24.074219 5.699219 L 25.425781 5.699219 C 25.617188 5.699219 25.777344 5.695312 25.90625 5.679688 L 25.90625 5.996094 C 25.777344 5.976562 25.617188 5.964844 25.425781 5.964844 L 24.074219 5.964844 L 24.074219 7.011719 C 24.074219 7.148438 24.035156 7.242188 23.960938 7.300781 C 23.890625 7.355469 23.765625 7.382812 23.582031 7.382812 C 23.492188 7.382812 23.402344 7.375 23.304688 7.371094 C 23.214844 7.371094 23.117188 7.363281 23.007812 7.351562 C 23 7.292969 22.992188 7.25 22.976562 7.207031 C 22.96875 7.167969 22.953125 7.113281 22.925781 7.042969 C 23.019531 7.0625 23.132812 7.082031 23.253906 7.09375 C 23.378906 7.109375 23.484375 7.113281 23.570312 7.113281 C 23.644531 7.113281 23.699219 7.105469 23.726562 7.085938 C 23.75 7.0625 23.765625 7.03125 23.765625 6.980469 L 23.765625 5.964844 L 22.433594 5.964844 C 22.25 5.964844 22.089844 5.976562 21.964844 5.996094 L 21.964844 5.679688 C 22.03125 5.6875 22.101562 5.695312 22.179688 5.699219 C 22.253906 5.699219 22.335938 5.699219 22.433594 5.699219 Z M 22.433594 5.699219 " fill-opacity="1" fill-rule="nonzero"/><path fill="#00bf63" d="M 26.425781 6.417969 L 26.660156 6.203125 C 26.78125 6.304688 26.890625 6.40625 26.988281 6.5 C 27.089844 6.597656 27.183594 6.699219 27.273438 6.808594 C 27.371094 6.910156 27.46875 7.03125 27.570312 7.175781 L 27.316406 7.414062 C 27.171875 7.199219 27.027344 7.019531 26.886719 6.867188 C 26.742188 6.710938 26.589844 6.5625 26.425781 6.417969 Z M 26.425781 6.417969 " fill-opacity="1" fill-rule="nonzero"/><path fill="#00bf63" d="M 35.167969 4.171875 L 35.167969 4.488281 C 35.109375 4.476562 35.058594 4.46875 35.011719 4.46875 C 34.972656 4.460938 34.894531 4.457031 34.777344 4.457031 C 34.761719 4.617188 34.75 4.75 34.738281 4.859375 C 34.722656 4.96875 34.707031 5.070312 34.683594 5.164062 C 34.671875 5.253906 34.648438 5.355469 34.625 5.464844 C 34.574219 5.613281 34.523438 5.753906 34.46875 5.882812 C 34.414062 6.015625 34.347656 6.148438 34.265625 6.285156 C 34.402344 6.46875 34.546875 6.628906 34.707031 6.765625 C 34.871094 6.90625 35.058594 7.03125 35.28125 7.144531 C 35.242188 7.191406 35.214844 7.234375 35.1875 7.269531 C 35.167969 7.308594 35.140625 7.363281 35.105469 7.433594 C 34.902344 7.308594 34.714844 7.175781 34.550781 7.03125 C 34.386719 6.890625 34.234375 6.71875 34.089844 6.519531 C 33.949219 6.703125 33.777344 6.875 33.589844 7.03125 C 33.40625 7.183594 33.183594 7.324219 32.933594 7.464844 C 32.90625 7.40625 32.878906 7.363281 32.851562 7.320312 C 32.824219 7.285156 32.789062 7.25 32.75 7.207031 C 33.015625 7.078125 33.242188 6.941406 33.425781 6.796875 C 33.613281 6.648438 33.785156 6.472656 33.925781 6.273438 C 33.84375 6.136719 33.773438 6.003906 33.710938 5.875 C 33.65625 5.738281 33.609375 5.59375 33.570312 5.441406 C 33.527344 5.285156 33.488281 5.113281 33.457031 4.929688 C 33.398438 5.039062 33.347656 5.132812 33.300781 5.207031 C 33.261719 5.285156 33.203125 5.367188 33.128906 5.464844 C 33.085938 5.417969 33.046875 5.382812 33.015625 5.359375 C 32.988281 5.339844 32.945312 5.316406 32.890625 5.289062 C 33.015625 5.144531 33.121094 5 33.210938 4.847656 C 33.296875 4.691406 33.378906 4.507812 33.457031 4.292969 C 33.523438 4.128906 33.578125 3.960938 33.621094 3.789062 C 33.660156 3.613281 33.683594 3.453125 33.691406 3.308594 L 34 3.378906 C 34 3.398438 33.992188 3.421875 33.988281 3.441406 C 33.980469 3.457031 33.972656 3.480469 33.96875 3.511719 C 33.960938 3.542969 33.941406 3.59375 33.917969 3.667969 C 33.890625 3.785156 33.867188 3.878906 33.84375 3.953125 C 33.824219 4.03125 33.800781 4.113281 33.773438 4.199219 L 34.738281 4.199219 C 34.84375 4.199219 34.925781 4.199219 34.984375 4.199219 C 35.042969 4.195312 35.105469 4.183594 35.167969 4.171875 Z M 34.492188 4.457031 L 33.671875 4.457031 C 33.664062 4.476562 33.65625 4.496094 33.652344 4.507812 C 33.652344 4.523438 33.644531 4.539062 33.628906 4.558594 C 33.664062 4.773438 33.703125 4.964844 33.742188 5.132812 C 33.785156 5.296875 33.828125 5.453125 33.886719 5.597656 C 33.949219 5.734375 34.015625 5.875 34.089844 6.015625 C 34.253906 5.710938 34.371094 5.367188 34.441406 4.992188 C 34.453125 4.910156 34.460938 4.835938 34.46875 4.765625 C 34.476562 4.699219 34.484375 4.597656 34.492188 4.457031 Z M 32.933594 6.890625 L 32.769531 7.144531 C 32.699219 7.09375 32.640625 7.046875 32.585938 7.011719 C 32.535156 6.980469 32.488281 6.949219 32.441406 6.921875 C 32.402344 6.894531 32.34375 6.863281 32.269531 6.828125 C 32.179688 6.917969 32.082031 6.996094 31.980469 7.0625 C 31.878906 7.125 31.761719 7.1875 31.632812 7.25 C 31.5 7.308594 31.34375 7.371094 31.160156 7.433594 C 31.125 7.34375 31.078125 7.261719 31.019531 7.1875 C 31.226562 7.125 31.417969 7.058594 31.582031 6.980469 C 31.746094 6.898438 31.890625 6.804688 32.023438 6.695312 C 31.953125 6.667969 31.886719 6.640625 31.828125 6.613281 C 31.769531 6.585938 31.703125 6.558594 31.621094 6.53125 C 31.546875 6.496094 31.449219 6.457031 31.324219 6.417969 C 31.378906 6.351562 31.417969 6.292969 31.449219 6.242188 C 31.480469 6.1875 31.511719 6.136719 31.539062 6.089844 C 31.574219 6.042969 31.613281 5.988281 31.652344 5.925781 L 31.375 5.925781 C 31.292969 5.925781 31.226562 5.925781 31.183594 5.925781 C 31.132812 5.925781 31.089844 5.933594 31.046875 5.945312 L 31.046875 5.65625 C 31.113281 5.671875 31.226562 5.679688 31.375 5.679688 L 31.777344 5.679688 C 31.800781 5.617188 31.828125 5.566406 31.847656 5.523438 C 31.867188 5.476562 31.890625 5.410156 31.917969 5.320312 L 32.1875 5.382812 C 32.15625 5.457031 32.136719 5.511719 32.125 5.546875 C 32.109375 5.582031 32.089844 5.625 32.0625 5.679688 L 32.890625 5.679688 C 32.972656 5.679688 33.039062 5.679688 33.085938 5.679688 C 33.132812 5.671875 33.179688 5.664062 33.21875 5.65625 L 33.21875 5.945312 C 33.171875 5.933594 33.125 5.925781 33.078125 5.925781 C 33.027344 5.925781 32.96875 5.925781 32.890625 5.925781 L 32.800781 5.925781 C 32.765625 6.035156 32.730469 6.128906 32.699219 6.203125 C 32.667969 6.277344 32.636719 6.34375 32.59375 6.40625 C 32.558594 6.46875 32.511719 6.539062 32.453125 6.621094 C 32.519531 6.652344 32.574219 6.679688 32.617188 6.703125 C 32.660156 6.726562 32.707031 6.75 32.75 6.777344 C 32.796875 6.804688 32.855469 6.84375 32.933594 6.890625 Z M 32.523438 5.925781 L 31.941406 5.925781 C 31.902344 5.988281 31.871094 6.042969 31.835938 6.089844 C 31.808594 6.136719 31.769531 6.207031 31.714844 6.292969 C 31.796875 6.332031 31.859375 6.355469 31.910156 6.375 C 31.960938 6.398438 32.015625 6.417969 32.0625 6.4375 C 32.109375 6.457031 32.160156 6.484375 32.214844 6.507812 C 32.296875 6.40625 32.359375 6.316406 32.402344 6.234375 C 32.445312 6.152344 32.488281 6.046875 32.523438 5.925781 Z M 32.289062 4.242188 L 32.890625 4.242188 C 32.972656 4.242188 33.035156 4.242188 33.078125 4.242188 C 33.117188 4.238281 33.160156 4.230469 33.199219 4.222656 L 33.199219 4.5 C 33.160156 4.492188 33.113281 4.488281 33.066406 4.488281 C 33.027344 4.484375 32.96875 4.476562 32.890625 4.476562 L 32.441406 4.476562 C 32.570312 4.640625 32.753906 4.792969 32.996094 4.929688 C 32.972656 4.949219 32.953125 4.96875 32.933594 4.992188 C 32.917969 5.007812 32.90625 5.023438 32.890625 5.042969 C 32.878906 5.0625 32.855469 5.097656 32.820312 5.144531 C 32.730469 5.078125 32.65625 5.015625 32.59375 4.960938 C 32.535156 4.90625 32.476562 4.847656 32.421875 4.785156 C 32.371094 4.71875 32.320312 4.640625 32.269531 4.550781 C 32.273438 4.617188 32.277344 4.671875 32.277344 4.703125 C 32.28125 4.738281 32.289062 4.777344 32.289062 4.816406 L 32.289062 5.074219 C 32.289062 5.109375 32.289062 5.140625 32.289062 5.175781 C 32.292969 5.203125 32.300781 5.234375 32.308594 5.269531 L 32.011719 5.269531 C 32.015625 5.234375 32.023438 5.203125 32.023438 5.175781 C 32.027344 5.140625 32.03125 5.113281 32.03125 5.082031 L 32.03125 4.828125 C 32.03125 4.78125 32.03125 4.738281 32.03125 4.703125 C 32.039062 4.671875 32.042969 4.621094 32.050781 4.558594 C 31.96875 4.691406 31.890625 4.804688 31.816406 4.898438 C 31.746094 4.996094 31.664062 5.089844 31.5625 5.175781 C 31.464844 5.257812 31.339844 5.355469 31.191406 5.464844 C 31.128906 5.375 31.0625 5.296875 30.988281 5.238281 C 31.152344 5.140625 31.277344 5.058594 31.375 4.980469 C 31.480469 4.90625 31.574219 4.816406 31.664062 4.714844 C 31.695312 4.679688 31.726562 4.648438 31.746094 4.621094 C 31.765625 4.597656 31.800781 4.546875 31.847656 4.476562 L 31.425781 4.476562 C 31.339844 4.476562 31.265625 4.484375 31.210938 4.488281 C 31.164062 4.488281 31.113281 4.492188 31.070312 4.5 L 31.070312 4.222656 C 31.113281 4.230469 31.167969 4.238281 31.222656 4.242188 C 31.277344 4.242188 31.347656 4.242188 31.4375 4.242188 L 32.03125 4.242188 L 32.03125 3.625 C 32.03125 3.566406 32.027344 3.511719 32.023438 3.472656 C 32.023438 3.425781 32.015625 3.375 32.011719 3.316406 L 32.308594 3.316406 C 32.300781 3.367188 32.292969 3.414062 32.289062 3.460938 C 32.289062 3.511719 32.289062 3.566406 32.289062 3.625 Z M 31.203125 3.511719 L 31.4375 3.410156 C 31.511719 3.527344 31.574219 3.632812 31.621094 3.71875 C 31.675781 3.800781 31.726562 3.902344 31.777344 4.015625 L 31.53125 4.117188 C 31.480469 3.996094 31.433594 3.894531 31.386719 3.8125 C 31.339844 3.722656 31.277344 3.625 31.203125 3.511719 Z M 32.871094 3.398438 L 33.117188 3.511719 C 33.070312 3.617188 33.027344 3.707031 32.984375 3.78125 C 32.945312 3.847656 32.902344 3.914062 32.863281 3.976562 C 32.824219 4.035156 32.78125 4.101562 32.730469 4.171875 L 32.492188 4.058594 C 32.582031 3.949219 32.652344 3.847656 32.707031 3.75 C 32.769531 3.648438 32.824219 3.53125 32.871094 3.398438 Z M 32.871094 3.398438 " fill-opacity="1" fill-rule="nonzero"/><path fill="#00bf63" d="M 37.445312 3.8125 L 37.445312 3.675781 C 37.445312 3.59375 37.441406 3.527344 37.433594 3.472656 C 37.433594 3.410156 37.429688 3.355469 37.425781 3.296875 L 37.785156 3.296875 C 37.769531 3.355469 37.757812 3.410156 37.753906 3.472656 C 37.753906 3.527344 37.753906 3.59375 37.753906 3.675781 L 37.753906 3.8125 L 39.074219 3.8125 C 39.167969 3.8125 39.253906 3.8125 39.332031 3.8125 C 39.414062 3.804688 39.488281 3.796875 39.566406 3.789062 C 39.558594 3.839844 39.550781 3.890625 39.546875 3.945312 C 39.546875 4 39.546875 4.066406 39.546875 4.140625 L 39.546875 4.40625 C 39.546875 4.460938 39.546875 4.515625 39.546875 4.570312 C 39.550781 4.617188 39.558594 4.671875 39.566406 4.722656 L 39.257812 4.722656 L 39.257812 4.078125 L 36.042969 4.078125 L 36.042969 4.722656 L 35.734375 4.722656 C 35.738281 4.671875 35.746094 4.617188 35.753906 4.570312 C 35.761719 4.515625 35.765625 4.460938 35.765625 4.40625 L 35.765625 4.140625 C 35.765625 4.074219 35.761719 4.011719 35.753906 3.953125 C 35.753906 3.902344 35.746094 3.847656 35.734375 3.789062 C 35.816406 3.796875 35.894531 3.804688 35.96875 3.8125 C 36.042969 3.8125 36.128906 3.8125 36.226562 3.8125 Z M 36.15625 5.699219 L 37.484375 5.699219 C 37.484375 5.617188 37.480469 5.550781 37.476562 5.492188 C 37.476562 5.441406 37.472656 5.386719 37.464844 5.339844 L 37.691406 5.339844 C 37.796875 5.277344 37.894531 5.222656 37.976562 5.175781 C 38.058594 5.128906 38.136719 5.078125 38.214844 5.023438 C 38.296875 4.960938 38.382812 4.886719 38.480469 4.804688 L 36.726562 4.804688 C 36.554688 4.804688 36.410156 4.816406 36.289062 4.835938 L 36.289062 4.519531 C 36.339844 4.527344 36.402344 4.535156 36.472656 4.539062 C 36.546875 4.546875 36.628906 4.550781 36.726562 4.550781 L 38.5 4.550781 C 38.65625 4.550781 38.769531 4.542969 38.839844 4.527344 L 38.992188 4.714844 C 38.964844 4.742188 38.945312 4.761719 38.929688 4.777344 C 38.914062 4.789062 38.882812 4.820312 38.828125 4.867188 C 38.710938 4.957031 38.601562 5.042969 38.5 5.125 C 38.398438 5.203125 38.289062 5.273438 38.171875 5.339844 C 38.0625 5.410156 37.9375 5.480469 37.792969 5.554688 L 37.792969 5.699219 L 39.144531 5.699219 C 39.335938 5.699219 39.496094 5.695312 39.628906 5.679688 L 39.628906 5.996094 C 39.496094 5.976562 39.335938 5.964844 39.144531 5.964844 L 37.792969 5.964844 L 37.792969 7.011719 C 37.792969 7.148438 37.753906 7.242188 37.679688 7.300781 C 37.613281 7.355469 37.484375 7.382812 37.300781 7.382812 C 37.210938 7.382812 37.121094 7.375 37.023438 7.371094 C 36.9375 7.371094 36.835938 7.363281 36.726562 7.351562 C 36.71875 7.292969 36.710938 7.25 36.699219 7.207031 C 36.691406 7.167969 36.671875 7.113281 36.644531 7.042969 C 36.742188 7.0625 36.851562 7.082031 36.972656 7.09375 C 37.097656 7.109375 37.203125 7.113281 37.292969 7.113281 C 37.367188 7.113281 37.417969 7.105469 37.445312 7.085938 C 37.472656 7.0625 37.484375 7.03125 37.484375 6.980469 L 37.484375 5.964844 L 36.15625 5.964844 C 35.96875 5.964844 35.8125 5.976562 35.683594 5.996094 L 35.683594 5.679688 C 35.75 5.6875 35.820312 5.695312 35.898438 5.699219 C 35.972656 5.699219 36.058594 5.699219 36.15625 5.699219 Z M 36.15625 5.699219 " fill-opacity="1" fill-rule="nonzero"/><path fill="#00bf63" d="M 41.515625 4.035156 L 41.589844 4.035156 C 41.664062 3.871094 41.714844 3.746094 41.742188 3.65625 C 41.773438 3.5625 41.796875 3.480469 41.804688 3.410156 L 42.171875 3.472656 C 42.15625 3.492188 42.144531 3.511719 42.140625 3.523438 C 42.132812 3.539062 42.125 3.558594 42.109375 3.585938 C 42.09375 3.613281 42.074219 3.65625 42.050781 3.71875 C 42.019531 3.796875 41.992188 3.859375 41.96875 3.914062 C 41.9375 3.96875 41.921875 4.003906 41.914062 4.027344 C 41.941406 4.027344 41.960938 4.027344 41.96875 4.027344 C 41.972656 4.027344 41.988281 4.027344 42.007812 4.027344 C 42.371094 4.003906 42.667969 3.984375 42.898438 3.953125 C 43.136719 3.929688 43.320312 3.894531 43.441406 3.851562 L 43.472656 4.160156 C 43.4375 4.167969 43.40625 4.175781 43.382812 4.179688 C 43.359375 4.179688 43.328125 4.183594 43.289062 4.191406 C 43.046875 4.21875 42.808594 4.242188 42.5625 4.261719 C 42.320312 4.28125 42.0625 4.296875 41.78125 4.304688 C 41.714844 4.441406 41.648438 4.558594 41.589844 4.664062 C 41.527344 4.761719 41.453125 4.855469 41.371094 4.949219 C 41.351562 4.984375 41.320312 5.023438 41.28125 5.0625 C 41.246094 5.105469 41.222656 5.125 41.21875 5.125 C 41.183594 5.152344 41.164062 5.171875 41.15625 5.175781 C 41.15625 5.183594 41.15625 5.1875 41.15625 5.1875 C 41.15625 5.195312 41.15625 5.195312 41.15625 5.195312 C 41.210938 5.15625 41.253906 5.128906 41.28125 5.113281 C 41.304688 5.09375 41.324219 5.082031 41.332031 5.074219 C 41.34375 5.058594 41.359375 5.050781 41.371094 5.042969 C 41.582031 4.894531 41.8125 4.816406 42.058594 4.816406 C 42.40625 4.816406 42.609375 4.984375 42.664062 5.320312 C 42.832031 5.253906 42.984375 5.195312 43.113281 5.144531 C 43.242188 5.097656 43.359375 5.058594 43.460938 5.023438 C 43.539062 4.996094 43.589844 4.976562 43.625 4.960938 C 43.660156 4.949219 43.6875 4.9375 43.707031 4.929688 C 43.730469 4.917969 43.75 4.902344 43.769531 4.886719 L 43.914062 5.207031 C 43.796875 5.226562 43.636719 5.273438 43.433594 5.339844 C 43.226562 5.410156 42.980469 5.5 42.695312 5.605469 C 42.699219 5.667969 42.703125 5.71875 42.703125 5.75 C 42.703125 5.785156 42.703125 5.828125 42.703125 5.882812 C 42.703125 5.917969 42.703125 5.960938 42.703125 6.007812 C 42.703125 6.046875 42.703125 6.09375 42.703125 6.140625 C 42.695312 6.1875 42.695312 6.230469 42.695312 6.261719 C 42.695312 6.300781 42.695312 6.324219 42.695312 6.34375 C 42.695312 6.382812 42.695312 6.40625 42.695312 6.425781 C 42.699219 6.449219 42.703125 6.476562 42.703125 6.507812 L 42.398438 6.519531 C 42.402344 6.464844 42.410156 6.375 42.417969 6.253906 C 42.421875 6.128906 42.429688 5.996094 42.429688 5.851562 C 42.429688 5.820312 42.429688 5.796875 42.429688 5.78125 C 42.429688 5.769531 42.421875 5.746094 42.417969 5.71875 C 42.109375 5.863281 41.886719 5.996094 41.753906 6.121094 C 41.621094 6.238281 41.558594 6.363281 41.558594 6.5 C 41.558594 6.652344 41.628906 6.765625 41.773438 6.839844 C 41.921875 6.90625 42.160156 6.941406 42.488281 6.941406 C 42.636719 6.941406 42.789062 6.9375 42.941406 6.921875 C 43.097656 6.898438 43.238281 6.875 43.371094 6.847656 C 43.507812 6.824219 43.617188 6.792969 43.707031 6.757812 L 43.75 7.113281 C 43.714844 7.113281 43.6875 7.113281 43.667969 7.113281 C 43.648438 7.121094 43.613281 7.128906 43.566406 7.136719 C 43.386719 7.160156 43.203125 7.183594 43.011719 7.199219 C 42.820312 7.21875 42.636719 7.226562 42.457031 7.226562 C 41.644531 7.226562 41.238281 6.992188 41.238281 6.519531 C 41.238281 6.269531 41.394531 6.027344 41.699219 5.800781 C 41.855469 5.6875 42.085938 5.5625 42.386719 5.433594 C 42.367188 5.308594 42.324219 5.222656 42.265625 5.164062 C 42.207031 5.105469 42.132812 5.074219 42.027344 5.074219 C 41.726562 5.074219 41.386719 5.234375 41.003906 5.554688 C 40.914062 5.632812 40.84375 5.699219 40.789062 5.761719 C 40.734375 5.816406 40.6875 5.875 40.65625 5.933594 L 40.398438 5.679688 C 40.554688 5.554688 40.722656 5.382812 40.902344 5.15625 C 41.085938 4.925781 41.261719 4.660156 41.425781 4.363281 C 41.429688 4.359375 41.433594 4.351562 41.433594 4.34375 C 41.441406 4.339844 41.449219 4.324219 41.464844 4.304688 C 41.4375 4.3125 41.40625 4.3125 41.371094 4.3125 C 41.359375 4.3125 41.324219 4.3125 41.269531 4.3125 C 41.214844 4.308594 41.148438 4.304688 41.074219 4.304688 C 41.007812 4.304688 40.9375 4.304688 40.871094 4.304688 C 40.800781 4.296875 40.746094 4.292969 40.707031 4.292969 C 40.691406 4.292969 40.679688 4.292969 40.667969 4.292969 C 40.652344 4.292969 40.640625 4.292969 40.636719 4.292969 C 40.613281 4.292969 40.597656 4.292969 40.585938 4.292969 C 40.570312 4.292969 40.554688 4.296875 40.53125 4.304688 L 40.53125 3.984375 C 40.613281 4 40.742188 4.011719 40.910156 4.027344 C 41.082031 4.035156 41.285156 4.035156 41.515625 4.035156 Z M 41.515625 4.035156 " fill-opacity="1" fill-rule="nonzero"/><g clip-path="url(#4725fcfdbb)"><path fill="#00bf63" d="M 47.351562 5.925781 L 47.972656 5.925781 C 48.101562 5.925781 48.210938 5.921875 48.292969 5.914062 C 48.285156 5.972656 48.277344 6.023438 48.273438 6.078125 C 48.273438 6.136719 48.273438 6.195312 48.273438 6.261719 L 48.273438 7.074219 C 48.273438 7.199219 48.28125 7.324219 48.300781 7.453125 L 47.972656 7.453125 L 47.972656 7.238281 L 45.617188 7.238281 L 45.617188 7.453125 L 45.300781 7.453125 C 45.320312 7.316406 45.332031 7.191406 45.332031 7.074219 L 45.332031 6.261719 C 45.332031 6.195312 45.328125 6.136719 45.320312 6.078125 C 45.3125 6.023438 45.304688 5.972656 45.300781 5.914062 C 45.386719 5.921875 45.5 5.925781 45.640625 5.925781 L 46.960938 5.925781 L 47.699219 5.289062 L 45.75 5.289062 C 45.667969 5.289062 45.589844 5.292969 45.515625 5.296875 C 45.445312 5.304688 45.382812 5.3125 45.320312 5.320312 L 45.320312 5.023438 C 45.382812 5.03125 45.445312 5.035156 45.503906 5.042969 C 45.566406 5.042969 45.640625 5.042969 45.730469 5.042969 L 47.636719 5.042969 C 47.730469 5.042969 47.804688 5.042969 47.851562 5.042969 C 47.90625 5.035156 47.953125 5.03125 47.996094 5.023438 L 48.179688 5.207031 C 48.171875 5.207031 48.164062 5.210938 48.160156 5.214844 C 48.152344 5.214844 48.140625 5.226562 48.128906 5.246094 C 48.128906 5.246094 48.121094 5.253906 48.109375 5.257812 C 48.101562 5.265625 48.09375 5.277344 48.085938 5.289062 C 48.078125 5.289062 48.070312 5.296875 48.054688 5.308594 C 48.042969 5.324219 48.027344 5.335938 48.003906 5.351562 Z M 45.617188 6.179688 L 45.617188 6.980469 L 47.972656 6.980469 L 47.972656 6.179688 Z M 46.613281 3.339844 L 46.917969 3.339844 C 47.027344 3.46875 47.132812 3.589844 47.238281 3.699219 C 47.34375 3.800781 47.460938 3.902344 47.585938 4.003906 C 47.707031 4.101562 47.851562 4.199219 48.015625 4.304688 C 48.179688 4.40625 48.332031 4.496094 48.476562 4.570312 C 48.621094 4.640625 48.777344 4.703125 48.949219 4.765625 C 48.910156 4.804688 48.878906 4.847656 48.84375 4.886719 C 48.816406 4.929688 48.789062 4.980469 48.761719 5.042969 C 48.347656 4.84375 47.972656 4.628906 47.648438 4.394531 C 47.320312 4.15625 47.027344 3.886719 46.777344 3.585938 C 46.664062 3.714844 46.5625 3.832031 46.46875 3.933594 C 46.371094 4.03125 46.277344 4.117188 46.183594 4.199219 C 46.085938 4.28125 45.980469 4.363281 45.863281 4.445312 C 45.707031 4.570312 45.546875 4.679688 45.382812 4.777344 C 45.21875 4.871094 45.039062 4.964844 44.851562 5.050781 C 44.8125 4.992188 44.785156 4.949219 44.757812 4.917969 C 44.738281 4.886719 44.699219 4.84375 44.644531 4.796875 C 44.828125 4.730469 45.007812 4.648438 45.175781 4.550781 C 45.347656 4.453125 45.515625 4.347656 45.679688 4.230469 C 45.875 4.101562 46.050781 3.964844 46.203125 3.820312 C 46.351562 3.671875 46.488281 3.511719 46.613281 3.339844 Z M 46.007812 4.683594 L 46.007812 4.394531 C 46.070312 4.402344 46.121094 4.410156 46.171875 4.417969 C 46.226562 4.417969 46.296875 4.417969 46.386719 4.417969 L 47.214844 4.417969 C 47.3125 4.417969 47.382812 4.417969 47.429688 4.417969 C 47.484375 4.410156 47.539062 4.402344 47.59375 4.394531 L 47.59375 4.683594 C 47.539062 4.679688 47.484375 4.671875 47.429688 4.671875 C 47.375 4.667969 47.304688 4.664062 47.214844 4.664062 L 46.398438 4.664062 C 46.308594 4.664062 46.234375 4.667969 46.171875 4.671875 C 46.113281 4.671875 46.0625 4.679688 46.007812 4.683594 Z M 46.007812 4.683594 " fill-opacity="1" fill-rule="nonzero"/></g><path fill="#000000" d="M 5.042969 17.410156 L 26.769531 17.410156 L 26.769531 17.902344 L 5.042969 17.902344 Z M 5.042969 17.410156 " fill-opacity="1" fill-rule="nonzero"/><path fill="#000000" d="M 7.050781 15.308594 C 6.640625 15.308594 6.324219 15.378906 6.097656 15.515625 C 5.871094 15.652344 5.757812 15.839844 5.757812 16.078125 C 5.757812 16.257812 5.8125 16.398438 5.921875 16.5 C 6.03125 16.597656 6.179688 16.644531 6.363281 16.644531 C 6.636719 16.644531 6.871094 16.546875 7.070312 16.355469 C 7.269531 16.160156 7.367188 15.917969 7.367188 15.636719 L 7.367188 15.359375 C 7.367188 15.328125 7.351562 15.308594 7.316406 15.308594 Z M 6.261719 16.980469 C 5.980469 16.980469 5.753906 16.90625 5.585938 16.746094 C 5.421875 16.582031 5.339844 16.367188 5.339844 16.097656 C 5.339844 15.757812 5.484375 15.488281 5.78125 15.289062 C 6.078125 15.082031 6.503906 14.980469 7.050781 14.980469 L 7.316406 14.980469 C 7.351562 14.980469 7.367188 14.964844 7.367188 14.929688 C 7.359375 14.640625 7.300781 14.441406 7.183594 14.324219 C 7.074219 14.207031 6.878906 14.148438 6.601562 14.148438 C 6.3125 14.148438 6.019531 14.214844 5.730469 14.34375 C 5.6875 14.359375 5.648438 14.359375 5.605469 14.34375 C 5.566406 14.324219 5.539062 14.289062 5.535156 14.242188 C 5.519531 14.195312 5.523438 14.148438 5.542969 14.097656 C 5.570312 14.050781 5.609375 14.015625 5.65625 13.996094 C 5.957031 13.867188 6.273438 13.800781 6.601562 13.800781 C 7.03125 13.800781 7.335938 13.890625 7.523438 14.066406 C 7.707031 14.238281 7.796875 14.527344 7.796875 14.941406 L 7.796875 16.097656 C 7.796875 16.300781 7.8125 16.503906 7.847656 16.714844 C 7.855469 16.769531 7.84375 16.816406 7.808594 16.859375 C 7.773438 16.898438 7.730469 16.921875 7.675781 16.921875 C 7.613281 16.921875 7.558594 16.90625 7.511719 16.867188 C 7.46875 16.828125 7.445312 16.777344 7.441406 16.714844 C 7.425781 16.640625 7.414062 16.53125 7.410156 16.386719 C 7.410156 16.382812 7.410156 16.375 7.410156 16.375 C 7.402344 16.375 7.398438 16.382812 7.398438 16.386719 C 7.289062 16.570312 7.136719 16.71875 6.9375 16.828125 C 6.738281 16.929688 6.511719 16.980469 6.261719 16.980469 Z M 6.261719 16.980469 " fill-opacity="1" fill-rule="nonzero"/><path fill="#000000" d="M 9.828125 14.148438 C 9.539062 14.148438 9.316406 14.261719 9.152344 14.476562 C 8.992188 14.691406 8.914062 14.996094 8.914062 15.390625 C 8.914062 15.789062 8.996094 16.09375 9.160156 16.304688 C 9.324219 16.515625 9.546875 16.621094 9.828125 16.621094 C 10.09375 16.621094 10.308594 16.519531 10.472656 16.316406 C 10.640625 16.105469 10.730469 15.808594 10.730469 15.433594 L 10.730469 15.351562 C 10.730469 14.976562 10.640625 14.679688 10.472656 14.46875 C 10.308594 14.257812 10.09375 14.148438 9.828125 14.148438 Z M 9.726562 16.980469 C 9.347656 16.980469 9.046875 16.847656 8.824219 16.570312 C 8.601562 16.292969 8.496094 15.898438 8.496094 15.390625 C 8.496094 14.878906 8.601562 14.484375 8.824219 14.210938 C 9.042969 13.9375 9.339844 13.800781 9.726562 13.800781 C 10.160156 13.800781 10.488281 13.984375 10.707031 14.34375 C 10.707031 14.351562 10.710938 14.355469 10.71875 14.355469 C 10.722656 14.355469 10.730469 14.355469 10.730469 14.355469 L 10.730469 12.722656 C 10.730469 12.660156 10.75 12.609375 10.789062 12.570312 C 10.835938 12.523438 10.886719 12.496094 10.945312 12.496094 C 11.003906 12.496094 11.058594 12.523438 11.097656 12.570312 C 11.140625 12.609375 11.160156 12.660156 11.160156 12.722656 L 11.160156 16.714844 C 11.160156 16.769531 11.140625 16.816406 11.097656 16.859375 C 11.058594 16.898438 11.007812 16.921875 10.953125 16.921875 C 10.898438 16.921875 10.851562 16.898438 10.8125 16.859375 C 10.769531 16.816406 10.75 16.769531 10.75 16.714844 L 10.738281 16.40625 C 10.738281 16.402344 10.738281 16.398438 10.738281 16.398438 C 10.722656 16.398438 10.71875 16.402344 10.71875 16.40625 C 10.507812 16.792969 10.175781 16.980469 9.726562 16.980469 Z M 9.726562 16.980469 " fill-opacity="1" fill-rule="nonzero"/><path fill="#000000" d="M 13.226562 14.148438 C 12.9375 14.148438 12.714844 14.261719 12.550781 14.476562 C 12.390625 14.691406 12.3125 14.996094 12.3125 15.390625 C 12.3125 15.789062 12.394531 16.09375 12.558594 16.304688 C 12.722656 16.515625 12.945312 16.621094 13.226562 16.621094 C 13.492188 16.621094 13.707031 16.519531 13.871094 16.316406 C 14.039062 16.105469 14.128906 15.808594 14.128906 15.433594 L 14.128906 15.351562 C 14.128906 14.976562 14.039062 14.679688 13.871094 14.46875 C 13.707031 14.257812 13.492188 14.148438 13.226562 14.148438 Z M 13.125 16.980469 C 12.746094 16.980469 12.445312 16.847656 12.222656 16.570312 C 12 16.292969 11.894531 15.898438 11.894531 15.390625 C 11.894531 14.878906 12 14.484375 12.222656 14.210938 C 12.441406 13.9375 12.738281 13.800781 13.125 13.800781 C 13.558594 13.800781 13.886719 13.984375 14.105469 14.34375 C 14.105469 14.351562 14.109375 14.355469 14.117188 14.355469 C 14.121094 14.355469 14.128906 14.355469 14.128906 14.355469 L 14.128906 12.722656 C 14.128906 12.660156 14.148438 12.609375 14.1875 12.570312 C 14.234375 12.523438 14.285156 12.496094 14.34375 12.496094 C 14.402344 12.496094 14.457031 12.523438 14.496094 12.570312 C 14.539062 12.609375 14.558594 12.660156 14.558594 12.722656 L 14.558594 16.714844 C 14.558594 16.769531 14.539062 16.816406 14.496094 16.859375 C 14.457031 16.898438 14.40625 16.921875 14.351562 16.921875 C 14.296875 16.921875 14.25 16.898438 14.210938 16.859375 C 14.167969 16.816406 14.148438 16.769531 14.148438 16.714844 L 14.136719 16.40625 C 14.136719 16.402344 14.136719 16.398438 14.136719 16.398438 C 14.121094 16.398438 14.117188 16.402344 14.117188 16.40625 C 13.90625 16.792969 13.574219 16.980469 13.125 16.980469 Z M 13.125 16.980469 " fill-opacity="1" fill-rule="nonzero"/><path fill="#000000" d="M 15.90625 15.464844 L 15.90625 16.703125 C 15.90625 16.765625 15.882812 16.816406 15.835938 16.859375 C 15.792969 16.898438 15.742188 16.921875 15.683594 16.921875 C 15.621094 16.921875 15.570312 16.898438 15.527344 16.859375 C 15.488281 16.816406 15.464844 16.765625 15.464844 16.703125 L 15.464844 14.066406 C 15.464844 14.011719 15.488281 13.964844 15.527344 13.921875 C 15.570312 13.882812 15.613281 13.863281 15.671875 13.863281 C 15.734375 13.863281 15.785156 13.882812 15.824219 13.921875 C 15.867188 13.964844 15.886719 14.011719 15.886719 14.066406 L 15.898438 14.507812 C 15.902344 14.507812 15.90625 14.507812 15.90625 14.507812 C 16.214844 14.085938 16.640625 13.847656 17.1875 13.800781 C 17.234375 13.800781 17.273438 13.820312 17.3125 13.851562 C 17.34375 13.886719 17.363281 13.929688 17.363281 13.984375 C 17.363281 14.035156 17.34375 14.074219 17.3125 14.109375 C 17.28125 14.144531 17.242188 14.167969 17.1875 14.179688 C 16.796875 14.214844 16.484375 14.351562 16.253906 14.589844 C 16.023438 14.824219 15.90625 15.113281 15.90625 15.464844 Z M 15.90625 15.464844 " fill-opacity="1" fill-rule="nonzero"/><path fill="#000000" d="M 19.339844 14.148438 C 19.050781 14.148438 18.820312 14.238281 18.640625 14.417969 C 18.472656 14.597656 18.378906 14.84375 18.367188 15.164062 C 18.367188 15.203125 18.382812 15.214844 18.417969 15.214844 L 20.199219 15.214844 C 20.234375 15.214844 20.25 15.203125 20.25 15.164062 C 20.230469 14.835938 20.140625 14.589844 19.984375 14.417969 C 19.824219 14.238281 19.609375 14.148438 19.339844 14.148438 Z M 19.390625 16.980469 C 18.953125 16.980469 18.597656 16.839844 18.324219 16.550781 C 18.058594 16.261719 17.925781 15.878906 17.925781 15.390625 C 17.925781 14.894531 18.050781 14.503906 18.304688 14.222656 C 18.554688 13.941406 18.902344 13.800781 19.339844 13.800781 C 19.734375 13.800781 20.046875 13.921875 20.28125 14.171875 C 20.511719 14.410156 20.640625 14.761719 20.660156 15.214844 C 20.664062 15.3125 20.636719 15.394531 20.570312 15.464844 C 20.507812 15.523438 20.425781 15.554688 20.332031 15.554688 L 18.417969 15.554688 C 18.382812 15.554688 18.367188 15.570312 18.367188 15.597656 C 18.378906 15.917969 18.480469 16.171875 18.671875 16.355469 C 18.871094 16.539062 19.125 16.632812 19.429688 16.632812 C 19.703125 16.632812 19.953125 16.582031 20.179688 16.480469 C 20.21875 16.457031 20.261719 16.457031 20.300781 16.480469 C 20.347656 16.496094 20.378906 16.523438 20.394531 16.570312 C 20.40625 16.613281 20.40625 16.660156 20.382812 16.703125 C 20.367188 16.753906 20.335938 16.785156 20.292969 16.808594 C 20.027344 16.921875 19.722656 16.980469 19.390625 16.980469 Z M 19.390625 16.980469 " fill-opacity="1" fill-rule="nonzero"/><path fill="#000000" d="M 22.382812 16.621094 C 22.609375 16.621094 22.785156 16.578125 22.90625 16.488281 C 23.03125 16.402344 23.089844 16.273438 23.089844 16.109375 C 23.089844 15.953125 23.035156 15.832031 22.925781 15.75 C 22.816406 15.664062 22.625 15.59375 22.351562 15.546875 C 21.964844 15.476562 21.683594 15.371094 21.511719 15.226562 C 21.339844 15.078125 21.257812 14.875 21.257812 14.621094 C 21.257812 14.371094 21.355469 14.171875 21.554688 14.027344 C 21.75 13.878906 22.027344 13.800781 22.382812 13.800781 C 22.691406 13.800781 22.980469 13.855469 23.253906 13.964844 C 23.300781 13.984375 23.335938 14.019531 23.355469 14.066406 C 23.382812 14.109375 23.386719 14.15625 23.367188 14.210938 C 23.351562 14.253906 23.328125 14.289062 23.285156 14.3125 C 23.246094 14.335938 23.203125 14.335938 23.164062 14.3125 C 22.910156 14.207031 22.652344 14.148438 22.382812 14.148438 C 22.152344 14.148438 21.972656 14.191406 21.851562 14.273438 C 21.734375 14.355469 21.675781 14.472656 21.675781 14.621094 C 21.675781 14.765625 21.726562 14.878906 21.832031 14.960938 C 21.9375 15.042969 22.128906 15.109375 22.40625 15.15625 C 22.808594 15.222656 23.09375 15.335938 23.265625 15.484375 C 23.441406 15.636719 23.53125 15.84375 23.53125 16.109375 C 23.53125 16.375 23.429688 16.589844 23.222656 16.746094 C 23.023438 16.90625 22.746094 16.980469 22.382812 16.980469 C 22.027344 16.980469 21.707031 16.914062 21.421875 16.777344 C 21.371094 16.75 21.332031 16.710938 21.308594 16.664062 C 21.289062 16.609375 21.28125 16.558594 21.296875 16.511719 C 21.3125 16.46875 21.339844 16.4375 21.378906 16.417969 C 21.425781 16.398438 21.46875 16.398438 21.503906 16.417969 C 21.789062 16.554688 22.082031 16.621094 22.382812 16.621094 Z M 22.382812 16.621094 " fill-opacity="1" fill-rule="nonzero"/><path fill="#000000" d="M 25.300781 16.621094 C 25.527344 16.621094 25.699219 16.578125 25.824219 16.488281 C 25.945312 16.402344 26.007812 16.273438 26.007812 16.109375 C 26.007812 15.953125 25.949219 15.832031 25.84375 15.75 C 25.734375 15.664062 25.542969 15.59375 25.269531 15.546875 C 24.878906 15.476562 24.597656 15.371094 24.429688 15.226562 C 24.257812 15.078125 24.171875 14.875 24.171875 14.621094 C 24.171875 14.371094 24.269531 14.171875 24.46875 14.027344 C 24.667969 13.878906 24.945312 13.800781 25.300781 13.800781 C 25.609375 13.800781 25.898438 13.855469 26.171875 13.964844 C 26.21875 13.984375 26.253906 14.019531 26.273438 14.066406 C 26.300781 14.109375 26.304688 14.15625 26.285156 14.210938 C 26.269531 14.253906 26.242188 14.289062 26.203125 14.3125 C 26.160156 14.335938 26.121094 14.335938 26.078125 14.3125 C 25.824219 14.207031 25.566406 14.148438 25.300781 14.148438 C 25.066406 14.148438 24.890625 14.191406 24.769531 14.273438 C 24.648438 14.355469 24.59375 14.472656 24.59375 14.621094 C 24.59375 14.765625 24.644531 14.878906 24.746094 14.960938 C 24.855469 15.042969 25.046875 15.109375 25.320312 15.15625 C 25.722656 15.222656 26.011719 15.335938 26.179688 15.484375 C 26.359375 15.636719 26.449219 15.84375 26.449219 16.109375 C 26.449219 16.375 26.34375 16.589844 26.140625 16.746094 C 25.941406 16.90625 25.660156 16.980469 25.300781 16.980469 C 24.945312 16.980469 24.625 16.914062 24.335938 16.777344 C 24.289062 16.75 24.25 16.710938 24.226562 16.664062 C 24.203125 16.609375 24.199219 16.558594 24.214844 16.511719 C 24.226562 16.46875 24.253906 16.4375 24.296875 16.417969 C 24.34375 16.398438 24.382812 16.398438 24.417969 16.417969 C 24.707031 16.554688 25 16.621094 25.300781 16.621094 Z M 25.300781 16.621094 " fill-opacity="1" fill-rule="nonzero"/><path fill="#737373" d="M 21.765625 29.847656 L 21.234375 29.847656 C 21.210938 29.75 21.1875 29.660156 21.160156 29.570312 C 21.132812 29.480469 21.101562 29.394531 21.070312 29.3125 L 20.792969 28.636719 L 18.980469 28.636719 L 18.703125 29.3125 C 18.660156 29.410156 18.625 29.503906 18.601562 29.589844 C 18.578125 29.671875 18.558594 29.757812 18.539062 29.847656 L 17.996094 29.847656 C 18.027344 29.785156 18.058594 29.734375 18.078125 29.691406 C 18.101562 29.648438 18.132812 29.585938 18.160156 29.519531 C 18.191406 29.453125 18.234375 29.359375 18.28125 29.242188 L 19.449219 26.359375 C 19.496094 26.234375 19.53125 26.140625 19.550781 26.070312 C 19.578125 25.996094 19.597656 25.925781 19.613281 25.863281 L 20.148438 25.863281 C 20.152344 25.902344 20.160156 25.933594 20.167969 25.96875 C 20.179688 26.003906 20.199219 26.050781 20.21875 26.109375 C 20.246094 26.167969 20.28125 26.25 20.320312 26.359375 L 21.488281 29.242188 C 21.554688 29.398438 21.613281 29.523438 21.652344 29.609375 C 21.695312 29.699219 21.730469 29.78125 21.765625 29.847656 Z M 20.667969 28.277344 L 19.992188 26.550781 C 19.992188 26.539062 19.988281 26.527344 19.984375 26.511719 C 19.976562 26.5 19.964844 26.46875 19.953125 26.429688 C 19.9375 26.382812 19.914062 26.3125 19.878906 26.214844 C 19.863281 26.253906 19.855469 26.289062 19.851562 26.316406 C 19.84375 26.34375 19.835938 26.367188 19.828125 26.386719 C 19.8125 26.429688 19.800781 26.464844 19.789062 26.492188 C 19.78125 26.519531 19.773438 26.539062 19.769531 26.550781 L 19.101562 28.277344 Z M 20.667969 28.277344 " fill-opacity="1" fill-rule="nonzero"/><path fill="#737373" d="M 24.425781 29.847656 L 24.425781 29.589844 C 24.425781 29.507812 24.429688 29.421875 24.433594 29.332031 C 24.195312 29.710938 23.84375 29.898438 23.378906 29.898438 C 22.976562 29.898438 22.65625 29.769531 22.425781 29.507812 C 22.195312 29.25 22.078125 28.890625 22.078125 28.429688 C 22.078125 28.128906 22.132812 27.875 22.242188 27.660156 C 22.351562 27.441406 22.5 27.269531 22.695312 27.148438 C 22.882812 27.023438 23.109375 26.964844 23.371094 26.964844 C 23.847656 26.964844 24.203125 27.152344 24.433594 27.527344 L 24.433594 27.445312 C 24.429688 27.390625 24.421875 27.347656 24.414062 27.3125 C 24.414062 27.269531 24.414062 27.226562 24.414062 27.167969 L 24.414062 26.460938 C 24.414062 26.34375 24.410156 26.242188 24.40625 26.152344 C 24.40625 26.066406 24.398438 25.96875 24.382812 25.863281 L 24.84375 25.863281 C 24.828125 25.976562 24.820312 26.074219 24.816406 26.164062 C 24.808594 26.246094 24.804688 26.34375 24.804688 26.460938 L 24.804688 29.242188 C 24.804688 29.371094 24.808594 29.480469 24.816406 29.570312 C 24.820312 29.652344 24.828125 29.742188 24.84375 29.847656 Z M 23.410156 27.3125 C 23.125 27.3125 22.898438 27.410156 22.734375 27.609375 C 22.574219 27.800781 22.5 28.070312 22.5 28.421875 C 22.5 28.59375 22.515625 28.75 22.550781 28.890625 C 22.589844 29.035156 22.644531 29.152344 22.714844 29.242188 C 22.878906 29.445312 23.109375 29.550781 23.410156 29.550781 C 23.71875 29.550781 23.960938 29.445312 24.136719 29.242188 C 24.324219 29.035156 24.414062 28.765625 24.414062 28.421875 C 24.414062 28.242188 24.386719 28.082031 24.332031 27.9375 C 24.285156 27.792969 24.210938 27.679688 24.117188 27.589844 C 23.925781 27.402344 23.691406 27.3125 23.410156 27.3125 Z M 23.410156 27.3125 " fill-opacity="1" fill-rule="nonzero"/><path fill="#737373" d="M 27.800781 29.847656 L 27.800781 29.589844 C 27.800781 29.507812 27.804688 29.421875 27.8125 29.332031 C 27.570312 29.710938 27.21875 29.898438 26.757812 29.898438 C 26.351562 29.898438 26.035156 29.769531 25.804688 29.507812 C 25.570312 29.25 25.457031 28.890625 25.457031 28.429688 C 25.457031 28.128906 25.507812 27.875 25.621094 27.660156 C 25.726562 27.441406 25.878906 27.269531 26.070312 27.148438 C 26.257812 27.023438 26.484375 26.964844 26.746094 26.964844 C 27.222656 26.964844 27.578125 27.152344 27.8125 27.527344 L 27.8125 27.445312 C 27.804688 27.390625 27.796875 27.347656 27.792969 27.3125 C 27.792969 27.269531 27.792969 27.226562 27.792969 27.167969 L 27.792969 26.460938 C 27.792969 26.34375 27.785156 26.242188 27.78125 26.152344 C 27.78125 26.066406 27.773438 25.96875 27.761719 25.863281 L 28.222656 25.863281 C 28.207031 25.976562 28.195312 26.074219 28.191406 26.164062 C 28.183594 26.246094 28.179688 26.34375 28.179688 26.460938 L 28.179688 29.242188 C 28.179688 29.371094 28.183594 29.480469 28.191406 29.570312 C 28.195312 29.652344 28.207031 29.742188 28.222656 29.847656 Z M 26.789062 27.3125 C 26.5 27.3125 26.273438 27.410156 26.109375 27.609375 C 25.953125 27.800781 25.875 28.070312 25.875 28.421875 C 25.875 28.59375 25.890625 28.75 25.925781 28.890625 C 25.96875 29.035156 26.023438 29.152344 26.089844 29.242188 C 26.253906 29.445312 26.484375 29.550781 26.789062 29.550781 C 27.09375 29.550781 27.335938 29.445312 27.515625 29.242188 C 27.699219 29.035156 27.792969 28.765625 27.792969 28.421875 C 27.792969 28.242188 27.761719 28.082031 27.710938 27.9375 C 27.660156 27.792969 27.589844 27.679688 27.496094 27.589844 C 27.300781 27.402344 27.066406 27.3125 26.789062 27.3125 Z M 26.789062 27.3125 " fill-opacity="1" fill-rule="nonzero"/><path fill="#737373" d="M 30.777344 27.023438 L 30.65625 27.425781 C 30.558594 27.398438 30.480469 27.382812 30.417969 27.375 C 30.363281 27.359375 30.300781 27.351562 30.234375 27.351562 C 29.96875 27.351562 29.753906 27.460938 29.589844 27.671875 C 29.527344 27.753906 29.480469 27.832031 29.457031 27.90625 C 29.429688 27.976562 29.410156 28.070312 29.40625 28.195312 L 29.40625 29.261719 C 29.40625 29.378906 29.40625 29.480469 29.40625 29.570312 C 29.410156 29.652344 29.421875 29.742188 29.4375 29.847656 L 28.964844 29.847656 C 28.976562 29.722656 28.988281 29.621094 28.996094 29.539062 C 29 29.457031 29.007812 29.363281 29.007812 29.25 L 29.007812 27.621094 C 29.007812 27.484375 29 27.375 28.996094 27.292969 C 28.988281 27.210938 28.976562 27.121094 28.964844 27.023438 L 29.40625 27.023438 L 29.40625 27.320312 C 29.40625 27.34375 29.40625 27.371094 29.40625 27.402344 C 29.40625 27.441406 29.398438 27.464844 29.394531 27.476562 C 29.441406 27.402344 29.488281 27.339844 29.527344 27.292969 C 29.574219 27.238281 29.625 27.195312 29.683594 27.15625 C 29.785156 27.097656 29.882812 27.054688 29.980469 27.023438 C 30.074219 26.992188 30.183594 26.972656 30.308594 26.972656 C 30.390625 26.972656 30.460938 26.980469 30.523438 26.992188 C 30.582031 27 30.667969 27.011719 30.777344 27.023438 Z M 30.777344 27.023438 " fill-opacity="1" fill-rule="nonzero"/><path fill="#737373" d="M 33.679688 28.492188 L 31.480469 28.492188 C 31.484375 28.671875 31.5 28.816406 31.53125 28.921875 C 31.5625 29.035156 31.617188 29.136719 31.695312 29.230469 C 31.863281 29.464844 32.109375 29.578125 32.429688 29.578125 C 32.855469 29.578125 33.140625 29.378906 33.292969 28.972656 L 33.652344 29.117188 C 33.601562 29.226562 33.558594 29.3125 33.515625 29.375 C 33.476562 29.4375 33.425781 29.496094 33.363281 29.550781 C 33.117188 29.796875 32.804688 29.917969 32.421875 29.917969 C 32.148438 29.917969 31.910156 29.863281 31.714844 29.742188 C 31.515625 29.621094 31.359375 29.453125 31.242188 29.230469 C 31.132812 29.003906 31.078125 28.742188 31.078125 28.441406 C 31.078125 28.140625 31.132812 27.882812 31.242188 27.660156 C 31.351562 27.433594 31.5 27.261719 31.695312 27.136719 C 31.890625 27.015625 32.117188 26.953125 32.378906 26.953125 C 32.714844 26.953125 32.996094 27.054688 33.21875 27.261719 C 33.449219 27.464844 33.589844 27.742188 33.640625 28.09375 C 33.644531 28.121094 33.652344 28.179688 33.660156 28.265625 C 33.664062 28.347656 33.671875 28.425781 33.679688 28.492188 Z M 31.5 28.164062 L 33.261719 28.164062 C 33.246094 28.019531 33.214844 27.898438 33.167969 27.792969 C 33.128906 27.691406 33.066406 27.605469 32.984375 27.527344 C 32.824219 27.371094 32.621094 27.292969 32.371094 27.292969 C 32.207031 27.292969 32.058594 27.332031 31.929688 27.414062 C 31.804688 27.492188 31.703125 27.597656 31.621094 27.742188 C 31.585938 27.8125 31.5625 27.875 31.539062 27.925781 C 31.523438 27.984375 31.511719 28.0625 31.5 28.164062 Z M 31.5 28.164062 " fill-opacity="1" fill-rule="nonzero"/><path fill="#737373" d="M 34.132812 29.078125 L 34.5625 29.003906 C 34.582031 29.109375 34.601562 29.1875 34.625 29.242188 C 34.648438 29.289062 34.691406 29.339844 34.746094 29.394531 C 34.875 29.511719 35.078125 29.570312 35.351562 29.570312 C 35.578125 29.570312 35.753906 29.527344 35.894531 29.4375 C 36.03125 29.347656 36.097656 29.226562 36.097656 29.066406 C 36.097656 28.921875 36.042969 28.816406 35.933594 28.75 C 35.894531 28.722656 35.847656 28.703125 35.800781 28.6875 C 35.753906 28.667969 35.691406 28.644531 35.617188 28.625 C 35.546875 28.605469 35.449219 28.582031 35.320312 28.554688 C 35.109375 28.511719 34.945312 28.476562 34.839844 28.441406 C 34.730469 28.398438 34.628906 28.347656 34.542969 28.285156 C 34.355469 28.160156 34.265625 27.972656 34.265625 27.734375 C 34.265625 27.542969 34.339844 27.375 34.492188 27.230469 C 34.675781 27.046875 34.945312 26.953125 35.300781 26.953125 C 35.660156 26.953125 35.933594 27.039062 36.121094 27.210938 C 36.1875 27.265625 36.242188 27.328125 36.28125 27.394531 C 36.324219 27.464844 36.359375 27.558594 36.394531 27.679688 L 35.984375 27.753906 C 35.972656 27.6875 35.957031 27.628906 35.933594 27.589844 C 35.917969 27.546875 35.894531 27.511719 35.851562 27.476562 C 35.730469 27.347656 35.546875 27.28125 35.308594 27.28125 C 35.117188 27.28125 34.960938 27.328125 34.839844 27.414062 C 34.714844 27.496094 34.652344 27.605469 34.652344 27.742188 C 34.652344 27.875 34.714844 27.96875 34.839844 28.03125 C 34.890625 28.070312 34.960938 28.105469 35.042969 28.132812 C 35.128906 28.152344 35.253906 28.179688 35.414062 28.214844 C 35.582031 28.25 35.71875 28.285156 35.820312 28.316406 C 35.925781 28.347656 36.007812 28.375 36.066406 28.410156 C 36.132812 28.4375 36.195312 28.472656 36.242188 28.511719 C 36.410156 28.652344 36.5 28.832031 36.5 29.054688 C 36.5 29.316406 36.390625 29.527344 36.179688 29.683594 C 35.976562 29.832031 35.695312 29.910156 35.339844 29.910156 C 35.101562 29.910156 34.890625 29.875 34.714844 29.804688 C 34.535156 29.730469 34.402344 29.628906 34.304688 29.496094 C 34.265625 29.445312 34.230469 29.390625 34.203125 29.332031 C 34.183594 29.273438 34.15625 29.1875 34.132812 29.078125 Z M 34.132812 29.078125 " fill-opacity="1" fill-rule="nonzero"/><path fill="#737373" d="M 36.9375 29.078125 L 37.367188 29.003906 C 37.390625 29.109375 37.410156 29.1875 37.429688 29.242188 C 37.457031 29.289062 37.496094 29.339844 37.554688 29.394531 C 37.679688 29.511719 37.882812 29.570312 38.15625 29.570312 C 38.382812 29.570312 38.5625 29.527344 38.699219 29.4375 C 38.835938 29.347656 38.90625 29.226562 38.90625 29.066406 C 38.90625 28.921875 38.847656 28.816406 38.742188 28.75 C 38.699219 28.722656 38.65625 28.703125 38.609375 28.6875 C 38.558594 28.667969 38.5 28.644531 38.425781 28.625 C 38.355469 28.605469 38.253906 28.582031 38.125 28.554688 C 37.914062 28.511719 37.753906 28.476562 37.644531 28.441406 C 37.535156 28.398438 37.433594 28.347656 37.347656 28.285156 C 37.164062 28.160156 37.070312 27.972656 37.070312 27.734375 C 37.070312 27.542969 37.144531 27.375 37.296875 27.230469 C 37.480469 27.046875 37.75 26.953125 38.105469 26.953125 C 38.46875 26.953125 38.742188 27.039062 38.925781 27.210938 C 38.992188 27.265625 39.046875 27.328125 39.089844 27.394531 C 39.128906 27.464844 39.167969 27.558594 39.203125 27.679688 L 38.792969 27.753906 C 38.777344 27.6875 38.761719 27.628906 38.742188 27.589844 C 38.726562 27.546875 38.699219 27.511719 38.660156 27.476562 C 38.535156 27.347656 38.355469 27.28125 38.117188 27.28125 C 37.925781 27.28125 37.769531 27.328125 37.644531 27.414062 C 37.523438 27.496094 37.460938 27.605469 37.460938 27.742188 C 37.460938 27.875 37.523438 27.96875 37.644531 28.03125 C 37.699219 28.070312 37.769531 28.105469 37.851562 28.132812 C 37.9375 28.152344 38.058594 28.179688 38.21875 28.214844 C 38.386719 28.25 38.527344 28.285156 38.628906 28.316406 C 38.730469 28.347656 38.8125 28.375 38.875 28.410156 C 38.941406 28.4375 39 28.472656 39.046875 28.511719 C 39.21875 28.652344 39.304688 28.832031 39.304688 29.054688 C 39.304688 29.316406 39.199219 29.527344 38.988281 29.683594 C 38.78125 29.832031 38.5 29.910156 38.148438 29.910156 C 37.90625 29.910156 37.699219 29.875 37.523438 29.804688 C 37.34375 29.730469 37.207031 29.628906 37.113281 29.496094 C 37.070312 29.445312 37.035156 29.390625 37.011719 29.332031 C 36.988281 29.273438 36.964844 29.1875 36.9375 29.078125 Z M 36.9375 29.078125 " fill-opacity="1" fill-rule="nonzero"/><path fill="#000000" d="M 4.96875 43.914062 L 33.160156 43.914062 L 33.160156 44.40625 L 4.96875 44.40625 Z M 4.96875 43.914062 " fill-opacity="1" fill-rule="nonzero"/><path fill="#000000" d="M 8.136719 43.042969 C 7.867188 43.339844 7.480469 43.484375 6.976562 43.484375 C 6.46875 43.484375 6.082031 43.339844 5.808594 43.042969 C 5.542969 42.742188 5.410156 42.304688 5.410156 41.730469 L 5.410156 39.371094 C 5.410156 39.304688 5.433594 39.246094 5.480469 39.195312 C 5.527344 39.148438 5.585938 39.125 5.644531 39.125 C 5.710938 39.125 5.769531 39.148438 5.820312 39.195312 C 5.867188 39.246094 5.890625 39.304688 5.890625 39.371094 L 5.890625 41.761719 C 5.890625 42.644531 6.253906 43.085938 6.988281 43.085938 C 7.71875 43.085938 8.085938 42.644531 8.085938 41.761719 L 8.085938 39.347656 C 8.085938 39.289062 8.105469 39.238281 8.144531 39.195312 C 8.191406 39.148438 8.246094 39.125 8.308594 39.125 C 8.375 39.125 8.433594 39.148438 8.472656 39.195312 C 8.519531 39.238281 8.546875 39.289062 8.546875 39.347656 L 8.546875 41.730469 C 8.546875 42.304688 8.40625 42.742188 8.136719 43.042969 Z M 8.136719 43.042969 " fill-opacity="1" fill-rule="nonzero"/><path fill="#000000" d="M 10.441406 43.125 C 10.664062 43.125 10.839844 43.082031 10.960938 42.992188 C 11.085938 42.90625 11.148438 42.777344 11.148438 42.613281 C 11.148438 42.457031 11.089844 42.335938 10.984375 42.253906 C 10.871094 42.167969 10.679688 42.097656 10.410156 42.046875 C 10.019531 41.980469 9.738281 41.875 9.570312 41.730469 C 9.398438 41.582031 9.3125 41.378906 9.3125 41.125 C 9.3125 40.875 9.410156 40.671875 9.609375 40.53125 C 9.808594 40.378906 10.085938 40.304688 10.441406 40.304688 C 10.746094 40.304688 11.035156 40.359375 11.3125 40.46875 C 11.355469 40.488281 11.394531 40.523438 11.414062 40.570312 C 11.4375 40.613281 11.445312 40.660156 11.421875 40.714844 C 11.410156 40.753906 11.382812 40.792969 11.339844 40.816406 C 11.300781 40.835938 11.257812 40.835938 11.21875 40.816406 C 10.964844 40.710938 10.707031 40.652344 10.441406 40.652344 C 10.207031 40.652344 10.03125 40.695312 9.90625 40.777344 C 9.789062 40.859375 9.734375 40.976562 9.734375 41.125 C 9.734375 41.269531 9.785156 41.382812 9.886719 41.464844 C 9.996094 41.546875 10.1875 41.613281 10.460938 41.660156 C 10.863281 41.726562 11.148438 41.839844 11.320312 41.988281 C 11.496094 42.136719 11.585938 42.347656 11.585938 42.613281 C 11.585938 42.878906 11.484375 43.09375 11.28125 43.25 C 11.082031 43.40625 10.800781 43.484375 10.441406 43.484375 C 10.085938 43.484375 9.765625 43.417969 9.476562 43.28125 C 9.429688 43.253906 9.390625 43.214844 9.363281 43.167969 C 9.34375 43.113281 9.339844 43.0625 9.355469 43.011719 C 9.367188 42.972656 9.394531 42.941406 9.4375 42.921875 C 9.480469 42.898438 9.523438 42.898438 9.558594 42.921875 C 9.847656 43.058594 10.136719 43.125 10.441406 43.125 Z M 10.441406 43.125 " fill-opacity="1" fill-rule="nonzero"/><path fill="#000000" d="M 13.550781 40.652344 C 13.265625 40.652344 13.03125 40.742188 12.855469 40.917969 C 12.683594 41.097656 12.589844 41.347656 12.578125 41.667969 C 12.578125 41.703125 12.59375 41.71875 12.628906 41.71875 L 14.410156 41.71875 C 14.445312 41.71875 14.464844 41.703125 14.464844 41.667969 C 14.441406 41.339844 14.351562 41.089844 14.195312 40.917969 C 14.039062 40.742188 13.824219 40.652344 13.550781 40.652344 Z M 13.601562 43.484375 C 13.164062 43.484375 12.808594 43.339844 12.535156 43.054688 C 12.269531 42.765625 12.136719 42.382812 12.136719 41.894531 C 12.136719 41.398438 12.261719 41.007812 12.515625 40.722656 C 12.765625 40.445312 13.113281 40.304688 13.550781 40.304688 C 13.945312 40.304688 14.261719 40.425781 14.492188 40.671875 C 14.722656 40.914062 14.851562 41.261719 14.871094 41.71875 C 14.878906 41.816406 14.847656 41.898438 14.78125 41.964844 C 14.71875 42.027344 14.640625 42.058594 14.542969 42.058594 L 12.628906 42.058594 C 12.59375 42.058594 12.578125 42.074219 12.578125 42.097656 C 12.589844 42.421875 12.691406 42.675781 12.886719 42.859375 C 13.082031 43.042969 13.335938 43.136719 13.644531 43.136719 C 13.914062 43.136719 14.164062 43.085938 14.390625 42.980469 C 14.433594 42.960938 14.472656 42.960938 14.515625 42.980469 C 14.558594 42.996094 14.589844 43.027344 14.605469 43.074219 C 14.621094 43.117188 14.617188 43.160156 14.597656 43.207031 C 14.582031 43.257812 14.550781 43.289062 14.503906 43.308594 C 14.238281 43.425781 13.933594 43.484375 13.601562 43.484375 Z M 13.601562 43.484375 " fill-opacity="1" fill-rule="nonzero"/><path fill="#000000" d="M 16.023438 41.964844 L 16.023438 43.207031 C 16.023438 43.269531 15.996094 43.320312 15.949219 43.363281 C 15.910156 43.402344 15.859375 43.421875 15.796875 43.421875 C 15.734375 43.421875 15.683594 43.402344 15.644531 43.363281 C 15.601562 43.320312 15.582031 43.269531 15.582031 43.207031 L 15.582031 40.570312 C 15.582031 40.515625 15.601562 40.46875 15.644531 40.425781 C 15.683594 40.386719 15.730469 40.367188 15.785156 40.367188 C 15.847656 40.367188 15.898438 40.386719 15.941406 40.425781 C 15.980469 40.46875 16.003906 40.515625 16.003906 40.570312 L 16.011719 41.011719 C 16.015625 41.011719 16.023438 41.011719 16.023438 41.011719 C 16.328125 40.589844 16.753906 40.351562 17.304688 40.304688 C 17.347656 40.304688 17.390625 40.320312 17.425781 40.355469 C 17.460938 40.390625 17.476562 40.433594 17.476562 40.488281 C 17.476562 40.539062 17.460938 40.578125 17.425781 40.613281 C 17.398438 40.648438 17.355469 40.671875 17.304688 40.683594 C 16.914062 40.71875 16.601562 40.855469 16.371094 41.09375 C 16.136719 41.328125 16.023438 41.617188 16.023438 41.964844 Z M 16.023438 41.964844 " fill-opacity="1" fill-rule="nonzero"/><path fill="#000000" d="M 18.769531 39.894531 L 18.769531 43.199219 C 18.769531 43.257812 18.742188 43.316406 18.695312 43.363281 C 18.65625 43.402344 18.597656 43.421875 18.53125 43.421875 C 18.472656 43.421875 18.414062 43.402344 18.367188 43.363281 C 18.328125 43.316406 18.308594 43.257812 18.308594 43.199219 L 18.308594 39.371094 C 18.308594 39.304688 18.328125 39.246094 18.378906 39.195312 C 18.425781 39.148438 18.480469 39.125 18.542969 39.125 C 18.707031 39.125 18.832031 39.191406 18.921875 39.328125 L 21.023438 42.652344 C 21.023438 42.652344 21.023438 42.652344 21.03125 42.652344 C 21.039062 42.652344 21.042969 42.652344 21.042969 42.652344 L 21.042969 39.347656 C 21.042969 39.289062 21.0625 39.238281 21.105469 39.195312 C 21.144531 39.148438 21.199219 39.125 21.269531 39.125 C 21.335938 39.125 21.390625 39.148438 21.429688 39.195312 C 21.472656 39.238281 21.492188 39.289062 21.492188 39.347656 L 21.492188 43.175781 C 21.492188 43.246094 21.46875 43.304688 21.421875 43.351562 C 21.378906 43.398438 21.324219 43.421875 21.257812 43.421875 C 21.09375 43.421875 20.96875 43.355469 20.886719 43.21875 L 18.777344 39.894531 C 18.777344 39.894531 18.773438 39.894531 18.769531 39.894531 Z M 18.769531 39.894531 " fill-opacity="1" fill-rule="nonzero"/><path fill="#000000" d="M 24.003906 41.8125 C 23.59375 41.8125 23.277344 41.882812 23.050781 42.015625 C 22.828125 42.15625 22.714844 42.34375 22.714844 42.582031 C 22.714844 42.761719 22.769531 42.898438 22.878906 43.003906 C 22.984375 43.101562 23.132812 43.144531 23.320312 43.144531 C 23.589844 43.144531 23.824219 43.050781 24.027344 42.859375 C 24.222656 42.660156 24.324219 42.421875 24.324219 42.140625 L 24.324219 41.863281 C 24.324219 41.832031 24.304688 41.8125 24.269531 41.8125 Z M 23.214844 43.484375 C 22.933594 43.484375 22.710938 43.40625 22.539062 43.25 C 22.375 43.085938 22.292969 42.871094 22.292969 42.601562 C 22.292969 42.261719 22.441406 41.992188 22.734375 41.792969 C 23.035156 41.585938 23.457031 41.484375 24.003906 41.484375 L 24.269531 41.484375 C 24.304688 41.484375 24.324219 41.46875 24.324219 41.433594 C 24.316406 41.144531 24.253906 40.945312 24.136719 40.828125 C 24.027344 40.710938 23.832031 40.652344 23.554688 40.652344 C 23.265625 40.652344 22.976562 40.71875 22.683594 40.847656 C 22.640625 40.863281 22.601562 40.863281 22.5625 40.847656 C 22.519531 40.828125 22.492188 40.792969 22.488281 40.746094 C 22.472656 40.699219 22.480469 40.648438 22.5 40.601562 C 22.523438 40.554688 22.5625 40.519531 22.613281 40.5 C 22.910156 40.371094 23.226562 40.304688 23.554688 40.304688 C 23.984375 40.304688 24.292969 40.394531 24.476562 40.570312 C 24.660156 40.742188 24.753906 41.03125 24.753906 41.441406 L 24.753906 42.601562 C 24.753906 42.800781 24.769531 43.007812 24.804688 43.21875 C 24.808594 43.273438 24.796875 43.320312 24.761719 43.363281 C 24.726562 43.402344 24.683594 43.421875 24.628906 43.421875 C 24.570312 43.421875 24.511719 43.40625 24.464844 43.371094 C 24.425781 43.332031 24.398438 43.28125 24.394531 43.21875 C 24.378906 43.144531 24.367188 43.035156 24.363281 42.890625 C 24.363281 42.882812 24.363281 42.878906 24.363281 42.878906 C 24.355469 42.878906 24.351562 42.882812 24.351562 42.890625 C 24.242188 43.074219 24.089844 43.222656 23.890625 43.332031 C 23.691406 43.433594 23.46875 43.484375 23.214844 43.484375 Z M 23.214844 43.484375 " fill-opacity="1" fill-rule="nonzero"/><path fill="#000000" d="M 26.054688 41.699219 L 26.054688 43.207031 C 26.054688 43.265625 26.035156 43.316406 25.992188 43.363281 C 25.953125 43.402344 25.902344 43.421875 25.839844 43.421875 C 25.785156 43.421875 25.730469 43.402344 25.6875 43.363281 C 25.644531 43.316406 25.625 43.265625 25.625 43.207031 L 25.625 40.570312 C 25.625 40.515625 25.644531 40.46875 25.6875 40.425781 C 25.726562 40.386719 25.773438 40.367188 25.828125 40.367188 C 25.882812 40.367188 25.933594 40.386719 25.972656 40.425781 C 26.019531 40.46875 26.042969 40.515625 26.042969 40.570312 L 26.042969 40.859375 C 26.042969 40.867188 26.042969 40.867188 26.042969 40.867188 C 26.058594 40.867188 26.066406 40.867188 26.066406 40.859375 C 26.28125 40.488281 26.550781 40.304688 26.863281 40.304688 C 27.246094 40.304688 27.515625 40.496094 27.671875 40.878906 C 27.671875 40.886719 27.675781 40.886719 27.683594 40.886719 C 27.695312 40.886719 27.703125 40.886719 27.703125 40.878906 C 27.910156 40.496094 28.199219 40.304688 28.585938 40.304688 C 28.898438 40.304688 29.128906 40.394531 29.28125 40.582031 C 29.429688 40.765625 29.507812 41.066406 29.507812 41.484375 L 29.507812 43.207031 C 29.507812 43.269531 29.488281 43.320312 29.445312 43.363281 C 29.40625 43.402344 29.355469 43.421875 29.292969 43.421875 C 29.234375 43.421875 29.191406 43.402344 29.148438 43.363281 C 29.109375 43.320312 29.085938 43.269531 29.085938 43.207031 L 29.085938 41.597656 C 29.085938 41.242188 29.039062 40.996094 28.945312 40.859375 C 28.855469 40.722656 28.703125 40.652344 28.492188 40.652344 C 28.300781 40.652344 28.132812 40.75 27.992188 40.941406 C 27.851562 41.125 27.785156 41.355469 27.785156 41.628906 L 27.785156 43.207031 C 27.785156 43.269531 27.765625 43.320312 27.726562 43.363281 C 27.683594 43.402344 27.632812 43.421875 27.570312 43.421875 C 27.507812 43.421875 27.457031 43.402344 27.417969 43.363281 C 27.375 43.320312 27.355469 43.269531 27.355469 43.207031 L 27.355469 41.597656 C 27.355469 41.242188 27.308594 40.996094 27.210938 40.859375 C 27.121094 40.722656 26.972656 40.652344 26.761719 40.652344 C 26.582031 40.652344 26.417969 40.753906 26.269531 40.960938 C 26.125 41.164062 26.054688 41.410156 26.054688 41.699219 Z M 26.054688 41.699219 " fill-opacity="1" fill-rule="nonzero"/><path fill="#000000" d="M 31.566406 40.652344 C 31.28125 40.652344 31.046875 40.742188 30.871094 40.917969 C 30.699219 41.097656 30.605469 41.347656 30.59375 41.667969 C 30.59375 41.703125 30.609375 41.71875 30.644531 41.71875 L 32.425781 41.71875 C 32.460938 41.71875 32.476562 41.703125 32.476562 41.667969 C 32.457031 41.339844 32.367188 41.089844 32.210938 40.917969 C 32.054688 40.742188 31.839844 40.652344 31.566406 40.652344 Z M 31.617188 43.484375 C 31.179688 43.484375 30.824219 43.339844 30.550781 43.054688 C 30.285156 42.765625 30.152344 42.382812 30.152344 41.894531 C 30.152344 41.398438 30.277344 41.007812 30.53125 40.722656 C 30.78125 40.445312 31.128906 40.304688 31.566406 40.304688 C 31.960938 40.304688 32.277344 40.425781 32.507812 40.671875 C 32.738281 40.914062 32.867188 41.261719 32.886719 41.71875 C 32.894531 41.816406 32.863281 41.898438 32.796875 41.964844 C 32.734375 42.027344 32.65625 42.058594 32.558594 42.058594 L 30.644531 42.058594 C 30.609375 42.058594 30.59375 42.074219 30.59375 42.097656 C 30.605469 42.421875 30.707031 42.675781 30.902344 42.859375 C 31.097656 43.042969 31.351562 43.136719 31.660156 43.136719 C 31.929688 43.136719 32.179688 43.085938 32.40625 42.980469 C 32.449219 42.960938 32.488281 42.960938 32.53125 42.980469 C 32.574219 42.996094 32.605469 43.027344 32.621094 43.074219 C 32.632812 43.117188 32.632812 43.160156 32.613281 43.207031 C 32.597656 43.257812 32.566406 43.289062 32.519531 43.308594 C 32.253906 43.425781 31.949219 43.484375 31.617188 43.484375 Z M 31.617188 43.484375 " fill-opacity="1" fill-rule="nonzero"/></svg>