<svg xmlns="http://www.w3.org/2000/svg" xmlns:xlink="http://www.w3.org/1999/xlink" width="22" zoomAndPan="magnify" viewBox="0 0 16.5 16.5" height="22" preserveAspectRatio="xMidYMid meet" version="1.0"><defs><clipPath id="3268a13312"><path d="M 0 0 L 16.015625 0 L 16.015625 16.015625 L 0 16.015625 Z M 0 0 " clip-rule="nonzero"/></clipPath><clipPath id="fb875a45f9"><path d="M 1.828125 4.457031 L 15.652344 4.457031 L 15.652344 12.257812 L 1.828125 12.257812 Z M 1.828125 4.457031 " clip-rule="nonzero"/></clipPath><clipPath id="94041cbae1"><path d="M 0 0 L 16.015625 0 L 16.015625 16.015625 L 0 16.015625 Z M 0 0 " clip-rule="nonzero"/></clipPath><clipPath id="46c90fef19"><path d="M 0 0 L 16.015625 0 L 16.015625 15.8125 L 0 15.8125 Z M 0 0 " clip-rule="nonzero"/></clipPath><clipPath id="c6074b998b"><path d="M 9.019531 -2.558594 L 85.957031 -2.558594 C 88.390625 -2.558594 90.722656 -1.589844 92.441406 0.128906 C 94.160156 1.851562 95.128906 4.191406 95.128906 6.628906 C 95.128906 9.0625 94.160156 11.398438 92.441406 13.121094 C 90.722656 14.84375 88.390625 15.8125 85.957031 15.8125 L 9.019531 15.8125 C 6.589844 15.8125 4.257812 14.84375 2.539062 13.121094 C 0.816406 11.398438 -0.148438 9.0625 -0.148438 6.628906 C -0.148438 4.191406 0.816406 1.851562 2.539062 0.128906 C 4.257812 -1.589844 6.589844 -2.558594 9.019531 -2.558594 Z M 9.019531 -2.558594 " clip-rule="nonzero"/></clipPath><clipPath id="bd487a6f56"><path d="M 4.675781 3.636719 L 12.394531 3.636719 L 12.394531 10.40625 L 4.675781 10.40625 Z M 4.675781 3.636719 " clip-rule="nonzero"/></clipPath></defs><g clip-path="url(#3268a13312)"><path fill="#ffffff" d="M 0 0 L 16.015625 0 L 16.015625 16.015625 L 0 16.015625 Z M 0 0 " fill-opacity="1" fill-rule="nonzero"/></g><g clip-path="url(#fb875a45f9)"><path fill="#aaa9a9" d="M 1.828125 4.457031 L 15.660156 4.457031 L 15.660156 12.257812 L 1.828125 12.257812 Z M 1.828125 4.457031 " fill-opacity="1" fill-rule="nonzero"/></g><g clip-path="url(#94041cbae1)"><rect x="-1.65" width="19.8" fill="#ffffff" y="-1.65" height="19.8" fill-opacity="1"/><rect x="-1.65" width="19.8" fill="#ffffff" y="-1.65" height="19.8" fill-opacity="1"/></g><g clip-path="url(#46c90fef19)"><g clip-path="url(#c6074b998b)"><path fill="#e6e6e6" d="M -0.148438 -2.558594 L 95.136719 -2.558594 L 95.136719 15.8125 L -0.148438 15.8125 Z M -0.148438 -2.558594 " fill-opacity="1" fill-rule="nonzero"/></g></g><g clip-path="url(#bd487a6f56)"><path fill="#f7323c" d="M 8.535156 4.285156 C 8.507812 4.285156 8.5 4.296875 8.496094 4.308594 L 5.359375 9.699219 C 5.351562 9.707031 5.34375 9.71875 5.359375 9.742188 C 5.367188 9.761719 5.382812 9.761719 5.394531 9.761719 L 11.671875 9.761719 C 11.683594 9.761719 11.699219 9.761719 11.707031 9.742188 C 11.722656 9.71875 11.714844 9.707031 11.707031 9.699219 L 8.570312 4.308594 C 8.566406 4.296875 8.558594 4.285156 8.535156 4.285156 Z M 5.394531 10.402344 C 5.144531 10.402344 4.921875 10.277344 4.796875 10.0625 C 4.671875 9.847656 4.671875 9.589844 4.796875 9.375 L 7.9375 3.984375 C 8.058594 3.769531 8.285156 3.640625 8.535156 3.640625 C 8.785156 3.640625 9.007812 3.769531 9.132812 3.984375 L 12.269531 9.375 C 12.394531 9.589844 12.394531 9.847656 12.269531 10.0625 C 12.144531 10.277344 11.921875 10.402344 11.671875 10.402344 L 5.394531 10.402344 " fill-opacity="1" fill-rule="nonzero"/></g><path fill="#f7323c" d="M 8.949219 9.214844 C 8.949219 8.984375 8.765625 8.800781 8.535156 8.800781 C 8.300781 8.800781 8.117188 8.984375 8.117188 9.214844 C 8.117188 9.441406 8.300781 9.628906 8.535156 9.628906 C 8.765625 9.628906 8.949219 9.441406 8.949219 9.214844 " fill-opacity="1" fill-rule="nonzero"/><path fill="#f7323c" d="M 8.699219 8.140625 C 8.699219 8.050781 8.625 7.972656 8.535156 7.972656 C 8.441406 7.972656 8.367188 8.050781 8.367188 8.140625 C 8.367188 8.230469 8.441406 8.304688 8.535156 8.304688 C 8.625 8.304688 8.699219 8.230469 8.699219 8.140625 " fill-opacity="1" fill-rule="nonzero"/><path fill="#f7323c" d="M 9.0625 6.003906 C 9.0625 5.71875 8.824219 5.480469 8.535156 5.480469 C 8.242188 5.480469 8.003906 5.71875 8.003906 6.003906 C 8.003906 6.296875 8.242188 6.527344 8.535156 6.527344 C 8.824219 6.527344 9.0625 6.296875 9.0625 6.003906 " fill-opacity="1" fill-rule="nonzero"/><path fill="#f7323c" d="M 8.003906 6.003906 L 8.367188 8.140625 L 8.699219 8.140625 L 9.0625 6.003906 L 8.003906 6.003906 " fill-opacity="1" fill-rule="nonzero"/></svg>