<svg xmlns="http://www.w3.org/2000/svg" xmlns:xlink="http://www.w3.org/1999/xlink" width="56" zoomAndPan="magnify" viewBox="0 0 42 42" height="56" preserveAspectRatio="xMidYMid meet" version="1.0"><defs><clipPath id="33a9d61e4b"><path d="M 0.488281 0 L 41.511719 0 L 41.511719 41.023438 L 0.488281 41.023438 Z M 0.488281 0 " clip-rule="nonzero"/></clipPath><clipPath id="147c759d77"><path d="M 20.941406 7.988281 L 34.855469 7.988281 L 34.855469 22.355469 L 20.941406 22.355469 Z M 20.941406 7.988281 " clip-rule="nonzero"/></clipPath><clipPath id="09c255159d"><path d="M 0.488281 0 L 41.207031 0 L 41.207031 41.023438 L 0.488281 41.023438 Z M 0.488281 0 " clip-rule="nonzero"/></clipPath><clipPath id="6619390a82"><path d="M 14.328125 3.261719 L 35.359375 3.261719 L 35.359375 14.964844 L 14.328125 14.964844 Z M 14.328125 3.261719 " clip-rule="nonzero"/></clipPath><clipPath id="d2c5643593"><path d="M 20.195312 3.261719 L 29.480469 3.261719 C 32.71875 3.261719 35.34375 5.882812 35.34375 9.113281 C 35.34375 12.347656 32.71875 14.964844 29.480469 14.964844 L 20.195312 14.964844 C 16.953125 14.964844 14.328125 12.347656 14.328125 9.113281 C 14.328125 5.882812 16.953125 3.261719 20.195312 3.261719 Z M 20.195312 3.261719 " clip-rule="nonzero"/></clipPath><clipPath id="a9c944e4fa"><path d="M 23.90625 4.238281 L 33.683594 4.238281 L 33.683594 13.992188 L 23.90625 13.992188 Z M 23.90625 4.238281 " clip-rule="nonzero"/></clipPath><clipPath id="1481c69660"><path d="M 28.796875 4.238281 C 26.097656 4.238281 23.90625 6.421875 23.90625 9.113281 C 23.90625 11.808594 26.097656 13.992188 28.796875 13.992188 C 31.492188 13.992188 33.683594 11.808594 33.683594 9.113281 C 33.683594 6.421875 31.492188 4.238281 28.796875 4.238281 Z M 28.796875 4.238281 " clip-rule="nonzero"/></clipPath></defs><g clip-path="url(#33a9d61e4b)"><path fill="#ffffff" d="M 0.488281 0 L 41.511719 0 L 41.511719 41.023438 L 0.488281 41.023438 Z M 0.488281 0 " fill-opacity="1" fill-rule="nonzero"/></g><g clip-path="url(#147c759d77)"><path fill="#aaa9a9" d="M 20.941406 7.988281 L 34.855469 7.988281 L 34.855469 22.335938 L 20.941406 22.335938 Z M 20.941406 7.988281 " fill-opacity="1" fill-rule="nonzero"/></g><g clip-path="url(#09c255159d)"><path fill="#ffffff" d="M -90.734375 -18.460938 L 41.207031 -18.460938 L 41.207031 205.878906 L -90.734375 205.878906 Z M -90.734375 -18.460938 " fill-opacity="1" fill-rule="nonzero"/><path fill="#ffffff" d="M -90.734375 -18.460938 L 41.207031 -18.460938 L 41.207031 205.804688 L -90.734375 205.804688 Z M -90.734375 -18.460938 " fill-opacity="1" fill-rule="nonzero"/></g><g clip-path="url(#6619390a82)"><g clip-path="url(#d2c5643593)"><path fill="#1b8aff" d="M 14.328125 3.261719 L 35.359375 3.261719 L 35.359375 14.964844 L 14.328125 14.964844 Z M 14.328125 3.261719 " fill-opacity="1" fill-rule="nonzero"/></g></g><g clip-path="url(#a9c944e4fa)"><g clip-path="url(#1481c69660)"><path fill="#ffffff" d="M 23.90625 4.238281 L 33.683594 4.238281 L 33.683594 13.992188 L 23.90625 13.992188 Z M 23.90625 4.238281 " fill-opacity="1" fill-rule="nonzero"/></g></g><path fill="#000000" d="M 17.066406 21.457031 C 17.019531 21.402344 16.996094 21.34375 16.996094 21.285156 C 16.996094 21.222656 17.019531 21.167969 17.066406 21.121094 C 17.113281 21.074219 17.171875 21.050781 17.242188 21.050781 L 20.128906 21.050781 C 20.191406 21.050781 20.242188 21.074219 20.292969 21.121094 C 20.339844 21.167969 20.363281 21.222656 20.363281 21.285156 C 20.363281 21.441406 20.324219 21.585938 20.242188 21.722656 C 19.507812 22.953125 18.882812 24.375 18.375 25.988281 C 18.351562 26.070312 18.304688 26.140625 18.230469 26.195312 C 18.160156 26.242188 18.082031 26.265625 17.984375 26.265625 C 17.910156 26.265625 17.847656 26.234375 17.800781 26.171875 C 17.761719 26.113281 17.753906 26.046875 17.78125 25.980469 C 18.304688 24.386719 18.976562 22.910156 19.800781 21.550781 L 19.800781 21.539062 L 19.8125 21.527344 C 19.8125 21.527344 19.808594 21.527344 19.800781 21.527344 L 17.242188 21.527344 C 17.171875 21.527344 17.113281 21.507812 17.066406 21.457031 Z M 17.066406 21.457031 " fill-opacity="1" fill-rule="nonzero"/><path fill="#000000" d="M 24.078125 21.96875 C 23.859375 21.617188 23.53125 21.4375 23.089844 21.4375 C 22.652344 21.4375 22.328125 21.617188 22.109375 21.96875 C 21.890625 22.3125 21.785156 22.878906 21.785156 23.65625 C 21.785156 24.433594 21.890625 24.996094 22.109375 25.347656 C 22.328125 25.695312 22.652344 25.867188 23.089844 25.867188 C 23.53125 25.867188 23.859375 25.695312 24.078125 25.347656 C 24.296875 24.996094 24.40625 24.433594 24.40625 23.65625 C 24.40625 22.878906 24.296875 22.3125 24.078125 21.96875 Z M 24.476562 25.714844 C 24.152344 26.128906 23.6875 26.335938 23.089844 26.335938 C 22.496094 26.335938 22.035156 26.128906 21.703125 25.714844 C 21.375 25.300781 21.210938 24.613281 21.210938 23.65625 C 21.210938 22.699219 21.375 22.015625 21.703125 21.601562 C 22.035156 21.1875 22.496094 20.980469 23.089844 20.980469 C 23.6875 20.980469 24.152344 21.1875 24.476562 21.601562 C 24.808594 22.015625 24.976562 22.699219 24.976562 23.65625 C 24.976562 24.613281 24.808594 25.300781 24.476562 25.714844 Z M 24.476562 25.714844 " fill-opacity="1" fill-rule="nonzero"/><path fill="#000000" d="M 29.828125 21.050781 C 29.894531 21.050781 29.945312 21.078125 29.980469 21.132812 C 30.011719 21.1875 30.011719 21.242188 29.980469 21.292969 L 27.296875 26.011719 C 27.207031 26.179688 27.0625 26.265625 26.867188 26.265625 C 26.796875 26.265625 26.746094 26.238281 26.714844 26.183594 C 26.6875 26.128906 26.6875 26.070312 26.722656 26.011719 L 29.398438 21.292969 C 29.484375 21.132812 29.628906 21.050781 29.828125 21.050781 Z M 29.886719 25.910156 C 30.320312 25.910156 30.539062 25.59375 30.539062 24.960938 C 30.539062 24.335938 30.320312 24.023438 29.886719 24.023438 C 29.453125 24.023438 29.234375 24.335938 29.234375 24.960938 C 29.234375 25.59375 29.453125 25.910156 29.886719 25.910156 Z M 29 23.953125 C 29.207031 23.714844 29.503906 23.597656 29.886719 23.597656 C 30.269531 23.597656 30.5625 23.714844 30.777344 23.953125 C 30.992188 24.191406 31.101562 24.527344 31.101562 24.960938 C 31.101562 25.398438 30.992188 25.734375 30.777344 25.980469 C 30.5625 26.21875 30.269531 26.335938 29.886719 26.335938 C 29.503906 26.335938 29.207031 26.21875 29 25.980469 C 28.789062 25.734375 28.683594 25.398438 28.683594 24.960938 C 28.683594 24.527344 28.789062 24.191406 29 23.953125 Z M 26.804688 21.40625 C 26.371094 21.40625 26.152344 21.71875 26.152344 22.34375 C 26.152344 22.96875 26.371094 23.28125 26.804688 23.28125 C 27.246094 23.28125 27.46875 22.96875 27.46875 22.34375 C 27.46875 21.71875 27.246094 21.40625 26.804688 21.40625 Z M 27.695312 23.351562 C 27.480469 23.589844 27.1875 23.707031 26.804688 23.707031 C 26.421875 23.707031 26.125 23.589844 25.917969 23.351562 C 25.707031 23.117188 25.601562 22.777344 25.601562 22.34375 C 25.601562 21.910156 25.707031 21.574219 25.917969 21.335938 C 26.125 21.097656 26.421875 20.980469 26.804688 20.980469 C 27.1875 20.980469 27.480469 21.097656 27.695312 21.335938 C 27.910156 21.574219 28.019531 21.910156 28.019531 22.34375 C 28.019531 22.777344 27.910156 23.117188 27.695312 23.351562 Z M 27.695312 23.351562 " fill-opacity="1" fill-rule="nonzero"/></svg>