<svg xmlns="http://www.w3.org/2000/svg" xmlns:xlink="http://www.w3.org/1999/xlink" width="72" zoomAndPan="magnify" viewBox="0 0 54 54" height="72" preserveAspectRatio="xMidYMid meet" version="1.0"><defs><clipPath id="4f451b6d52"><path d="M 0.492188 0 L 53.507812 0 L 53.507812 53.019531 L 0.492188 53.019531 Z M 0.492188 0 " clip-rule="nonzero"/></clipPath><clipPath id="6e526bb11f"><path d="M 12.703125 18.78125 L 26.6875 18.78125 L 26.6875 33.222656 L 12.703125 33.222656 Z M 12.703125 18.78125 " clip-rule="nonzero"/></clipPath><clipPath id="84e97a18c2"><path d="M 0.65625 0 L 52.773438 0 L 52.773438 52.28125 L 0.65625 52.28125 Z M 0.65625 0 " clip-rule="nonzero"/></clipPath><clipPath id="4376dc3837"><path d="M 0.65625 15.589844 L 52.773438 15.589844 L 52.773438 16.898438 L 0.65625 16.898438 Z M 0.65625 15.589844 " clip-rule="nonzero"/></clipPath><clipPath id="b3dc26492f"><path d="M 6.0625 19.714844 L 18.832031 19.714844 L 18.832031 32.460938 L 6.0625 32.460938 Z M 6.0625 19.714844 " clip-rule="nonzero"/></clipPath><clipPath id="4504b47b3d"><path d="M 9.226562 21.777344 L 16.101562 21.777344 L 16.101562 28.640625 L 9.226562 28.640625 Z M 9.226562 21.777344 " clip-rule="nonzero"/></clipPath><clipPath id="1ba2996dd3"><path d="M 49 24 L 52.773438 24 L 52.773438 29 L 49 29 Z M 49 24 " clip-rule="nonzero"/></clipPath><clipPath id="d3d0f43a42"><path d="M 30 36 L 52.773438 36 L 52.773438 37 L 30 37 Z M 30 36 " clip-rule="nonzero"/></clipPath><clipPath id="0b983a0ae0"><path d="M 6.054688 40.125 L 19.316406 40.125 L 19.316406 52.28125 L 6.054688 52.28125 Z M 6.054688 40.125 " clip-rule="nonzero"/></clipPath><clipPath id="afd0d45e26"><path d="M 8 42.941406 L 17.070312 42.941406 L 17.070312 47 L 8 47 Z M 8 42.941406 " clip-rule="nonzero"/></clipPath><clipPath id="f911c69a8e"><path d="M 7.394531 43.109375 L 17.710938 43.109375 L 17.710938 50.292969 L 7.394531 50.292969 Z M 7.394531 43.109375 " clip-rule="nonzero"/></clipPath></defs><g clip-path="url(#4f451b6d52)"><path fill="#ffffff" d="M 0.492188 0 L 53.507812 0 L 53.507812 53.019531 L 0.492188 53.019531 Z M 0.492188 0 " fill-opacity="1" fill-rule="nonzero"/></g><g clip-path="url(#6e526bb11f)"><path fill="#aaa9a9" d="M 12.703125 18.78125 L 26.6875 18.78125 L 26.6875 33.203125 L 12.703125 33.203125 Z M 12.703125 18.78125 " fill-opacity="1" fill-rule="nonzero"/></g><g clip-path="url(#84e97a18c2)"><path fill="#ffffff" d="M 0.65625 -147.292969 L 133.28125 -147.292969 L 133.28125 78.214844 L 0.65625 78.214844 Z M 0.65625 -147.292969 " fill-opacity="1" fill-rule="nonzero"/><path fill="#ffffff" d="M 0.65625 -147.292969 L 133.28125 -147.292969 L 133.28125 78.136719 L 0.65625 78.136719 Z M 0.65625 -147.292969 " fill-opacity="1" fill-rule="nonzero"/></g><g clip-path="url(#4376dc3837)"><path stroke-linecap="butt" transform="matrix(0.49121, 0, 0, 0.490232, 0.654716, 15.935845)" fill="none" stroke-linejoin="miter" d="M 0.00312306 0.505369 L 269.999495 0.505369 " stroke="#d9d9d9" stroke-width="1" stroke-opacity="1" stroke-miterlimit="4"/></g><path fill="#a6a6a6" d="M 13.570312 7.625 C 14.105469 7.3125 14.457031 6.886719 14.628906 6.355469 C 14.632812 6.328125 14.625 6.3125 14.597656 6.3125 L 11.109375 6.3125 C 11.0625 6.3125 11.019531 6.296875 10.976562 6.261719 C 10.941406 6.230469 10.925781 6.1875 10.925781 6.140625 C 10.925781 6.09375 10.941406 6.054688 10.976562 6.015625 C 11.019531 5.984375 11.0625 5.964844 11.109375 5.964844 L 14.894531 5.964844 C 14.941406 5.964844 14.984375 5.984375 15.019531 6.015625 C 15.050781 6.054688 15.070312 6.09375 15.070312 6.140625 C 15.070312 6.269531 15.050781 6.386719 15.007812 6.488281 C 14.78125 7.128906 14.375 7.621094 13.789062 7.953125 C 13.738281 7.980469 13.6875 7.988281 13.632812 7.972656 C 13.578125 7.960938 13.535156 7.929688 13.511719 7.878906 C 13.480469 7.835938 13.476562 7.785156 13.488281 7.738281 C 13.503906 7.691406 13.53125 7.652344 13.570312 7.625 Z M 11.398438 9.445312 C 11.773438 9.257812 12.042969 8.976562 12.207031 8.609375 C 12.371094 8.238281 12.460938 7.707031 12.472656 7.011719 C 12.472656 6.957031 12.488281 6.914062 12.527344 6.878906 C 12.566406 6.835938 12.613281 6.816406 12.667969 6.816406 C 12.730469 6.816406 12.777344 6.835938 12.8125 6.878906 C 12.855469 6.917969 12.875 6.964844 12.875 7.019531 C 12.859375 7.792969 12.753906 8.390625 12.554688 8.8125 C 12.363281 9.238281 12.046875 9.558594 11.601562 9.785156 C 11.554688 9.804688 11.503906 9.808594 11.449219 9.796875 C 11.390625 9.78125 11.351562 9.75 11.324219 9.703125 C 11.296875 9.65625 11.289062 9.609375 11.304688 9.558594 C 11.324219 9.511719 11.355469 9.476562 11.398438 9.445312 Z M 11.398438 9.445312 " fill-opacity="1" fill-rule="nonzero"/><path fill="#a6a6a6" d="M 20.300781 5.660156 C 20.230469 5.585938 20.140625 5.546875 20.03125 5.546875 C 19.929688 5.546875 19.839844 5.585938 19.765625 5.660156 C 19.695312 5.734375 19.664062 5.824219 19.664062 5.925781 C 19.664062 6.027344 19.695312 6.117188 19.765625 6.191406 C 19.839844 6.269531 19.929688 6.304688 20.03125 6.304688 C 20.140625 6.304688 20.230469 6.269531 20.300781 6.191406 C 20.375 6.117188 20.414062 6.027344 20.414062 5.925781 C 20.414062 5.824219 20.375 5.734375 20.300781 5.660156 Z M 16.730469 9.46875 C 17.644531 9.34375 18.328125 9.046875 18.78125 8.566406 C 19.230469 8.089844 19.480469 7.398438 19.519531 6.488281 C 19.519531 6.460938 19.503906 6.445312 19.480469 6.445312 L 16.246094 6.445312 C 16.191406 6.445312 16.144531 6.433594 16.101562 6.394531 C 16.066406 6.355469 16.050781 6.3125 16.050781 6.261719 C 16.050781 6.210938 16.066406 6.164062 16.101562 6.128906 C 16.144531 6.089844 16.191406 6.070312 16.246094 6.070312 L 19.335938 6.070312 C 19.367188 6.070312 19.382812 6.054688 19.375 6.027344 C 19.367188 6.007812 19.367188 5.972656 19.367188 5.925781 C 19.367188 5.742188 19.429688 5.585938 19.5625 5.453125 C 19.6875 5.324219 19.847656 5.257812 20.03125 5.257812 C 20.222656 5.257812 20.382812 5.324219 20.515625 5.453125 C 20.644531 5.585938 20.710938 5.742188 20.710938 5.925781 C 20.710938 6.109375 20.644531 6.269531 20.515625 6.394531 C 20.382812 6.527344 20.222656 6.589844 20.03125 6.589844 L 19.980469 6.589844 C 19.945312 6.589844 19.929688 6.605469 19.929688 6.632812 C 19.859375 7.59375 19.566406 8.339844 19.046875 8.863281 C 18.535156 9.382812 17.777344 9.707031 16.78125 9.847656 C 16.722656 9.851562 16.679688 9.839844 16.636719 9.804688 C 16.601562 9.769531 16.578125 9.730469 16.566406 9.683594 C 16.558594 9.628906 16.566406 9.582031 16.597656 9.539062 C 16.628906 9.5 16.671875 9.476562 16.730469 9.46875 Z M 16.730469 9.46875 " fill-opacity="1" fill-rule="nonzero"/><path fill="#a6a6a6" d="M 24.976562 7.144531 C 24.976562 7.992188 24.789062 8.632812 24.421875 9.066406 C 24.050781 9.507812 23.453125 9.789062 22.625 9.917969 C 22.570312 9.929688 22.519531 9.921875 22.472656 9.886719 C 22.421875 9.859375 22.390625 9.816406 22.378906 9.765625 C 22.363281 9.707031 22.375 9.660156 22.410156 9.621094 C 22.445312 9.582031 22.484375 9.554688 22.53125 9.539062 C 23.277344 9.410156 23.796875 9.167969 24.09375 8.8125 C 24.390625 8.453125 24.542969 7.898438 24.542969 7.152344 L 24.542969 6.015625 C 24.542969 5.964844 24.5625 5.914062 24.605469 5.875 C 24.644531 5.828125 24.699219 5.800781 24.757812 5.800781 C 24.820312 5.800781 24.871094 5.828125 24.914062 5.875 C 24.953125 5.914062 24.976562 5.964844 24.976562 6.015625 Z M 22.226562 6.015625 L 22.226562 7.902344 C 22.226562 7.957031 22.203125 8.003906 22.164062 8.042969 C 22.121094 8.085938 22.070312 8.105469 22.011719 8.105469 C 21.953125 8.105469 21.90625 8.085938 21.867188 8.042969 C 21.824219 8.003906 21.804688 7.957031 21.804688 7.902344 L 21.804688 6.015625 C 21.804688 5.957031 21.824219 5.90625 21.867188 5.863281 C 21.90625 5.824219 21.953125 5.800781 22.011719 5.800781 C 22.070312 5.800781 22.121094 5.824219 22.164062 5.863281 C 22.203125 5.90625 22.226562 5.957031 22.226562 6.015625 Z M 22.226562 6.015625 " fill-opacity="1" fill-rule="nonzero"/><path fill="#a6a6a6" d="M 27.476562 6.96875 C 27.425781 7.296875 27.382812 7.589844 27.34375 7.851562 C 27.34375 7.859375 27.34375 7.867188 27.351562 7.878906 C 27.355469 7.894531 27.363281 7.902344 27.371094 7.902344 L 28.378906 7.902344 C 28.402344 7.902344 28.421875 7.886719 28.429688 7.851562 C 28.476562 7.550781 28.515625 7.257812 28.550781 6.96875 C 28.558594 6.945312 28.542969 6.929688 28.511719 6.929688 L 27.515625 6.929688 C 27.496094 6.929688 27.480469 6.945312 27.476562 6.96875 Z M 29.949219 7.851562 C 29.988281 7.550781 30.023438 7.257812 30.058594 6.96875 C 30.066406 6.945312 30.054688 6.929688 30.019531 6.929688 L 29.003906 6.929688 C 28.984375 6.929688 28.96875 6.945312 28.960938 6.96875 C 28.921875 7.257812 28.875 7.550781 28.828125 7.851562 C 28.828125 7.859375 28.832031 7.867188 28.839844 7.878906 C 28.84375 7.894531 28.855469 7.902344 28.871094 7.902344 L 29.90625 7.902344 C 29.925781 7.902344 29.941406 7.886719 29.949219 7.851562 Z M 29.753906 9.171875 L 29.894531 8.28125 C 29.902344 8.253906 29.890625 8.238281 29.855469 8.238281 L 28.820312 8.238281 C 28.789062 8.238281 28.773438 8.253906 28.769531 8.28125 L 28.59375 9.171875 C 28.585938 9.179688 28.585938 9.1875 28.59375 9.203125 C 28.597656 9.210938 28.613281 9.210938 28.632812 9.210938 L 29.703125 9.210938 C 29.726562 9.210938 29.746094 9.199219 29.753906 9.171875 Z M 27.261719 8.289062 C 27.183594 8.6875 27.121094 8.980469 27.074219 9.171875 C 27.074219 9.179688 27.078125 9.1875 27.085938 9.203125 C 27.085938 9.210938 27.097656 9.210938 27.117188 9.210938 L 28.132812 9.210938 C 28.164062 9.210938 28.1875 9.199219 28.195312 9.171875 L 28.359375 8.289062 C 28.359375 8.277344 28.351562 8.265625 28.347656 8.25 C 28.347656 8.242188 28.339844 8.238281 28.328125 8.238281 L 27.320312 8.238281 C 27.285156 8.238281 27.265625 8.257812 27.261719 8.289062 Z M 26.550781 9.660156 C 26.660156 9.210938 26.761719 8.75 26.859375 8.28125 C 26.859375 8.273438 26.855469 8.265625 26.847656 8.25 C 26.84375 8.242188 26.832031 8.238281 26.820312 8.238281 L 26.386719 8.238281 C 26.347656 8.238281 26.304688 8.222656 26.265625 8.1875 C 26.230469 8.15625 26.214844 8.117188 26.214844 8.074219 C 26.214844 8.019531 26.234375 7.976562 26.273438 7.941406 C 26.300781 7.917969 26.339844 7.902344 26.386719 7.902344 L 26.878906 7.902344 C 26.914062 7.902344 26.929688 7.886719 26.929688 7.851562 C 27 7.46875 27.054688 7.109375 27.097656 6.765625 C 27.097656 6.765625 27.089844 6.765625 27.085938 6.765625 C 27.085938 6.757812 27.082031 6.753906 27.074219 6.753906 C 26.964844 6.925781 26.851562 7.089844 26.738281 7.246094 C 26.699219 7.285156 26.65625 7.3125 26.601562 7.316406 C 26.546875 7.324219 26.496094 7.3125 26.449219 7.277344 C 26.410156 7.25 26.382812 7.210938 26.378906 7.164062 C 26.371094 7.117188 26.382812 7.070312 26.417969 7.03125 C 26.765625 6.59375 27.039062 6.097656 27.238281 5.546875 C 27.253906 5.492188 27.285156 5.453125 27.34375 5.421875 C 27.386719 5.398438 27.4375 5.386719 27.496094 5.394531 C 27.550781 5.40625 27.589844 5.4375 27.609375 5.484375 C 27.632812 5.527344 27.640625 5.574219 27.617188 5.628906 L 27.566406 5.792969 C 27.558594 5.792969 27.558594 5.800781 27.566406 5.8125 C 27.574219 5.828125 27.582031 5.832031 27.589844 5.832031 L 30.707031 5.832031 C 30.753906 5.832031 30.792969 5.851562 30.828125 5.882812 C 30.863281 5.917969 30.882812 5.957031 30.882812 5.996094 C 30.882812 6.046875 30.863281 6.085938 30.828125 6.121094 C 30.800781 6.15625 30.761719 6.171875 30.707031 6.171875 L 27.445312 6.171875 C 27.410156 6.171875 27.386719 6.1875 27.382812 6.210938 C 27.320312 6.335938 27.261719 6.453125 27.199219 6.558594 C 27.191406 6.566406 27.1875 6.574219 27.1875 6.582031 C 27.191406 6.589844 27.203125 6.589844 27.21875 6.589844 L 30.203125 6.589844 C 30.285156 6.589844 30.351562 6.621094 30.410156 6.683594 C 30.457031 6.738281 30.476562 6.8125 30.472656 6.898438 C 30.410156 7.464844 30.371094 7.785156 30.359375 7.859375 C 30.351562 7.886719 30.363281 7.902344 30.398438 7.902344 L 30.871094 7.902344 C 30.917969 7.902344 30.957031 7.917969 30.984375 7.941406 C 31.023438 7.976562 31.046875 8.019531 31.046875 8.074219 C 31.046875 8.117188 31.023438 8.15625 30.984375 8.1875 C 30.949219 8.222656 30.910156 8.238281 30.871094 8.238281 L 30.347656 8.238281 C 30.328125 8.238281 30.3125 8.253906 30.308594 8.28125 L 30.164062 9.171875 C 30.164062 9.179688 30.164062 9.1875 30.171875 9.203125 C 30.179688 9.210938 30.1875 9.210938 30.203125 9.210938 L 30.664062 9.210938 C 30.707031 9.210938 30.742188 9.230469 30.777344 9.261719 C 30.8125 9.296875 30.828125 9.335938 30.828125 9.375 C 30.828125 9.417969 30.8125 9.457031 30.777344 9.5 C 30.742188 9.535156 30.707031 9.550781 30.664062 9.550781 L 30.152344 9.550781 C 30.125 9.550781 30.105469 9.566406 30.101562 9.589844 L 30.070312 9.734375 C 30.035156 9.910156 29.972656 10.027344 29.886719 10.082031 C 29.789062 10.144531 29.621094 10.175781 29.382812 10.175781 C 29.328125 10.175781 29.171875 10.167969 28.921875 10.164062 C 28.875 10.15625 28.832031 10.136719 28.796875 10.101562 C 28.761719 10.074219 28.746094 10.035156 28.746094 9.988281 C 28.738281 9.941406 28.75 9.898438 28.777344 9.867188 C 28.8125 9.839844 28.851562 9.824219 28.902344 9.824219 C 29.179688 9.832031 29.335938 9.835938 29.363281 9.835938 C 29.5 9.835938 29.582031 9.824219 29.609375 9.804688 C 29.640625 9.777344 29.664062 9.707031 29.679688 9.589844 C 29.6875 9.585938 29.6875 9.574219 29.679688 9.558594 C 29.671875 9.554688 29.664062 9.550781 29.648438 9.550781 L 27.035156 9.550781 C 27 9.550781 26.984375 9.558594 26.984375 9.582031 L 26.953125 9.703125 C 26.9375 9.757812 26.90625 9.796875 26.859375 9.824219 C 26.804688 9.859375 26.75 9.878906 26.695312 9.878906 C 26.648438 9.871094 26.605469 9.847656 26.574219 9.804688 C 26.542969 9.765625 26.535156 9.714844 26.550781 9.660156 Z M 26.550781 9.660156 " fill-opacity="1" fill-rule="nonzero"/><path fill="#a6a6a6" d="M 33.691406 6.285156 C 33.1875 6.359375 32.789062 6.558594 32.488281 6.886719 C 32.1875 7.214844 32.039062 7.621094 32.039062 8.105469 C 32.039062 8.433594 32.105469 8.714844 32.242188 8.945312 C 32.386719 9.179688 32.523438 9.292969 32.664062 9.292969 C 32.726562 9.292969 32.789062 9.269531 32.859375 9.222656 C 32.925781 9.175781 33.003906 9.085938 33.085938 8.957031 C 33.167969 8.820312 33.242188 8.644531 33.320312 8.433594 C 33.394531 8.222656 33.46875 7.9375 33.546875 7.574219 C 33.621094 7.210938 33.683594 6.796875 33.730469 6.324219 C 33.730469 6.292969 33.714844 6.277344 33.691406 6.285156 Z M 32.664062 9.671875 C 32.410156 9.671875 32.175781 9.523438 31.964844 9.222656 C 31.753906 8.921875 31.648438 8.550781 31.648438 8.105469 C 31.648438 7.449219 31.875 6.917969 32.324219 6.507812 C 32.777344 6.097656 33.359375 5.894531 34.078125 5.894531 C 34.660156 5.894531 35.136719 6.074219 35.515625 6.4375 C 35.898438 6.792969 36.089844 7.25 36.089844 7.808594 C 36.089844 8.355469 35.960938 8.800781 35.699219 9.148438 C 35.4375 9.5 35.085938 9.714844 34.632812 9.796875 C 34.578125 9.800781 34.53125 9.789062 34.488281 9.753906 C 34.449219 9.726562 34.421875 9.6875 34.40625 9.632812 C 34.398438 9.585938 34.410156 9.539062 34.4375 9.5 C 34.464844 9.457031 34.503906 9.433594 34.5625 9.417969 C 34.921875 9.34375 35.203125 9.164062 35.402344 8.882812 C 35.601562 8.605469 35.699219 8.246094 35.699219 7.808594 C 35.699219 7.378906 35.558594 7.019531 35.269531 6.734375 C 34.988281 6.441406 34.625 6.285156 34.183594 6.261719 C 34.152344 6.261719 34.136719 6.277344 34.128906 6.304688 C 34.054688 6.972656 33.960938 7.539062 33.855469 8.003906 C 33.742188 8.460938 33.621094 8.808594 33.484375 9.039062 C 33.355469 9.269531 33.222656 9.433594 33.09375 9.527344 C 32.964844 9.625 32.820312 9.671875 32.664062 9.671875 Z M 32.664062 9.671875 " fill-opacity="1" fill-rule="nonzero"/><path fill="#a6a6a6" d="M 40.273438 6.507812 C 40.257812 6.550781 40.230469 6.585938 40.191406 6.609375 C 40.148438 6.632812 40.105469 6.636719 40.058594 6.621094 C 40.007812 6.601562 39.96875 6.570312 39.945312 6.527344 L 39.636719 5.988281 C 39.617188 5.945312 39.609375 5.90625 39.617188 5.863281 C 39.628906 5.816406 39.65625 5.777344 39.699219 5.75 C 39.746094 5.730469 39.792969 5.726562 39.84375 5.742188 C 39.886719 5.75 39.925781 5.769531 39.945312 5.8125 L 40.261719 6.386719 C 40.285156 6.425781 40.285156 6.46875 40.273438 6.507812 Z M 40.695312 5.617188 C 40.761719 5.726562 40.871094 5.917969 41.023438 6.191406 C 41.042969 6.230469 41.042969 6.277344 41.023438 6.324219 C 41.007812 6.371094 40.976562 6.40625 40.929688 6.425781 C 40.890625 6.445312 40.84375 6.453125 40.796875 6.4375 C 40.746094 6.417969 40.714844 6.382812 40.695312 6.335938 L 40.375 5.792969 C 40.347656 5.75 40.339844 5.707031 40.355469 5.660156 C 40.367188 5.613281 40.394531 5.578125 40.4375 5.554688 C 40.484375 5.53125 40.53125 5.523438 40.582031 5.535156 C 40.628906 5.542969 40.664062 5.570312 40.695312 5.617188 Z M 40.203125 7.050781 C 40.253906 7.039062 40.304688 7.046875 40.355469 7.070312 C 40.410156 7.09375 40.449219 7.128906 40.46875 7.183594 C 40.726562 7.855469 40.972656 8.636719 41.195312 9.527344 C 41.210938 9.585938 41.203125 9.640625 41.175781 9.691406 C 41.148438 9.738281 41.105469 9.769531 41.042969 9.785156 C 40.980469 9.796875 40.925781 9.789062 40.878906 9.753906 C 40.828125 9.71875 40.796875 9.671875 40.777344 9.609375 C 40.542969 8.710938 40.308594 7.941406 40.078125 7.308594 C 40.058594 7.253906 40.058594 7.203125 40.078125 7.152344 C 40.105469 7.101562 40.144531 7.066406 40.203125 7.050781 Z M 38.335938 6.261719 C 38.175781 7.449219 37.816406 8.566406 37.257812 9.609375 C 37.230469 9.667969 37.1875 9.699219 37.132812 9.714844 C 37.078125 9.734375 37.023438 9.730469 36.96875 9.703125 C 36.914062 9.675781 36.878906 9.640625 36.855469 9.589844 C 36.839844 9.535156 36.847656 9.484375 36.878906 9.425781 C 37.410156 8.417969 37.753906 7.351562 37.914062 6.230469 C 37.917969 6.179688 37.945312 6.136719 37.996094 6.097656 C 38.042969 6.058594 38.09375 6.039062 38.148438 6.039062 C 38.210938 6.046875 38.257812 6.074219 38.292969 6.121094 C 38.328125 6.160156 38.339844 6.210938 38.335938 6.261719 Z M 38.335938 6.261719 " fill-opacity="1" fill-rule="nonzero"/><path fill="#a6a6a6" d="M 43.472656 9.488281 C 43.984375 9.402344 44.386719 9.261719 44.683594 9.066406 C 44.980469 8.878906 45.203125 8.613281 45.347656 8.269531 C 45.496094 7.921875 45.589844 7.464844 45.625 6.898438 C 45.625 6.84375 45.640625 6.800781 45.675781 6.765625 C 45.71875 6.722656 45.765625 6.707031 45.820312 6.714844 C 45.875 6.714844 45.917969 6.734375 45.953125 6.773438 C 45.988281 6.8125 46.003906 6.855469 46.003906 6.90625 C 45.957031 7.84375 45.742188 8.535156 45.371094 8.976562 C 45 9.414062 44.394531 9.703125 43.554688 9.847656 C 43.503906 9.851562 43.457031 9.839844 43.410156 9.816406 C 43.367188 9.789062 43.339844 9.746094 43.328125 9.691406 C 43.320312 9.648438 43.332031 9.601562 43.359375 9.558594 C 43.390625 9.519531 43.429688 9.496094 43.472656 9.488281 Z M 43.234375 8.269531 C 43.1875 8.285156 43.136719 8.277344 43.089844 8.25 C 43.050781 8.214844 43.023438 8.175781 43.007812 8.125 C 42.898438 7.710938 42.808594 7.367188 42.734375 7.101562 C 42.71875 7.046875 42.726562 7 42.753906 6.960938 C 42.777344 6.917969 42.816406 6.890625 42.867188 6.878906 C 42.917969 6.863281 42.96875 6.871094 43.007812 6.898438 C 43.050781 6.925781 43.082031 6.964844 43.101562 7.011719 C 43.203125 7.378906 43.296875 7.726562 43.378906 8.054688 C 43.390625 8.101562 43.382812 8.148438 43.347656 8.1875 C 43.320312 8.230469 43.28125 8.257812 43.234375 8.269531 Z M 44.25 6.878906 C 44.359375 7.261719 44.457031 7.613281 44.539062 7.941406 C 44.550781 8 44.542969 8.050781 44.519531 8.09375 C 44.488281 8.136719 44.449219 8.164062 44.394531 8.175781 C 44.339844 8.183594 44.292969 8.175781 44.25 8.148438 C 44.210938 8.121094 44.183594 8.082031 44.167969 8.035156 C 44.078125 7.679688 43.984375 7.316406 43.882812 6.949219 C 43.867188 6.902344 43.875 6.855469 43.902344 6.816406 C 43.929688 6.769531 43.964844 6.738281 44.015625 6.722656 C 44.070312 6.71875 44.117188 6.730469 44.160156 6.753906 C 44.203125 6.78125 44.234375 6.824219 44.25 6.878906 Z M 44.25 6.878906 " fill-opacity="1" fill-rule="nonzero"/><path fill="#a6a6a6" d="M 48.035156 6.203125 C 47.996094 6.167969 47.984375 6.128906 47.984375 6.078125 C 47.984375 6.023438 47.996094 5.980469 48.035156 5.945312 C 48.066406 5.914062 48.109375 5.894531 48.167969 5.894531 L 51.007812 5.894531 C 51.0625 5.894531 51.105469 5.914062 51.140625 5.945312 C 51.175781 5.980469 51.195312 6.023438 51.195312 6.078125 C 51.195312 6.128906 51.175781 6.167969 51.140625 6.203125 C 51.105469 6.238281 51.0625 6.253906 51.007812 6.253906 L 48.167969 6.253906 C 48.109375 6.253906 48.066406 6.238281 48.035156 6.203125 Z M 48.320312 9.5 C 48.765625 9.355469 49.082031 9.148438 49.265625 8.875 C 49.453125 8.59375 49.554688 8.207031 49.5625 7.714844 C 49.5625 7.683594 49.546875 7.664062 49.519531 7.664062 L 47.574219 7.664062 C 47.523438 7.664062 47.480469 7.648438 47.4375 7.613281 C 47.402344 7.582031 47.386719 7.539062 47.386719 7.492188 C 47.386719 7.4375 47.402344 7.394531 47.4375 7.359375 C 47.480469 7.316406 47.523438 7.296875 47.574219 7.296875 L 51.605469 7.296875 C 51.648438 7.296875 51.691406 7.316406 51.726562 7.359375 C 51.769531 7.394531 51.789062 7.4375 51.789062 7.492188 C 51.789062 7.539062 51.769531 7.582031 51.726562 7.613281 C 51.691406 7.648438 51.648438 7.664062 51.605469 7.664062 L 50.035156 7.664062 C 50.007812 7.664062 49.992188 7.679688 49.992188 7.707031 C 49.984375 8.300781 49.859375 8.769531 49.613281 9.109375 C 49.367188 9.445312 48.972656 9.695312 48.433594 9.867188 C 48.386719 9.878906 48.335938 9.871094 48.289062 9.847656 C 48.242188 9.816406 48.210938 9.78125 48.199219 9.734375 C 48.183594 9.6875 48.1875 9.640625 48.207031 9.601562 C 48.234375 9.554688 48.273438 9.519531 48.320312 9.5 Z M 48.320312 9.5 " fill-opacity="1" fill-rule="nonzero"/><g clip-path="url(#b3dc26492f)"><path fill="#ff3131" d="M 9.316406 19.710938 C 7.519531 19.710938 6.0625 21.164062 6.0625 22.957031 L 6.0625 29.449219 C 6.0625 31.242188 7.519531 32.695312 9.316406 32.695312 L 15.820312 32.695312 C 17.613281 32.695312 19.070312 31.242188 19.070312 29.449219 L 19.070312 22.957031 C 19.070312 21.164062 17.613281 19.710938 15.820312 19.710938 Z M 9.316406 19.710938 " fill-opacity="1" fill-rule="nonzero"/></g><g clip-path="url(#4504b47b3d)"><path fill="#ffffff" d="M 9.054688 24.601562 C 9.054688 24.777344 9.125 24.941406 9.246094 25.0625 C 9.109375 25.210938 9.039062 25.410156 9.058594 25.621094 C 9.09375 25.992188 9.429688 26.285156 9.824219 26.285156 L 11.636719 26.285156 C 11.550781 26.558594 11.402344 27.058594 11.402344 27.457031 C 11.402344 28.09375 11.945312 28.628906 12.285156 28.628906 C 12.589844 28.628906 12.808594 28.457031 12.816406 28.453125 C 12.851562 28.425781 12.871094 28.382812 12.871094 28.335938 L 12.871094 27.34375 L 13.71875 25.515625 L 13.753906 25.496094 L 13.753906 25.550781 C 13.753906 25.632812 13.820312 25.699219 13.902344 25.699219 L 15.367188 25.699219 C 15.773438 25.699219 16.101562 25.371094 16.101562 24.964844 L 16.101562 22.621094 C 16.101562 22.21875 15.773438 21.890625 15.367188 21.890625 L 14.488281 21.890625 C 14.171875 21.890625 13.898438 22.09375 13.796875 22.375 C 13.550781 22.25 13.222656 22.183594 13.019531 22.183594 L 10.324219 22.183594 C 10.003906 22.183594 9.722656 22.398438 9.660156 22.695312 C 9.625 22.847656 9.644531 23 9.710938 23.132812 C 9.496094 23.242188 9.347656 23.464844 9.347656 23.71875 C 9.347656 23.824219 9.371094 23.925781 9.417969 24.015625 C 9.199219 24.125 9.054688 24.347656 9.054688 24.601562 Z M 14.488281 22.183594 L 15.367188 22.183594 C 15.613281 22.183594 15.808594 22.382812 15.808594 22.621094 L 15.808594 24.964844 C 15.808594 25.210938 15.613281 25.40625 15.367188 25.40625 L 15.367188 25.402344 L 14.046875 25.402344 L 14.046875 25.257812 C 14.046875 25.257812 14.046875 25.253906 14.046875 25.253906 L 14.046875 22.621094 C 14.046875 22.382812 14.246094 22.183594 14.488281 22.183594 Z M 9.675781 24.238281 C 9.730469 24.230469 9.78125 24.195312 9.796875 24.140625 C 9.816406 24.085938 9.800781 24.023438 9.757812 23.984375 C 9.683594 23.917969 9.644531 23.824219 9.644531 23.71875 C 9.644531 23.535156 9.78125 23.378906 9.96875 23.359375 C 10.027344 23.355469 10.074219 23.316406 10.089844 23.257812 C 10.109375 23.207031 10.09375 23.148438 10.050781 23.109375 C 9.953125 23.015625 9.914062 22.886719 9.945312 22.757812 C 9.984375 22.59375 10.140625 22.476562 10.324219 22.476562 L 13.019531 22.476562 C 13.238281 22.476562 13.589844 22.570312 13.753906 22.691406 L 13.753906 25.167969 L 13.542969 25.273438 C 13.511719 25.289062 13.488281 25.316406 13.472656 25.34375 L 12.59375 27.25 C 12.585938 27.269531 12.582031 27.289062 12.582031 27.308594 L 12.582031 28.253906 C 12.519531 28.289062 12.414062 28.335938 12.285156 28.335938 C 12.125 28.335938 11.699219 27.9375 11.699219 27.457031 C 11.699219 26.941406 11.980469 26.199219 11.984375 26.191406 C 12 26.144531 11.992188 26.09375 11.96875 26.054688 C 11.9375 26.015625 11.894531 25.992188 11.84375 25.992188 L 9.824219 25.992188 C 9.578125 25.992188 9.371094 25.816406 9.351562 25.59375 C 9.335938 25.425781 9.414062 25.269531 9.558594 25.179688 C 9.605469 25.152344 9.632812 25.101562 9.632812 25.046875 C 9.628906 24.996094 9.597656 24.949219 9.550781 24.921875 C 9.425781 24.863281 9.347656 24.734375 9.347656 24.601562 C 9.347656 24.417969 9.488281 24.261719 9.675781 24.238281 Z M 9.675781 24.238281 " fill-opacity="1" fill-rule="nonzero"/></g><path fill="#ffffff" d="M 10.007812 30.222656 L 10.007812 30.234375 C 10.007812 30.253906 9.996094 30.273438 9.976562 30.292969 C 9.960938 30.308594 9.945312 30.316406 9.925781 30.316406 L 9.390625 30.316406 C 9.371094 30.316406 9.351562 30.308594 9.332031 30.292969 C 9.316406 30.273438 9.308594 30.253906 9.308594 30.234375 L 9.308594 29.300781 C 9.308594 29.28125 9.316406 29.265625 9.332031 29.25 C 9.351562 29.230469 9.371094 29.21875 9.390625 29.21875 L 9.445312 29.21875 C 9.464844 29.21875 9.480469 29.230469 9.496094 29.25 C 9.515625 29.265625 9.527344 29.28125 9.527344 29.300781 L 9.527344 30.128906 C 9.527344 30.136719 9.527344 30.140625 9.535156 30.140625 L 9.925781 30.140625 C 9.945312 30.140625 9.960938 30.152344 9.976562 30.171875 C 9.996094 30.1875 10.007812 30.203125 10.007812 30.222656 Z M 10.007812 30.222656 " fill-opacity="1" fill-rule="nonzero"/><path fill="#ffffff" d="M 10.445312 29.269531 L 10.445312 29.28125 C 10.445312 29.300781 10.4375 29.320312 10.414062 29.34375 C 10.402344 29.359375 10.378906 29.363281 10.355469 29.363281 L 10.324219 29.363281 C 10.304688 29.363281 10.28125 29.359375 10.261719 29.34375 C 10.246094 29.320312 10.242188 29.300781 10.242188 29.28125 L 10.242188 29.269531 C 10.242188 29.25 10.246094 29.234375 10.261719 29.21875 C 10.28125 29.199219 10.304688 29.1875 10.324219 29.1875 L 10.355469 29.1875 C 10.378906 29.1875 10.402344 29.199219 10.414062 29.21875 C 10.4375 29.234375 10.445312 29.25 10.445312 29.269531 Z M 10.445312 29.617188 L 10.445312 30.234375 C 10.445312 30.253906 10.4375 30.273438 10.414062 30.292969 C 10.402344 30.308594 10.378906 30.316406 10.355469 30.316406 L 10.324219 30.316406 C 10.304688 30.316406 10.28125 30.308594 10.261719 30.292969 C 10.246094 30.273438 10.242188 30.253906 10.242188 30.234375 L 10.242188 29.617188 C 10.242188 29.597656 10.246094 29.582031 10.261719 29.566406 C 10.28125 29.546875 10.304688 29.535156 10.324219 29.535156 L 10.355469 29.535156 C 10.378906 29.535156 10.402344 29.546875 10.414062 29.566406 C 10.4375 29.582031 10.445312 29.597656 10.445312 29.617188 Z M 10.445312 29.617188 " fill-opacity="1" fill-rule="nonzero"/><path fill="#ffffff" d="M 10.886719 29.894531 L 10.886719 30.234375 C 10.886719 30.253906 10.878906 30.273438 10.859375 30.292969 C 10.84375 30.308594 10.828125 30.316406 10.804688 30.316406 L 10.785156 30.316406 C 10.757812 30.316406 10.734375 30.308594 10.714844 30.292969 C 10.699219 30.273438 10.695312 30.253906 10.695312 30.234375 L 10.695312 29.617188 C 10.695312 29.597656 10.699219 29.582031 10.714844 29.566406 C 10.734375 29.546875 10.757812 29.535156 10.785156 29.535156 L 10.796875 29.535156 C 10.816406 29.535156 10.832031 29.542969 10.847656 29.558594 C 10.867188 29.574219 10.878906 29.59375 10.878906 29.617188 L 10.878906 29.640625 C 10.878906 29.640625 10.878906 29.640625 10.886719 29.640625 C 10.914062 29.605469 10.949219 29.578125 10.992188 29.558594 C 11.039062 29.53125 11.085938 29.515625 11.132812 29.515625 C 11.222656 29.515625 11.289062 29.542969 11.328125 29.597656 C 11.375 29.65625 11.402344 29.746094 11.402344 29.875 L 11.402344 30.234375 C 11.402344 30.253906 11.390625 30.273438 11.371094 30.292969 C 11.355469 30.308594 11.335938 30.316406 11.308594 30.316406 L 11.289062 30.316406 C 11.269531 30.316406 11.246094 30.308594 11.226562 30.292969 C 11.210938 30.273438 11.207031 30.253906 11.207031 30.234375 L 11.207031 29.894531 C 11.207031 29.808594 11.195312 29.75 11.175781 29.722656 C 11.15625 29.6875 11.117188 29.671875 11.0625 29.671875 C 11.023438 29.671875 10.980469 29.695312 10.941406 29.742188 C 10.902344 29.78125 10.886719 29.832031 10.886719 29.894531 Z M 10.886719 29.894531 " fill-opacity="1" fill-rule="nonzero"/><path fill="#ffffff" d="M 11.800781 29.96875 L 11.800781 30.234375 C 11.800781 30.253906 11.789062 30.273438 11.769531 30.292969 C 11.753906 30.308594 11.738281 30.316406 11.71875 30.316406 L 11.6875 30.316406 C 11.664062 30.316406 11.644531 30.308594 11.625 30.292969 C 11.609375 30.273438 11.605469 30.253906 11.605469 30.234375 L 11.605469 29.269531 C 11.605469 29.25 11.609375 29.234375 11.625 29.21875 C 11.644531 29.199219 11.664062 29.1875 11.6875 29.1875 L 11.71875 29.1875 C 11.738281 29.1875 11.753906 29.199219 11.769531 29.21875 C 11.789062 29.234375 11.800781 29.25 11.800781 29.269531 L 11.800781 29.832031 L 12.046875 29.597656 C 12.078125 29.558594 12.128906 29.535156 12.1875 29.535156 L 12.25 29.535156 C 12.261719 29.535156 12.273438 29.542969 12.28125 29.558594 C 12.285156 29.574219 12.285156 29.582031 12.269531 29.589844 L 11.972656 29.894531 C 11.964844 29.902344 11.964844 29.910156 11.972656 29.914062 L 12.28125 30.253906 C 12.292969 30.269531 12.296875 30.28125 12.292969 30.292969 C 12.285156 30.308594 12.273438 30.316406 12.261719 30.316406 L 12.199219 30.316406 C 12.136719 30.316406 12.089844 30.292969 12.054688 30.253906 Z M 11.800781 29.96875 " fill-opacity="1" fill-rule="nonzero"/><path fill="#ffffff" d="M 12.679688 29.394531 L 12.679688 30.140625 C 12.679688 30.148438 12.679688 30.152344 12.6875 30.152344 C 12.722656 30.160156 12.753906 30.160156 12.78125 30.160156 C 12.902344 30.160156 12.996094 30.128906 13.058594 30.058594 C 13.117188 29.992188 13.148438 29.890625 13.148438 29.75 C 13.148438 29.5 13.027344 29.371094 12.78125 29.371094 C 12.753906 29.371094 12.722656 29.371094 12.6875 29.371094 C 12.679688 29.378906 12.679688 29.386719 12.679688 29.394531 Z M 13.34375 29.75 C 13.34375 29.9375 13.292969 30.078125 13.191406 30.183594 C 13.09375 30.277344 12.953125 30.324219 12.769531 30.324219 C 12.6875 30.324219 12.617188 30.320312 12.554688 30.316406 C 12.527344 30.316406 12.507812 30.308594 12.492188 30.292969 C 12.476562 30.273438 12.472656 30.25 12.472656 30.222656 L 12.472656 29.3125 C 12.472656 29.285156 12.476562 29.265625 12.492188 29.25 C 12.507812 29.230469 12.527344 29.21875 12.554688 29.210938 C 12.617188 29.203125 12.6875 29.199219 12.769531 29.199219 C 12.953125 29.199219 13.09375 29.246094 13.191406 29.34375 C 13.292969 29.441406 13.34375 29.574219 13.34375 29.75 Z M 13.34375 29.75 " fill-opacity="1" fill-rule="nonzero"/><path fill="#ffffff" d="M 13.835938 29.671875 C 13.773438 29.671875 13.726562 29.691406 13.691406 29.730469 C 13.65625 29.773438 13.640625 29.839844 13.640625 29.925781 C 13.640625 30.007812 13.65625 30.074219 13.691406 30.121094 C 13.726562 30.160156 13.773438 30.183594 13.835938 30.183594 C 13.898438 30.183594 13.945312 30.160156 13.980469 30.121094 C 14.011719 30.074219 14.03125 30.007812 14.03125 29.925781 C 14.03125 29.839844 14.011719 29.773438 13.980469 29.730469 C 13.945312 29.691406 13.898438 29.671875 13.835938 29.671875 Z M 14.113281 30.222656 C 14.042969 30.292969 13.949219 30.324219 13.828125 30.324219 C 13.707031 30.324219 13.617188 30.292969 13.550781 30.222656 C 13.480469 30.148438 13.445312 30.046875 13.445312 29.925781 C 13.445312 29.804688 13.480469 29.707031 13.550781 29.628906 C 13.617188 29.554688 13.707031 29.515625 13.828125 29.515625 C 13.949219 29.515625 14.042969 29.554688 14.113281 29.628906 C 14.1875 29.707031 14.226562 29.804688 14.226562 29.925781 C 14.226562 30.046875 14.1875 30.148438 14.113281 30.222656 Z M 14.113281 30.222656 " fill-opacity="1" fill-rule="nonzero"/><path fill="#ffffff" d="M 14.671875 30.316406 L 14.601562 30.316406 C 14.574219 30.316406 14.550781 30.308594 14.53125 30.292969 C 14.507812 30.273438 14.492188 30.253906 14.488281 30.234375 L 14.335938 29.617188 C 14.328125 29.597656 14.328125 29.582031 14.34375 29.566406 C 14.359375 29.546875 14.375 29.535156 14.394531 29.535156 L 14.4375 29.535156 C 14.457031 29.535156 14.476562 29.542969 14.5 29.558594 C 14.519531 29.574219 14.53125 29.59375 14.539062 29.617188 L 14.640625 30.152344 L 14.746094 29.617188 C 14.75 29.59375 14.761719 29.574219 14.777344 29.558594 C 14.796875 29.542969 14.820312 29.535156 14.847656 29.535156 L 14.917969 29.535156 C 14.945312 29.535156 14.964844 29.542969 14.980469 29.558594 C 15 29.574219 15.015625 29.59375 15.023438 29.617188 L 15.125 30.152344 L 15.226562 29.617188 C 15.230469 29.59375 15.246094 29.574219 15.269531 29.558594 C 15.289062 29.542969 15.308594 29.535156 15.328125 29.535156 L 15.359375 29.535156 C 15.386719 29.535156 15.402344 29.546875 15.410156 29.566406 C 15.425781 29.582031 15.433594 29.597656 15.433594 29.617188 L 15.269531 30.234375 C 15.261719 30.253906 15.246094 30.273438 15.226562 30.292969 C 15.207031 30.308594 15.1875 30.316406 15.164062 30.316406 L 15.082031 30.316406 C 15.0625 30.316406 15.042969 30.308594 15.023438 30.292969 C 15 30.273438 14.984375 30.253906 14.980469 30.234375 L 14.878906 29.710938 L 14.777344 30.234375 C 14.769531 30.253906 14.753906 30.273438 14.734375 30.292969 C 14.71875 30.308594 14.699219 30.316406 14.671875 30.316406 Z M 14.671875 30.316406 " fill-opacity="1" fill-rule="nonzero"/><path fill="#ffffff" d="M 15.78125 29.894531 L 15.78125 30.234375 C 15.78125 30.253906 15.769531 30.273438 15.75 30.292969 C 15.734375 30.308594 15.71875 30.316406 15.699219 30.316406 L 15.679688 30.316406 C 15.648438 30.316406 15.625 30.308594 15.605469 30.292969 C 15.589844 30.273438 15.585938 30.253906 15.585938 30.234375 L 15.585938 29.617188 C 15.585938 29.597656 15.589844 29.582031 15.605469 29.566406 C 15.625 29.546875 15.648438 29.535156 15.679688 29.535156 L 15.6875 29.535156 C 15.707031 29.535156 15.722656 29.542969 15.738281 29.558594 C 15.761719 29.574219 15.769531 29.59375 15.769531 29.617188 L 15.769531 29.640625 C 15.769531 29.640625 15.773438 29.640625 15.78125 29.640625 C 15.804688 29.605469 15.84375 29.578125 15.882812 29.558594 C 15.929688 29.53125 15.976562 29.515625 16.027344 29.515625 C 16.113281 29.515625 16.179688 29.542969 16.222656 29.597656 C 16.269531 29.65625 16.292969 29.746094 16.292969 29.875 L 16.292969 30.234375 C 16.292969 30.253906 16.285156 30.273438 16.261719 30.292969 C 16.246094 30.308594 16.226562 30.316406 16.203125 30.316406 L 16.179688 30.316406 C 16.160156 30.316406 16.140625 30.308594 16.117188 30.292969 C 16.105469 30.273438 16.097656 30.253906 16.097656 30.234375 L 16.097656 29.894531 C 16.097656 29.808594 16.089844 29.75 16.066406 29.722656 C 16.046875 29.6875 16.007812 29.671875 15.953125 29.671875 C 15.914062 29.671875 15.871094 29.695312 15.832031 29.742188 C 15.796875 29.78125 15.78125 29.832031 15.78125 29.894531 Z M 15.78125 29.894531 " fill-opacity="1" fill-rule="nonzero"/><path fill="#000000" d="M 34.855469 27.898438 C 34.902344 27.941406 34.929688 27.992188 34.929688 28.054688 C 34.929688 28.117188 34.902344 28.171875 34.855469 28.21875 C 34.816406 28.257812 34.765625 28.277344 34.703125 28.277344 L 32.386719 28.277344 C 32.28125 28.277344 32.191406 28.242188 32.117188 28.167969 C 32.042969 28.09375 32.003906 28.003906 32.003906 27.898438 L 32.003906 23.710938 C 32.003906 23.636719 32.03125 23.574219 32.085938 23.519531 C 32.140625 23.464844 32.207031 23.4375 32.28125 23.4375 C 32.355469 23.4375 32.421875 23.464844 32.476562 23.519531 C 32.53125 23.574219 32.558594 23.636719 32.558594 23.710938 L 32.558594 27.765625 C 32.558594 27.808594 32.578125 27.828125 32.621094 27.828125 L 34.703125 27.828125 C 34.765625 27.828125 34.816406 27.855469 34.855469 27.898438 Z M 34.855469 27.898438 " fill-opacity="1" fill-rule="nonzero"/><path fill="#000000" d="M 36.601562 23.558594 L 36.601562 23.773438 C 36.601562 23.84375 36.574219 23.90625 36.53125 23.957031 C 36.480469 24.007812 36.417969 24.03125 36.34375 24.03125 C 36.277344 24.03125 36.21875 24.007812 36.171875 23.957031 C 36.121094 23.90625 36.097656 23.84375 36.097656 23.773438 L 36.097656 23.558594 C 36.097656 23.492188 36.121094 23.433594 36.171875 23.386719 C 36.21875 23.332031 36.277344 23.304688 36.34375 23.304688 C 36.417969 23.304688 36.480469 23.332031 36.53125 23.386719 C 36.574219 23.433594 36.601562 23.492188 36.601562 23.558594 Z M 36.601562 25.085938 L 36.601562 28.023438 C 36.601562 28.09375 36.574219 28.152344 36.53125 28.207031 C 36.480469 28.257812 36.417969 28.277344 36.34375 28.277344 C 36.277344 28.277344 36.21875 28.257812 36.171875 28.207031 C 36.121094 28.152344 36.097656 28.09375 36.097656 28.023438 L 36.097656 25.085938 C 36.097656 25.019531 36.121094 24.960938 36.171875 24.910156 C 36.21875 24.855469 36.277344 24.828125 36.34375 24.828125 C 36.417969 24.828125 36.480469 24.855469 36.53125 24.910156 C 36.574219 24.960938 36.601562 25.019531 36.601562 25.085938 Z M 36.601562 25.085938 " fill-opacity="1" fill-rule="nonzero"/><path fill="#000000" d="M 38.355469 26.4375 L 38.355469 28.035156 C 38.355469 28.101562 38.328125 28.160156 38.285156 28.207031 C 38.234375 28.257812 38.175781 28.277344 38.109375 28.277344 C 38.046875 28.277344 37.992188 28.257812 37.945312 28.207031 C 37.894531 28.160156 37.871094 28.101562 37.871094 28.035156 L 37.871094 25.0625 C 37.871094 25.003906 37.894531 24.949219 37.933594 24.902344 C 37.980469 24.855469 38.035156 24.828125 38.097656 24.828125 C 38.160156 24.828125 38.214844 24.855469 38.261719 24.902344 C 38.316406 24.949219 38.34375 25.003906 38.34375 25.0625 L 38.34375 25.441406 C 38.359375 25.441406 38.367188 25.441406 38.367188 25.433594 C 38.488281 25.226562 38.652344 25.070312 38.859375 24.953125 C 39.066406 24.828125 39.292969 24.765625 39.535156 24.765625 C 39.925781 24.765625 40.210938 24.886719 40.398438 25.125 C 40.585938 25.367188 40.683594 25.746094 40.683594 26.273438 L 40.683594 28.042969 C 40.683594 28.105469 40.65625 28.160156 40.613281 28.207031 C 40.5625 28.257812 40.503906 28.277344 40.4375 28.277344 C 40.375 28.277344 40.320312 28.257812 40.273438 28.207031 C 40.226562 28.160156 40.203125 28.105469 40.203125 28.042969 L 40.203125 26.3125 C 40.203125 25.882812 40.140625 25.585938 40.015625 25.421875 C 39.894531 25.253906 39.679688 25.167969 39.382812 25.167969 C 39.121094 25.167969 38.882812 25.296875 38.671875 25.554688 C 38.460938 25.808594 38.355469 26.105469 38.355469 26.4375 Z M 38.355469 26.4375 " fill-opacity="1" fill-rule="nonzero"/><path fill="#000000" d="M 42.160156 26.660156 L 42.160156 28.035156 C 42.160156 28.101562 42.136719 28.160156 42.089844 28.207031 C 42.046875 28.257812 41.992188 28.277344 41.925781 28.277344 C 41.855469 28.277344 41.796875 28.257812 41.75 28.207031 C 41.703125 28.160156 41.679688 28.101562 41.679688 28.035156 L 41.679688 23.550781 C 41.679688 23.484375 41.703125 23.421875 41.75 23.375 C 41.796875 23.328125 41.855469 23.304688 41.925781 23.304688 C 41.992188 23.304688 42.046875 23.328125 42.089844 23.375 C 42.136719 23.421875 42.160156 23.484375 42.160156 23.550781 L 42.160156 26.273438 C 42.160156 26.28125 42.164062 26.28125 42.171875 26.28125 L 42.183594 26.273438 L 43.667969 25.023438 C 43.816406 24.894531 44.007812 24.828125 44.234375 24.828125 C 44.28125 24.828125 44.316406 24.855469 44.335938 24.902344 C 44.355469 24.949219 44.347656 24.988281 44.304688 25.023438 L 42.621094 26.425781 C 42.59375 26.453125 42.59375 26.476562 42.613281 26.496094 L 44.347656 28.0625 C 44.386719 28.101562 44.398438 28.144531 44.378906 28.199219 C 44.355469 28.253906 44.320312 28.277344 44.273438 28.277344 C 44.0625 28.277344 43.878906 28.207031 43.71875 28.0625 L 42.183594 26.652344 L 42.171875 26.652344 C 42.164062 26.652344 42.160156 26.65625 42.160156 26.660156 Z M 42.160156 26.660156 " fill-opacity="1" fill-rule="nonzero"/><path fill="#000000" d="M 45.773438 23.929688 L 45.773438 27.789062 C 45.773438 27.824219 45.792969 27.847656 45.835938 27.859375 C 46.003906 27.886719 46.199219 27.898438 46.417969 27.898438 C 47.757812 27.898438 48.429688 27.199219 48.429688 25.792969 C 48.429688 25.136719 48.257812 24.644531 47.917969 24.316406 C 47.574219 23.984375 47.074219 23.816406 46.417969 23.816406 C 46.199219 23.816406 46.003906 23.832031 45.835938 23.855469 C 45.792969 23.871094 45.773438 23.894531 45.773438 23.929688 Z M 48.941406 25.792969 C 48.941406 26.625 48.722656 27.261719 48.285156 27.695312 C 47.855469 28.125 47.230469 28.339844 46.417969 28.339844 C 46.125 28.339844 45.855469 28.324219 45.609375 28.300781 C 45.507812 28.285156 45.417969 28.238281 45.34375 28.15625 C 45.273438 28.074219 45.238281 27.980469 45.238281 27.871094 L 45.238281 23.847656 C 45.238281 23.738281 45.273438 23.640625 45.34375 23.558594 C 45.410156 23.476562 45.5 23.429688 45.609375 23.414062 C 45.855469 23.382812 46.125 23.363281 46.417969 23.363281 C 47.222656 23.363281 47.847656 23.578125 48.285156 24 C 48.722656 24.417969 48.941406 25.011719 48.941406 25.792969 Z M 48.941406 25.792969 " fill-opacity="1" fill-rule="nonzero"/><g clip-path="url(#1ba2996dd3)"><path fill="#000000" d="M 51.921875 25.523438 C 51.71875 25.28125 51.445312 25.15625 51.089844 25.15625 C 50.742188 25.15625 50.464844 25.28125 50.269531 25.523438 C 50.070312 25.769531 49.972656 26.117188 49.972656 26.558594 C 49.972656 26.996094 50.070312 27.335938 50.269531 27.582031 C 50.464844 27.828125 50.742188 27.953125 51.089844 27.953125 C 51.445312 27.953125 51.71875 27.828125 51.921875 27.582031 C 52.125 27.335938 52.226562 26.996094 52.226562 26.558594 C 52.226562 26.117188 52.125 25.769531 51.921875 25.523438 Z M 52.28125 27.859375 C 51.984375 28.183594 51.59375 28.339844 51.101562 28.339844 C 50.605469 28.339844 50.210938 28.183594 49.910156 27.859375 C 49.613281 27.539062 49.46875 27.105469 49.46875 26.558594 C 49.46875 26.007812 49.613281 25.570312 49.910156 25.25 C 50.210938 24.929688 50.605469 24.765625 51.101562 24.765625 C 51.59375 24.765625 51.984375 24.929688 52.28125 25.25 C 52.570312 25.570312 52.71875 26.007812 52.71875 26.558594 C 52.71875 27.105469 52.570312 27.539062 52.28125 27.859375 Z M 52.28125 27.859375 " fill-opacity="1" fill-rule="nonzero"/></g><g clip-path="url(#d3d0f43a42)"><path stroke-linecap="butt" transform="matrix(0.49121, 0, 0, 0.490232, 30.520331, 36.206914)" fill="none" stroke-linejoin="miter" d="M -0.00162836 0.502232 L 208.284923 0.502232 " stroke="#d9d9d9" stroke-width="1" stroke-opacity="1" stroke-miterlimit="4"/></g><path fill="#000000" d="M 32.378906 46.757812 L 32.378906 48.449219 C 32.378906 48.515625 32.355469 48.574219 32.308594 48.621094 C 32.261719 48.671875 32.199219 48.695312 32.132812 48.695312 C 32.074219 48.695312 32.015625 48.671875 31.96875 48.621094 C 31.921875 48.574219 31.898438 48.515625 31.898438 48.449219 L 31.898438 45.480469 C 31.898438 45.417969 31.917969 45.363281 31.960938 45.316406 C 32.007812 45.269531 32.0625 45.242188 32.125 45.242188 C 32.1875 45.242188 32.238281 45.269531 32.289062 45.316406 C 32.34375 45.363281 32.371094 45.417969 32.371094 45.480469 L 32.371094 45.808594 C 32.371094 45.8125 32.371094 45.816406 32.371094 45.816406 C 32.382812 45.816406 32.390625 45.8125 32.390625 45.796875 C 32.636719 45.386719 32.9375 45.183594 33.292969 45.183594 C 33.730469 45.183594 34.039062 45.398438 34.21875 45.828125 C 34.21875 45.835938 34.21875 45.835938 34.226562 45.835938 C 34.230469 45.835938 34.238281 45.835938 34.238281 45.828125 C 34.476562 45.398438 34.8125 45.183594 35.242188 45.183594 C 35.597656 45.183594 35.859375 45.289062 36.023438 45.5 C 36.191406 45.703125 36.277344 46.039062 36.277344 46.503906 L 36.277344 48.457031 C 36.277344 48.519531 36.253906 48.574219 36.207031 48.621094 C 36.167969 48.671875 36.109375 48.695312 36.042969 48.695312 C 35.972656 48.695312 35.914062 48.671875 35.867188 48.621094 C 35.828125 48.574219 35.808594 48.519531 35.808594 48.457031 L 35.808594 46.636719 C 35.808594 46.234375 35.753906 45.957031 35.652344 45.808594 C 35.550781 45.652344 35.375 45.570312 35.128906 45.570312 C 34.917969 45.570312 34.730469 45.679688 34.566406 45.898438 C 34.40625 46.109375 34.328125 46.367188 34.328125 46.667969 L 34.328125 48.457031 C 34.328125 48.519531 34.304688 48.574219 34.257812 48.621094 C 34.21875 48.671875 34.160156 48.695312 34.09375 48.695312 C 34.023438 48.695312 33.964844 48.671875 33.917969 48.621094 C 33.878906 48.574219 33.859375 48.519531 33.859375 48.457031 L 33.859375 46.636719 C 33.859375 46.242188 33.800781 45.964844 33.695312 45.808594 C 33.589844 45.652344 33.417969 45.570312 33.179688 45.570312 C 32.980469 45.570312 32.796875 45.6875 32.625 45.917969 C 32.460938 46.152344 32.378906 46.429688 32.378906 46.757812 Z M 32.378906 46.757812 " fill-opacity="1" fill-rule="nonzero"/><path fill="#000000" d="M 39.023438 46.871094 C 38.558594 46.871094 38.195312 46.949219 37.9375 47.105469 C 37.683594 47.265625 37.558594 47.476562 37.558594 47.742188 C 37.558594 47.941406 37.617188 48.097656 37.742188 48.210938 C 37.863281 48.332031 38.03125 48.386719 38.246094 48.386719 C 38.550781 48.386719 38.8125 48.277344 39.035156 48.058594 C 39.261719 47.832031 39.371094 47.566406 39.371094 47.25 L 39.371094 46.933594 C 39.371094 46.890625 39.351562 46.871094 39.3125 46.871094 Z M 38.132812 48.753906 C 37.808594 48.753906 37.550781 48.667969 37.363281 48.488281 C 37.167969 48.3125 37.074219 48.070312 37.074219 47.761719 C 37.074219 47.378906 37.242188 47.078125 37.578125 46.851562 C 37.917969 46.621094 38.402344 46.503906 39.023438 46.503906 L 39.3125 46.503906 C 39.351562 46.503906 39.371094 46.488281 39.371094 46.453125 C 39.363281 46.125 39.296875 45.894531 39.167969 45.765625 C 39.042969 45.636719 38.824219 45.570312 38.511719 45.570312 C 38.183594 45.570312 37.855469 45.644531 37.527344 45.785156 C 37.476562 45.808594 37.429688 45.808594 37.382812 45.785156 C 37.332031 45.765625 37.304688 45.734375 37.300781 45.683594 C 37.285156 45.621094 37.292969 45.566406 37.320312 45.507812 C 37.347656 45.457031 37.386719 45.417969 37.433594 45.398438 C 37.773438 45.253906 38.132812 45.183594 38.511719 45.183594 C 38.988281 45.183594 39.332031 45.28125 39.535156 45.480469 C 39.746094 45.679688 39.855469 46.007812 39.855469 46.460938 L 39.855469 47.761719 C 39.855469 47.996094 39.875 48.226562 39.917969 48.457031 C 39.921875 48.519531 39.90625 48.574219 39.863281 48.621094 C 39.828125 48.671875 39.78125 48.695312 39.722656 48.695312 C 39.652344 48.695312 39.589844 48.671875 39.535156 48.632812 C 39.488281 48.585938 39.460938 48.527344 39.453125 48.457031 C 39.4375 48.375 39.429688 48.257812 39.425781 48.101562 C 39.425781 48.085938 39.417969 48.078125 39.414062 48.078125 C 39.40625 48.078125 39.402344 48.085938 39.402344 48.101562 C 39.28125 48.304688 39.105469 48.464844 38.878906 48.582031 C 38.660156 48.695312 38.410156 48.753906 38.132812 48.753906 Z M 38.132812 48.753906 " fill-opacity="1" fill-rule="nonzero"/><path fill="#000000" d="M 41.621094 43.972656 L 41.621094 44.1875 C 41.621094 44.257812 41.59375 44.320312 41.550781 44.375 C 41.5 44.421875 41.4375 44.445312 41.363281 44.445312 C 41.296875 44.445312 41.238281 44.421875 41.191406 44.375 C 41.140625 44.320312 41.117188 44.257812 41.117188 44.1875 L 41.117188 43.972656 C 41.117188 43.90625 41.140625 43.847656 41.191406 43.800781 C 41.238281 43.746094 41.296875 43.71875 41.363281 43.71875 C 41.4375 43.71875 41.5 43.746094 41.550781 43.800781 C 41.59375 43.847656 41.621094 43.90625 41.621094 43.972656 Z M 41.621094 45.5 L 41.621094 48.4375 C 41.621094 48.507812 41.59375 48.570312 41.550781 48.621094 C 41.5 48.671875 41.4375 48.695312 41.363281 48.695312 C 41.296875 48.695312 41.238281 48.671875 41.191406 48.621094 C 41.140625 48.570312 41.117188 48.507812 41.117188 48.4375 L 41.117188 45.5 C 41.117188 45.433594 41.140625 45.375 41.191406 45.324219 C 41.238281 45.273438 41.296875 45.242188 41.363281 45.242188 C 41.4375 45.242188 41.5 45.273438 41.550781 45.324219 C 41.59375 45.375 41.621094 45.433594 41.621094 45.5 Z M 41.621094 45.5 " fill-opacity="1" fill-rule="nonzero"/><path fill="#000000" d="M 43.660156 43.972656 L 43.660156 48.4375 C 43.660156 48.507812 43.636719 48.570312 43.589844 48.621094 C 43.542969 48.671875 43.480469 48.695312 43.40625 48.695312 C 43.335938 48.695312 43.277344 48.671875 43.230469 48.621094 C 43.183594 48.570312 43.160156 48.507812 43.160156 48.4375 L 43.160156 43.972656 C 43.160156 43.90625 43.183594 43.847656 43.230469 43.800781 C 43.277344 43.746094 43.335938 43.71875 43.40625 43.71875 C 43.480469 43.71875 43.542969 43.746094 43.589844 43.800781 C 43.636719 43.847656 43.660156 43.90625 43.660156 43.972656 Z M 43.660156 43.972656 " fill-opacity="1" fill-rule="nonzero"/><g clip-path="url(#0b983a0ae0)"><path fill="#ffffff" d="M 9.3125 40.125 C 7.511719 40.125 6.054688 41.578125 6.054688 43.371094 L 6.054688 49.867188 C 6.054688 51.660156 7.511719 53.113281 9.3125 53.113281 L 15.820312 53.113281 C 17.613281 53.113281 19.074219 51.660156 19.074219 49.867188 L 19.074219 43.371094 C 19.074219 41.578125 17.613281 40.125 15.820312 40.125 Z M 9.3125 40.125 " fill-opacity="1" fill-rule="nonzero"/></g><g clip-path="url(#afd0d45e26)"><path fill="#ffde59" d="M 17.046875 43.023438 C 16.910156 42.96875 16.765625 42.941406 16.617188 42.941406 L 8.503906 42.941406 C 8.363281 42.941406 8.226562 42.96875 8.097656 43.023438 L 12.558594 46.746094 Z M 17.046875 43.023438 " fill-opacity="1" fill-rule="nonzero"/></g><g clip-path="url(#f911c69a8e)"><path fill="#ffde59" d="M 17.59375 43.527344 L 12.796875 47.507812 C 12.730469 47.566406 12.648438 47.59375 12.558594 47.59375 C 12.472656 47.59375 12.394531 47.566406 12.324219 47.507812 L 7.539062 43.511719 C 7.445312 43.679688 7.398438 43.855469 7.398438 44.042969 L 7.398438 49.199219 C 7.398438 49.34375 7.425781 49.484375 7.480469 49.621094 C 7.539062 49.753906 7.617188 49.875 7.722656 49.980469 C 7.824219 50.082031 7.945312 50.160156 8.082031 50.21875 C 8.214844 50.273438 8.355469 50.300781 8.503906 50.300781 L 16.617188 50.300781 C 16.761719 50.300781 16.90625 50.273438 17.039062 50.21875 C 17.175781 50.160156 17.296875 50.082031 17.398438 49.980469 C 17.503906 49.875 17.585938 49.753906 17.640625 49.621094 C 17.695312 49.484375 17.726562 49.34375 17.726562 49.199219 L 17.726562 44.042969 C 17.722656 43.863281 17.679688 43.691406 17.59375 43.527344 Z M 17.59375 43.527344 " fill-opacity="1" fill-rule="nonzero"/></g></svg>